<?xml version="1.0" encoding="utf-8"?>
<!-- Generator: Adobe Illustrator 25.3.1, SVG Export Plug-In . SVG Version: 6.00 Build 0)  -->
<svg version="1.1" id="Layer_1" xmlns="http://www.w3.org/2000/svg" xmlns:xlink="http://www.w3.org/1999/xlink" x="0px" y="0px"
	 viewBox="0 0 305.7 265.3" style="enable-background:new 0 0 305.7 265.3;" xml:space="preserve">
<style type="text/css">
	.st0{fill:#12263F;}
	.st1{fill:#265D99;}
	.st2{fill:url(#Trazado_99918_1_);}
	.st3{fill:url(#Trazado_99920_1_);}
	.st4{fill:url(#Trazado_99922_1_);}
	.st5{fill:url(#Trazado_99924_1_);}
	.st6{fill:url(#Trazado_99926_1_);}
	.st7{fill:url(#Trazado_99928_1_);}
	.st8{fill:url(#Trazado_99930_1_);}
	.st9{fill:url(#Trazado_99932_1_);}
	.st10{fill:#FFFFFF;}
	.st11{fill:#76C2DD;}
	.st12{fill:#CCF8FF;}
	.st13{fill:#D9DBDC;}
	.st14{fill:#FFF500;}
	.st15{fill:none;stroke:#EE6C4D;stroke-width:3;}
</style>
<g id="Grupo_84309" transform="translate(-865.762 -216.849)">
	<g id="Grupo_84308">
		<g id="Grupo_83372" transform="translate(763.613 120.432)">
			<g id="Grupo_83371" transform="translate(102.149 96.417)">
				<path id="Trazado_99916" class="st0" d="M261.6,132.6c0,60-48.7,108.7-108.7,108.7c-60,0-108.7-48.7-108.7-108.7
					S92.8,23.9,152.9,23.9c0,0,0,0,0,0C212.9,23.9,261.6,72.6,261.6,132.6C261.6,132.6,261.6,132.6,261.6,132.6z"/>
				<path id="Trazado_99917" class="st1" d="M259,132.6c0,58.6-47.5,106.2-106.2,106.2S46.7,191.3,46.7,132.6
					C46.7,74,94.2,26.5,152.9,26.5c0,0,0,0,0,0C211.5,26.5,259,74,259,132.6C259,132.6,259,132.6,259,132.6z"/>
				
					<radialGradient id="Trazado_99918_1_" cx="-787.7897" cy="663.7618" r="0.3095" gradientTransform="matrix(43.7692 0 0 -43.7607 34634.3438 29113.416)" gradientUnits="userSpaceOnUse">
					<stop  offset="0" style="stop-color:#FFF064"/>
					<stop  offset="0.427" style="stop-color:#FBCB6B"/>
					<stop  offset="0.778" style="stop-color:#F9B570"/>
					<stop  offset="1" style="stop-color:#F9AD72"/>
				</radialGradient>
				<path id="Trazado_99918" class="st2" d="M141.1,53.9l-0.9,0.1l4.2,26.5l0.9-0.1c5.4-0.8,10.9-0.8,16.3,0l0.9,0.1l4.2-26.5
					l-0.9-0.1C157.6,52.6,149.3,52.6,141.1,53.9L141.1,53.9z"/>
				<path id="Trazado_99919" class="st1" d="M153.5,78.9c2.8,0,5.5,0.2,8.3,0.6l3.9-24.7c-8.1-1.3-16.4-1.3-24.5,0l3.9,24.7
					C147.9,79.1,150.7,78.9,153.5,78.9z"/>
				
					<radialGradient id="Trazado_99920_1_" cx="-787.9644" cy="665.5837" r="0.3179" gradientTransform="matrix(44.1623 0 0 -44.1567 34952.8164 29588.4062)" gradientUnits="userSpaceOnUse">
					<stop  offset="0" style="stop-color:#FFF064"/>
					<stop  offset="0.427" style="stop-color:#FBCB6B"/>
					<stop  offset="0.778" style="stop-color:#F9B570"/>
					<stop  offset="1" style="stop-color:#F9AD72"/>
				</radialGradient>
				<path id="Trazado_99920" class="st3" d="M162.9,184.6c-5.8,1.1-11.7,1.1-17.6,0.2l-0.9-0.1l-4.1,26.6l0.9,0.1
					c8.8,1.3,17.7,1.2,26.5-0.3l0.9-0.2l-4.8-26.5L162.9,184.6z"/>
				<path id="Trazado_99921" class="st1" d="M153.5,186.4c-2.8,0-5.5-0.2-8.3-0.6l-3.8,24.8c8.7,1.3,17.5,1.2,26.2-0.3l-4.5-24.7
					C159.9,186.1,156.7,186.4,153.5,186.4z"/>
				
					<radialGradient id="Trazado_99922_1_" cx="-788.4387" cy="664.2763" r="0.3411" gradientTransform="matrix(43.363 0 0 -43.379 34403.2344 28926.6855)" gradientUnits="userSpaceOnUse">
					<stop  offset="0" style="stop-color:#FFF064"/>
					<stop  offset="0.427" style="stop-color:#FBCB6B"/>
					<stop  offset="0.778" style="stop-color:#F9B570"/>
					<stop  offset="1" style="stop-color:#F9AD72"/>
				</radialGradient>
				<path id="Trazado_99922" class="st4" d="M224.2,97.8l-23.5,11.1l0.4,0.8c2.2,4.5,3.7,9.3,4.5,14.2l0.2,0.9l26.6-4.2l-0.1-0.9
					c-1.2-7.5-3.5-14.7-6.8-21.5l-0.4-0.8L224.2,97.8z"/>
				<path id="Trazado_99923" class="st1" d="M201.9,109.3c2.2,4.6,3.7,9.4,4.6,14.4l24.8-3.9c-1.2-7.4-3.4-14.5-6.7-21.3
					L201.9,109.3z"/>
				
					<radialGradient id="Trazado_99924_1_" cx="-787.6851" cy="665.2373" r="0.3329" gradientTransform="matrix(45.4829 0 0 -45.474 35918.6562 30405.5879)" gradientUnits="userSpaceOnUse">
					<stop  offset="0" style="stop-color:#FFF064"/>
					<stop  offset="0.427" style="stop-color:#FBCB6B"/>
					<stop  offset="0.778" style="stop-color:#F9B570"/>
					<stop  offset="1" style="stop-color:#F9AD72"/>
				</radialGradient>
				<path id="Trazado_99924" class="st5" d="M100.2,140.4l-25.6,4.4l0.1,0.9c1.3,7.8,3.7,15.4,7.3,22.4l0.4,0.8l24-12.2L106,156
					c-2.3-4.7-3.9-9.7-4.7-14.8l-0.1-0.9L100.2,140.4z"/>
				<path id="Trazado_99925" class="st1" d="M100.4,141.3l-24.7,4.3c1.3,7.7,3.7,15.2,7.2,22.2l22.4-11.3
					C102.9,151.6,101.2,146.5,100.4,141.3z"/>
				
					<radialGradient id="Trazado_99926_1_" cx="-791.9991" cy="666.9526" r="0.312" gradientTransform="matrix(55.3697 0 0 -55.353 44048.332 37103.2617)" gradientUnits="userSpaceOnUse">
					<stop  offset="0" style="stop-color:#FFF064"/>
					<stop  offset="0.427" style="stop-color:#FBCB6B"/>
					<stop  offset="0.778" style="stop-color:#F9B570"/>
					<stop  offset="1" style="stop-color:#F9AD72"/>
				</radialGradient>
				<path id="Trazado_99926" class="st6" d="M192.1,168.6c-3.8,4.1-8.2,7.6-13.1,10.3l-0.8,0.4l12.9,23.6l0.8-0.4
					c7.4-4.1,14.1-9.3,19.8-15.5l0.6-0.7L192.8,168L192.1,168.6z"/>
				<path id="Trazado_99927" class="st1" d="M179.4,179.7l12,22c7.3-4,13.9-9.2,19.6-15.3l-18.3-17.1
					C188.9,173.4,184.4,176.9,179.4,179.7z"/>
				
					<radialGradient id="Trazado_99928_1_" cx="-791.0855" cy="665.8108" r="0.3133" gradientTransform="matrix(55.2092 0 0 -55.219 43788.043 36844.0938)" gradientUnits="userSpaceOnUse">
					<stop  offset="0" style="stop-color:#FFF064"/>
					<stop  offset="0.427" style="stop-color:#FBCB6B"/>
					<stop  offset="0.778" style="stop-color:#F9B570"/>
					<stop  offset="1" style="stop-color:#F9AD72"/>
				</radialGradient>
				<path id="Trazado_99928" class="st7" d="M117.1,61.7c-7.6,3.9-14.5,9-20.5,15.1l-0.6,0.7l19.3,18.7l0.6-0.6
					c4-4,8.5-7.3,13.5-9.9l0.8-0.4l-12.3-23.9L117.1,61.7z"/>
				<path id="Trazado_99929" class="st1" d="M129,84.8l-11.5-22.3c-7.5,3.9-14.3,8.9-20.3,14.9l18,17.5
					C119.2,90.8,123.9,87.4,129,84.8z"/>
				
					<radialGradient id="Trazado_99930_1_" cx="-792.0067" cy="665.839" r="0.3133" gradientTransform="matrix(55.4708 0 0 -55.445 44127.1641 36996.0156)" gradientUnits="userSpaceOnUse">
					<stop  offset="0" style="stop-color:#FFF064"/>
					<stop  offset="0.427" style="stop-color:#FBCB6B"/>
					<stop  offset="0.778" style="stop-color:#F9B570"/>
					<stop  offset="1" style="stop-color:#F9AD72"/>
				</radialGradient>
				<path id="Trazado_99930" class="st8" d="M188.2,61.9L176.5,85l0.8,0.4c5.1,2.6,9.7,5.9,13.7,10l0.6,0.6l19.2-18.8l-0.6-0.6
					c-6.1-6.2-13.1-11.3-20.8-15.2l-0.8-0.4L188.2,61.9z"/>
				<path id="Trazado_99931" class="st1" d="M191.7,94.8l17.9-17.5c-6-6.1-12.9-11.2-20.5-15l-11.4,22.4
					C182.9,87.3,187.6,90.7,191.7,94.8z"/>
				
					<radialGradient id="Trazado_99932_1_" cx="-791.2628" cy="667.0209" r="0.3114" gradientTransform="matrix(55.8716 0 0 -55.847 44322.3086 37437.9375)" gradientUnits="userSpaceOnUse">
					<stop  offset="0" style="stop-color:#FFF064"/>
					<stop  offset="0.427" style="stop-color:#FBCB6B"/>
					<stop  offset="0.778" style="stop-color:#F9B570"/>
					<stop  offset="1" style="stop-color:#F9AD72"/>
				</radialGradient>
				<path id="Trazado_99932" class="st9" d="M114.7,169.8l-18.3,18.4l0.6,0.6c6.1,6.2,13.2,11.3,21,15.1l0.8,0.4l11.8-24.2l-0.8-0.4
					c-5.2-2.6-9.9-6-13.9-10.1l-0.6-0.7L114.7,169.8z"/>
				<path id="Trazado_99933" class="st1" d="M115.3,170.5l-17.7,17.8c6.1,6.1,13.1,11.1,20.8,15l11-22.5
					C124.2,178.1,119.4,174.6,115.3,170.5z"/>
				<g id="Grupo_83357" transform="translate(46.863 47.174)">
					<path id="Trazado_99934" class="st0" d="M184.2,71.8l-25.7,4.1l0.1,0.9c0.9,5.3,1,10.8,0.2,16.2l-0.1,0.9l26.6,4.1l0.1-0.9
						c1.2-8.1,1.1-16.4-0.2-24.4l-0.1-0.9L184.2,71.8z"/>
					<path id="Trazado_99935" class="st10" d="M160.4,85.4c0,2.6-0.2,5.1-0.6,7.6l24.8,3.8c1.2-8,1.1-16.2-0.2-24.2l-24.8,3.9
						C160.1,79.5,160.3,82.5,160.4,85.4z"/>
					<path id="Trazado_99936" class="st0" d="M27.7,73.8c-1.2,8.2-1.1,16.5,0.2,24.6l0.1,0.9l26.5-4.6l-0.1-0.9
						c-0.9-5.4-0.9-10.9-0.1-16.3l0.1-0.9l-26.6-3.7L27.7,73.8z"/>
					<path id="Trazado_99937" class="st10" d="M52.8,85.4c0-2.7,0.2-5.3,0.6-8L28.6,74c-1.2,8.1-1.1,16.3,0.2,24.3L53.5,94
						C53.1,91.2,52.8,88.3,52.8,85.4z"/>
					<path id="Trazado_99938" class="st0" d="M132.1,131.8c-5,2.7-10.4,4.7-16,5.7l-0.9,0.2l4.8,26.5l0.9-0.2
						c8.4-1.5,16.6-4.4,24.1-8.6l0.8-0.4l-12.9-23.6L132.1,131.8z"/>
					<path id="Trazado_99939" class="st10" d="M116.2,138.3l4.5,24.7c8.3-1.5,16.4-4.4,23.8-8.5l-12.1-22
						C127.4,135.3,121.9,137.3,116.2,138.3z"/>
					<path id="Trazado_99940" class="st0" d="M94.2,6.7c-8.3,1.3-16.4,3.9-23.9,7.8l-0.8,0.4l12.4,23.9l0.8-0.4
						c4.9-2.5,10.3-4.3,15.8-5.1l0.9-0.1L95.1,6.5L94.2,6.7z"/>
					<path id="Trazado_99941" class="st10" d="M98.2,32.3L94.3,7.6c-8.2,1.3-16.2,3.9-23.7,7.7l11.5,22.3
						C87.2,35,92.6,33.2,98.2,32.3z"/>
					<path id="Trazado_99942" class="st0" d="M162.1,29.5l-18.6,18.2l0.6,0.7c4.1,4.1,7.5,8.9,10,14.1l0.4,0.8l24.3-11.5l-0.4-0.8
						c-3.8-7.9-8.9-15.2-15.1-21.4l-0.6-0.6L162.1,29.5z"/>
					<path id="Trazado_99943" class="st10" d="M155,62l22.7-10.7c-3.8-7.8-8.8-15-14.9-21.2l-17.9,17.5C149,51.9,152.4,56.7,155,62z
						"/>
					<path id="Trazado_99944" class="st0" d="M58,108.5l-23.2,11.7l0.4,0.8c3.7,7.5,8.6,14.4,14.5,20.3l0.6,0.7l19-19l-0.6-0.6
						c-3.9-4-7.1-8.5-9.6-13.5l-0.4-0.8L58,108.5z"/>
					<path id="Trazado_99945" class="st10" d="M58.4,109.3L36,120.6c3.7,7.4,8.5,14.2,14.3,20.1L68.1,123
						C64.2,118.9,60.9,114.3,58.4,109.3z"/>
					<path id="Trazado_99946" class="st0" d="M154.8,107.1c-2.3,5.1-5.4,9.9-9.2,14l-0.6,0.7l19.7,18.3l0.6-0.7
						c5.8-6.3,10.5-13.4,14-21.1l0.4-0.8l-24.5-11.2L154.8,107.1z"/>
					<path id="Trazado_99947" class="st10" d="M146.3,121.7l7.1,6.5l11.3,10.5c5.7-6.2,10.4-13.2,13.8-20.9l-22.8-10.4
						C153.3,112.7,150.1,117.5,146.3,121.7z"/>
					<path id="Trazado_99948" class="st0" d="M49.3,30c-5.7,5.9-10.4,12.6-14.1,19.9l-0.4,0.8L59,62.5l0.4-0.8
						c2.4-4.8,5.6-9.2,9.3-13.1l0.6-0.7L49.9,29.4L49.3,30z"/>
					<path id="Trazado_99949" class="st10" d="M68,48L50,30.6C44.3,36.5,39.6,43.1,36,50.3l22.5,11C61,56.4,64.2,51.9,68,48z"/>
					<path id="Trazado_99950" class="st0" d="M118,7.4l-1.8,11.6l-2.2,14l0.9,0.1c5.4,0.8,10.6,2.5,15.5,5l0.8,0.4l12.2-24l-0.8-0.4
						c-7.4-3.7-15.4-6.3-23.6-7.6l-0.9-0.1L118,7.4z"/>
					<path id="Trazado_99951" class="st10" d="M130.7,37.4l11.4-22.3c-7.3-3.7-15.2-6.2-23.3-7.5L115,32.3
						C120.5,33.2,125.8,34.9,130.7,37.4z"/>
					<path id="Trazado_99952" class="st0" d="M81.9,133.2l-11.4,23.3l0.8,0.4c7.3,3.6,15.1,6.1,23.1,7.3l0.9,0.1l4-26.6l-0.9-0.1
						c-5.3-0.8-10.5-2.5-15.3-4.9l-0.8-0.4L81.9,133.2z"/>
					<path id="Trazado_99953" class="st10" d="M82.7,133.6l-11,22.5c7.2,3.6,14.9,6,22.9,7.2l3.8-24.8
						C92.8,137.7,87.6,136,82.7,133.6z"/>
				</g>
				<path id="Trazado_99954" class="st0" d="M205.8,140.2c-0.7,4.8-2.1,9.5-4.1,14l-0.4,0.8l24.5,11.2l0.4-0.8
					c3-6.7,5.1-13.9,6.2-21.2l0.1-0.9l-26.6-4L205.8,140.2z"/>
				<path id="Trazado_99955" class="st1" d="M202.5,154.6l22.8,10.4c3-6.7,5.1-13.7,6.1-20.9l-24.8-3.8
					C206,145.2,204.6,150,202.5,154.6z"/>
				<g id="Grupo_83358" transform="translate(37.225 34.994)">
					<path id="Trazado_99956" class="st0" d="M102.8,12.1l-0.9,0.1l1.4,8.6l0.9-0.1c8-1.2,16.2-1.2,24.2,0l0.9,0.1l1.4-8.6l-0.9-0.1
						C120.8,10.7,111.7,10.7,102.8,12.1L102.8,12.1z"/>
					<path id="Trazado_99957" class="st11" d="M116.2,18.8c4.1,0,8.2,0.3,12.2,0.9l1.1-6.8c-8.8-1.4-17.8-1.4-26.6,0l1.1,6.8
						C108,19.1,112.1,18.8,116.2,18.8z"/>
					<path id="Trazado_99958" class="st0" d="M130.2,174.3c-8.5,1.5-17.3,1.7-25.9,0.3l-0.9-0.1l-1.3,8.6l0.9,0.1
						c9.5,1.5,19.2,1.3,28.7-0.4l0.9-0.2l-1.6-8.6L130.2,174.3z"/>
					<path id="Trazado_99959" class="st11" d="M116.2,176.4c-4,0-8.1-0.3-12.1-0.9l-1,6.8c9.4,1.4,19,1.3,28.4-0.4l-1.2-6.8
						C125.7,176,121,176.4,116.2,176.4z"/>
					<path id="Trazado_99960" class="st0" d="M193.2,59.8l-7,3.3l0.4,0.8c3.2,6.7,5.4,13.7,6.6,21l0.1,0.9l8.6-1.4l-0.1-0.9
						c-1.3-8.1-3.8-16-7.3-23.4l-0.4-0.8L193.2,59.8z"/>
					<path id="Trazado_99961" class="st11" d="M194,84.8l6.8-1.1c-1.3-8-3.7-15.8-7.3-23.1l-6.2,2.9C190.6,70.3,192.8,77.5,194,84.8
						z"/>
					<path id="Trazado_99962" class="st0" d="M38.3,109.6l-7.7,1.3l0.1,0.9c1.4,8.5,4.1,16.7,7.9,24.4l0.4,0.8l7.8-3.9l-0.4-0.8
						c-3.4-6.9-5.8-14.3-7.1-21.9l-0.1-0.9L38.3,109.6z"/>
					<path id="Trazado_99963" class="st11" d="M38.5,110.5l-6.8,1.2c1.4,8.4,4,16.5,7.8,24.1l6.1-3.1
						C42.2,125.7,39.7,118.2,38.5,110.5z"/>
					<path id="Trazado_99964" class="st0" d="M173.2,150.8c-5.6,6-12.2,11.1-19.4,15.1l-0.8,0.4l4.2,7.6l0.8-0.4
						c8-4.4,15.3-10.1,21.6-16.8l0.6-0.7l-6.3-5.9L173.2,150.8z"/>
					<path id="Trazado_99965" class="st11" d="M154.2,166.7l3.3,6c7.9-4.4,15.1-10,21.3-16.6l-5-4.7
						C168.2,157.5,161.5,162.7,154.2,166.7z"/>
					<path id="Trazado_99966" class="st0" d="M76.7,20.6c-8.3,4.2-15.8,9.8-22.3,16.4l-0.6,0.7l6.2,6.1l0.6-0.6
						c5.8-6,12.6-10.9,20-14.8l0.8-0.4l-4-7.7L76.7,20.6z"/>
					<path id="Trazado_99967" class="st11" d="M80.3,27.5l-3.1-6.1c-8.2,4.2-15.6,9.7-22,16.2l4.9,4.8
						C65.9,36.4,72.8,31.3,80.3,27.5z"/>
					<path id="Trazado_99968" class="st0" d="M154.1,20.8l-3.5,6.9l0.8,0.4c7.5,3.8,14.4,8.8,20.3,14.9l0.6,0.6l6.2-6.1l-0.6-0.7
						c-6.6-6.7-14.2-12.3-22.6-16.5l-0.8-0.4L154.1,20.8z"/>
					<path id="Trazado_99969" class="st11" d="M172.4,42.3l4.9-4.8c-6.5-6.6-14.1-12.2-22.4-16.4l-3.1,6.1
						C159.4,31.2,166.4,36.2,172.4,42.3z"/>
					<path id="Trazado_99970" class="st0" d="M59.8,152.6l-5.5,5.5l0.6,0.6c6.7,6.7,14.4,12.2,22.9,16.4l0.8,0.4l3.8-7.8l-0.8-0.4
						c-7.6-3.8-14.6-8.8-20.6-14.8l-0.6-0.6L59.8,152.6z"/>
					<path id="Trazado_99971" class="st11" d="M60.4,153.3l-4.8,4.9c6.6,6.6,14.2,12.1,22.6,16.3l3-6.2
						C73.5,164.4,66.5,159.4,60.4,153.3z"/>
					<path id="Trazado_99972" class="st0" d="M193.3,108.9c-1,7.1-3.1,14.1-6,20.7l-0.4,0.8l7.9,3.6l0.4-0.8
						c3.3-7.3,5.6-15.1,6.7-23l0.1-0.9l-8.6-1.3L193.3,108.9z"/>
					<path id="Trazado_99973" class="st11" d="M188.1,130l6.3,2.9c3.3-7.2,5.5-14.9,6.6-22.8l-6.8-1
						C193.2,116.3,191.1,123.3,188.1,130z"/>
					<path id="Trazado_99974" class="st0" d="M38.7,59.1C34.6,67.3,31.9,76,30.6,85l-0.1,0.9l8.6,1.2l0.1-0.9
						c1.2-8.1,3.7-16,7.3-23.3l0.4-0.8l-7.8-3.8L38.7,59.1z"/>
					<path id="Trazado_99975" class="st11" d="M45.6,62.5l-6.2-3c-4,8.1-6.7,16.7-8,25.6l6.8,0.9C39.5,77.9,42,70,45.6,62.5z"/>
				</g>
				<path id="Trazado_99976" class="st0" d="M82.1,97.1c-3.7,7.5-6.3,15.6-7.5,23.8l-0.1,0.9l26.6,3.7l0.1-0.9
					c0.8-5.5,2.5-10.8,5-15.7l0.4-0.8L82.5,96.3L82.1,97.1z"/>
				<path id="Trazado_99977" class="st1" d="M105.4,108.6l-22.5-11c-3.7,7.4-6.2,15.4-7.4,23.6l5,0.7l2.4,0.3l17.4,2.4
					C101.1,119,102.9,113.6,105.4,108.6z"/>
				<g id="Grupo_83359" transform="translate(35.985 36.424)">
					<path id="Trazado_99978" class="st0" d="M201.9,81.5l-7.7,1.2l0.1,0.9c1.3,7.9,1.4,16,0.2,23.9l-0.1,0.9l8.6,1.3l0.1-0.9
						c1.3-8.8,1.2-17.8-0.2-26.6l-0.1-0.9L201.9,81.5z"/>
					<path id="Trazado_99979" class="st12" d="M196.3,96.2c0,3.8-0.3,7.6-0.8,11.4l6.8,1c1.3-8.7,1.2-17.6-0.2-26.3l-6.8,1.1
						C195.9,87.7,196.3,91.9,196.3,96.2z"/>
					<path id="Trazado_99980" class="st0" d="M31.8,83.6c-1.3,8.9-1.2,17.9,0.2,26.8l0.2,0.9l8.6-1.5l-0.1-0.9
						c-1.3-8-1.4-16.1-0.2-24.1l0.1-0.9l-8.6-1.2L31.8,83.6z"/>
					<path id="Trazado_99981" class="st12" d="M38.7,96.2c0-3.8,0.3-7.7,0.8-11.5l-6.8-1c-1.3,8.8-1.2,17.7,0.2,26.5l6.8-1.2
						C39,104.8,38.7,100.5,38.7,96.2z"/>
					<path id="Trazado_99982" class="st0" d="M155,164.5c-7.3,4-15.3,6.9-23.5,8.4l-0.9,0.2l1.6,8.6l0.9-0.2
						c9.2-1.7,18-4.8,26.2-9.3l0.8-0.4l-4.2-7.6L155,164.5z"/>
					<path id="Trazado_99983" class="st12" d="M131.6,173.7l1.2,6.8c9.1-1.6,17.8-4.8,25.9-9.2l-3.3-6
						C148,169.4,140,172.2,131.6,173.7z"/>
					<path id="Trazado_99984" class="st0" d="M104,10.6c-9.1,1.4-17.9,4.3-26,8.5l-0.8,0.4l4,7.7l0.8-0.4c7.3-3.8,15.2-6.3,23.4-7.6
						l0.9-0.1l-1.4-8.6L104,10.6z"/>
					<path id="Trazado_99985" class="st12" d="M105.2,18.3l-1.1-6.8c-9,1.4-17.7,4.2-25.7,8.4l3.2,6.1C89,22.2,97,19.6,105.2,18.3z"
						/>
					<path id="Trazado_99986" class="st0" d="M177.9,35.5l-5.6,5.4l0.6,0.7c6,6.1,11,13.2,14.7,20.9l0.4,0.8l7.9-3.7l-0.4-0.8
						c-4.1-8.6-9.7-16.5-16.4-23.3l-0.6-0.6L177.9,35.5z"/>
					<path id="Trazado_99987" class="st12" d="M188.6,62.1l6.2-2.9c-4.1-8.5-9.6-16.3-16.2-23.1l-4.9,4.8
						C179.7,47.1,184.8,54.3,188.6,62.1z"/>
					<path id="Trazado_99988" class="st0" d="M46.5,130.5l-6.9,3.5l0.4,0.8c4.1,8.1,9.4,15.6,15.8,22.1l0.6,0.7l6.2-6.1l-0.6-0.6
						c-5.7-5.8-10.5-12.5-14.2-19.9l-0.4-0.8L46.5,130.5z"/>
					<path id="Trazado_99989" class="st12" d="M46.9,131.3l-6.1,3.1c4,8.1,9.3,15.4,15.6,21.8l4.9-4.9
						C55.4,145.5,50.6,138.7,46.9,131.3z"/>
					<path id="Trazado_99990" class="st0" d="M188.5,128.2c-3.4,7.6-8,14.5-13.7,20.7l-0.6,0.7l6.4,5.9l0.6-0.7
						c6.3-6.8,11.4-14.5,15.2-23l0.4-0.8l-7.9-3.6L188.5,128.2z"/>
					<path id="Trazado_99991" class="st12" d="M175.5,149.5l5,4.7c6.2-6.7,11.3-14.4,15-22.7l-6.3-2.8
						C185.9,136.3,181.2,143.3,175.5,149.5z"/>
					<path id="Trazado_99992" class="st0" d="M55.2,36C49,42.4,43.9,49.7,39.9,57.6l-0.4,0.8l7.8,3.8l0.4-0.8
						c3.6-7.1,8.2-13.7,13.8-19.4l0.6-0.7l-6.3-6L55.2,36z"/>
					<path id="Trazado_99993" class="st12" d="M60.8,41.4l-5-4.8C49.8,43,44.7,50.2,40.7,58l6.2,3C50.5,53.8,55.2,47.2,60.8,41.4z"
						/>
					<path id="Trazado_99994" class="st0" d="M129.9,11.4l-1.2,7.7l0.9,0.1c8,1.3,15.8,3.8,23,7.4l0.8,0.4l4-7.7l-0.8-0.4
						c-8-4.1-16.7-6.9-25.6-8.3l-0.9-0.1L129.9,11.4z"/>
					<path id="Trazado_99995" class="st12" d="M153,25.8l3.1-6.1c-8-4-16.5-6.8-25.3-8.2l-1.1,6.8C137.8,19.6,145.7,22.1,153,25.8z"
						/>
					<path id="Trazado_99996" class="st0" d="M81.7,166.4l-3.4,7l0.8,0.4c7.9,3.9,16.4,6.6,25.1,8l0.9,0.1l1.3-8.6l-0.9-0.1
						c-7.9-1.2-15.5-3.6-22.6-7.2l-0.8-0.4L81.7,166.4z"/>
					<path id="Trazado_99997" class="st12" d="M82.5,166.8l-3,6.2c7.8,3.9,16.2,6.5,24.9,7.9l1-6.8
						C97.4,172.9,89.7,170.4,82.5,166.8z"/>
					<path id="Trazado_99998" class="st0" d="M170.4,86.5l-5.7,0.9l0.2,0.9c0.8,4.9,0.9,9.8,0.2,14.7l-0.1,0.9l6.6,1l0.1-0.9
						c0.4-2.6,0.6-5.2,0.6-7.8c0-3-0.3-6-0.7-9l-0.1-0.9L170.4,86.5z"/>
					<path id="Trazado_99999" class="st12" d="M166.4,96.2c0,2.3-0.2,4.6-0.5,6.9l4.8,0.7c0.8-5.5,0.7-11-0.2-16.4l-4.8,0.8
						C166.2,90.8,166.4,93.5,166.4,96.2z"/>
					<path id="Trazado_100000" class="st0" d="M63.4,88.1c-0.8,5.6-0.8,11.3,0.1,16.8l0.1,0.9l6.6-1.1l-0.1-0.9
						c-0.8-4.9-0.8-9.9-0.1-14.8l0.1-0.9l-6.6-0.9L63.4,88.1z"/>
					<path id="Trazado_100001" class="st12" d="M68.6,96.2c0-2.4,0.2-4.9,0.5-7.3l-4.8-0.7c-0.8,5.5-0.8,11.1,0.1,16.6l4.8-0.8
						C68.8,101.4,68.6,98.8,68.6,96.2z"/>
					<path id="Trazado_100002" class="st0" d="M140.6,138.3c-4.5,2.5-9.4,4.2-14.5,5.1l-0.9,0.2l1.2,6.6l0.9-0.2
						c5.8-1,11.4-3,16.5-5.9l0.8-0.4l-3.2-5.8L140.6,138.3z"/>
					<path id="Trazado_100003" class="st12" d="M126.3,144.3l0.9,4.8c5.7-1,11.2-3,16.2-5.8l-2.3-4.3
						C136.4,141.6,131.4,143.4,126.3,144.3z"/>
					<path id="Trazado_100004" class="st0" d="M109,42.2c-5.7,0.9-11.2,2.7-16.3,5.3l-0.8,0.4l3.1,5.9l0.8-0.4
						c4.5-2.3,9.3-3.9,14.3-4.6l0.9-0.1l-1-6.6L109,42.2z"/>
					<path id="Trazado_100005" class="st12" d="M109.9,47.9l-0.8-4.8c-5.6,0.9-11,2.6-16,5.2l2.2,4.3
						C99.9,50.3,104.8,48.7,109.9,47.9z"/>
					<path id="Trazado_100006" class="st0" d="M155.1,57.8l-4.1,4l0.6,0.7c3.7,3.7,6.8,8.1,9.1,12.8l0.4,0.8l6-2.8l-0.4-0.8
						c-2.6-5.4-6.1-10.3-10.3-14.6l-0.6-0.6L155.1,57.8z"/>
					<path id="Trazado_100007" class="st12" d="M161.5,74.9l4.4-2.1c-2.6-5.3-6-10.2-10.2-14.4l-3.5,3.4
						C156,65.6,159.1,70,161.5,74.9z"/>
					<path id="Trazado_100008" class="st0" d="M73.2,117l-5.1,2.6l0.4,0.8c2.5,5.1,5.9,9.8,9.9,13.9L79,135l4.7-4.7l-0.6-0.6
						c-3.5-3.6-6.4-7.7-8.7-12.2l-0.4-0.8L73.2,117z"/>
					<path id="Trazado_100009" class="st12" d="M73.6,117.8l-4.3,2.2c2.5,5,5.8,9.7,9.7,13.7l3.4-3.4
						C78.9,126.6,75.9,122.4,73.6,117.8z"/>
					<path id="Trazado_100010" class="st0" d="M161.3,115.8c-2.1,4.7-4.9,9-8.4,12.7l-0.6,0.7l4.9,4.5l0.6-0.7
						c3.9-4.3,7.2-9.2,9.5-14.5l0.4-0.8l-6.1-2.8L161.3,115.8z"/>
					<path id="Trazado_100011" class="st12" d="M153.6,129.2l3.6,3.3c3.9-4.2,7-9,9.4-14.3l-4.4-2C160,121,157.1,125.3,153.6,129.2z
						"/>
					<path id="Trazado_100012" class="st0" d="M78.3,58.1c-3.9,4-7.1,8.6-9.6,13.5l-0.4,0.8l6,2.9l0.4-0.8c2.2-4.4,5.1-8.4,8.5-11.9
						l0.6-0.7l-4.8-4.6L78.3,58.1z"/>
					<path id="Trazado_100013" class="st12" d="M82.4,62.1l-3.5-3.4c-3.8,3.9-7,8.4-9.5,13.3l4.4,2.1C76,69.8,78.9,65.7,82.4,62.1z"
						/>
					<path id="Trazado_100014" class="st0" d="M124.9,42.9l-0.9,5.7l0.9,0.1c4.9,0.8,9.6,2.3,14.1,4.5l0.8,0.4l3-5.9l-0.8-0.4
						c-5-2.5-10.5-4.3-16.1-5.2l-0.9-0.1L124.9,42.9z"/>
					<path id="Trazado_100015" class="st12" d="M139.4,52.5l2.2-4.3c-5-2.5-10.3-4.2-15.8-5.1l-0.8,4.8
						C130.1,48.7,134.9,50.2,139.4,52.5z"/>
					<path id="Trazado_100016" class="st0" d="M94.9,139.6l-2.5,5.2l0.8,0.4c5,2.5,10.3,4.2,15.8,5.1l0.9,0.1l1-6.6l-0.9-0.1
						c-4.8-0.8-9.5-2.3-13.9-4.4l-0.8-0.4L94.9,139.6z"/>
					<path id="Trazado_100017" class="st12" d="M95.7,140l-2.1,4.4c4.9,2.4,10.2,4.1,15.6,5l0.7-4.8
						C104.9,143.7,100.1,142.2,95.7,140z"/>
				</g>
				<g id="Grupo_83360" transform="translate(87.286 85.542)">
					<path id="Trazado_100018" class="st0" d="M57.7-6.9l-0.9,0.1l1,6.6l0.9-0.1c4.9-0.8,9.9-0.8,14.8,0l0.9,0.1l1-6.6l-0.9-0.1
						C69-7.8,63.3-7.8,57.7-6.9L57.7-6.9z"/>
					<path id="Trazado_100019" class="st0" d="M66.2-1.8c2.5,0,5,0.2,7.5,0.6L74.5-6C69-6.9,63.4-6.9,57.9-6l0.8,4.8
						C61.1-1.6,63.7-1.8,66.2-1.8z"/>
					<path id="Trazado_100020" class="st0" d="M74.7,94.3c-5.3,1-10.7,1-16,0.2l-0.9-0.1l-1,6.6l0.9,0.1c6,0.9,12.2,0.9,18.2-0.2
						l0.9-0.2l-1.2-6.6L74.7,94.3z"/>
					<path id="Trazado_100021" class="st0" d="M66.2,96c-2.5,0-5-0.2-7.5-0.6l-0.7,4.8c5.9,0.9,12,0.8,17.9-0.2l-0.9-4.8
						C72,95.7,69.1,96,66.2,96z"/>
					<path id="Trazado_100022" class="st0" d="M114.2,22.9l-5.2,2.5l0.4,0.8c2,4.1,3.3,8.4,4.1,12.9l0.1,0.9l6.6-1l-0.2-0.9
						c-0.8-5.1-2.4-10-4.6-14.7l-0.4-0.8L114.2,22.9z"/>
					<path id="Trazado_100023" class="st0" d="M114.4,38.9l4.8-0.8c-0.8-5-2.4-9.9-4.6-14.4l-4.4,2.1
						C112.2,30,113.6,34.4,114.4,38.9z"/>
					<path id="Trazado_100024" class="st0" d="M17.7,54l-5.7,1l0.1,0.9c0.9,5.3,2.5,10.5,4.9,15.4l0.4,0.8l5.9-3l-0.4-0.8
						c-2.1-4.3-3.5-8.8-4.3-13.5l-0.1-0.9L17.7,54z"/>
					<path id="Trazado_100025" class="st0" d="M17.9,54.9l-4.8,0.8C14,61,15.6,66,17.9,70.8l4.3-2.2C20.1,64.3,18.7,59.7,17.9,54.9z
						"/>
					<path id="Trazado_100026" class="st0" d="M101.3,79.8c-3.5,3.7-7.5,6.9-11.9,9.3l-0.8,0.4l3.2,5.9l0.8-0.4
						c5.1-2.8,9.6-6.4,13.6-10.6l0.6-0.7l-4.9-4.6L101.3,79.8z"/>
					<path id="Trazado_100027" class="st0" d="M89.8,89.9l2.3,4.3c5-2.8,9.5-6.3,13.4-10.4l-3.5-3.3C98.4,84.2,94.4,87.4,89.8,89.9z
						"/>
					<path id="Trazado_100028" class="st0" d="M41.3-1.6c-5.2,2.7-9.9,6.1-14,10.3l-0.6,0.7l4.8,4.6l0.6-0.6c3.6-3.6,7.7-6.7,12.3-9
						l0.8-0.4L42.1-2L41.3-1.6z"/>
					<path id="Trazado_100029" class="st0" d="M43.9,3.5l-2.2-4.3c-5.1,2.6-9.7,6-13.8,10.1l3.5,3.4C35.1,9,39.3,5.9,43.9,3.5z"/>
					<path id="Trazado_100030" class="st0" d="M89.6-1.3L87,3.8l0.8,0.4c4.6,2.3,8.8,5.4,12.5,9.1l0.6,0.6l4.8-4.7L105,8.6
						c-4.1-4.2-8.9-7.7-14.2-10.3L90-2.1L89.6-1.3z"/>
					<path id="Trazado_100031" class="st0" d="M100.9,12.7l3.5-3.4c-4.1-4.1-8.8-7.5-14-10.2l-2.2,4.3C92.9,5.8,97.2,8.9,100.9,12.7
						z"/>
					<path id="Trazado_100032" class="st0" d="M30.8,80.9l-4.1,4.1l0.6,0.6c4.2,4.2,9.1,7.7,14.4,10.4l0.8,0.4l2.9-6L44.7,90
						c-4.7-2.3-8.9-5.4-12.6-9.2l-0.6-0.6L30.8,80.9z"/>
					<path id="Trazado_100033" class="st0" d="M31.4,81.5L28,84.9c4.1,4.2,8.9,7.6,14.1,10.2l2.1-4.4C39.5,88.4,35.2,85.3,31.4,81.5
						z"/>
					<path id="Trazado_100034" class="st0" d="M113.7,53.9c-0.6,4.4-1.9,8.7-3.7,12.7l-0.4,0.8l6.1,2.8l0.4-0.8
						c2.1-4.6,3.5-9.5,4.2-14.5l0.1-0.9l-6.6-1L113.7,53.9z"/>
					<path id="Trazado_100035" class="st0" d="M110.8,67l4.4,2c2-4.5,3.4-9.3,4.1-14.2l-4.8-0.7C113.9,58.5,112.7,62.9,110.8,67z"/>
					<path id="Trazado_100036" class="st0" d="M17.3,22.6c-2.6,5.1-4.3,10.6-5.2,16.3L12,39.8l6.6,0.9l0.1-0.9
						c0.8-5,2.3-9.8,4.5-14.2l0.4-0.8l-6-2.9L17.3,22.6z"/>
					<path id="Trazado_100037" class="st0" d="M22.5,25.2L18.1,23c-2.5,5-4.2,10.4-5.1,16l4.8,0.7C18.6,34.6,20.2,29.7,22.5,25.2z"
						/>
				</g>
				<path id="Trazado_100038" class="st0" d="M145.8,83.4l-0.9,0.1l7.7,48.3h1.8l7.7-48.3l-0.9-0.1C156,82.6,150.9,82.6,145.8,83.4
					L145.8,83.4z"/>
				<path id="Trazado_100039" class="st1" d="M153.5,131.6L153.5,131.6v0.1l7.5-47.4c-5-0.8-10.1-0.8-15.1,0L153.5,131.6
					L153.5,131.6z"/>
				<path id="Trazado_100040" class="st0" d="M152.4,132.3l-7.6,49.4l0.9,0.1c5.5,0.9,11.1,0.8,16.6-0.2l0.9-0.2l-9-49.2
					L152.4,132.3z"/>
				<path id="Trazado_100041" class="st1" d="M153.3,132.6l0-0.1l0,0l-7.4,48.5c5.4,0.8,10.9,0.8,16.3-0.2L153.3,132.6L153.3,132.6z
					"/>
				<path id="Trazado_100042" class="st0" d="M201.5,123.7l-47.8,7.6l-0.1,1.8l49,7.5l0.1-0.9c0.7-5.1,0.7-10.2-0.2-15.2l-0.1-0.9
					L201.5,123.7z"/>
				<path id="Trazado_100043" class="st10" d="M153.9,132.2L153.9,132.2l-0.1,0l48.1,7.3c0.3-2.3,0.5-4.6,0.5-6.9
					c0-2.7-0.2-5.4-0.7-8.1L153.9,132.2L153.9,132.2z"/>
				<path id="Trazado_100044" class="st0" d="M104.2,125.2c-0.4,2.5-0.6,5-0.6,7.5c0,2.6,0.2,5.3,0.6,7.9l0.1,0.9l48.7-8.5l0-1.8
					l-48.8-6.9L104.2,125.2z"/>
				<path id="Trazado_100045" class="st10" d="M152.9,132l0.1,0h0l-47.9-6.7c-0.8,5-0.7,10.1,0.1,15L152.9,132L152.9,132z"/>
				<path id="Trazado_100046" class="st0" d="M197.1,110.6l-43.5,20.6l0.5,1.7l48.5-7.6l-0.2-0.9c-0.8-4.6-2.2-9.1-4.2-13.3
					l-0.4-0.8L197.1,110.6z"/>
				<path id="Trazado_100047" class="st1" d="M201.7,124.5c-0.8-4.5-2.2-9-4.2-13.1L154,132L201.7,124.5z"/>
				<path id="Trazado_100048" class="st0" d="M105,139.5l-0.9,0.2l0.1,0.9c0.8,4.9,2.3,9.6,4.4,14l0.4,0.8l44-22.4l-0.6-1.7
					L105,139.5z"/>
				<path id="Trazado_100049" class="st1" d="M105.2,140.4c0.8,4.8,2.2,9.4,4.4,13.7l43.2-21.9L105.2,140.4z"/>
				<path id="Trazado_100050" class="st0" d="M152.6,132.8l8.9,49l0.9-0.2c5.3-1,10.4-2.8,15.1-5.3l0.8-0.4l-24-43.6L152.6,132.8z"
					/>
				<path id="Trazado_100051" class="st10" d="M162.2,180.7c5.2-0.9,10.2-2.7,14.8-5.2l-23.5-42.9L162.2,180.7z"/>
				<path id="Trazado_100052" class="st0" d="M145.7,83.4c-5.2,0.8-10.2,2.4-14.8,4.8l-0.8,0.4l22.4,43.3l1.7-0.6l-7.6-48.2
					L145.7,83.4z"/>
				<path id="Trazado_100053" class="st10" d="M145.8,84.3c-5.1,0.8-10,2.4-14.6,4.7l22,42.5L145.8,84.3z"/>
				<path id="Trazado_100054" class="st0" d="M187.6,97.6l-34.4,33.6l1,1.5l44.5-21l-0.4-0.8c-2.4-4.9-5.6-9.4-9.4-13.3l-0.6-0.6
					L187.6,97.6z"/>
				<path id="Trazado_100055" class="st10" d="M153.8,131.9l43.7-20.6c-2.3-4.8-5.5-9.2-9.2-13L153.8,131.9z"/>
				<path id="Trazado_100056" class="st0" d="M109.2,153.4l-0.8,0.4l0.4,0.8c2.3,4.7,5.3,9,9,12.7l0.6,0.7l35.1-35l-1-1.5
					L109.2,153.4z"/>
				<path id="Trazado_100057" class="st10" d="M109.6,154.3c2.3,4.6,5.2,8.8,8.8,12.5l34.5-34.4L109.6,154.3z"/>
				<path id="Trazado_100058" class="st0" d="M152.9,133l23.9,43.7l0.8-0.4c4.6-2.6,8.8-5.8,12.4-9.7l0.6-0.7l-36.2-34L152.9,133z"
					/>
				<path id="Trazado_100059" class="st1" d="M177.1,175.4c4.5-2.5,8.6-5.7,12.1-9.5l-35.6-33.4L177.1,175.4z"/>
				<path id="Trazado_100060" class="st0" d="M130.8,88.3c-4.7,2.4-9,5.6-12.7,9.3l-0.6,0.7l35.1,34.1l1.4-1.1l-22.3-43.4
					L130.8,88.3z"/>
				<path id="Trazado_100061" class="st1" d="M131.2,89.1c-4.6,2.4-8.8,5.5-12.5,9.1l34.4,33.4L131.2,89.1z"/>
				<path id="Trazado_100062" class="st0" d="M174.7,88.6l-21.7,42.8l1.4,1.1l35.1-34.2l-0.6-0.7c-3.8-3.8-8.1-7-12.9-9.4l-0.8-0.4
					L174.7,88.6z"/>
				<path id="Trazado_100063" class="st1" d="M188.2,98.2c-3.7-3.7-8-6.9-12.7-9.2l-21.7,42.8L188.2,98.2z"/>
				<path id="Trazado_100064" class="st0" d="M118.1,166.4l-0.6,0.6l0.6,0.6c3.8,3.9,8.2,7.1,13.1,9.5l0.8,0.4l21.8-44.7l-1.5-1.1
					L118.1,166.4z"/>
				<path id="Trazado_100065" class="st1" d="M153,132.5L153,132.5L153,132.5L118.7,167c3.8,3.8,8.1,6.9,12.9,9.3L153,132.5
					L153,132.5z"/>
				<path id="Trazado_100066" class="st0" d="M153.2,133.1l36.4,33.8l0.6-0.7c3.6-3.9,6.5-8.4,8.7-13.2l0.4-0.8l-45.1-20.6
					L153.2,133.1z"/>
				<path id="Trazado_100067" class="st10" d="M189.6,165.6c3.5-3.8,6.4-8.2,8.5-13l-44.3-20.2L189.6,165.6z"/>
				<path id="Trazado_100068" class="st0" d="M117.8,97.9c-3.5,3.6-6.5,7.8-8.8,12.3l-0.4,0.8l44,21.5l1-1.5l-35.2-33.8L117.8,97.9z
					"/>
				<path id="Trazado_100069" class="st10" d="M118.4,98.5c-3.5,3.6-6.4,7.6-8.6,12.1l43.2,21.1L118.4,98.5z"/>
				<path id="Trazado_100070" class="st0" d="M160.2,84.2l-7.4,47.3l1.7,0.6l22.2-43.5l-0.8-0.4c-4.6-2.3-9.5-3.9-14.6-4.7l-0.9-0.1
					L160.2,84.2z"/>
				<path id="Trazado_100071" class="st10" d="M175.4,88.9c-4.5-2.3-9.3-3.8-14.3-4.6l-7.4,47.3L175.4,88.9z"/>
				<path id="Trazado_100072" class="st0" d="M130.9,176l-0.4,0.8l0.8,0.4c4.5,2.3,9.4,3.8,14.4,4.6l0.9,0.1l7.5-49.2l-1.7-0.5
					L130.9,176z"/>
				<path id="Trazado_100073" class="st10" d="M131.7,176.4c4.5,2.2,9.2,3.8,14.2,4.5l7.3-48.3L131.7,176.4z"/>
				<path id="Trazado_100074" class="st0" d="M153.7,133.2l44.9,20.6l0.4-0.8c1.9-4.2,3.2-8.6,3.8-13.2l0.1-0.9l-48.7-7.4
					L153.7,133.2z"/>
				<path id="Trazado_100075" class="st1" d="M198.1,152.5c1.8-4.1,3.1-8.5,3.7-12.9l-47.8-7.2L198.1,152.5z"/>
				<path id="Trazado_100076" class="st0" d="M108.9,110.3c-2.3,4.6-3.9,9.6-4.7,14.8l-0.1,0.9l48.7,6.8l0.5-1.7l-44-21.6
					L108.9,110.3z"/>
				<path id="Trazado_100077" class="st1" d="M109.7,110.7c-2.3,4.6-3.9,9.5-4.6,14.5l47.8,6.7L109.7,110.7z"/>
				<path id="Trazado_100078" class="st0" d="M139.4,132c0,7.8,6.3,14.1,14.1,14.1c7.8,0,14.1-6.3,14.1-14.1
					c0-7.8-6.3-14.1-14.1-14.1c0,0,0,0,0,0C145.7,117.9,139.4,124.2,139.4,132z"/>
				<path id="Trazado_100079" class="st12" d="M166.7,132c0,7.3-5.9,13.2-13.2,13.2s-13.2-5.9-13.2-13.2c0-7.3,5.9-13.2,13.2-13.2
					c0,0,0,0,0,0C160.8,118.8,166.7,124.7,166.7,132z"/>
				<path id="Trazado_100080" class="st0" d="M145.5,132c0,4.4,3.6,8,8,8c4.4,0,8-3.6,8-8c0-4.4-3.6-8-8-8
					C149.1,124,145.5,127.6,145.5,132z"/>
				<path id="Trazado_100081" class="st11" d="M160.6,132c0,3.9-3.2,7.1-7.1,7.1s-7.1-3.2-7.1-7.1c0-3.9,3.2-7.1,7.1-7.1
					c0,0,0,0,0,0C157.4,125,160.6,128.1,160.6,132z"/>
				<path id="Trazado_100082" class="st10" d="M186,44.6c-0.9,0-1.5,0-2.4,0c-0.9,0-1.6,0-2.4,0c0-0.1,0-0.3,0.1-0.4
					c0.4,0,0.6-0.1,0.9-0.1c0.5-0.1,0.6-0.5,0.7-1c0.1-0.7,0.3-1.6,0.6-3.2c0.2-1.3,0.4-2.5,0.4-3c0-0.3,0-0.6-0.3-0.6
					c-0.3-0.1-0.5-0.1-0.8-0.1c0-0.1,0-0.3,0.1-0.4c1.1-0.1,2.2-0.3,3.2-0.7c0.1,0,0.2,0,0.2,0.1c-0.1,0.6-0.3,1.2-0.5,2.5
					c-0.2,1.3-0.6,4-0.8,5.3c-0.1,0.6-0.1,1,0.3,1c0.3,0.1,0.6,0.1,0.9,0.1C186.1,44.3,186,44.5,186,44.6z"/>
				<path id="Trazado_100083" class="st10" d="M210.4,207.2c-0.1,0-0.3-0.3-0.3-0.3c1.1-1.4,2.3-2,3.4-2c1.3,0,2.4,1.1,2.4,2.4
					c0,0,0,0.1,0,0.1c0,1.2-0.6,2.2-2.2,3.6c-0.6,0.5-1.2,1-2,1.6c0,0,0,0.1,0,0.1c0.5,0,2.4,0,3.1,0c0.3,0,0.7-0.2,1.2-1
					c0-0.1,0.3,0.1,0.3,0.2c-0.3,0.8-0.7,1.6-1.1,2.3c-0.1,0.2-0.4,0.2-0.9,0.3c-1.1,0-3,0-4.2,0c-0.3,0-0.8,0-1.1,0
					c0-0.1,0-0.3,0-0.4c1.2-0.8,2.3-1.7,3.2-2.7c0.9-0.8,1.5-2,1.5-3.2c0.1-0.9-0.6-1.6-1.4-1.7c0,0-0.1,0-0.1,0
					C211.6,206.3,210.9,206.7,210.4,207.2z"/>
				<path id="Trazado_100084" class="st10" d="M157.9,226.6c0,0.9-0.6,1.6-1.8,2.2c0,0,0,0.1,0,0.1c1.1,0.3,1.9,1.2,2,2.4
					c0,1.3-0.8,2.4-1.9,2.9c-0.7,0.4-1.5,0.6-2.3,0.6c-0.6,0-1.3-0.1-1.8-0.4c-0.3-0.1-0.4-0.3-0.5-0.6c-0.1-0.5-0.1-1,0-1.5
					c0-0.1,0.3-0.1,0.4-0.1c0.1,0.7,0.5,1.3,1,1.7c0.4,0.3,0.9,0.5,1.4,0.4c1.1,0,1.8-0.9,1.8-2.2c0.1-1-0.6-1.9-1.7-2
					c-0.1,0-0.2,0-0.3,0c-0.2,0-0.3,0-0.5,0c0.1-0.3,0.2-0.5,0.4-0.7c1.6-0.3,2.2-0.9,2.2-1.8c0.1-0.8-0.5-1.5-1.3-1.6
					c-0.1,0-0.1,0-0.2,0c-0.7,0-1.3,0.3-1.8,0.8c-0.1,0-0.2-0.3-0.2-0.4c0.8-0.8,1.8-1.8,3.2-1.8
					C156.9,224.6,157.9,225.4,157.9,226.6C157.9,226.6,157.9,226.6,157.9,226.6z"/>
				<path id="Trazado_100085" class="st10" d="M233.6,78C233.5,78,233.5,78,233.6,78l-0.5,3c-0.5,0-1.7,0.1-2.2,0.2l0.5-3
					c0,0,0-0.1,0-0.1c-1.2,0-2.5,0-3.7,0c0-0.2,0.1-0.4,0.2-0.6c1.3-1.5,4.8-5.3,5.5-6c0.1,0,0.3,0,0.6,0c0.3,0,0.5,0,0.7,0
					c-0.2,1-0.6,4-0.9,5.6c0,0,0,0.1,0.1,0.1l1.6,0c-0.1,0.3-0.2,0.7-0.3,1L233.6,78z M231.6,77C231.6,77,231.6,76.9,231.6,77
					l0.8-3.9c0,0,0,0-0.1,0c0,0,0,0,0,0c-0.4,0.4-2.6,2.9-3.3,3.8c0,0,0,0.1,0,0.1L231.6,77z"/>
				<path id="Trazado_100086" class="st10" d="M125.1,35.2c-0.2,0.5-0.4,0.9-0.7,1.3c-0.2,0.3-0.6,0.5-1,0.5c-0.9,0-1.5-0.1-2-0.1
					c-0.1,0-0.1,0-0.2,0.1c-0.2,0.3-0.3,0.6-0.4,0.9c0,0,0,0.1,0,0.2c0.7,0.4,2.3,1.1,2.9,1.6c0.8,0.4,1.3,1.3,1.3,2.2
					c0,2.3-2.3,3.4-3.9,3.4c-1,0.1-1.9-0.4-2.5-1.1c-0.1-0.1-0.1-0.3-0.1-0.5c0.1-0.4,0.3-0.7,0.5-1.1c0.1,0,0.1-0.1,0.2-0.1
					c0.5,1,1.3,2.1,2.7,2.1c0.7,0.1,1.4-0.5,1.4-1.2c0-0.1,0-0.2,0-0.3c0-0.7-0.4-1.4-1.1-1.8c-0.7-0.6-2.2-1.4-2.6-1.6
					c0-0.2,0-0.4,0-0.5c0.5-1.2,1.1-2.4,1.7-3.5c0.1-0.2,0.3-0.3,0.5-0.4c0.3,0,1.2,0.1,2.1,0.1c0.3,0,0.6-0.1,0.8-0.3
					C124.9,35,125.1,35.1,125.1,35.2z"/>
				<path id="Trazado_100087" class="st13" d="M249.6,131.4C249.5,131.5,249.6,131.6,249.6,131.4c0.6-0.3,1.3-0.5,1.9-0.5
					c1.1,0,2.1,0.9,2.1,2.5c0,1.6-0.9,3-2.3,3.6c-0.5,0.2-1.1,0.3-1.6,0.3c-2.1,0-3-1.4-3-3.1c0-3.6,3.7-6.4,7.3-7.3
					c0.1,0,0.2,0.3,0.1,0.4C252.2,128.1,250.6,129.6,249.6,131.4z M249.4,132.1c-0.1,0.1-0.2,0.2-0.2,0.3c-0.2,0.7-0.3,1.4-0.4,2.1
					c0,1.6,0.5,2.4,1.3,2.4c0.8,0,1.5-1.4,1.5-2.8c0-1.4-0.5-2.1-1.4-2.1C249.9,131.9,249.6,131.9,249.4,132.1L249.4,132.1z"/>
				<path id="Trazado_100088" class="st10" d="M99.4,205.5c-0.8,1.7-4.9,8.3-5.5,9.5c0,0-0.1,0.1-0.1,0.1c-0.2-0.1-0.4-0.1-0.5-0.3
					c0-0.1,0-0.2,0-0.3c1-1.6,3.8-5.8,4.5-7.3c0,0,0-0.1,0-0.1c-0.5,0-2.9,0-4,0c-0.5,0-0.7,0.3-1.2,1.1c-0.1,0-0.4-0.2-0.4-0.2
					c0.4-0.9,0.8-1.9,1-2.9c0.4,0.1,0.8,0.2,1.2,0.1h3.3c0.6,0,1.3,0,1.7,0C99.4,205.3,99.5,205.5,99.4,205.5z"/>
				<path id="Trazado_100089" class="st10" d="M63.5,160.6c0,1-0.7,1.4-1.9,2.2c-0.1,0,0,0.1,0,0.1c1,0.8,1.6,1.5,1.6,2.4
					c0,1.7-1.7,3-3.7,3c-2.1,0-2.9-1.1-2.9-2.1c0-0.8,0.5-1.3,2.4-2.5c0,0,0,0,0-0.1c-0.7-0.5-1.1-1.3-1.2-2.1
					c0-0.9,0.5-1.8,1.3-2.3c0.6-0.4,1.3-0.6,2-0.6C62.6,158.6,63.5,159.5,63.5,160.6z M61.4,166.3c0-0.7-0.5-1.2-1.8-2.3
					c0,0-0.1,0-0.1,0c-0.7,0.5-1.1,1.2-1.1,2c-0.1,0.9,0.6,1.7,1.5,1.8c0,0,0.1,0,0.1,0c0.7,0,1.3-0.5,1.4-1.3
					C61.4,166.4,61.4,166.3,61.4,166.3L61.4,166.3z M59.6,160.4c0,0.8,0.4,1.3,1.6,2.1c0,0,0.1,0,0.1,0c0.5-0.5,0.8-1.1,0.8-1.8
					c0.1-0.8-0.4-1.5-1.2-1.6c0,0-0.1,0-0.1,0C60,159.1,59.5,159.7,59.6,160.4C59.5,160.3,59.6,160.3,59.6,160.4L59.6,160.4z"/>
				<path id="Trazado_100090" class="st10" d="M69.4,82.1c1.9-0.8,3.5-2.2,4.4-4c0,0,0-0.1,0-0.1c-0.6,0.3-1.3,0.5-2,0.6
					c-1.4,0-2.2-1.2-2.2-2.5c0-1.5,0.8-2.8,2.1-3.5c0.6-0.3,1.2-0.4,1.8-0.4c2,0,2.9,1.5,2.9,3.2c0,3.4-3,6.1-7,7.1
					C69.5,82.5,69.3,82.2,69.4,82.1z M71.6,75.4c0,1.7,0.7,2.3,1.6,2.3c0.2,0,0.4-0.1,0.6-0.1c0.1-0.1,0.2-0.2,0.2-0.3
					c0.2-0.7,0.4-1.4,0.4-2.1c0-1.5-0.4-2.3-1.3-2.3C72.4,72.7,71.6,73.9,71.6,75.4z"/>
				<g id="Grupo_83361" transform="translate(309.303 206.431)">
					<path id="Trazado_100091" class="st10" d="M-64.9-42.6c-0.9,0-1.5-0.1-2.4-0.1c-0.9,0-1.6,0.1-2.4,0.1c0-0.1,0-0.3,0.1-0.4
						c0.4,0,0.6-0.1,0.9-0.1c0.5-0.1,0.6-0.5,0.7-1c0.1-0.7,0.3-1.6,0.6-3.2c0.2-1.3,0.4-2.5,0.4-3c0-0.3,0-0.6-0.3-0.6
						c-0.3-0.1-0.6-0.1-0.8-0.1c0-0.1,0-0.3,0.1-0.4c1.1-0.1,2.2-0.3,3.2-0.7c0.1,0,0.2,0,0.2,0.1c-0.1,0.6-0.3,1.2-0.5,2.5
						c-0.2,1.3-0.6,4-0.8,5.3c0,0.6,0,1,0.3,1c0.3,0.1,0.6,0.1,0.9,0.1C-64.8-42.9-64.8-42.7-64.9-42.6z"/>
					<path id="Trazado_100092" class="st10" d="M-55.2-48.8c0,2.1-0.8,4.9-2.6,5.9c-0.6,0.3-1.2,0.5-1.9,0.5c-2.1,0-2.8-1.4-2.7-3.3
						c0-1.8,0.6-4.5,2.3-5.7c0.6-0.4,1.4-0.7,2.2-0.7C-55.9-52.1-55.2-50.7-55.2-48.8z M-58.9-51.2c-0.9,1.1-1.4,3.9-1.4,6.1
						c0,1.7,0.4,2.2,1,2.2c0.2,0,0.4-0.1,0.6-0.3c0.9-0.9,1.5-4.3,1.5-6.5c0-1.8-0.5-1.9-0.9-1.9C-58.5-51.6-58.7-51.5-58.9-51.2
						L-58.9-51.2z"/>
				</g>
				<g id="Grupo_83362" transform="translate(6.864 165.893)">
					<path id="Trazado_100093" class="st10" d="M46.5-27.7c-0.9,0-1.5,0-2.4,0c-0.9,0-1.6,0-2.4,0c0-0.1,0-0.3,0.1-0.4
						c0.4,0,0.6-0.1,0.9-0.1c0.5-0.1,0.6-0.5,0.7-1c0.1-0.7,0.3-1.6,0.6-3.2c0.2-1.3,0.4-2.5,0.4-3c0-0.3,0-0.6-0.3-0.6
						C43.7-36,43.4-36,43.1-36c0-0.1,0-0.3,0.1-0.4c1.1-0.1,2.2-0.3,3.2-0.7c0.1,0,0.2,0,0.2,0.1c-0.1,0.6-0.3,1.2-0.5,2.5
						c-0.2,1.3-0.6,4-0.8,5.3c-0.1,0.6-0.1,1,0.3,1c0.3,0.1,0.6,0.1,0.9,0.1C46.6-27.9,46.6-27.8,46.5-27.7z"/>
					<path id="Trazado_100094" class="st10" d="M54.4-27.7c-0.9,0-1.5,0-2.4,0c-0.9,0-1.6,0-2.4,0c0-0.1,0-0.3,0.1-0.4
						c0.4,0,0.6-0.1,0.9-0.1c0.5-0.1,0.6-0.5,0.7-1c0.1-0.7,0.3-1.6,0.6-3.2c0.2-1.3,0.4-2.5,0.4-3c0-0.3,0-0.6-0.3-0.6
						C51.6-36,51.3-36,51.1-36c0-0.1,0-0.3,0.1-0.4c1.1-0.1,2.2-0.3,3.2-0.7c0.1,0,0.2,0,0.2,0.1c-0.1,0.6-0.3,1.2-0.5,2.5
						c-0.2,1.3-0.6,4-0.8,5.3c0,0.6,0,1,0.3,1c0.3,0.1,0.6,0.1,0.9,0.1C54.5-27.9,54.5-27.8,54.4-27.7z"/>
				</g>
				<g id="Grupo_83363" transform="translate(68.255 39.469)">
					<path id="Trazado_100095" class="st10" d="M23.9,18.9c-0.9,0-1.5-0.1-2.4-0.1c-0.9,0-1.6,0.1-2.4,0.1c0-0.1,0-0.3,0.1-0.4
						c0.4-0.1,0.6-0.1,0.9-0.1c0.5-0.1,0.6-0.5,0.7-1c0.1-0.7,0.3-1.6,0.6-3.2c0.2-1.3,0.4-2.5,0.4-3c0-0.3,0-0.6-0.3-0.6
						c-0.3-0.1-0.5-0.1-0.8-0.1c0-0.1,0-0.3,0.1-0.4c1.1-0.1,2.2-0.3,3.2-0.7c0.1,0,0.2,0,0.2,0.1c-0.1,0.6-0.3,1.2-0.5,2.5
						c-0.2,1.3-0.6,4-0.8,5.3c0,0.6,0,1,0.3,1.1c0.3,0.1,0.6,0.1,0.9,0.1C24,18.6,23.9,18.8,23.9,18.9z"/>
					<path id="Trazado_100096" class="st10" d="M27.4,11.7c-0.1,0-0.3-0.3-0.3-0.3c1.1-1.4,2.3-2,3.4-2c1.3,0,2.4,1.1,2.4,2.4
						c0,0,0,0,0,0.1c0,1.2-0.6,2.2-2.2,3.6c-0.6,0.5-1.2,1-2,1.6c0,0,0,0.1,0,0.1c0.5,0,2.4,0,3.1,0c0.3,0,0.7-0.2,1.2-1
						c0,0,0.4,0.1,0.4,0.2c-0.3,0.8-0.7,1.6-1.1,2.3c-0.1,0.2-0.4,0.2-0.9,0.3c-1.1,0-3-0.1-4.2-0.1c-0.3,0-0.8,0-1.1,0
						c0-0.1,0-0.3,0-0.4c1.2-0.8,2.3-1.7,3.2-2.7c1.1-1.1,1.5-2.1,1.5-3.2c0.1-0.9-0.5-1.6-1.4-1.7c0,0-0.1,0-0.1,0
						C28.6,10.9,27.9,11.2,27.4,11.7z"/>
				</g>
				<g id="Grupo_83364" transform="translate(308.933 119.697)">
					<path id="Trazado_100097" class="st10" d="M-64.8-10.6c-0.9,0-1.5,0-2.4,0c-0.9,0-1.6,0-2.4,0c0-0.1,0-0.3,0.1-0.4
						c0.4,0,0.6-0.1,0.9-0.1c0.5-0.1,0.6-0.5,0.7-1c0.1-0.7,0.3-1.6,0.6-3.2c0.2-1.3,0.4-2.5,0.4-3c0-0.3,0-0.6-0.3-0.6
						c-0.3-0.1-0.6-0.1-0.8-0.1c0-0.1,0-0.3,0.1-0.4c1.1-0.1,2.2-0.3,3.2-0.7c0.1,0,0.2,0,0.2,0.1c-0.1,0.6-0.3,1.2-0.5,2.5
						c-0.2,1.3-0.6,4-0.8,5.3c0,0.6,0,1,0.3,1.1c0.3,0.1,0.6,0.1,0.9,0.1C-64.7-10.9-64.7-10.8-64.8-10.6z"/>
					<path id="Trazado_100098" class="st10" d="M-55.9-18.2c0,0.9-0.6,1.6-1.8,2.2c0,0-0.1,0.1,0,0.1c1.1,0.3,1.9,1.2,2,2.4
						c0,1.3-0.8,2.4-1.9,2.9c-0.7,0.4-1.5,0.6-2.3,0.6c-0.6,0-1.3-0.1-1.8-0.4c-0.3-0.1-0.4-0.3-0.5-0.6c-0.1-0.5-0.1-1,0-1.5
						c0-0.1,0.3-0.1,0.4-0.1c0.1,0.7,0.5,1.3,1,1.7c0.4,0.3,0.9,0.4,1.4,0.4c1.1,0,1.8-0.9,1.8-2.2c0.1-1-0.6-1.9-1.7-2
						c-0.1,0-0.2,0-0.3,0c-0.2,0-0.3,0-0.5,0c0.1-0.3,0.2-0.5,0.4-0.7c1.6-0.3,2.2-0.9,2.2-1.8c0.1-0.8-0.5-1.5-1.3-1.6
						c-0.1,0-0.1,0-0.2,0c-0.7,0-1.3,0.3-1.8,0.8c-0.1,0-0.2-0.3-0.2-0.4c0.8-0.8,1.8-1.8,3.2-1.8C-56.9-20.2-55.9-19.4-55.9-18.2
						C-55.9-18.2-55.9-18.2-55.9-18.2z"/>
				</g>
				<g id="Grupo_83365" transform="translate(12.276 120.683)">
					<path id="Trazado_100099" class="st10" d="M44.5-11c-0.9,0-1.5,0-2.4,0c-0.9,0-1.6,0-2.4,0c0-0.1,0-0.3,0.1-0.4
						c0.4,0,0.6-0.1,0.9-0.1c0.5-0.1,0.6-0.5,0.7-1c0.1-0.7,0.3-1.6,0.6-3.2c0.2-1.3,0.4-2.5,0.4-3c0-0.3,0-0.6-0.3-0.6
						c-0.3-0.1-0.6-0.1-0.8-0.1c0-0.1,0-0.3,0.1-0.4c1.1-0.1,2.2-0.3,3.2-0.7c0.1,0,0.2,0,0.2,0.1c-0.1,0.6-0.3,1.2-0.5,2.5
						c-0.2,1.3-0.6,4-0.8,5.3c0,0.6,0,1,0.3,1.1c0.3,0.1,0.6,0.1,0.9,0.1C44.6-11.3,44.6-11.1,44.5-11z"/>
					<path id="Trazado_100100" class="st10" d="M52.6-13.8C52.5-13.8,52.5-13.7,52.6-13.8l-0.5,3c-0.5,0-1.7,0.1-2.1,0.2l0.5-3
						c0,0,0-0.1,0-0.1c-1.2,0-2.5,0-3.7,0c0-0.2,0.1-0.4,0.2-0.6c1.3-1.5,4.8-5.3,5.5-6c0.1,0,0.3,0,0.6,0c0.3,0,0.5,0,0.7,0
						c-0.2,1-0.6,4-0.9,5.6c0,0,0,0.1,0.1,0.1l1.6,0c-0.1,0.3-0.2,0.7-0.3,1L52.6-13.8z M50.5-14.7C50.6-14.7,50.6-14.8,50.5-14.7
						l0.8-3.9c0,0,0,0-0.1,0c0,0,0,0,0,0c-0.4,0.4-2.6,2.9-3.3,3.8c0,0,0,0.1,0,0.1L50.5-14.7z"/>
				</g>
				<g id="Grupo_83366" transform="translate(35.038 251.085)">
					<path id="Trazado_100101" class="st10" d="M36.1-58.3c-0.9,0-1.5,0-2.4,0c-0.9,0-1.6,0-2.4,0c0-0.1,0-0.3,0.1-0.4
						c0.4,0,0.6-0.1,0.9-0.1c0.5-0.1,0.6-0.5,0.7-1c0.1-0.7,0.3-1.6,0.6-3.2c0.2-1.3,0.4-2.5,0.4-3c0-0.3,0-0.6-0.3-0.6
						c-0.3-0.1-0.5-0.1-0.8-0.1c0-0.1,0-0.3,0.1-0.4c1.1-0.1,2.2-0.3,3.2-0.7c0.1,0,0.2,0,0.2,0.1c-0.1,0.6-0.3,1.2-0.5,2.5
						c-0.2,1.3-0.6,4-0.8,5.3c0,0.6,0,1,0.3,1.1c0.3,0.1,0.6,0.1,0.9,0.1C36.2-58.6,36.2-58.5,36.1-58.3z"/>
					<path id="Trazado_100102" class="st10" d="M41.6-64C41.5-64,41.6-63.9,41.6-64c0.6-0.3,1.3-0.5,1.9-0.5c1.1,0,2.1,0.9,2.1,2.5
						c0,1.6-0.9,3-2.3,3.6c-0.5,0.2-1.1,0.3-1.6,0.3c-2.1,0-3-1.4-3-3.1c0-3.6,3.7-6.4,7.3-7.3c0.1,0,0.2,0.3,0.1,0.4
						C44.2-67.3,42.6-65.9,41.6-64z M41.4-63.4c-0.1,0.1-0.2,0.2-0.2,0.3c-0.2,0.7-0.3,1.4-0.3,2.1c0,1.6,0.5,2.4,1.3,2.4
						c0.8,0,1.4-1.4,1.4-2.8c0-1.5-0.5-2.1-1.4-2.1C41.9-63.6,41.6-63.5,41.4-63.4L41.4-63.4z"/>
				</g>
				<g id="Grupo_83367" transform="translate(289.284 247.82)">
					<path id="Trazado_100103" class="st10" d="M-57.5-57.8c-0.9,0-1.5,0-2.4,0c-0.9,0-1.6,0-2.4,0c0-0.1,0-0.3,0.1-0.4
						c0.4,0,0.6-0.1,0.9-0.1c0.5-0.1,0.6-0.5,0.7-1c0.1-0.7,0.3-1.6,0.6-3.2c0.2-1.3,0.4-2.5,0.4-3c0-0.3,0-0.6-0.3-0.6
						c-0.3-0.1-0.5-0.1-0.8-0.1c0-0.1,0-0.3,0.1-0.4c1.1-0.1,2.2-0.3,3.2-0.7c0.1,0,0.2,0,0.2,0.1c-0.1,0.6-0.3,1.2-0.5,2.5
						c-0.2,1.3-0.6,4-0.8,5.3c0,0.6,0,1,0.3,1.1c0.3,0.1,0.6,0.1,0.9,0.1C-57.4-58.1-57.5-57.9-57.5-57.8z"/>
					<path id="Trazado_100104" class="st10" d="M-48.5-67.2c-0.2,0.5-0.4,0.9-0.7,1.3c-0.2,0.3-0.6,0.5-1,0.5c-0.9,0-1.5-0.1-2-0.1
						c-0.1,0-0.1,0-0.2,0.1c-0.2,0.3-0.3,0.6-0.4,0.9c0,0,0,0.1,0,0.2c0.7,0.4,2.3,1.1,2.9,1.6c0.8,0.4,1.3,1.3,1.3,2.2
						c0,2.3-2.3,3.4-3.9,3.4c-1,0.1-1.9-0.4-2.5-1.1c-0.1-0.1-0.1-0.3-0.1-0.5c0.1-0.4,0.3-0.7,0.5-1.1c0.1,0,0.1-0.1,0.2-0.1
						c0.5,1,1.3,2.1,2.7,2.1c0.7,0.1,1.4-0.5,1.4-1.2c0-0.1,0-0.2,0-0.3c0-0.7-0.4-1.4-1-1.8c-0.7-0.6-2.2-1.4-2.6-1.6
						c0-0.2,0-0.4,0-0.5c0.5-1.2,1.1-2.4,1.7-3.5c0.1-0.2,0.3-0.3,0.5-0.4c0.3,0,1.2,0.1,2.1,0.1c0.3,0,0.6-0.1,0.8-0.3
						C-48.7-67.4-48.5-67.2-48.5-67.2z"/>
				</g>
				<g id="Grupo_83368" transform="translate(213.475 307.567)">
					<path id="Trazado_100105" class="st10" d="M-29.6-79.8c-0.9,0-1.5,0-2.4,0c-0.9,0-1.6,0-2.4,0c0-0.1,0-0.3,0.1-0.4
						c0.4,0,0.6-0.1,0.9-0.1c0.5-0.1,0.6-0.5,0.7-1c0.1-0.7,0.3-1.6,0.6-3.2c0.2-1.3,0.4-2.5,0.4-3c0-0.3,0-0.6-0.3-0.6
						c-0.3-0.1-0.5-0.1-0.8-0.1c-0.1-0.1,0-0.4,0.1-0.4c1.1-0.1,2.2-0.3,3.2-0.7c0.1,0,0.2,0,0.2,0.1c-0.1,0.6-0.3,1.2-0.5,2.5
						c-0.2,1.3-0.6,4-0.8,5.3c-0.1,0.6-0.1,1,0.3,1c0.3,0.1,0.6,0.1,0.9,0.1C-29.5-80.1-29.5-80-29.6-79.8z"/>
					<path id="Trazado_100106" class="st10" d="M-19.2-88.9c-0.8,1.7-4.9,8.3-5.5,9.5c0,0-0.1,0.1-0.1,0.1c-0.2-0.1-0.4-0.1-0.5-0.3
						c0-0.1,0-0.2,0-0.3c1-1.6,3.8-5.8,4.5-7.3c0,0,0-0.1,0-0.1c-0.5,0-2.9,0-4,0c-0.5,0-0.7,0.3-1.2,1.1c-0.1,0-0.4-0.2-0.4-0.2
						c0.4-0.9,0.8-1.9,1-2.9c0.4,0.1,0.8,0.2,1.2,0.1h3.3c0.6,0,1.3,0,1.7,0C-19.2-89.2-19.2-89-19.2-88.9z"/>
				</g>
				<g id="Grupo_83369" transform="translate(254.367 41.685)">
					<path id="Trazado_100107" class="st10" d="M-44.7,18.1c-0.9,0-1.5-0.1-2.4-0.1c-0.9,0-1.6,0.1-2.4,0.1c0-0.1,0-0.3,0.1-0.4
						c0.4,0,0.6-0.1,0.9-0.1c0.5-0.1,0.6-0.5,0.7-1c0.1-0.7,0.3-1.6,0.6-3.2c0.2-1.3,0.4-2.5,0.4-3c0-0.3,0-0.6-0.3-0.6
						c-0.3-0.1-0.6-0.1-0.8-0.1c0-0.1,0-0.3,0.1-0.4c1.1-0.1,2.2-0.3,3.2-0.7c0.1,0,0.2,0,0.2,0.1c-0.1,0.6-0.3,1.2-0.5,2.5
						c-0.2,1.3-0.6,4-0.8,5.3c0,0.6,0,1,0.3,1c0.3,0.1,0.6,0.1,0.9,0.1C-44.6,17.8-44.6,18-44.7,18.1z"/>
					<path id="Trazado_100108" class="st10" d="M-35.2,10.6c0,1-0.7,1.4-1.9,2.2c-0.1,0,0,0.1,0,0.1c1,0.8,1.6,1.5,1.6,2.4
						c0,1.7-1.7,3-3.7,3c-2.1,0-2.9-1.1-2.9-2.1c0-0.8,0.5-1.3,2.4-2.5c0,0,0,0,0-0.1c-0.7-0.5-1.2-1.3-1.2-2.1
						c0-0.9,0.5-1.8,1.3-2.3c0.6-0.4,1.3-0.6,2-0.6C-36.1,8.6-35.3,9.5-35.2,10.6z M-37.4,16.3c0-0.7-0.5-1.2-1.8-2.3
						c0,0-0.1,0-0.1,0c-0.7,0.5-1.1,1.2-1.1,2c-0.1,0.9,0.6,1.7,1.5,1.7c0.1,0,0.1,0,0.2,0c0.7,0,1.4-0.5,1.4-1.3
						C-37.4,16.4-37.4,16.3-37.4,16.3z M-39.2,10.4c0,0.8,0.4,1.3,1.6,2.1c0,0,0.1,0,0.1,0c0.5-0.5,0.8-1.1,0.8-1.8
						c0.1-0.8-0.4-1.5-1.2-1.6c0,0-0.1,0-0.1,0C-38.7,9.1-39.2,9.7-39.2,10.4C-39.2,10.3-39.2,10.4-39.2,10.4L-39.2,10.4z"/>
				</g>
				<path id="Trazado_100109" class="st10" d="M120.4,228.9c-0.9,0-1.5,0-2.4,0c-0.9,0-1.6,0-2.4,0c0-0.1,0-0.3,0.1-0.4
					c0.4,0,0.6-0.1,0.9-0.1c0.5-0.1,0.6-0.5,0.7-1c0.1-0.7,0.3-1.6,0.6-3.1c0.2-1.3,0.4-2.5,0.4-3c0-0.3,0-0.6-0.3-0.6
					c-0.3-0.1-0.5-0.1-0.8-0.1c0-0.1,0-0.3,0.1-0.4c1.1-0.1,2.2-0.3,3.2-0.7c0.1,0,0.2,0,0.2,0.1c-0.1,0.6-0.3,1.2-0.5,2.5
					c-0.2,1.3-0.6,4-0.8,5.3c0,0.6,0,1,0.3,1.1c0.3,0.1,0.6,0.1,0.9,0.1C120.5,228.7,120.5,228.8,120.4,228.9z"/>
				<path id="Trazado_100110" class="st10" d="M123.1,229.3c1.9-0.8,3.5-2.2,4.4-4c0,0,0-0.1,0-0.1c-0.6,0.3-1.3,0.5-2,0.6
					c-1.4,0-2.2-1.2-2.2-2.5c0-1.5,0.8-2.8,2.1-3.5c0.6-0.3,1.2-0.4,1.8-0.4c2,0,2.9,1.5,2.9,3.2c0,3.4-3,6.1-7,7.1
					C123.2,229.7,123,229.4,123.1,229.3z M125.4,222.6c0,1.7,0.7,2.3,1.6,2.3c0.2,0,0.4-0.1,0.6-0.1c0.1-0.1,0.2-0.2,0.2-0.3
					c0.2-0.7,0.4-1.4,0.4-2.1c0-1.5-0.4-2.3-1.3-2.3C126.1,219.9,125.3,221.1,125.4,222.6L125.4,222.6z"/>
				<g id="Grupo_83370" transform="translate(160.482 11.513)">
					<path id="Trazado_100111" class="st10" d="M-13.7,22c-0.1,0-0.3-0.3-0.3-0.3c1.1-1.4,2.3-2,3.4-2c1.3,0,2.4,1.1,2.4,2.4
						c0,0,0,0,0,0.1c0,1.2-0.6,2.2-2.2,3.6c-0.6,0.5-1.2,1-2,1.6c0,0,0,0.1,0,0.1c0.5,0,2.4,0,3.1,0c0.3,0,0.7-0.2,1.2-1
						c0,0,0.4,0.1,0.4,0.2c-0.3,0.8-0.7,1.6-1.1,2.3c-0.1,0.2-0.4,0.2-0.9,0.3c-1.1,0-3,0-4.2,0c-0.3,0-0.8,0-1.1,0
						c0-0.1,0-0.3,0-0.4c1.2-0.8,2.3-1.7,3.2-2.7c1.1-1.1,1.5-2.1,1.5-3.2c0.1-0.9-0.6-1.6-1.4-1.7c0,0-0.1,0-0.1,0
						C-12.5,21.2-13.2,21.5-13.7,22z"/>
					<path id="Trazado_100112" class="st10" d="M0.5,22.9c0,2.1-0.8,4.9-2.6,5.9c-0.6,0.3-1.2,0.5-1.9,0.5c-2.1,0-2.8-1.4-2.7-3.3
						c0-1.8,0.6-4.5,2.3-5.7c0.6-0.4,1.4-0.7,2.2-0.7C-0.2,19.7,0.5,21.1,0.5,22.9z M-3.3,20.6c-0.9,1.1-1.4,3.9-1.4,6.1
						c0,1.7,0.4,2.2,1,2.2c0.2,0,0.4-0.1,0.6-0.3c0.9-0.9,1.5-4.3,1.5-6.5c0-1.8-0.5-1.9-0.9-1.9C-2.8,20.2-3.1,20.3-3.3,20.6z"/>
				</g>
			</g>
		</g>
	</g>
	<g id="Elipse_4077" transform="translate(1010.285 275.645)">
		<circle class="st14" cx="-4" cy="7.3" r="5.1"/>
		<circle class="st15" cx="-4" cy="7.3" r="4.1"/>
	</g>
	<g id="Elipse_4079" transform="translate(923.285 379.645)">
		<circle class="st14" cx="28" cy="-31" r="5.1"/>
		<circle class="st15" cx="28" cy="-31" r="4.1"/>
	</g>
	<g id="Elipse_4080" transform="translate(997.285 478.645)">
		<circle class="st14" cx="0.7" cy="-67.4" r="5.1"/>
		<circle class="st15" cx="0.7" cy="-67.4" r="4.1"/>
	</g>
	<g id="Elipse_4081" transform="translate(1064.285 478.645)">
		<circle class="st14" cx="-23.9" cy="-67.4" r="5.1"/>
		<circle class="st15" cx="-23.9" cy="-67.4" r="4.1"/>
	</g>
	<g id="Elipse_4082" transform="translate(1114.285 432.645)">
		<circle class="st14" cx="-42.4" cy="-50.5" r="5.1"/>
		<circle class="st15" cx="-42.4" cy="-50.5" r="4.1"/>
	</g>
	<g id="Elipse_4078" transform="translate(1089.285 294.645)">
		<circle class="st14" cx="-33.1" cy="0.3" r="5.1"/>
		<circle class="st15" cx="-33.1" cy="0.3" r="4.1"/>
	</g>
</g>
</svg>
