<svg xmlns="http://www.w3.org/2000/svg" xmlns:xlink="http://www.w3.org/1999/xlink" width="344.238" height="344.24" viewBox="0 0 344.238 344.24">
  <defs>
    <radialGradient id="radial-gradient" cx="0.5" cy="0.5" r="0.49" gradientTransform="translate(-0.023) scale(1.042 1)" gradientUnits="objectBoundingBox">
      <stop offset="0" stop-color="#fff064"/>
      <stop offset="0.427" stop-color="#fbcb6b"/>
      <stop offset="0.778" stop-color="#f9b570"/>
      <stop offset="1" stop-color="#f9ad72"/>
    </radialGradient>
    <radialGradient id="radial-gradient-2" cx="0.5" cy="0.5" r="0.503" gradientTransform="translate(0.007) scale(0.987 1)" xlink:href="#radial-gradient"/>
    <radialGradient id="radial-gradient-3" cx="0.5" cy="0.5" r="0.54" gradientTransform="translate(-0.006) scale(0.867 1)" xlink:href="#radial-gradient"/>
    <radialGradient id="radial-gradient-4" cx="0.5" cy="0.5" r="0.527" gradientTransform="translate(0.107) scale(0.904 1)" xlink:href="#radial-gradient"/>
    <radialGradient id="radial-gradient-5" cx="0.5" cy="0.5" r="0.494" gradientTransform="translate(-0.004) scale(1.024 1)" xlink:href="#radial-gradient"/>
    <radialGradient id="radial-gradient-6" cx="0.5" cy="0.5" r="0.496" gradientTransform="translate(-0.016) scale(1.018 1)" xlink:href="#radial-gradient"/>
    <radialGradient id="radial-gradient-7" cx="0.5" cy="0.5" r="0.496" gradientTransform="translate(-0.003) scale(1.018 1)" xlink:href="#radial-gradient"/>
    <radialGradient id="radial-gradient-8" cx="0.5" cy="0.5" r="0.493" gradientTransform="translate(-0.025) scale(1.029 1)" xlink:href="#radial-gradient"/>
  </defs>
  <g id="Grupo_83372" data-name="Grupo 83372" transform="translate(-102.149 -96.417)">
    <g id="Grupo_83371" data-name="Grupo 83371" transform="translate(102.149 96.417)">
      <path id="Trazado_99916" data-name="Trazado 99916" d="M455.527,285.2A172.119,172.119,0,1,1,283.411,113.079,172.117,172.117,0,0,1,455.527,285.2Z" transform="translate(-111.289 -113.079)" fill="#12263f"/>
      <path id="Trazado_99917" data-name="Trazado 99917" d="M454.182,287.919a168.057,168.057,0,1,1-168.053-168.06A168.052,168.052,0,0,1,454.182,287.919Z" transform="translate(-114.007 -115.797)" fill="#265d99"/>
      <path id="Trazado_99918" data-name="Trazado 99918" d="M366.543,191.156l-1.429.221,6.678,42.024,1.415-.221a84.6,84.6,0,0,1,25.814,0l1.418.221,6.68-42.024-1.429-.221a127.134,127.134,0,0,0-39.146,0Z" transform="translate(-213.043 -143.771)" fill="url(#radial-gradient)"/>
      <path id="Trazado_99919" data-name="Trazado 99919" d="M387.217,231.714a86.072,86.072,0,0,1,13.126,1.008l6.23-39.18a125.808,125.808,0,0,0-38.711,0l6.229,39.18A86.113,86.113,0,0,1,387.217,231.714Z" transform="translate(-214.145 -144.735)" fill="#265d99"/>
      <path id="Trazado_99920" data-name="Trazado 99920" d="M401.2,537.519a83.5,83.5,0,0,1-27.8.356l-1.425-.217-6.432,42.068,1.422.225a127.46,127.46,0,0,0,41.9-.552l1.422-.254-7.67-41.882Z" transform="translate(-213.218 -283.128)" fill="url(#radial-gradient-2)"/>
      <path id="Trazado_99921" data-name="Trazado 99921" d="M387.389,541.424a86.215,86.215,0,0,1-13.105-1l-5.992,39.223a126,126,0,0,0,41.421-.54l-7.155-39.05A85.677,85.677,0,0,1,387.389,541.424Z" transform="translate(-214.317 -284.246)" fill="#265d99"/>
      <path id="Trazado_99922" data-name="Trazado 99922" d="M562.142,307.752l-37.171,17.61.63,1.306a82.75,82.75,0,0,1,7.1,22.441l.24,1.41,42.045-6.623-.231-1.429a125.405,125.405,0,0,0-10.694-34.036l-.624-1.291Z" transform="translate(-277.128 -190.875)" fill="url(#radial-gradient-3)"/>
      <path id="Trazado_99923" data-name="Trazado 99923" d="M528.192,327.324a84.342,84.342,0,0,1,7.218,22.83l39.209-6.174a123.994,123.994,0,0,0-10.568-33.645Z" transform="translate(-278.419 -192.156)" fill="#265d99"/>
      <path id="Trazado_99924" data-name="Trazado 99924" d="M232.457,420.581l-40.515,6.99.232,1.412a125.265,125.265,0,0,0,11.484,35.531l.642,1.3,37.955-19.264-.631-1.273a83.135,83.135,0,0,1-7.5-23.5l-.229-1.437Z" transform="translate(-143.621 -236.254)" fill="url(#radial-gradient-4)"/>
      <path id="Trazado_99925" data-name="Trazado 99925" d="M233.806,423.123l-39.1,6.747a123.841,123.841,0,0,0,11.346,35.114l35.39-17.957A84.66,84.66,0,0,1,233.806,423.123Z" transform="translate(-144.728 -237.371)" fill="#265d99"/>
      <path id="Trazado_99926" data-name="Trazado 99926" d="M487.612,494.719a83.932,83.932,0,0,1-20.79,16.256l-1.255.692,20.414,37.349,1.262-.7a126.371,126.371,0,0,0,31.41-24.49l.986-1.052-31.048-29.111Z" transform="translate(-253.313 -265.651)" fill="url(#radial-gradient-5)"/>
      <path id="Trazado_99927" data-name="Trazado 99927" d="M468.825,513.592l19.028,34.827a125.337,125.337,0,0,0,31.063-24.21L489.97,497.064A85.535,85.535,0,0,1,468.825,513.592Z" transform="translate(-254.619 -267.012)" fill="#265d99"/>
      <path id="Trazado_99928" data-name="Trazado 99928" d="M281.653,212.37a126.273,126.273,0,0,0-32.44,23.892L248.2,237.3l30.53,29.637,1.005-1.016a83.82,83.82,0,0,1,21.414-15.69l1.284-.657-19.5-37.856Z" transform="translate(-166.173 -152.62)" fill="url(#radial-gradient-6)"/>
      <path id="Trazado_99929" data-name="Trazado 99929" d="M301.853,250.243l-18.178-35.3A125.507,125.507,0,0,0,251.6,238.564L280.068,266.2A85.3,85.3,0,0,1,301.853,250.243Z" transform="translate(-167.537 -153.913)" fill="#265d99"/>
      <path id="Trazado_99930" data-name="Trazado 99930" d="M479.615,212.5l-18.637,36.677,1.285.653A83.932,83.932,0,0,1,484,265.648L485,266.671l30.468-29.7-1.015-1.026a126.319,126.319,0,0,0-32.906-24.066l-1.283-.653Z" transform="translate(-251.474 -152.423)" fill="url(#radial-gradient-7)"/>
      <path id="Trazado_99931" data-name="Trazado 99931" d="M486.316,265.938l28.408-27.689a125,125,0,0,0-32.529-23.787l-17.982,35.386A85.349,85.349,0,0,1,486.316,265.938Z" transform="translate(-252.771 -153.722)" fill="#265d99"/>
      <path id="Trazado_99932" data-name="Trazado 99932" d="M278.262,497.963,249.31,527.144l1.016,1.012a126.26,126.26,0,0,0,33.3,23.974l1.295.647,18.686-38.245-1.276-.638a84.006,84.006,0,0,1-22.024-15.93l-1.019-1.034Z" transform="translate(-166.619 -266.958)" fill="url(#radial-gradient-8)"/>
      <path id="Trazado_99933" data-name="Trazado 99933" d="M280.649,500.338,252.7,528.506a125.148,125.148,0,0,0,32.927,23.706l17.417-35.664A85.286,85.286,0,0,1,280.649,500.338Z" transform="translate(-167.979 -268.325)" fill="#265d99"/>
      <g id="Grupo_83357" data-name="Grupo 83357" transform="translate(46.863 47.174)">
        <path id="Trazado_99934" data-name="Trazado 99934" d="M578.139,364.077l-40.624,6.452.232,1.426a83.4,83.4,0,0,1,.291,25.6l-.2,1.415,42.074,6.427.211-1.436a126.944,126.944,0,0,0-.334-38.7l-.232-1.418Z" transform="translate(-329.019 -260.783)" fill="#12263f"/>
        <path id="Trazado_99935" data-name="Trazado 99935" d="M541.437,386.788a85.06,85.06,0,0,1-.871,12.075l39.23,6a125.038,125.038,0,0,0-.326-38.263l-39.194,6.227A85.309,85.309,0,0,1,541.437,386.788Z" transform="translate(-330.126 -261.885)" fill="#fff"/>
        <path id="Trazado_99936" data-name="Trazado 99936" d="M190.843,368.659a127.085,127.085,0,0,0,.348,38.977l.232,1.437,41.929-7.29-.228-1.407a83.582,83.582,0,0,1-.142-25.767l.21-1.436-42.139-5.927Z" transform="translate(-189.509 -262.144)" fill="#12263f"/>
        <path id="Trazado_99937" data-name="Trazado 99937" d="M231.584,388.135a85.56,85.56,0,0,1,.944-12.651l-39.293-5.528a125.971,125.971,0,0,0,.341,38.532l39.093-6.794A86.169,86.169,0,0,1,231.584,388.135Z" transform="translate(-190.475 -263.231)" fill="#fff"/>
        <path id="Trazado_99938" data-name="Trazado 99938" d="M449.58,522.209a82.88,82.88,0,0,1-25.283,8.977l-1.415.258,7.612,41.894,1.414-.263a125.191,125.191,0,0,0,38.158-13.554l1.254-.7-20.478-37.308Z" transform="translate(-283.065 -323.989)" fill="#12263f"/>
        <path id="Trazado_99939" data-name="Trazado 99939" d="M425.674,533.909l7.1,39.064a124.1,124.1,0,0,0,37.715-13.406l-19.094-34.788A84.578,84.578,0,0,1,425.674,533.909Z" transform="translate(-284.184 -325.297)" fill="#fff"/>
        <path id="Trazado_99940" data-name="Trazado 99940" d="M341.187,192.037A125.36,125.36,0,0,0,303.3,204.355l-1.283.66,19.564,37.816,1.273-.645a82.9,82.9,0,0,1,24.948-8.11l1.425-.222-6.623-42.035Z" transform="translate(-234.612 -191.819)" fill="#12263f"/>
        <path id="Trazado_99941" data-name="Trazado 99941" d="M348.884,233.751l-6.174-39.195a123.778,123.778,0,0,0-37.446,12.18L323.5,242A84.459,84.459,0,0,1,348.884,233.751Z" transform="translate(-235.913 -192.916)" fill="#fff"/>
        <path id="Trazado_99942" data-name="Trazado 99942" d="M527.24,251.849,497.824,280.59l1.023,1.03a83.759,83.759,0,0,1,15.807,22.35l.616,1.284,38.5-18.157-.632-1.305a126.357,126.357,0,0,0-23.866-33.921l-1.009-1.023Z" transform="translate(-313.108 -215.482)" fill="#12263f"/>
        <path id="Trazado_99943" data-name="Trazado 99943" d="M517.313,304.7l35.894-16.931a125,125,0,0,0-23.6-33.537l-28.372,27.729A85.133,85.133,0,0,1,517.313,304.7Z" transform="translate(-314.476 -216.841)" fill="#fff"/>
        <path id="Trazado_99944" data-name="Trazado 99944" d="M247.178,460.655l-36.7,18.541.639,1.281a126.346,126.346,0,0,0,22.959,32.18l1.016,1.03,30.149-30.033-.994-1.015A83.734,83.734,0,0,1,249.119,461.3l-.642-1.29Z" transform="translate(-197.916 -299.331)" fill="#12263f"/>
        <path id="Trazado_99945" data-name="Trazado 99945" d="M249.12,463.232l-35.427,17.9a125.117,125.117,0,0,0,22.7,31.807l28.114-28A85.2,85.2,0,0,1,249.12,463.232Z" transform="translate(-199.204 -300.624)" fill="#fff"/>
        <path id="Trazado_99946" data-name="Trazado 99946" d="M517.138,456.615a83.6,83.6,0,0,1-14.6,22.2l-.964,1.059,31.2,28.923.979-1.066a126.284,126.284,0,0,0,22.14-33.469l.588-1.3L517.733,455.3Z" transform="translate(-314.612 -297.442)" fill="#12263f"/>
        <path id="Trazado_99947" data-name="Trazado 99947" d="M504.954,481.07l11.176,10.358,17.92,16.609a124.9,124.9,0,0,0,21.888-33.087L519.8,458.491A85.116,85.116,0,0,1,504.954,481.07Z" transform="translate(-315.966 -298.724)" fill="#fff"/>
        <path id="Trazado_99948" data-name="Trazado 99948" d="M233.43,253.14a126.473,126.473,0,0,0-22.293,31.487l-.645,1.3,38.244,18.68.642-1.27a83.569,83.569,0,0,1,14.751-20.711l1.008-1.045-30.707-29.474Z" transform="translate(-197.921 -215.987)" fill="#12263f"/>
        <path id="Trazado_99949" data-name="Trazado 99949" d="M264.394,282.975,235.761,255.5a124.9,124.9,0,0,0-22.042,31.128l35.665,17.425A85.357,85.357,0,0,1,264.394,282.975Z" transform="translate(-199.214 -217.346)" fill="#fff"/>
        <path id="Trazado_99950" data-name="Trazado 99950" d="M425.917,193.234l-2.9,18.394-3.5,22.226,1.429.222a83.189,83.189,0,0,1,24.558,7.907l1.284.646,19.348-37.918-1.284-.653a125.345,125.345,0,0,0-37.288-12.02l-1.422-.218Z" transform="translate(-281.715 -191.819)" fill="#12263f"/>
        <path id="Trazado_99951" data-name="Trazado 99951" d="M447.251,241.8,465.3,206.438a124.015,124.015,0,0,0-36.86-11.882l-6.175,39.195A84.291,84.291,0,0,1,447.251,241.8Z" transform="translate(-282.817 -192.916)" fill="#fff"/>
        <path id="Trazado_99952" data-name="Trazado 99952" d="M322.687,525.58l-18.114,36.914,1.284.642a125.26,125.26,0,0,0,36.612,11.6l1.43.218,6.373-42.079-1.419-.218a83.058,83.058,0,0,1-24.233-7.733l-1.295-.642Z" transform="translate(-235.636 -325.098)" fill="#12263f"/>
        <path id="Trazado_99953" data-name="Trazado 99953" d="M325.265,527.509l-17.483,35.633a123.916,123.916,0,0,0,36.2,11.462l5.937-39.231A84.616,84.616,0,0,1,325.265,527.509Z" transform="translate(-236.923 -326.392)" fill="#fff"/>
      </g>
      <path id="Trazado_99954" data-name="Trazado 99954" d="M533.678,419.334a83.343,83.343,0,0,1-6.412,22.155l-.588,1.3,38.716,17.722.6-1.317a125.348,125.348,0,0,0,9.779-33.51l.2-1.415-42.09-6.369Z" transform="translate(-277.812 -235.278)" fill="#12263f"/>
      <path id="Trazado_99955" data-name="Trazado 99955" d="M529.852,443.169l36.1,16.533a123.692,123.692,0,0,0,9.663-33.126l-39.238-5.944A84.468,84.468,0,0,1,529.852,443.169Z" transform="translate(-279.084 -236.372)" fill="#265d99"/>
      <g id="Grupo_83358" data-name="Grupo 83358" transform="translate(37.225 34.994)">
        <path id="Trazado_99956" data-name="Trazado 99956" d="M363.694,173.136l-1.425.218,2.154,13.59,1.422-.221a124.4,124.4,0,0,1,38.261,0l1.422.221,2.154-13.59-1.422-.218a138.342,138.342,0,0,0-42.567,0Z" transform="translate(-249.128 -171.489)" fill="#12263f"/>
        <path id="Trazado_99957" data-name="Trazado 99957" d="M386.077,184.768a126.015,126.015,0,0,1,19.356,1.5l1.7-10.744a137,137,0,0,0-42.12,0l1.7,10.744A126.059,126.059,0,0,1,386.077,184.768Z" transform="translate(-250.23 -172.453)" fill="#76c2dd"/>
        <path id="Trazado_99958" data-name="Trazado 99958" d="M407.261,602.7a124.518,124.518,0,0,1-40.948.53l-1.425-.217-2.075,13.6,1.422.218a138.446,138.446,0,0,0,45.494-.595l1.422-.261-2.482-13.536Z" transform="translate(-249.346 -344.248)" fill="#12263f"/>
        <path id="Trazado_99959" data-name="Trazado 99959" d="M386.288,607.227a125.9,125.9,0,0,1-19.1-1.455l-1.646,10.755a137.173,137.173,0,0,0,45.024-.594l-1.958-10.7A125.425,125.425,0,0,1,386.288,607.227Z" transform="translate(-250.442 -345.37)" fill="#76c2dd"/>
        <path id="Trazado_99960" data-name="Trazado 99960" d="M595.97,299.974l-11.136,5.281.623,1.305A122.5,122.5,0,0,1,595.9,339.815l.233,1.414,13.587-2.139-.233-1.43a136.167,136.167,0,0,0-11.606-37l-.617-1.291Z" transform="translate(-338.351 -222.752)" fill="#12263f"/>
        <path id="Trazado_99961" data-name="Trazado 99961" d="M598.612,340.862l10.744-1.69a134.647,134.647,0,0,0-11.484-36.616l-9.829,4.661A124,124,0,0,1,598.612,340.862Z" transform="translate(-339.638 -224.032)" fill="#76c2dd"/>
        <path id="Trazado_99962" data-name="Trazado 99962" d="M186.175,431.846l-12.129,2.093.232,1.41a136.067,136.067,0,0,0,12.5,38.6l.642,1.3,12.273-6.225-.638-1.283a122.2,122.2,0,0,1-11.219-34.712L187.6,431.6Z" transform="translate(-173.673 -275.763)" fill="#12263f"/>
        <path id="Trazado_99963" data-name="Trazado 99963" d="M187.528,434.384l-10.721,1.846a134.633,134.633,0,0,0,12.368,38.19l9.7-4.922A123.84,123.84,0,0,1,187.528,434.384Z" transform="translate(-174.78 -276.879)" fill="#76c2dd"/>
        <path id="Trazado_99964" data-name="Trazado 99964" d="M529.282,540.027a123.415,123.415,0,0,1-30.7,23.935l-1.255.693,6.6,12.072,1.262-.7a137.348,137.348,0,0,0,34.132-26.591l.979-1.051-10.033-9.409Z" transform="translate(-303.271 -318.809)" fill="#12263f"/>
        <path id="Trazado_99965" data-name="Trazado 99965" d="M500.585,566.582l5.216,9.548a136.306,136.306,0,0,0,33.776-26.316l-7.929-7.442A125.34,125.34,0,0,1,500.585,566.582Z" transform="translate(-304.577 -320.17)" fill="#76c2dd"/>
        <path id="Trazado_99966" data-name="Trazado 99966" d="M271.449,196.221a137.267,137.267,0,0,0-35.259,25.988l-1.016,1.034,9.869,9.583,1-1.023a123.826,123.826,0,0,1,31.7-23.352l1.285-.657-6.3-12.235Z" transform="translate(-198.178 -181.139)" fill="#12263f"/>
        <path id="Trazado_99967" data-name="Trazado 99967" d="M278.457,208.467l-4.98-9.674a136.054,136.054,0,0,0-34.893,25.724l7.8,7.573A125.508,125.508,0,0,1,278.457,208.467Z" transform="translate(-199.545 -182.435)" fill="#76c2dd"/>
        <path id="Trazado_99968" data-name="Trazado 99968" d="M496.574,196.315,490.995,207.3l1.284.652a123.422,123.422,0,0,1,32.159,23.525l1,1.017,9.852-9.606-1.009-1.029a137.153,137.153,0,0,0-35.771-26.171l-1.284-.652Z" transform="translate(-300.732 -180.928)" fill="#12263f"/>
        <path id="Trazado_99969" data-name="Trazado 99969" d="M526.755,231.754l7.791-7.6a136.032,136.032,0,0,0-35.393-25.9l-4.926,9.706A125,125,0,0,1,526.755,231.754Z" transform="translate(-302.028 -182.221)" fill="#76c2dd"/>
        <path id="Trazado_99970" data-name="Trazado 99970" d="M245.193,544.972l-8.669,8.742,1.012,1.015a137.167,137.167,0,0,0,36.191,26.03l1.3.641,6.039-12.357-1.281-.642a123.132,123.132,0,0,1-32.542-23.434l-1.023-1.02Z" transform="translate(-198.719 -320.801)" fill="#12263f"/>
        <path id="Trazado_99971" data-name="Trazado 99971" d="M247.575,547.354l-7.661,7.722a135.959,135.959,0,0,0,35.815,25.76l4.774-9.776A125.147,125.147,0,0,1,247.575,547.354Z" transform="translate(-200.078 -322.167)" fill="#76c2dd"/>
        <path id="Trazado_99972" data-name="Trazado 99972" d="M597.07,429.251a122.241,122.241,0,0,1-9.554,32.738l-.586,1.305,12.513,5.731.595-1.32A136.238,136.238,0,0,0,610.673,431.3l.21-1.415-13.6-2.061Z" transform="translate(-339.191 -274.248)" fill="#12263f"/>
        <path id="Trazado_99973" data-name="Trazado 99973" d="M590.1,463.679,600,468.206a134.473,134.473,0,0,0,10.525-36.022l-10.758-1.631A123.694,123.694,0,0,1,590.1,463.679Z" transform="translate(-340.462 -275.344)" fill="#76c2dd"/>
        <path id="Trazado_99974" data-name="Trazado 99974" d="M186.469,297.652a136.073,136.073,0,0,0-12.837,41.034l-.21,1.436,13.623,1.894.207-1.408a122.417,122.417,0,0,1,11.563-36.88l.646-1.295-12.354-6.065Z" transform="translate(-173.423 -221.551)" fill="#12263f"/>
        <path id="Trazado_99975" data-name="Trazado 99975" d="M198.619,304.374l-9.764-4.791a134.634,134.634,0,0,0-12.7,40.6l10.773,1.5A123.838,123.838,0,0,1,198.619,304.374Z" transform="translate(-174.517 -222.84)" fill="#76c2dd"/>
      </g>
      <path id="Trazado_99976" data-name="Trazado 99976" d="M203.451,305.652A124.983,124.983,0,0,0,191.62,343.4l-.211,1.432,42.14,5.871.211-1.407a82.9,82.9,0,0,1,7.9-24.868l.654-1.3-38.227-18.756Z" transform="translate(-143.408 -189.765)" fill="#12263f"/>
      <path id="Trazado_99977" data-name="Trazado 99977" d="M241.46,325.063,205.827,307.58a123.837,123.837,0,0,0-11.694,37.308L202.117,346l3.746.522,27.566,3.843A84.539,84.539,0,0,1,241.46,325.063Z" transform="translate(-144.5 -191.051)" fill="#265d99"/>
      <g id="Grupo_83359" data-name="Grupo 83359" transform="translate(35.985 36.424)">
        <path id="Trazado_99978" data-name="Trazado 99978" d="M615.108,361.224l-12.173,1.933.232,1.422a124.013,124.013,0,0,1,.326,37.825l-.2,1.414,13.594,2.078.21-1.433a137.545,137.545,0,0,0-.34-42.045L616.522,361Z" transform="translate(-344.367 -248.889)" fill="#12263f"/>
        <path id="Trazado_99979" data-name="Trazado 99979" d="M607.336,385.645a125.654,125.654,0,0,1-1.314,18.071l10.759,1.639a136.512,136.512,0,0,0-.341-41.61L605.7,365.454A125.942,125.942,0,0,1,607.336,385.645Z" transform="translate(-345.474 -249.991)" fill="#ccf8ff"/>
        <path id="Trazado_99980" data-name="Trazado 99980" d="M172.8,366.135a137.926,137.926,0,0,0,.395,42.35l.239,1.429,13.551-2.35-.232-1.411a124.328,124.328,0,0,1-.334-38.092l.211-1.433L173,364.714Z" transform="translate(-171.352 -250.379)" fill="#12263f"/>
        <path id="Trazado_99981" data-name="Trazado 99981" d="M184.637,387.121a125.708,125.708,0,0,1,1.316-18.179l-10.768-1.516a136.474,136.474,0,0,0,.392,41.915l10.718-1.867A125.4,125.4,0,0,1,184.637,387.121Z" transform="translate(-172.316 -251.466)" fill="#ccf8ff"/>
        <path id="Trazado_99982" data-name="Trazado 99982" d="M473.421,580.279a122.385,122.385,0,0,1-37.272,13.244l-1.422.257,2.459,13.54,1.415-.261a135.9,135.9,0,0,0,41.443-14.723l1.256-.693-6.617-12.056Z" transform="translate(-276.935 -336.518)" fill="#12263f"/>
        <path id="Trazado_99983" data-name="Trazado 99983" d="M437.525,596.25l1.943,10.7a134.629,134.629,0,0,0,41-14.567l-5.23-9.539A124.107,124.107,0,0,1,437.525,596.25Z" transform="translate(-278.056 -337.824)" fill="#ccf8ff"/>
        <path id="Trazado_99984" data-name="Trazado 99984" d="M336.149,174.1a135.817,135.817,0,0,0-41.19,13.4l-1.283.661L300,200.378l1.269-.66a122.419,122.419,0,0,1,37.019-12.028l1.422-.225-2.144-13.591Z" transform="translate(-220.39 -173.875)" fill="#12263f"/>
        <path id="Trazado_99985" data-name="Trazado 99985" d="M339.365,187.367l-1.7-10.744a134.587,134.587,0,0,0-40.747,13.257l5,9.667A123.777,123.777,0,0,1,339.365,187.367Z" transform="translate(-221.691 -174.977)" fill="#ccf8ff"/>
        <path id="Trazado_99986" data-name="Trazado 99986" d="M554.006,239.158l-8.814,8.611,1.015,1.038a123.15,123.15,0,0,1,23.323,33.144l.623,1.292,12.441-5.869-.623-1.309a137.186,137.186,0,0,0-25.935-36.885l-1.008-1.023Z" transform="translate(-321.219 -199.645)" fill="#12263f"/>
        <path id="Trazado_99987" data-name="Trazado 99987" d="M572.192,282.687l9.844-4.643a136.041,136.041,0,0,0-25.665-36.5l-7.776,7.6A124.994,124.994,0,0,1,572.192,282.687Z" transform="translate(-322.583 -201.004)" fill="#ccf8ff"/>
        <path id="Trazado_99988" data-name="Trazado 99988" d="M205.259,490.525l-10.987,5.553.639,1.284a137.274,137.274,0,0,0,24.958,34.944l1.019,1.031,9.747-9.7-1-1.019A123.508,123.508,0,0,1,207.2,491.167l-.646-1.291Z" transform="translate(-180.54 -300.555)" fill="#12263f"/>
        <path id="Trazado_99989" data-name="Trazado 99989" d="M207.2,493.108l-9.709,4.9a136.033,136.033,0,0,0,24.7,34.582l7.7-7.679A125.113,125.113,0,0,1,207.2,493.108Z" transform="translate(-181.829 -301.85)" fill="#ccf8ff"/>
        <path id="Trazado_99990" data-name="Trazado 99990" d="M572.736,484.094A123.281,123.281,0,0,1,551.1,516.8l-.972,1.052,10.09,9.355.972-1.063a136.712,136.712,0,0,0,24.063-36.359l.594-1.305-12.521-5.7Z" transform="translate(-323.199 -297.71)" fill="#12263f"/>
        <path id="Trazado_99991" data-name="Trazado 99991" d="M553.52,519.052l7.981,7.392a135.81,135.81,0,0,0,23.809-35.969l-9.9-4.51A124.9,124.9,0,0,1,553.52,519.052Z" transform="translate(-324.557 -298.987)" fill="#ccf8ff"/>
        <path id="Trazado_99992" data-name="Trazado 99992" d="M219.038,240.568a137.422,137.422,0,0,0-24.222,34.244l-.645,1.3,12.362,6.039.638-1.277A123.4,123.4,0,0,1,228.958,250.1l1-1.033-9.924-9.528Z" transform="translate(-180.499 -200.198)" fill="#12263f"/>
        <path id="Trazado_99993" data-name="Trazado 99993" d="M229.218,250.458l-7.85-7.529A135.878,135.878,0,0,0,197.4,276.813l9.779,4.773A124.9,124.9,0,0,1,229.218,250.458Z" transform="translate(-181.793 -201.558)" fill="#ccf8ff"/>
        <path id="Trazado_99994" data-name="Trazado 99994" d="M431.738,175.3l-1.915,12.169,1.422.225a122.447,122.447,0,0,1,36.432,11.741l1.284.649,6.254-12.256-1.285-.653A135.876,135.876,0,0,0,433.385,174.1l-1.422-.225Z" transform="translate(-274.969 -173.875)" fill="#12263f"/>
        <path id="Trazado_99995" data-name="Trazado 99995" d="M469.432,199.249l4.946-9.691a134.686,134.686,0,0,0-40.116-12.935l-1.691,10.744A124.014,124.014,0,0,1,469.432,199.249Z" transform="translate(-276.071 -174.977)" fill="#ccf8ff"/>
        <path id="Trazado_99996" data-name="Trazado 99996" d="M302,585.053l-5.427,11.056,1.284.638a136.13,136.13,0,0,0,39.783,12.59l1.422.214,2.061-13.6-1.418-.22A122.463,122.463,0,0,1,303.925,584.4l-1.292-.642Z" transform="translate(-221.55 -338.191)" fill="#12263f"/>
        <path id="Trazado_99997" data-name="Trazado 99997" d="M304.576,586.985l-4.792,9.764A134.415,134.415,0,0,0,339.142,609.2l1.629-10.758A123.918,123.918,0,0,1,304.576,586.985Z" transform="translate(-222.838 -339.484)" fill="#ccf8ff"/>
        <path id="Trazado_99998" data-name="Trazado 99998" d="M533.867,374.474,524.85,375.9l.24,1.436a75.279,75.279,0,0,1,.275,23.229l-.2,1.41,10.431,1.593.21-1.436a88.348,88.348,0,0,0,.885-12.275,87.314,87.314,0,0,0-1.183-14.2l-.232-1.412Z" transform="translate(-313.064 -254.199)" fill="#12263f"/>
        <path id="Trazado_99999" data-name="Trazado 99999" d="M528.683,390.955a78.393,78.393,0,0,1-.783,10.915l7.588,1.16a84.361,84.361,0,0,0-.29-26.04l-7.589,1.2A77.1,77.1,0,0,1,528.683,390.955Z" transform="translate(-314.17 -255.3)" fill="#ccf8ff"/>
        <path id="Trazado_100000" data-name="Trazado 100000" d="M256.682,377.878a87,87,0,0,0,.149,26.652l.229,1.444,10.4-1.814-.222-1.4a76.327,76.327,0,0,1-.105-23.384l.215-1.436-10.458-1.47Z" transform="translate(-205.177 -255.092)" fill="#12263f"/>
        <path id="Trazado_100001" data-name="Trazado 100001" d="M265.8,391.834a78.107,78.107,0,0,1,.868-11.582l-7.6-1.069a85.271,85.271,0,0,0,.141,26.21l7.566-1.32A77.792,77.792,0,0,1,265.8,391.834Z" transform="translate(-206.138 -256.18)" fill="#ccf8ff"/>
        <path id="Trazado_100002" data-name="Trazado 100002" d="M444.971,510.976a75.231,75.231,0,0,1-22.962,8.15l-1.414.257,1.885,10.384,1.415-.258a85.848,85.848,0,0,0,26.16-9.282l1.256-.693-5.078-9.256Z" transform="translate(-271.27 -308.734)" fill="#12263f"/>
        <path id="Trazado_100003" data-name="Trazado 100003" d="M423.378,521.854l1.376,7.553a84.578,84.578,0,0,0,25.721-9.13l-3.692-6.729A76.923,76.923,0,0,1,423.378,521.854Z" transform="translate(-272.385 -310.044)" fill="#ccf8ff"/>
        <path id="Trazado_100004" data-name="Trazado 100004" d="M359.564,257.456a86.017,86.017,0,0,0-25.81,8.382l-1.284.66,4.846,9.377,1.277-.649a75.385,75.385,0,0,1,22.612-7.338l1.428-.224-1.647-10.429Z" transform="translate(-235.942 -207.292)" fill="#12263f"/>
        <path id="Trazado_100005" data-name="Trazado 100005" d="M362.279,267.565l-1.193-7.588a84.458,84.458,0,0,0-25.383,8.248l3.529,6.816A76.907,76.907,0,0,1,362.279,267.565Z" transform="translate(-237.238 -208.392)" fill="#ccf8ff"/>
        <path id="Trazado_100006" data-name="Trazado 100006" d="M495.188,298.133l-6.529,6.373,1.022,1.03A76.111,76.111,0,0,1,504.03,325.8l.623,1.28,9.555-4.508-.638-1.306a86.615,86.615,0,0,0-16.351-23.119l-1.008-1.023Z" transform="translate(-298.555 -223.284)" fill="#12263f"/>
        <path id="Trazado_100007" data-name="Trazado 100007" d="M506.7,326.531l6.941-3.272a85.134,85.134,0,0,0-16.075-22.738l-5.491,5.365A77.653,77.653,0,0,1,506.7,326.531Z" transform="translate(-299.923 -224.645)" fill="#ccf8ff"/>
        <path id="Trazado_100008" data-name="Trazado 100008" d="M277.742,454.875l-8.125,4.1.631,1.284A86.741,86.741,0,0,0,285.9,482.328l1.016,1.041,7.475-7.454-.99-1.015a76.138,76.138,0,0,1-13.718-19.38l-.638-1.3Z" transform="translate(-210.745 -286.26)" fill="#12263f"/>
        <path id="Trazado_100009" data-name="Trazado 100009" d="M279.681,457.463l-6.856,3.456a85.2,85.2,0,0,0,15.382,21.7l5.444-5.423A77.531,77.531,0,0,1,279.681,457.463Z" transform="translate(-212.031 -287.561)" fill="#ccf8ff"/>
        <path id="Trazado_100010" data-name="Trazado 100010" d="M506.386,451.3a76.03,76.03,0,0,1-13.24,20.163l-.964,1.055,7.74,7.179.98-1.074a86.353,86.353,0,0,0,15.1-22.96l.587-1.305-9.6-4.381Z" transform="translate(-299.968 -284.561)" fill="#12263f"/>
        <path id="Trazado_100011" data-name="Trazado 100011" d="M495.56,473.721l5.628,5.219a85.118,85.118,0,0,0,14.85-22.579l-6.985-3.184A77.659,77.659,0,0,1,495.56,473.721Z" transform="translate(-301.322 -285.843)" fill="#ccf8ff"/>
        <path id="Trazado_100012" data-name="Trazado 100012" d="M285.924,299.007a86.635,86.635,0,0,0-15.256,21.43l-.652,1.295,9.481,4.639.642-1.27a76.16,76.16,0,0,1,13.389-18.77l1.015-1.041-7.617-7.306Z" transform="translate(-210.905 -223.628)" fill="#12263f"/>
        <path id="Trazado_100013" data-name="Trazado 100013" d="M293.793,306.676l-5.535-5.314a85.356,85.356,0,0,0-15.01,21.074l6.9,3.374A77.666,77.666,0,0,1,293.793,306.676Z" transform="translate(-212.201 -224.982)" fill="#ccf8ff"/>
        <path id="Trazado_100014" data-name="Trazado 100014" d="M418.946,258.652l-1.415,9.011,1.422.224a75.406,75.406,0,0,1,22.265,7.16l1.277.642,4.8-9.4-1.291-.652a85.939,85.939,0,0,0-25.414-8.179l-1.421-.222Z" transform="translate(-270.041 -207.292)" fill="#12263f"/>
        <path id="Trazado_100015" data-name="Trazado 100015" d="M442.963,274.862l3.49-6.84a84.291,84.291,0,0,0-24.986-8.045l-1.193,7.588A76.763,76.763,0,0,1,442.963,274.862Z" transform="translate(-271.14 -208.392)" fill="#ccf8ff"/>
        <path id="Trazado_100016" data-name="Trazado 100016" d="M337.765,514.072l-4.012,8.176,1.285.641a85.835,85.835,0,0,0,25.071,8l1.429.225,1.582-10.443-1.416-.221a75.244,75.244,0,0,1-22-7.029l-1.3-.646Z" transform="translate(-236.456 -309.734)" fill="#12263f"/>
        <path id="Trazado_100017" data-name="Trazado 100017" d="M340.343,516l-3.38,6.9a84.621,84.621,0,0,0,24.649,7.864l1.153-7.6A76.761,76.761,0,0,1,340.343,516Z" transform="translate(-237.743 -311.027)" fill="#ccf8ff"/>
      </g>
      <g id="Grupo_83360" data-name="Grupo 83360" transform="translate(87.286 85.542)">
        <path id="Trazado_100018" data-name="Trazado 100018" d="M376.935,256.882l-1.426.225,1.657,10.425,1.416-.218a76.52,76.52,0,0,1,23.4,0l1.419.218,1.657-10.425-1.429-.225a87.57,87.57,0,0,0-26.7,0Z" transform="translate(-304.497 -255.859)" fill="#12263f"/>
        <path id="Trazado_100019" data-name="Trazado 100019" d="M391.385,265.939a77.9,77.9,0,0,1,11.926.915l1.2-7.588a85.99,85.99,0,0,0-26.252,0l1.207,7.588A77.774,77.774,0,0,1,391.385,265.939Z" transform="translate(-305.599 -256.821)" fill="#12263f"/>
        <path id="Trazado_100020" data-name="Trazado 100020" d="M403.835,524.905a75.748,75.748,0,0,1-25.256.326l-1.429-.224-1.592,10.442,1.418.214a86.388,86.388,0,0,0,28.749-.369l1.422-.255-1.9-10.388Z" transform="translate(-304.517 -363.614)" fill="#12263f"/>
        <path id="Trazado_100021" data-name="Trazado 100021" d="M391.4,528.692a78.2,78.2,0,0,1-11.945-.917l-1.161,7.591A85.208,85.208,0,0,0,406.567,535l-1.381-7.552A77.754,77.754,0,0,1,391.4,528.692Z" transform="translate(-305.613 -364.735)" fill="#12263f"/>
        <path id="Trazado_100022" data-name="Trazado 100022" d="M521.638,336.112l-8.255,3.913.631,1.3a75.46,75.46,0,0,1,6.457,20.349l.233,1.4,10.431-1.64-.24-1.432a85.853,85.853,0,0,0-7.342-23.221l-.623-1.287Z" transform="translate(-359.768 -287.787)" fill="#12263f"/>
        <path id="Trazado_100023" data-name="Trazado 100023" d="M523.176,362.722l7.588-1.2a84.347,84.347,0,0,0-7.217-22.83l-6.943,3.287A76.683,76.683,0,0,1,523.176,362.722Z" transform="translate(-361.06 -289.065)" fill="#12263f"/>
        <path id="Trazado_100024" data-name="Trazado 100024" d="M266.194,418.405l-8.97,1.545.228,1.4a85.778,85.778,0,0,0,7.762,24.316l.639,1.306,9.417-4.78-.628-1.273a75.537,75.537,0,0,1-6.786-21.328l-.228-1.437Z" transform="translate(-257.078 -320.922)" fill="#12263f"/>
        <path id="Trazado_100025" data-name="Trazado 100025" d="M267.538,420.944l-7.566,1.305a84.661,84.661,0,0,0,7.632,23.9l6.852-3.483A76.627,76.627,0,0,1,267.538,420.944Z" transform="translate(-258.18 -322.039)" fill="#12263f"/>
        <path id="Trazado_100026" data-name="Trazado 100026" d="M479.547,485.951a76.18,76.18,0,0,1-18.875,14.771l-1.255.693,5.063,9.267,1.269-.7a86.928,86.928,0,0,0,21.5-16.809l.98-1.051-7.7-7.219Z" transform="translate(-338.134 -347.677)" fill="#12263f"/>
        <path id="Trazado_100027" data-name="Trazado 100027" d="M462.673,503.339l3.686,6.736A85.534,85.534,0,0,0,487.5,493.547l-5.6-5.256A77.667,77.667,0,0,1,462.673,503.339Z" transform="translate(-339.44 -349.037)" fill="#12263f"/>
        <path id="Trazado_100028" data-name="Trazado 100028" d="M318.881,271.275A86.827,86.827,0,0,0,296.73,287.51l-1.018,1.038,7.569,7.349,1-1.013A75.98,75.98,0,0,1,323.7,280.67l1.287-.661-4.834-9.383Z" transform="translate(-272.507 -261.779)" fill="#12263f"/>
        <path id="Trazado_100029" data-name="Trazado 100029" d="M324.417,280.688l-3.515-6.823a85.3,85.3,0,0,0-21.785,15.96l5.51,5.346A77.694,77.694,0,0,1,324.417,280.688Z" transform="translate(-273.873 -263.077)" fill="#12263f"/>
        <path id="Trazado_100030" data-name="Trazado 100030" d="M459.3,271.582l-4.135,8.132,1.284.65A75.832,75.832,0,0,1,476.168,294.7l1.008,1.009,7.559-7.363-1.024-1.038a86.548,86.548,0,0,0-22.48-16.358l-1.284-.645Z" transform="translate(-336.43 -261.651)" fill="#12263f"/>
        <path id="Trazado_100031" data-name="Trazado 100031" d="M478.486,294.977l5.5-5.361a85.351,85.351,0,0,0-22.1-16.09l-3.484,6.841A77.6,77.6,0,0,1,478.486,294.977Z" transform="translate(-337.726 -262.941)" fill="#12263f"/>
        <path id="Trazado_100032" data-name="Trazado 100032" d="M302.377,488.86l-6.413,6.464,1,1.016a86.432,86.432,0,0,0,22.786,16.474l1.3.653,4.631-9.486-1.276-.635a76.141,76.141,0,0,1-19.982-14.487l-1.023-1.029Z" transform="translate(-272.609 -348.853)" fill="#12263f"/>
        <path id="Trazado_100033" data-name="Trazado 100033" d="M304.757,491.238l-5.408,5.452a85.289,85.289,0,0,0,22.4,16.21l3.374-6.9A77.63,77.63,0,0,1,304.757,491.238Z" transform="translate(-273.966 -350.219)" fill="#12263f"/>
        <path id="Trazado_100034" data-name="Trazado 100034" d="M521.414,417.416a75.336,75.336,0,0,1-5.8,20.109l-.58,1.3,9.6,4.4.594-1.322a85.936,85.936,0,0,0,6.638-22.921l.2-1.415-10.439-1.581Z" transform="translate(-360.429 -320.048)" fill="#12263f"/>
        <path id="Trazado_100035" data-name="Trazado 100035" d="M518.19,439.2l6.987,3.2a84.475,84.475,0,0,0,6.521-22.538l-7.6-1.151A76.389,76.389,0,0,1,518.19,439.2Z" transform="translate(-361.695 -321.143)" fill="#12263f"/>
        <path id="Trazado_100036" data-name="Trazado 100036" d="M265.37,334.836a85.819,85.819,0,0,0-8.168,25.727l-.222,1.44,10.457,1.459.21-1.408a75.609,75.609,0,0,1,7.189-22.547l.652-1.295-9.48-4.653Z" transform="translate(-256.981 -287.008)" fill="#12263f"/>
        <path id="Trazado_100037" data-name="Trazado 100037" d="M274.653,340.145l-6.9-3.384a84.538,84.538,0,0,0-8.03,25.3l7.6,1.06A76.7,76.7,0,0,1,274.653,340.145Z" transform="translate(-258.081 -288.291)" fill="#12263f"/>
      </g>
      <path id="Trazado_100038" data-name="Trazado 100038" d="M378.944,269.608l-1.425.222L389.667,346.3l2.843,0,12.15-76.463-1.429-.222a79.557,79.557,0,0,0-24.287,0Z" transform="translate(-218.016 -175.455)" fill="#12263f"/>
      <path id="Trazado_100039" data-name="Trazado 100039" d="M392.192,346.844l-.014.094.014.095,11.926-75.039a78.153,78.153,0,0,0-23.845,0l11.9,74.893Z" transform="translate(-219.12 -176.419)" fill="#265d99"/>
      <path id="Trazado_100040" data-name="Trazado 100040" d="M389.444,399.464l-11.955,78.194,1.422.221a79.015,79.015,0,0,0,26.205-.337l1.422-.254-14.257-77.86Z" transform="translate(-218.004 -227.872)" fill="#12263f"/>
      <path id="Trazado_100041" data-name="Trazado 100041" d="M391.944,400.12l.033-.2-.012-.065-11.734,76.772a77.558,77.558,0,0,0,25.731-.327l-13.968-76.274Z" transform="translate(-219.104 -228.042)" fill="#265d99"/>
      <path id="Trazado_100042" data-name="Trazado 100042" d="M476.519,376.477,400.833,388.5l-.108,2.861,77.529,11.848.2-1.44a77.987,77.987,0,0,0-.291-24.113l-.231-1.408Z" transform="translate(-227.319 -218.581)" fill="#12263f"/>
      <path id="Trazado_100043" data-name="Trazado 100043" d="M401.251,391.046l-.1-.01-.062.008,76.093,11.632a78.4,78.4,0,0,0,.783-10.915A77.106,77.106,0,0,0,476.888,379L401.2,391.028Z" transform="translate(-227.464 -219.683)" fill="#fff"/>
      <path id="Trazado_100044" data-name="Trazado 100044" d="M269.423,379.661a79.383,79.383,0,0,0-.885,11.8,80.2,80.2,0,0,0,.987,12.463l.232,1.443,77.034-13.4.044-2.861-77.2-10.86Z" transform="translate(-174.328 -219.382)" fill="#12263f"/>
      <path id="Trazado_100045" data-name="Trazado 100045" d="M347.419,391.607l.171.022h.008l-75.789-10.66a77.572,77.572,0,0,0,.1,23.82l75.593-13.145Z" transform="translate(-175.291 -220.471)" fill="#fff"/>
      <path id="Trazado_100046" data-name="Trazado 100046" d="M469.522,341.6,400.7,374.212l.837,2.724,76.839-12.1-.239-1.437a78.421,78.421,0,0,0-6.7-21.124l-.623-1.288Z" transform="translate(-227.308 -204.444)" fill="#12263f"/>
      <path id="Trazado_100047" data-name="Trazado 100047" d="M477.12,364.921a76.682,76.682,0,0,0-6.572-20.743l-68.829,32.615Z" transform="translate(-227.718 -205.723)" fill="#265d99"/>
      <path id="Trazado_100048" data-name="Trazado 100048" d="M271.256,409.873l-1.4.246.222,1.4a78.427,78.427,0,0,0,7.044,22.14l.646,1.309L347.5,399.576l-.891-2.7Z" transform="translate(-174.854 -226.847)" fill="#12263f"/>
      <path id="Trazado_100049" data-name="Trazado 100049" d="M272.6,412.246a76.628,76.628,0,0,0,6.917,21.726l68.43-34.726Z" transform="translate(-175.956 -227.799)" fill="#265d99"/>
      <path id="Trazado_100050" data-name="Trazado 100050" d="M397.928,400.1l14.088,77.563,1.422-.254a78.248,78.248,0,0,0,23.832-8.458l1.262-.7-37.927-69.1Z" transform="translate(-226.198 -227.76)" fill="#12263f"/>
      <path id="Trazado_100051" data-name="Trazado 100051" d="M414.122,476.46a76.919,76.919,0,0,0,23.4-8.306l-37.237-67.841Z" transform="translate(-227.144 -228.227)" fill="#fff"/>
      <path id="Trazado_100052" data-name="Trazado 100052" d="M363.121,270.113a78.511,78.511,0,0,0-23.478,7.625l-1.287.66,35.487,68.611,2.7-.881L364.539,269.9Z" transform="translate(-202.316 -175.946)" fill="#12263f"/>
      <path id="Trazado_100053" data-name="Trazado 100053" d="M364.641,272.643a76.906,76.906,0,0,0-23.047,7.475l34.828,67.33Z" transform="translate(-203.615 -177.046)" fill="#fff"/>
      <path id="Trazado_100054" data-name="Trazado 100054" d="M453.94,307.086l-54.473,53.235,1.616,2.333L471.5,329.443l-.638-1.3A78.809,78.809,0,0,0,455.971,307.1l-1.008-1.019Z" transform="translate(-226.815 -190.452)" fill="#12263f"/>
      <path id="Trazado_100055" data-name="Trazado 100055" d="M401.137,362.71l69.106-32.59a77.653,77.653,0,0,0-14.625-20.645Z" transform="translate(-227.484 -191.811)" fill="#fff"/>
      <path id="Trazado_100056" data-name="Trazado 100056" d="M282.326,432.133l-1.273.642.634,1.28a79.1,79.1,0,0,0,14.228,20.112l1.017,1.042L352.561,399.8,350.9,397.49Z" transform="translate(-179.345 -227.095)" fill="#12263f"/>
      <path id="Trazado_100057" data-name="Trazado 100057" d="M284.268,434.28a77.532,77.532,0,0,0,13.971,19.738l54.6-54.385Z" transform="translate(-180.633 -227.954)" fill="#fff"/>
      <path id="Trazado_100058" data-name="Trazado 100058" d="M398.653,400.1l37.79,69.148,1.262-.7a79.138,79.138,0,0,0,19.586-15.328l.98-1.048L400.9,398.362Z" transform="translate(-226.489 -227.444)" fill="#12263f"/>
      <path id="Trazado_100059" data-name="Trazado 100059" d="M437.854,467.992a77.661,77.661,0,0,0,19.231-15.048l-56.323-52.826Z" transform="translate(-227.334 -228.148)" fill="#265d99"/>
      <path id="Trazado_100060" data-name="Trazado 100060" d="M326.078,282.677a78.722,78.722,0,0,0-20.156,14.751l-1.023,1.034,55.539,53.914,2.285-1.688L327.359,282.02Z" transform="translate(-188.904 -180.805)" fill="#12263f"/>
      <path id="Trazado_100061" data-name="Trazado 100061" d="M328.1,285.253a77.7,77.7,0,0,0-19.79,14.483l54.494,52.9Z" transform="translate(-190.273 -182.101)" fill="#265d99"/>
      <path id="Trazado_100062" data-name="Trazado 100062" d="M433.228,283l-34.416,67.729,2.284,1.682,55.548-54.137-1.022-1.03a79.076,79.076,0,0,0-20.458-14.879l-1.283-.646Z" transform="translate(-226.552 -180.686)" fill="#12263f"/>
      <path id="Trazado_100063" data-name="Trazado 100063" d="M455.455,299.554a77.593,77.593,0,0,0-20.088-14.61l-34.419,67.741Z" transform="translate(-227.409 -181.977)" fill="#265d99"/>
      <path id="Trazado_100064" data-name="Trazado 100064" d="M306,452.921l-1.005,1.012L306,454.95a79.034,79.034,0,0,0,20.743,15.034l1.3.653,34.581-70.787-2.307-1.669Z" transform="translate(-188.941 -227.372)" fill="#12263f"/>
      <path id="Trazado_100065" data-name="Trazado 100065" d="M362.666,399.9l.014-.026h.006l-54.312,54.736a77.628,77.628,0,0,0,20.363,14.76l33.943-69.478Z" transform="translate(-190.298 -228.051)" fill="#265d99"/>
      <path id="Trazado_100066" data-name="Trazado 100066" d="M399.4,400.013,457.1,453.5l.979-1.069a78.664,78.664,0,0,0,13.74-20.925l.581-1.308-71.42-32.547Z" transform="translate(-226.79 -227.158)" fill="#12263f"/>
      <path id="Trazado_100067" data-name="Trazado 100067" d="M457.668,452.336a77.662,77.662,0,0,0,13.493-20.544L401.04,399.833Z" transform="translate(-227.446 -228.034)" fill="#fff"/>
      <path id="Trazado_100068" data-name="Trazado 100068" d="M296.08,307.878a78.883,78.883,0,0,0-13.9,19.478l-.657,1.306,69.681,34.03,1.633-2.329-55.764-53.514Z" transform="translate(-179.534 -190.758)" fill="#12263f"/>
      <path id="Trazado_100069" data-name="Trazado 100069" d="M298.411,310.232a77.667,77.667,0,0,0-13.642,19.133l68.372,33.391Z" transform="translate(-180.834 -192.114)" fill="#fff"/>
      <path id="Trazado_100070" data-name="Trazado 100070" d="M410.009,271.318l-11.791,74.857,2.706.879,35.142-68.848-1.3-.649a78.3,78.3,0,0,0-23.114-7.443l-1.422-.214Z" transform="translate(-226.314 -175.946)" fill="#12263f"/>
      <path id="Trazado_100071" data-name="Trazado 100071" d="M435.073,279.94a76.765,76.765,0,0,0-22.69-7.3L400.591,347.5Z" transform="translate(-227.266 -177.046)" fill="#fff"/>
      <path id="Trazado_100072" data-name="Trazado 100072" d="M340.032,468.581l-.624,1.284,1.277.638a78.342,78.342,0,0,0,22.84,7.3l1.426.225,11.795-77.881-2.716-.848Z" transform="translate(-202.738 -227.819)" fill="#12263f"/>
      <path id="Trazado_100073" data-name="Trazado 100073" d="M342.605,469.639a76.761,76.761,0,0,0,22.422,7.165l11.579-76.45Z" transform="translate(-204.02 -228.243)" fill="#fff"/>
      <path id="Trazado_100074" data-name="Trazado 100074" d="M400.7,399.935,471.814,432.5l.588-1.327A78.426,78.426,0,0,0,478.43,410.3l.2-1.419L401.512,397.2Z" transform="translate(-227.308 -226.979)" fill="#12263f"/>
      <path id="Trazado_100075" data-name="Trazado 100075" d="M471.488,431.534a76.4,76.4,0,0,0,5.913-20.493l-75.708-11.462Z" transform="translate(-227.707 -227.932)" fill="#265d99"/>
      <path id="Trazado_100076" data-name="Trazado 100076" d="M277.352,340.478a78.343,78.343,0,0,0-7.46,23.406l-.221,1.44,77.072,10.74.831-2.716L277.995,339.2Z" transform="translate(-174.782 -203.728)" fill="#12263f"/>
      <path id="Trazado_100077" data-name="Trazado 100077" d="M279.74,342.41a76.7,76.7,0,0,0-7.327,22.978l75.626,10.537Z" transform="translate(-175.881 -205.014)" fill="#265d99"/>
      <path id="Trazado_100078" data-name="Trazado 100078" d="M363.025,383.741a22.317,22.317,0,1,0,22.318-22.315A22.342,22.342,0,0,0,363.025,383.741Z" transform="translate(-212.206 -212.637)" fill="#12263f"/>
      <path id="Trazado_100079" data-name="Trazado 100079" d="M407.179,384.7a20.875,20.875,0,1,1-20.872-20.875A20.876,20.876,0,0,1,407.179,384.7Z" transform="translate(-213.17 -213.601)" fill="#ccf8ff"/>
      <path id="Trazado_100080" data-name="Trazado 100080" d="M379.226,390.235a12.61,12.61,0,1,0,12.612-12.608A12.625,12.625,0,0,0,379.226,390.235Z" transform="translate(-218.701 -219.132)" fill="#12263f"/>
      <path id="Trazado_100081" data-name="Trazado 100081" d="M403.968,391.2A11.17,11.17,0,1,1,392.8,380.03,11.173,11.173,0,0,1,403.968,391.2Z" transform="translate(-219.664 -220.095)" fill="#76c2dd"/>
      <path id="Trazado_100082" data-name="Trazado 100082" d="M480.906,157.585c-1.486,0-2.365-.072-3.852-.072-1.415,0-2.474.072-3.859.072a1.056,1.056,0,0,1,.1-.682c.631-.072.957-.123,1.414-.2.755-.174.928-.754,1.081-1.53.225-1.089.479-2.6.885-4.994.326-2.043.653-4.009.7-4.69.05-.432-.022-.885-.457-.955a10.073,10.073,0,0,0-1.306-.206.96.96,0,0,1,.123-.654,16.289,16.289,0,0,0,5.071-1.161c.095-.025.349.051.349.153-.225,1.007-.4,1.867-.754,3.931-.306,2.038-.986,6.377-1.234,8.444-.08.932-.08,1.516.529,1.661a8.993,8.993,0,0,0,1.357.2A1.292,1.292,0,0,1,480.906,157.585Z" transform="translate(-256.363 -124.876)" fill="#fff"/>
      <path id="Trazado_100083" data-name="Trazado 100083" d="M549.281,594.882c-.1.048-.457-.4-.4-.5,1.763-2.27,3.577-3.229,5.309-3.229a3.761,3.761,0,0,1,3.759,3.882c0,1.966-.958,3.555-3.453,5.724-1.008.856-1.936,1.614-3.148,2.6-.03.022-.052.153.021.153.856.047,3.837.047,4.918,0,.53-.03,1.132-.254,1.966-1.64.073-.08.551.174.551.3a19.388,19.388,0,0,1-1.785,3.653c-.152.283-.558.38-1.392.406-1.815.051-4.787-.076-6.653-.076-.5,0-1.334,0-1.762.051a2.937,2.937,0,0,1,.079-.679,28.877,28.877,0,0,0,5.108-4.211,6.952,6.952,0,0,0,2.372-5.1,2.485,2.485,0,0,0-2.446-2.717A4.117,4.117,0,0,0,549.281,594.882Z" transform="translate(-286.044 -304.73)" fill="#fff"/>
      <path id="Trazado_100084" data-name="Trazado 100084" d="M405.094,646.545c0,1.483-1,2.5-2.794,3.482-.05.021-.076.095-.05.12a4.141,4.141,0,0,1,3.148,3.732,5.307,5.307,0,0,1-3.076,4.636,7.4,7.4,0,0,1-3.679.935,6.4,6.4,0,0,1-2.9-.606,1.5,1.5,0,0,1-.827-.932,9.489,9.489,0,0,1-.055-2.395c.076-.131.479-.228.581-.228a4.014,4.014,0,0,0,1.589,2.643,3.471,3.471,0,0,0,2.14.712c1.816,0,2.927-1.488,2.927-3.5a2.919,2.919,0,0,0-3.076-3.2,6.4,6.4,0,0,0-.758.051,2.716,2.716,0,0,1,.581-1.186c2.5-.428,3.431-1.386,3.431-2.894a2.256,2.256,0,0,0-2.347-2.475,4.08,4.08,0,0,0-2.872,1.314c-.1,0-.352-.458-.352-.555,1.208-1.287,2.9-2.8,5.067-2.8A3.175,3.175,0,0,1,405.094,646.545Z" transform="translate(-224.948 -325.675)" fill="#fff"/>
      <path id="Trazado_100085" data-name="Trazado 100085" d="M605.61,248.826c-.051,0-.1.077-.1.1l-.7,4.584c-.783,0-2.677.152-3.41.253l.835-4.795c0-.069-.051-.146-.073-.146-1.966,0-3.931,0-5.9-.029a5.477,5.477,0,0,1,.282-.957c2.016-2.317,7.588-8.364,8.647-9.5.2,0,.479.025.907.025.479,0,.856-.05,1.03-.05-.247,1.636-1.009,6.326-1.357,8.8,0,.022.05.149.123.149l2.568-.077a14.414,14.414,0,0,0-.45,1.639Zm-3.206-1.512c.059,0,.131-.1.131-.127l1.11-6a.069.069,0,0,0-.1,0c-.66.682-4.056,4.559-5.165,6.021,0,.029,0,.1.044.1Z" transform="translate(-305.703 -163.284)" fill="#fff"/>
      <path id="Trazado_100086" data-name="Trazado 100086" d="M318.257,142.746a6.91,6.91,0,0,1-1.11,2.09,1.7,1.7,0,0,1-1.589.8c-1.435,0-2.448-.174-3.126-.174a.433.433,0,0,0-.254.153,7.931,7.931,0,0,0-.631,1.386c0,.05,0,.2.075.246,1.085.558,3.61,1.817,4.538,2.474a4.033,4.033,0,0,1,2.1,3.453c0,3.605-3.685,5.4-6.2,5.4a4.717,4.717,0,0,1-4.033-1.792,1.4,1.4,0,0,1-.2-.729,5.26,5.26,0,0,1,.805-1.665.722.722,0,0,1,.3-.1c.831,1.509,2.114,3.247,4.233,3.247a2.108,2.108,0,0,0,2.245-2.394,3.463,3.463,0,0,0-1.664-2.848c-1.185-.881-3.529-2.165-4.058-2.571a2.581,2.581,0,0,1,.076-.831,59.856,59.856,0,0,1,2.695-5.571,1.17,1.17,0,0,1,.733-.6c.479.025,1.916.149,3.356.149a1.721,1.721,0,0,0,1.334-.428C317.951,142.441,318.257,142.619,318.257,142.746Z" transform="translate(-190.074 -124.85)" fill="#fff"/>
      <path id="Trazado_100087" data-name="Trazado 100087" d="M651.1,392.342c-.051.077,0,.207.08.156a6.358,6.358,0,0,1,2.974-1.012c1.785,0,3.322,1.44,3.345,3.936a6.014,6.014,0,0,1-3.671,5.669,6.78,6.78,0,0,1-2.553.53c-3.323,0-4.708-2.216-4.708-4.865,0-5.672,5.846-10.207,11.512-11.592.16.022.334.551.232.627A14.655,14.655,0,0,0,651.1,392.342Zm-.254,1.012a.909.909,0,0,0-.349.407,10.373,10.373,0,0,0-.558,3.271c0,2.6.784,3.736,2.017,3.736,1.313,0,2.3-2.148,2.3-4.368,0-2.292-.835-3.373-2.22-3.373A2.591,2.591,0,0,0,650.842,393.355Z" transform="translate(-325.871 -222.154)" fill="#d9dbdc"/>
      <path id="Trazado_100088" data-name="Trazado 100088" d="M249.755,592.566c-1.284,2.749-7.737,13.086-8.695,14.972a.45.45,0,0,1-.177.131,2.383,2.383,0,0,1-.831-.432,1.249,1.249,0,0,1,.022-.43c1.614-2.591,5.948-9.25,7.16-11.491,0-.054.026-.175-.025-.175-.831-.028-4.56-.05-6.381.048-.754.073-1.08.482-1.886,1.74-.1.048-.632-.256-.657-.33a32.586,32.586,0,0,0,1.613-4.614,5.029,5.029,0,0,0,1.891.232h5.219c.979,0,2.118,0,2.67-.05C249.755,592.192,249.781,592.514,249.755,592.566Z" transform="translate(-162.2 -305.064)" fill="#fff"/>
      <path id="Trazado_100089" data-name="Trazado 100089" d="M155.3,472.007c0,1.536-1.089,2.239-2.978,3.5-.1.052-.076.08-.025.124,1.64,1.288,2.572,2.452,2.6,3.808,0,2.7-2.7,4.694-5.822,4.694-3.352,0-4.563-1.77-4.563-3.33,0-1.291.83-2.067,3.758-3.884.047-.026.047-.047,0-.1a4.659,4.659,0,0,1-1.941-3.381,4.326,4.326,0,0,1,2.017-3.656,5.8,5.8,0,0,1,3.2-.929C153.913,468.856,155.27,470.271,155.3,472.007Zm-3.381,9.072c-.025-1.132-.754-1.944-2.9-3.707-.051-.046-.123-.072-.174-.022a4.058,4.058,0,0,0-1.791,3.2,2.613,2.613,0,0,0,2.677,2.775A2.094,2.094,0,0,0,151.918,481.08Zm-2.9-9.376c-.022,1.208.631,2.013,2.553,3.4a.133.133,0,0,0,.174,0,3.777,3.777,0,0,0,1.262-2.843,2.31,2.31,0,0,0-2.147-2.619A1.924,1.924,0,0,0,149.016,471.7Z" transform="translate(-124.606 -255.704)" fill="#fff"/>
      <path id="Trazado_100090" data-name="Trazado 100090" d="M178.007,256.266a13.881,13.881,0,0,0,7.008-6.355c.029-.069-.025-.145-.077-.116a7.868,7.868,0,0,1-3.126.95c-2.144,0-3.424-1.886-3.424-3.954a5.98,5.98,0,0,1,3.348-5.469,6.718,6.718,0,0,1,2.9-.682c3.152,0,4.639,2.347,4.639,5.064,0,5.317-4.817,9.728-11.016,11.222C178.159,256.9,177.931,256.4,178.007,256.266Zm3.58-10.631c0,2.645,1.161,3.579,2.546,3.579a2.345,2.345,0,0,0,.983-.231,1.1,1.1,0,0,0,.355-.479,10.446,10.446,0,0,0,.6-3.4c0-2.347-.6-3.657-2.016-3.657C182.773,241.445,181.587,243.364,181.587,245.635Z" transform="translate(-138.029 -164.216)" fill="#fff"/>
      <g id="Grupo_83361" data-name="Grupo 83361" transform="translate(309.303 206.431)">
        <path id="Trazado_100091" data-name="Trazado 100091" d="M635.286,472.717c-1.487,0-2.372-.081-3.859-.081-1.408,0-2.467.081-3.852.081a1.066,1.066,0,0,1,.1-.687c.63-.069.956-.119,1.413-.2.756-.175.929-.751,1.081-1.539.225-1.08.478-2.6.878-4.991.327-2.039.66-4.009.71-4.686.05-.428-.029-.885-.457-.958a10.093,10.093,0,0,0-1.312-.2.951.951,0,0,1,.13-.652,16.1,16.1,0,0,0,5.064-1.16c.1-.022.355.051.355.152-.224,1.009-.406,1.864-.754,3.933-.3,2.042-.987,6.376-1.24,8.445-.073.931-.073,1.512.529,1.661a8.519,8.519,0,0,0,1.364.2A1.4,1.4,0,0,1,635.286,472.717Z" transform="translate(-627.555 -457.639)" fill="#fff"/>
        <path id="Trazado_100092" data-name="Trazado 100092" d="M658.524,462.814c0,3.4-1.305,7.733-4.134,9.376a6.079,6.079,0,0,1-2.946.755c-3.25,0-4.36-2.265-4.338-5.219,0-2.848.987-7.135,3.707-9a6.234,6.234,0,0,1,3.453-1.084C657.393,457.645,658.524,459.938,658.524,462.814Zm-5.92-3.754c-1.385,1.712-2.2,6.224-2.2,9.626-.022,2.719.609,3.478,1.538,3.478a1.469,1.469,0,0,0,.935-.432c1.415-1.483,2.423-6.8,2.423-10.355,0-2.8-.863-3-1.494-3A1.621,1.621,0,0,0,652.6,459.059Z" transform="translate(-635.393 -457.641)" fill="#fff"/>
      </g>
      <g id="Grupo_83362" data-name="Grupo 83362" transform="translate(6.864 165.893)">
        <path id="Trazado_100093" data-name="Trazado 100093" d="M130.48,405.055c-1.486,0-2.368-.077-3.855-.077-1.415,0-2.474.077-3.86.077a1.039,1.039,0,0,1,.1-.679c.631-.075.957-.126,1.411-.207.758-.174.932-.754,1.084-1.531.228-1.088.479-2.6.881-5,.331-2.039.657-4.005.708-4.686.05-.429-.025-.878-.457-.957a9.473,9.473,0,0,0-1.306-.2.964.964,0,0,1,.123-.657,16.057,16.057,0,0,0,5.067-1.161c.1-.022.352.052.352.153-.225,1.008-.406,1.865-.754,3.933-.3,2.041-.983,6.376-1.233,8.443-.08.935-.08,1.512.53,1.661a8.874,8.874,0,0,0,1.356.207A1.367,1.367,0,0,1,130.48,405.055Z" transform="translate(-122.746 -389.976)" fill="#fff"/>
        <path id="Trazado_100094" data-name="Trazado 100094" d="M151.388,405.055c-1.483,0-2.368-.077-3.855-.077-1.411,0-2.47.077-3.856.077a1.039,1.039,0,0,1,.1-.679c.631-.075.958-.126,1.407-.207.761-.174.936-.754,1.088-1.531.225-1.088.479-2.6.882-5,.33-2.039.656-4.005.7-4.686.055-.429-.022-.878-.453-.957a9.574,9.574,0,0,0-1.307-.2.947.947,0,0,1,.123-.657,16.012,16.012,0,0,0,5.064-1.161c.1-.022.355.052.355.153-.225,1.008-.4,1.865-.754,3.933-.3,2.041-.984,6.376-1.238,8.443-.075.935-.075,1.512.53,1.661a9.061,9.061,0,0,0,1.359.207A1.326,1.326,0,0,1,151.388,405.055Z" transform="translate(-131.129 -389.976)" fill="#fff"/>
      </g>
      <g id="Grupo_83363" data-name="Grupo 83363" transform="translate(68.255 39.469)">
        <path id="Trazado_100095" data-name="Trazado 100095" d="M232.948,194.041c-1.486,0-2.368-.08-3.855-.08-1.41,0-2.471.08-3.859.08a1.048,1.048,0,0,1,.105-.682c.631-.08.957-.127,1.407-.2.761-.178.936-.754,1.088-1.537.225-1.081.479-2.594.882-4.991.323-2.042.652-4.009.7-4.687.05-.427-.026-.884-.453-.96a9.729,9.729,0,0,0-1.31-.2.976.976,0,0,1,.126-.66,15.981,15.981,0,0,0,5.064-1.157c.1-.025.356.052.356.156-.229,1-.406,1.861-.755,3.931-.3,2.039-.986,6.373-1.237,8.44-.076.932-.076,1.512.526,1.665a9.278,9.278,0,0,0,1.364.2A1.348,1.348,0,0,1,232.948,194.041Z" transform="translate(-225.215 -178.958)" fill="#fff"/>
        <path id="Trazado_100096" data-name="Trazado 100096" d="M246,182.7c-.1.044-.453-.406-.4-.507,1.763-2.263,3.576-3.225,5.317-3.225a3.766,3.766,0,0,1,3.758,3.885c0,1.966-.957,3.555-3.453,5.724-1.008.853-1.941,1.61-3.152,2.594-.026.022-.051.148.025.148.856.052,3.831.052,4.915,0,.526-.022,1.135-.25,1.966-1.639.076-.072.555.181.555.309a19.743,19.743,0,0,1-1.784,3.652c-.156.276-.56.377-1.394.407-1.813.047-4.788-.08-6.652-.08-.5,0-1.335,0-1.763.051a2.905,2.905,0,0,1,.073-.679,28.507,28.507,0,0,0,5.114-4.21c1.694-1.764,2.373-3.25,2.373-5.092a2.484,2.484,0,0,0-2.444-2.721A4.132,4.132,0,0,0,246,182.7Z" transform="translate(-232.72 -178.961)" fill="#fff"/>
      </g>
      <g id="Grupo_83364" data-name="Grupo 83364" transform="translate(308.933 119.697)">
        <path id="Trazado_100097" data-name="Trazado 100097" d="M634.669,327.945c-1.487,0-2.372-.077-3.852-.077-1.415,0-2.474.077-3.859.077a1.045,1.045,0,0,1,.1-.679c.624-.079.957-.126,1.407-.2.762-.174.936-.758,1.089-1.534.225-1.087.479-2.6.877-4.994.334-2.046.66-4.008.711-4.686.044-.428-.03-.885-.456-.958a9.278,9.278,0,0,0-1.313-.2.968.968,0,0,1,.131-.657,16.334,16.334,0,0,0,5.063-1.157c.1-.029.355.05.355.153-.232,1-.406,1.863-.754,3.928-.3,2.042-.987,6.38-1.241,8.444-.072.939-.072,1.513.53,1.664a9.659,9.659,0,0,0,1.364.2A1.278,1.278,0,0,1,634.669,327.945Z" transform="translate(-626.937 -312.868)" fill="#fff"/>
        <path id="Trazado_100098" data-name="Trazado 100098" d="M656.478,316.026c0,1.486-1.008,2.5-2.793,3.475-.051.029-.08.1-.051.13a4.135,4.135,0,0,1,3.148,3.73A5.307,5.307,0,0,1,653.707,328a7.443,7.443,0,0,1-3.679.932,6.359,6.359,0,0,1-2.9-.609,1.474,1.474,0,0,1-.826-.932A9.475,9.475,0,0,1,646.25,325c.072-.126.478-.228.573-.228a4.1,4.1,0,0,0,1.589,2.648,3.544,3.544,0,0,0,2.147.7c1.813,0,2.923-1.486,2.923-3.5a2.918,2.918,0,0,0-3.075-3.2,5.788,5.788,0,0,0-.755.05,2.584,2.584,0,0,1,.582-1.183c2.495-.435,3.423-1.389,3.423-2.9a2.254,2.254,0,0,0-2.344-2.474,4.114,4.114,0,0,0-2.872,1.313c-.1,0-.355-.454-.355-.555,1.211-1.288,2.9-2.8,5.071-2.8A3.174,3.174,0,0,1,656.478,316.026Z" transform="translate(-634.659 -312.872)" fill="#fff"/>
      </g>
      <g id="Grupo_83365" data-name="Grupo 83365" transform="translate(12.276 120.683)">
        <path id="Trazado_100099" data-name="Trazado 100099" d="M139.51,329.594c-1.488,0-2.373-.079-3.856-.079-1.415,0-2.47.079-3.856.079a1.067,1.067,0,0,1,.1-.682c.63-.072.957-.127,1.415-.2.754-.178.929-.754,1.084-1.537.225-1.085.478-2.6.878-4.992.33-2.042.661-4.008.707-4.689.051-.425-.025-.885-.453-.954a9,9,0,0,0-1.313-.2.977.977,0,0,1,.128-.653,16.4,16.4,0,0,0,5.067-1.161c.1-.028.355.048.355.146-.232,1.015-.406,1.872-.754,3.939-.3,2.038-.987,6.376-1.241,8.44-.072.932-.072,1.512.53,1.664a9.226,9.226,0,0,0,1.364.2A1.355,1.355,0,0,1,139.51,329.594Z" transform="translate(-131.779 -314.514)" fill="#fff"/>
        <path id="Trazado_100100" data-name="Trazado 100100" d="M159.713,325.281c-.051,0-.1.077-.1.105l-.708,4.584c-.784,0-2.67.152-3.4.254l.83-4.8c0-.072-.051-.149-.076-.149-1.966,0-3.931,0-5.9-.025a5.3,5.3,0,0,1,.276-.957c2.02-2.322,7.588-8.368,8.648-9.5.2,0,.482.029.906.029.479,0,.856-.058,1.037-.058-.254,1.643-1.008,6.329-1.363,8.8,0,.026.05.152.126.152l2.571-.073a13.475,13.475,0,0,0-.452,1.636Zm-3.2-1.512c.051,0,.123-.1.123-.123l1.11-6a.065.065,0,0,0-.1,0c-.656.678-4.059,4.564-5.169,6.021,0,.03,0,.1.048.1Z" transform="translate(-139.228 -314.616)" fill="#fff"/>
      </g>
      <g id="Grupo_83366" data-name="Grupo 83366" transform="translate(35.038 251.085)">
        <path id="Trazado_100101" data-name="Trazado 100101" d="M177.505,549.134c-1.488,0-2.373-.075-3.859-.075-1.407,0-2.471.075-3.852.075a1.062,1.062,0,0,1,.1-.685c.63-.076.953-.123,1.41-.2.755-.177.936-.758,1.081-1.534.228-1.089.479-2.6.884-4.994.327-2.042.657-4.009.708-4.687.047-.431-.025-.881-.457-.961a10.247,10.247,0,0,0-1.309-.2,1,1,0,0,1,.123-.653,16.136,16.136,0,0,0,5.071-1.161c.1-.025.352.051.352.155-.228,1.006-.4,1.861-.758,3.929-.3,2.045-.979,6.376-1.233,8.444-.077.936-.077,1.509.53,1.664a9.468,9.468,0,0,0,1.361.2A1.381,1.381,0,0,1,177.505,549.134Z" transform="translate(-169.772 -532.925)" fill="#fff"/>
        <path id="Trazado_100102" data-name="Trazado 100102" d="M194.07,539.352c-.051.08,0,.2.076.153a6.361,6.361,0,0,1,2.974-1.008c1.792,0,3.326,1.437,3.352,3.932a6.023,6.023,0,0,1-3.679,5.672,6.678,6.678,0,0,1-2.549.53c-3.326,0-4.712-2.219-4.712-4.867,0-5.672,5.847-10.207,11.52-11.592.153.025.327.551.225.631A14.635,14.635,0,0,0,194.07,539.352Zm-.25,1.009a.958.958,0,0,0-.355.406,10.384,10.384,0,0,0-.552,3.272c0,2.6.776,3.736,2.017,3.736,1.313,0,2.293-2.143,2.293-4.364,0-2.3-.834-3.376-2.217-3.376A2.622,2.622,0,0,0,193.819,540.361Z" transform="translate(-177.693 -532.171)" fill="#fff"/>
      </g>
      <g id="Grupo_83367" data-name="Grupo 83367" transform="translate(289.284 247.82)">
        <path id="Trazado_100103" data-name="Trazado 100103" d="M601.876,541.955c-1.487,0-2.372-.073-3.859-.073-1.407,0-2.474.073-3.86.073a1.081,1.081,0,0,1,.1-.675c.631-.077.957-.127,1.415-.2.754-.174.936-.755,1.088-1.535.225-1.088.472-2.6.878-4.994.326-2.039.653-4.009.7-4.69.052-.424-.021-.878-.45-.954a8.559,8.559,0,0,0-1.312-.2,1,1,0,0,1,.123-.657,16.426,16.426,0,0,0,5.071-1.16c.1-.029.347.05.347.145-.225,1.015-.4,1.872-.754,3.939-.3,2.045-.98,6.377-1.234,8.44-.073.932-.073,1.512.53,1.665a9.246,9.246,0,0,0,1.365.2A1.354,1.354,0,0,1,601.876,541.955Z" transform="translate(-594.141 -526.786)" fill="#fff"/>
        <path id="Trazado_100104" data-name="Trazado 100104" d="M623.926,527.026a6.9,6.9,0,0,1-1.11,2.09,1.7,1.7,0,0,1-1.589.808c-1.435,0-2.444-.177-3.126-.177a.44.44,0,0,0-.246.145,7.669,7.669,0,0,0-.631,1.389c0,.055,0,.207.072.254,1.087.556,3.606,1.814,4.541,2.47a4.053,4.053,0,0,1,2.09,3.453c0,3.6-3.678,5.4-6.2,5.4a4.722,4.722,0,0,1-4.034-1.791,1.455,1.455,0,0,1-.195-.729,5.349,5.349,0,0,1,.8-1.664.681.681,0,0,1,.3-.1c.835,1.506,2.119,3.247,4.237,3.247a2.1,2.1,0,0,0,2.241-2.395,3.458,3.458,0,0,0-1.661-2.843c-1.182-.889-3.533-2.169-4.055-2.575a2.461,2.461,0,0,1,.073-.83,58.421,58.421,0,0,1,2.7-5.572,1.152,1.152,0,0,1,.733-.605c.479.028,1.915.151,3.352.151a1.719,1.719,0,0,0,1.335-.427C623.62,526.722,623.926,526.9,623.926,527.026Z" transform="translate(-601.899 -526.722)" fill="#fff"/>
      </g>
      <g id="Grupo_83368" data-name="Grupo 83368" transform="translate(213.475 307.567)">
        <path id="Trazado_100105" data-name="Trazado 100105" d="M475.337,641.521c-1.488,0-2.366-.073-3.852-.073-1.415,0-2.474.073-3.86.073a1.047,1.047,0,0,1,.1-.678c.63-.077.957-.127,1.415-.207.754-.174.929-.751,1.081-1.532.225-1.083.478-2.6.877-4.989.334-2.046.661-4.012.711-4.687.051-.436-.029-.886-.457-.957a8.8,8.8,0,0,0-1.3-.206c-.08-.1.05-.6.123-.657a16.282,16.282,0,0,0,5.063-1.153c.1-.029.356.044.356.145-.225,1.008-.406,1.872-.755,3.936-.3,2.038-.987,6.38-1.233,8.442-.08.934-.08,1.514.522,1.659a8.571,8.571,0,0,0,1.364.207A1.278,1.278,0,0,1,475.337,641.521Z" transform="translate(-467.605 -626.447)" fill="#fff"/>
        <path id="Trazado_100106" data-name="Trazado 100106" d="M500.393,627.157c-1.283,2.742-7.733,13.079-8.7,14.973a.394.394,0,0,1-.174.123,2.318,2.318,0,0,1-.826-.424,1.16,1.16,0,0,1,.021-.431c1.61-2.594,5.949-9.25,7.16-11.5,0-.05.021-.173-.029-.173-.827-.022-4.562-.051-6.376.05-.755.073-1.081.48-1.894,1.741-.095.051-.623-.25-.652-.327a33.6,33.6,0,0,0,1.618-4.617,5,5,0,0,0,1.885.232h5.216c.987,0,2.119,0,2.677-.054C500.393,626.779,500.422,627.106,500.393,627.157Z" transform="translate(-476.152 -626.497)" fill="#fff"/>
      </g>
      <g id="Grupo_83369" data-name="Grupo 83369" transform="translate(254.367 41.685)">
        <path id="Trazado_100107" data-name="Trazado 100107" d="M543.591,197.736c-1.487,0-2.372-.08-3.852-.08-1.415,0-2.474.08-3.859.08a1.066,1.066,0,0,1,.1-.685c.631-.069.957-.12,1.407-.2.763-.178.936-.754,1.089-1.539.225-1.08.479-2.6.877-4.991.327-2.042.661-4.012.712-4.686.05-.428-.03-.885-.458-.958a10.521,10.521,0,0,0-1.313-.2.952.952,0,0,1,.131-.653,16.388,16.388,0,0,0,5.064-1.161c.1-.025.354.051.354.149-.225,1.011-.406,1.867-.753,3.935-.306,2.039-.987,6.376-1.241,8.444-.073.933-.073,1.509.53,1.662a8.788,8.788,0,0,0,1.364.2A1.388,1.388,0,0,1,543.591,197.736Z" transform="translate(-535.86 -182.657)" fill="#fff"/>
        <path id="Trazado_100108" data-name="Trazado 100108" d="M566.453,185.817c0,1.538-1.082,2.238-2.975,3.5-.1.054-.071.08-.029.126,1.64,1.284,2.575,2.444,2.6,3.806,0,2.695-2.691,4.689-5.818,4.689-3.351,0-4.563-1.763-4.563-3.326,0-1.288.835-2.068,3.758-3.885.05-.025.05-.05,0-.1a4.656,4.656,0,0,1-1.945-3.374A4.314,4.314,0,0,1,559.5,183.6a5.809,5.809,0,0,1,3.2-.933C565.067,182.665,566.431,184.076,566.453,185.817Zm-3.374,9.072c-.03-1.132-.762-1.937-2.9-3.707-.052-.044-.123-.073-.174-.022a4.019,4.019,0,0,0-1.791,3.2,2.6,2.6,0,0,0,2.67,2.771A2.093,2.093,0,0,0,563.079,194.889Zm-2.9-9.372c-.029,1.207.632,2.009,2.546,3.4a.166.166,0,0,0,.175,0,3.8,3.8,0,0,0,1.262-2.851,2.306,2.306,0,0,0-2.147-2.618A1.924,1.924,0,0,0,560.177,185.517Z" transform="translate(-543.799 -182.66)" fill="#fff"/>
      </g>
      <path id="Trazado_100109" data-name="Trazado 100109" d="M307.762,644.738c-1.486,0-2.371-.073-3.859-.073-1.411,0-2.47.073-3.858.073a1.055,1.055,0,0,1,.1-.682c.631-.073.957-.125,1.415-.2.755-.182.932-.762,1.081-1.546.228-1.081.479-2.59.881-4.983.331-2.045.657-4.011.709-4.694.05-.424-.022-.885-.454-.958a10.332,10.332,0,0,0-1.309-.2.974.974,0,0,1,.123-.653,16.039,16.039,0,0,0,5.067-1.161c.1-.025.356.052.356.153-.229,1.008-.4,1.864-.758,3.931-.3,2.039-.979,6.381-1.234,8.445-.076.932-.076,1.509.53,1.669a10.364,10.364,0,0,0,1.356.2A1.314,1.314,0,0,1,307.762,644.738Z" transform="translate(-186.95 -320.167)" fill="#fff"/>
      <path id="Trazado_100110" data-name="Trazado 100110" d="M319.906,645.3a13.9,13.9,0,0,0,7.007-6.355c.028-.073-.022-.149-.073-.124a7.932,7.932,0,0,1-3.127.954c-2.14,0-3.427-1.885-3.427-3.957a5.973,5.973,0,0,1,3.355-5.466,6.658,6.658,0,0,1,2.9-.682c3.151,0,4.636,2.343,4.636,5.067,0,5.318-4.813,9.731-11.012,11.219C320.057,645.923,319.833,645.423,319.906,645.3Zm3.583-10.639c0,2.648,1.158,3.584,2.546,3.584a2.3,2.3,0,0,0,.979-.232,1.069,1.069,0,0,0,.356-.479,10.313,10.313,0,0,0,.605-3.4c0-2.343-.605-3.652-2.02-3.652C324.671,630.475,323.488,632.391,323.488,634.657Z" transform="translate(-194.914 -320.17)" fill="#fff"/>
      <g id="Grupo_83370" data-name="Grupo 83370" transform="translate(160.482 11.513)">
        <path id="Trazado_100111" data-name="Trazado 100111" d="M381.219,136.024c-.1.051-.451-.4-.4-.5,1.763-2.271,3.576-3.229,5.318-3.229a3.767,3.767,0,0,1,3.757,3.885c0,1.963-.958,3.547-3.456,5.72-1.005.856-1.941,1.611-3.152,2.6-.022.022-.052.145.029.145.856.055,3.83.055,4.912,0,.533-.022,1.134-.25,1.969-1.632.073-.076.555.174.555.3a20.044,20.044,0,0,1-1.788,3.656c-.152.279-.555.373-1.389.4-1.813.051-4.787-.076-6.652-.076-.5,0-1.335,0-1.766.047a2.875,2.875,0,0,1,.076-.678,28.646,28.646,0,0,0,5.113-4.212c1.691-1.762,2.373-3.25,2.373-5.088a2.488,2.488,0,0,0-2.446-2.724A4.153,4.153,0,0,0,381.219,136.024Z" transform="translate(-379.154 -132.295)" fill="#fff"/>
        <path id="Trazado_100112" data-name="Trazado 100112" d="M412.324,137.46c0,3.4-1.31,7.741-4.136,9.38a6.075,6.075,0,0,1-2.945.758c-3.253,0-4.363-2.274-4.338-5.22,0-2.851.979-7.131,3.707-9a6.2,6.2,0,0,1,3.45-1.084C411.192,132.3,412.324,134.587,412.324,137.46ZM406.4,133.7c-1.389,1.719-2.2,6.231-2.2,9.633-.022,2.721.6,3.475,1.538,3.475a1.474,1.474,0,0,0,.936-.428c1.407-1.488,2.419-6.805,2.419-10.359,0-2.8-.86-3-1.49-3A1.629,1.629,0,0,0,406.4,133.7Z" transform="translate(-387.874 -132.295)" fill="#fff"/>
      </g>
    </g>
  </g>
</svg>
