<svg id="Capa_1" data-name="Capa 1" xmlns="http://www.w3.org/2000/svg" xmlns:xlink="http://www.w3.org/1999/xlink" viewBox="0 0 171.33 171.33"><defs><style>.cls-1{fill:#12263f;}.cls-2{fill:#265d99;}.cls-3{fill:url(#Degradado_sin_nombre);}.cls-4{fill:url(#Degradado_sin_nombre_2);}.cls-5{fill:url(#Degradado_sin_nombre_3);}.cls-6{fill:url(#Degradado_sin_nombre_4);}.cls-7{fill:url(#Degradado_sin_nombre_5);}.cls-8{fill:url(#Degradado_sin_nombre_6);}.cls-9{fill:url(#Degradado_sin_nombre_7);}.cls-10{fill:url(#Degradado_sin_nombre_8);}.cls-11{fill:#fff;}.cls-12{fill:#76c2dd;}.cls-13{fill:#ccf8ff;}.cls-14{fill:#d9dbdc;}</style><radialGradient id="Degradado_sin_nombre" cx="-203.64" cy="500.24" r="0.49" gradientTransform="matrix(21.78, 0, 0, -21.78, 4526.69, 10928.8)" gradientUnits="userSpaceOnUse"><stop offset="0" stop-color="#fff064"/><stop offset="0.43" stop-color="#fbcb6b"/><stop offset="0.78" stop-color="#f9b570"/><stop offset="1" stop-color="#f9ad72"/></radialGradient><radialGradient id="Degradado_sin_nombre_2" cx="-203.67" cy="500.29" r="0.5" gradientTransform="matrix(21.98, 0, 0, -21.98, 4567.95, 11132.27)" xlink:href="#Degradado_sin_nombre"/><radialGradient id="Degradado_sin_nombre_3" cx="-203.62" cy="500.19" r="0.54" gradientTransform="matrix(21.58, 0, 0, -21.59, 4532.83, 10867.62)" xlink:href="#Degradado_sin_nombre"/><radialGradient id="Degradado_sin_nombre_4" cx="-203.75" cy="500.46" r="0.53" gradientTransform="matrix(22.64, 0, 0, -22.63, 4654.77, 11429.43)" xlink:href="#Degradado_sin_nombre"/><radialGradient id="Degradado_sin_nombre_5" cx="-204.24" cy="501.44" r="0.49" gradientTransform="matrix(27.56, 0, 0, -27.55, 5752.14, 13941.29)" xlink:href="#Degradado_sin_nombre"/><radialGradient id="Degradado_sin_nombre_6" cx="-204.24" cy="501.42" r="0.5" gradientTransform="matrix(27.48, 0, 0, -27.48, 5670.46, 13823.45)" xlink:href="#Degradado_sin_nombre"/><radialGradient id="Degradado_sin_nombre_7" cx="-204.25" cy="501.44" r="0.5" gradientTransform="matrix(27.61, 0, 0, -27.59, 5761.21, 13880.26)" xlink:href="#Degradado_sin_nombre"/><radialGradient id="Degradado_sin_nombre_8" cx="-204.26" cy="501.48" r="0.49" gradientTransform="matrix(27.81, 0, 0, -27.79, 5738.8, 14066.78)" xlink:href="#Degradado_sin_nombre"/></defs><g id="Grupo_83372" data-name="Grupo 83372"><g id="Grupo_83371" data-name="Grupo 83371"><path id="Trazado_99916" data-name="Trazado 99916" class="cls-1" d="M175.78,85.66A85.66,85.66,0,1,1,90.12,0h0a85.66,85.66,0,0,1,85.66,85.66Z" transform="translate(-4.46)"/><path id="Trazado_99917" data-name="Trazado 99917" class="cls-2" d="M173.76,85.66A83.64,83.64,0,1,1,90.12,2h0a83.64,83.64,0,0,1,83.64,83.64Z" transform="translate(-4.46)"/><path id="Trazado_99918" data-name="Trazado 99918" class="cls-3" d="M80.85,23.58l-.71.11,3.32,20.92.71-.11A42,42,0,0,1,97,44.5l.7.11,3.33-20.92-.71-.11a63.69,63.69,0,0,0-19.49,0Z" transform="translate(-4.46)"/><path id="Trazado_99919" data-name="Trazado 99919" class="cls-2" d="M90.59,43.29a43.44,43.44,0,0,1,6.54.5l3.1-19.5a62.89,62.89,0,0,0-19.27,0l3.1,19.5A43.31,43.31,0,0,1,90.59,43.29Z" transform="translate(-4.46)"/><path id="Trazado_99920" data-name="Trazado 99920" class="cls-4" d="M98,126.61a41.69,41.69,0,0,1-13.83.18l-.71-.11-3.2,20.94.71.11a63.44,63.44,0,0,0,20.85-.28l.71-.12-3.82-20.85Z" transform="translate(-4.46)"/><path id="Trazado_99921" data-name="Trazado 99921" class="cls-2" d="M90.59,128a43.18,43.18,0,0,1-6.52-.5l-3,19.52a62.53,62.53,0,0,0,20.61-.27l-3.56-19.43A43.35,43.35,0,0,1,90.59,128Z" transform="translate(-4.46)"/><path id="Trazado_99922" data-name="Trazado 99922" class="cls-5" d="M146.31,58.17l-18.5,8.76.31.65a41.41,41.41,0,0,1,3.53,11.17l.12.7,20.93-3.29-.12-.71a62.19,62.19,0,0,0-5.32-16.94l-.31-.65Z" transform="translate(-4.46)"/><path id="Trazado_99923" data-name="Trazado 99923" class="cls-2" d="M128.77,67.27a42.07,42.07,0,0,1,3.59,11.37l19.51-3.08a61.19,61.19,0,0,0-5.26-16.74Z" transform="translate(-4.46)"/><path id="Trazado_99924" data-name="Trazado 99924" class="cls-6" d="M48.67,91.74,28.51,95.22l.11.7a62.14,62.14,0,0,0,5.72,17.68l.32.65,18.89-9.59-.32-.63a41.09,41.09,0,0,1-3.73-11.7l-.11-.71Z" transform="translate(-4.46)"/><path id="Trazado_99925" data-name="Trazado 99925" class="cls-2" d="M48.79,92.45,29.33,95.81A61.5,61.5,0,0,0,35,113.28l17.61-8.93A42.3,42.3,0,0,1,48.79,92.45Z" transform="translate(-4.46)"/><path id="Trazado_99926" data-name="Trazado 99926" class="cls-7" d="M121.07,114a42.3,42.3,0,0,1-10.35,8.09l-.63.34L120.25,141l.63-.35a62.69,62.69,0,0,0,15.63-12.19l.5-.52-15.46-14.49Z" transform="translate(-4.46)"/><path id="Trazado_99927" data-name="Trazado 99927" class="cls-2" d="M111.07,122.72l9.47,17.34A62.79,62.79,0,0,0,136,128L121.59,114.5A42.81,42.81,0,0,1,111.07,122.72Z" transform="translate(-4.46)"/><path id="Trazado_99928" data-name="Trazado 99928" class="cls-8" d="M61.93,29.74A63,63,0,0,0,45.78,41.63l-.5.51L60.48,56.9l.5-.51a41.73,41.73,0,0,1,10.65-7.81l.64-.33-9.7-18.84Z" transform="translate(-4.46)"/><path id="Trazado_99929" data-name="Trazado 99929" class="cls-2" d="M71.3,47.94l-9-17.57a62.77,62.77,0,0,0-16,11.76L60.46,55.88A42.77,42.77,0,0,1,71.3,47.94Z" transform="translate(-4.46)"/><path id="Trazado_99930" data-name="Trazado 99930" class="cls-9" d="M118,29.9l-9.27,18.25.63.33a41.53,41.53,0,0,1,10.82,7.87l.5.51,15.16-14.78-.5-.51a62.92,62.92,0,0,0-16.38-12l-.64-.32Z" transform="translate(-4.46)"/><path id="Trazado_99931" data-name="Trazado 99931" class="cls-2" d="M120.69,55.85l14.14-13.78a62,62,0,0,0-16.19-11.84l-9,17.61A42.54,42.54,0,0,1,120.69,55.85Z" transform="translate(-4.46)"/><path id="Trazado_99932" data-name="Trazado 99932" class="cls-10" d="M60,115,45.61,129.49l.51.51a62.84,62.84,0,0,0,16.57,11.93l.64.32,9.3-19L72,122.9A41.82,41.82,0,0,1,61,115l-.51-.51Z" transform="translate(-4.46)"/><path id="Trazado_99933" data-name="Trazado 99933" class="cls-2" d="M60.53,115.47l-13.91,14A62.42,62.42,0,0,0,63,141.29l8.67-17.75A42.49,42.49,0,0,1,60.53,115.47Z" transform="translate(-4.46)"/><g id="Grupo_83357" data-name="Grupo 83357"><path id="Trazado_99934" data-name="Trazado 99934" class="cls-1" d="M151.77,74.89,131.55,78.1l.11.71a41.24,41.24,0,0,1,.15,12.74l-.1.7,20.94,3.2.1-.71a63.14,63.14,0,0,0-.16-19.26l-.12-.71Z" transform="translate(-4.46)"/><path id="Trazado_99935" data-name="Trazado 99935" class="cls-11" d="M133,85.64a41.7,41.7,0,0,1-.44,6l19.53,3a62.4,62.4,0,0,0-.16-19l-19.51,3.1A42.61,42.61,0,0,1,133,85.64Z" transform="translate(-4.46)"/><path id="Trazado_99936" data-name="Trazado 99936" class="cls-1" d="M28.44,76.49a63.1,63.1,0,0,0,.18,19.4l.11.71L49.6,93l-.11-.7a41.51,41.51,0,0,1-.07-12.83l.1-.71-21-2.95Z" transform="translate(-4.46)"/><path id="Trazado_99937" data-name="Trazado 99937" class="cls-11" d="M48.24,85.64a42.75,42.75,0,0,1,.47-6.29L29.15,76.59a62.93,62.93,0,0,0,.17,19.18l19.46-3.38A42.38,42.38,0,0,1,48.24,85.64Z" transform="translate(-4.46)"/><path id="Trazado_99938" data-name="Trazado 99938" class="cls-1" d="M110.65,122.13a41.37,41.37,0,0,1-12.58,4.47l-.7.13,3.78,20.85.71-.13a62.36,62.36,0,0,0,19-6.75l.62-.35-10.19-18.56Z" transform="translate(-4.46)"/><path id="Trazado_99939" data-name="Trazado 99939" class="cls-11" d="M98.2,127.3l3.53,19.45a61.74,61.74,0,0,0,18.77-6.68L111,122.76A42,42,0,0,1,98.2,127.3Z" transform="translate(-4.46)"/><path id="Trazado_99940" data-name="Trazado 99940" class="cls-1" d="M80.82,23.59A62,62,0,0,0,62,29.72l-.64.33,9.73,18.82.64-.32a41.25,41.25,0,0,1,12.41-4l.71-.11L81.53,23.48Z" transform="translate(-4.46)"/><path id="Trazado_99941" data-name="Trazado 99941" class="cls-11" d="M84,43.8,80.93,24.29A61.52,61.52,0,0,0,62.3,30.36l9.07,17.55A42,42,0,0,1,84,43.8Z" transform="translate(-4.46)"/><path id="Trazado_99942" data-name="Trazado 99942" class="cls-1" d="M134.35,41.58l-14.64,14.3.51.51a41.78,41.78,0,0,1,7.87,11.13l.3.64,19.17-9-.32-.65a62.63,62.63,0,0,0-11.88-16.88l-.5-.51Z" transform="translate(-4.46)"/><path id="Trazado_99943" data-name="Trazado 99943" class="cls-11" d="M128.73,67.21l17.87-8.43a62.22,62.22,0,0,0-11.75-16.69l-14.12,13.8A42.41,42.41,0,0,1,128.73,67.21Z" transform="translate(-4.46)"/><path id="Trazado_99944" data-name="Trazado 99944" class="cls-1" d="M52.3,103.77,34,113l.32.63a62.67,62.67,0,0,0,11.43,16l.5.51,15-14.94-.5-.51a41.72,41.72,0,0,1-7.53-10.62l-.32-.64Z" transform="translate(-4.46)"/><path id="Trazado_99945" data-name="Trazado 99945" class="cls-11" d="M52.62,104.41,35,113.32a62.47,62.47,0,0,0,11.3,15.83l14-13.94A42.47,42.47,0,0,1,52.62,104.41Z" transform="translate(-4.46)"/><path id="Trazado_99946" data-name="Trazado 99946" class="cls-1" d="M128.58,102.7a41.82,41.82,0,0,1-7.27,11l-.48.52,15.53,14.4.49-.53a62.89,62.89,0,0,0,11-16.66l.3-.65L128.87,102Z" transform="translate(-4.46)"/><path id="Trazado_99947" data-name="Trazado 99947" class="cls-11" d="M121.84,114.23l5.56,5.16,8.92,8.26a62.24,62.24,0,0,0,10.89-16.46l-18-8.2A42.5,42.5,0,0,1,121.84,114.23Z" transform="translate(-4.46)"/><path id="Trazado_99948" data-name="Trazado 99948" class="cls-1" d="M45.45,42A62.64,62.64,0,0,0,34.36,57.64l-.32.65,19,9.29.32-.63a41.8,41.8,0,0,1,7.34-10.31l.5-.52L46,41.46Z" transform="translate(-4.46)"/><path id="Trazado_99949" data-name="Trazado 99949" class="cls-11" d="M60.22,56.14,46,42.47A61.93,61.93,0,0,0,35,58l17.75,8.67A42.55,42.55,0,0,1,60.22,56.14Z" transform="translate(-4.46)"/><path id="Trazado_99950" data-name="Trazado 99950" class="cls-1" d="M99.55,24.18l-1.44,9.16L96.36,44.4l.71.11a41.76,41.76,0,0,1,12.23,3.93l.64.33,9.63-18.88-.64-.32a62.61,62.61,0,0,0-18.56-6l-.71-.11Z" transform="translate(-4.46)"/><path id="Trazado_99951" data-name="Trazado 99951" class="cls-11" d="M109.62,47.81l9-17.6a61.83,61.83,0,0,0-18.34-5.92L97.18,43.8A41.94,41.94,0,0,1,109.62,47.81Z" transform="translate(-4.46)"/><path id="Trazado_99952" data-name="Trazado 99952" class="cls-1" d="M71.1,123.26l-9,18.37.64.32A62.16,62.16,0,0,0,81,147.72l.71.11,3.17-20.94-.7-.11a41.25,41.25,0,0,1-12.06-3.85l-.65-.32Z" transform="translate(-4.46)"/><path id="Trazado_99953" data-name="Trazado 99953" class="cls-11" d="M71.75,123.57l-8.7,17.74a61.62,61.62,0,0,0,18,5.7l3-19.52A42,42,0,0,1,71.75,123.57Z" transform="translate(-4.46)"/></g><path id="Trazado_99954" data-name="Trazado 99954" class="cls-1" d="M131.8,91.6a41.53,41.53,0,0,1-3.19,11l-.29.65,19.26,8.82.3-.66a62.19,62.19,0,0,0,4.87-16.68l.1-.7L131.9,90.89Z" transform="translate(-4.46)"/><path id="Trazado_99955" data-name="Trazado 99955" class="cls-2" d="M129.26,102.92l18,8.23A61.86,61.86,0,0,0,152,94.66l-19.53-3A42.15,42.15,0,0,1,129.26,102.92Z" transform="translate(-4.46)"/><g id="Grupo_83358" data-name="Grupo 83358"><path id="Trazado_99956" data-name="Trazado 99956" class="cls-1" d="M80,18.24l-.71.1,1.07,6.77.71-.11a62,62,0,0,1,19,0l.71.11,1.07-6.77-.7-.1a68.45,68.45,0,0,0-21.19,0Z" transform="translate(-4.46)"/><path id="Trazado_99957" data-name="Trazado 99957" class="cls-12" d="M90.59,23.55a63.47,63.47,0,0,1,9.64.74l.84-5.35a68.2,68.2,0,0,0-21,0L81,24.29A63.34,63.34,0,0,1,90.59,23.55Z" transform="translate(-4.46)"/><path id="Trazado_99958" data-name="Trazado 99958" class="cls-1" d="M101.58,146.05a62,62,0,0,1-20.38.26l-.71-.11-1,6.77.71.11a68.81,68.81,0,0,0,22.64-.3l.71-.13-1.23-6.73Z" transform="translate(-4.46)"/><path id="Trazado_99959" data-name="Trazado 99959" class="cls-12" d="M90.59,147.74a62.91,62.91,0,0,1-9.5-.72l-.82,5.35a68,68,0,0,0,22.41-.3l-1-5.32A62.62,62.62,0,0,1,90.59,147.74Z" transform="translate(-4.46)"/><path id="Trazado_99960" data-name="Trazado 99960" class="cls-1" d="M151.2,55.85l-5.54,2.63.31.65a60.82,60.82,0,0,1,5.19,16.55l.12.7L158,75.32l-.11-.71a68,68,0,0,0-5.78-18.42l-.31-.64Z" transform="translate(-4.46)"/><path id="Trazado_99961" data-name="Trazado 99961" class="cls-12" d="M151.87,75.56l5.35-.84A66.61,66.61,0,0,0,151.5,56.5l-4.89,2.32A61.19,61.19,0,0,1,151.87,75.56Z" transform="translate(-4.46)"/><path id="Trazado_99962" data-name="Trazado 99962" class="cls-1" d="M29.2,95.1l-6,1,.11.7a67.66,67.66,0,0,0,6.23,19.21l.31.65,6.11-3.1-.31-.64A60.74,60.74,0,0,1,30,95.69L29.91,95Z" transform="translate(-4.46)"/><path id="Trazado_99963" data-name="Trazado 99963" class="cls-12" d="M29.33,95.81,24,96.72a67,67,0,0,0,6.16,19L35,113.28A61.8,61.8,0,0,1,29.33,95.81Z" transform="translate(-4.46)"/><path id="Trazado_99964" data-name="Trazado 99964" class="cls-1" d="M135.47,127.52a61.58,61.58,0,0,1-15.28,11.91l-.63.34,3.29,6,.63-.35a68.16,68.16,0,0,0,17-13.23l.49-.52L136,127Z" transform="translate(-4.46)"/><path id="Trazado_99965" data-name="Trazado 99965" class="cls-12" d="M120.54,140.05l2.59,4.76a68.11,68.11,0,0,0,16.81-13.1L136,128A62.51,62.51,0,0,1,120.54,140.05Z" transform="translate(-4.46)"/><path id="Trazado_99966" data-name="Trazado 99966" class="cls-1" d="M59.45,24.92A68.39,68.39,0,0,0,41.9,37.86l-.5.51,4.91,4.77.49-.51A61.87,61.87,0,0,1,62.58,31l.64-.33-3.13-6.09Z" transform="translate(-4.46)"/><path id="Trazado_99967" data-name="Trazado 99967" class="cls-12" d="M62.26,30.37l-2.48-4.81a67.61,67.61,0,0,0-17.37,12.8l3.88,3.77A62.77,62.77,0,0,1,62.26,30.37Z" transform="translate(-4.46)"/><path id="Trazado_99968" data-name="Trazado 99968" class="cls-1" d="M120.45,25.07l-2.77,5.47.63.33a61.48,61.48,0,0,1,16,11.7l.5.51,4.9-4.78-.5-.51a68.31,68.31,0,0,0-17.8-13l-.64-.32Z" transform="translate(-4.46)"/><path id="Trazado_99969" data-name="Trazado 99969" class="cls-12" d="M134.83,42.07l3.88-3.78A67.7,67.7,0,0,0,121.09,25.4l-2.45,4.83A62,62,0,0,1,134.83,42.07Z" transform="translate(-4.46)"/><path id="Trazado_99970" data-name="Trazado 99970" class="cls-1" d="M46.11,129l-4.31,4.35.5.5a68.42,68.42,0,0,0,18,13l.65.32L64,141l-.64-.32A61.4,61.4,0,0,1,47.13,129l-.51-.5Z" transform="translate(-4.46)"/><path id="Trazado_99971" data-name="Trazado 99971" class="cls-12" d="M46.62,129.49l-3.81,3.84a67.37,67.37,0,0,0,17.82,12.82L63,141.29A62.42,62.42,0,0,1,46.62,129.49Z" transform="translate(-4.46)"/><path id="Trazado_99972" data-name="Trazado 99972" class="cls-1" d="M151.33,94.56a60.86,60.86,0,0,1-4.76,16.29l-.29.65,6.23,2.86.3-.66a67.72,67.72,0,0,0,5.29-18.12l.1-.7-6.77-1Z" transform="translate(-4.46)"/><path id="Trazado_99973" data-name="Trazado 99973" class="cls-12" d="M147.23,111.15l4.92,2.25a66.73,66.73,0,0,0,5.24-17.92L152,94.66A61.86,61.86,0,0,1,147.23,111.15Z" transform="translate(-4.46)"/><path id="Trazado_99974" data-name="Trazado 99974" class="cls-1" d="M29.48,55.29a67.62,67.62,0,0,0-6.39,20.42l-.11.72,6.78.94.11-.7a60.71,60.71,0,0,1,5.75-18.35l.32-.65-6.15-3Z" transform="translate(-4.46)"/><path id="Trazado_99975" data-name="Trazado 99975" class="cls-12" d="M35,58l-4.86-2.39A66.79,66.79,0,0,0,23.8,75.82l5.36.74A61.54,61.54,0,0,1,35,58Z" transform="translate(-4.46)"/></g><path id="Trazado_99976" data-name="Trazado 99976" class="cls-1" d="M34.34,57.68a62.06,62.06,0,0,0-5.89,18.78l-.1.72,21,2.92.1-.7A41.16,41.16,0,0,1,53.36,67l.32-.65L34.66,57Z" transform="translate(-4.46)"/><path id="Trazado_99977" data-name="Trazado 99977" class="cls-2" d="M52.71,66.7,35,58a61.54,61.54,0,0,0-5.82,18.56l4,.56,1.87.26,13.72,1.91A42.23,42.23,0,0,1,52.71,66.7Z" transform="translate(-4.46)"/><g id="Grupo_83359" data-name="Grupo 83359"><path id="Trazado_99978" data-name="Trazado 99978" class="cls-1" d="M157.11,74l-6.06,1,.12.71a61.54,61.54,0,0,1,.16,18.82l-.1.71,6.77,1,.1-.71a68.32,68.32,0,0,0-.17-20.93l-.11-.7Z" transform="translate(-4.46)"/><path id="Trazado_99979" data-name="Trazado 99979" class="cls-13" d="M152.69,85.64a63,63,0,0,1-.65,9l5.35.81a67.52,67.52,0,0,0-.17-20.71l-5.34.85A62.78,62.78,0,0,1,152.69,85.64Z" transform="translate(-4.46)"/><path id="Trazado_99980" data-name="Trazado 99980" class="cls-1" d="M23.09,75.74a68.67,68.67,0,0,0,.19,21.08l.12.71,6.75-1.17-.12-.7a62.13,62.13,0,0,1-.17-19L30,76l-6.78-1Z" transform="translate(-4.46)"/><path id="Trazado_99981" data-name="Trazado 99981" class="cls-13" d="M28.5,85.64a63.6,63.6,0,0,1,.65-9l-5.36-.76A67.87,67.87,0,0,0,24,96.7l5.33-.93A62.45,62.45,0,0,1,28.5,85.64Z" transform="translate(-4.46)"/><path id="Trazado_99982" data-name="Trazado 99982" class="cls-1" d="M120.16,139.45A61,61,0,0,1,101.61,146l-.71.13,1.22,6.74.71-.13a67.92,67.92,0,0,0,20.62-7.33l.63-.35-3.3-6Z" transform="translate(-4.46)"/><path id="Trazado_99983" data-name="Trazado 99983" class="cls-13" d="M101.73,146.75l1,5.32a66.9,66.9,0,0,0,20.41-7.25l-2.61-4.75A61.74,61.74,0,0,1,101.73,146.75Z" transform="translate(-4.46)"/><path id="Trazado_99984" data-name="Trazado 99984" class="cls-1" d="M80,18.24a67.36,67.36,0,0,0-20.5,6.67l-.64.33L62,31.32l.63-.33A60.76,60.76,0,0,1,81,25l.71-.11-1.07-6.76Z" transform="translate(-4.46)"/><path id="Trazado_99985" data-name="Trazado 99985" class="cls-13" d="M80.93,24.29,80.09,19a66.83,66.83,0,0,0-20.28,6.6l2.48,4.81A61.67,61.67,0,0,1,80.93,24.29Z" transform="translate(-4.46)"/><path id="Trazado_99986" data-name="Trazado 99986" class="cls-1" d="M138.22,37.79l-4.38,4.29.5.52A61.35,61.35,0,0,1,146,59.09l.31.64,6.19-2.92-.31-.65A68.25,68.25,0,0,0,139.23,37.8l-.5-.5Z" transform="translate(-4.46)"/><path id="Trazado_99987" data-name="Trazado 99987" class="cls-13" d="M146.6,58.78l4.89-2.31A67.58,67.58,0,0,0,138.72,38.3l-3.87,3.79A62.22,62.22,0,0,1,146.6,58.78Z" transform="translate(-4.46)"/><path id="Trazado_99988" data-name="Trazado 99988" class="cls-1" d="M34.67,112.68l-5.47,2.76.32.64a68.23,68.23,0,0,0,12.42,17.39l.51.51,4.85-4.82-.5-.51A61.42,61.42,0,0,1,35.63,113l-.32-.64Z" transform="translate(-4.46)"/><path id="Trazado_99989" data-name="Trazado 99989" class="cls-13" d="M35,113.32l-4.83,2.44A67.91,67.91,0,0,0,42.45,133l3.84-3.83A62.49,62.49,0,0,1,35,113.32Z" transform="translate(-4.46)"/><path id="Trazado_99990" data-name="Trazado 99990" class="cls-1" d="M146.56,110.89a61.29,61.29,0,0,1-10.77,16.28l-.48.52,5,4.66.48-.53a67.85,67.85,0,0,0,12-18.1l.29-.65-6.23-2.83Z" transform="translate(-4.46)"/><path id="Trazado_99991" data-name="Trazado 99991" class="cls-13" d="M136.32,127.65l4,3.68a67.56,67.56,0,0,0,11.85-17.9l-4.93-2.24A62,62,0,0,1,136.32,127.65Z" transform="translate(-4.46)"/><path id="Trazado_99992" data-name="Trazado 99992" class="cls-1" d="M41.55,38.22a68.32,68.32,0,0,0-12.06,17l-.32.65,6.15,3,.32-.64A61.68,61.68,0,0,1,46.48,43l.5-.51L42,37.71Z" transform="translate(-4.46)"/><path id="Trazado_99993" data-name="Trazado 99993" class="cls-13" d="M46,42.47l-3.91-3.75A67.83,67.83,0,0,0,30.13,55.58L35,58A61.93,61.93,0,0,1,46,42.47Z" transform="translate(-4.46)"/><path id="Trazado_99994" data-name="Trazado 99994" class="cls-1" d="M100.39,18.84l-1,6.05.7.12a60.66,60.66,0,0,1,18.14,5.84l.63.32,3.12-6.1-.64-.32a67.36,67.36,0,0,0-20.18-6.51l-.71-.11Z" transform="translate(-4.46)"/><path id="Trazado_99995" data-name="Trazado 99995" class="cls-13" d="M118.6,30.21l2.46-4.83a66.82,66.82,0,0,0-20-6.43l-.84,5.34A61.83,61.83,0,0,1,118.6,30.21Z" transform="translate(-4.46)"/><path id="Trazado_99996" data-name="Trazado 99996" class="cls-1" d="M62.41,141l-2.71,5.5.64.32a68,68,0,0,0,19.8,6.27l.71.1,1-6.77-.71-.11a60.94,60.94,0,0,1-17.81-5.63l-.64-.32Z" transform="translate(-4.46)"/><path id="Trazado_99997" data-name="Trazado 99997" class="cls-13" d="M63.05,141.31l-2.39,4.86a66.8,66.8,0,0,0,19.59,6.19l.81-5.35A61.62,61.62,0,0,1,63.05,141.31Z" transform="translate(-4.46)"/><path id="Trazado_99998" data-name="Trazado 99998" class="cls-1" d="M132.26,78l-4.49.71.12.71A37.66,37.66,0,0,1,128,91l-.1.71,5.19.79.1-.72a43,43,0,0,0,.44-6.11,44,44,0,0,0-.58-7.06l-.12-.71Z" transform="translate(-4.46)"/><path id="Trazado_99999" data-name="Trazado 99999" class="cls-13" d="M129.13,85.64a41.22,41.22,0,0,1-.39,5.44l3.77.57a41.73,41.73,0,0,0-.14-13l-3.78.6A37.54,37.54,0,0,1,129.13,85.64Z" transform="translate(-4.46)"/><path id="Trazado_100000" data-name="Trazado 100000" class="cls-1" d="M48,79.24a43.35,43.35,0,0,0,.07,13.26l.12.72,5.17-.9-.11-.7A38.18,38.18,0,0,1,53.2,80l.11-.71-5.21-.73Z" transform="translate(-4.46)"/><path id="Trazado_100001" data-name="Trazado 100001" class="cls-13" d="M52.06,85.64a38.31,38.31,0,0,1,.43-5.76l-3.78-.53a42.24,42.24,0,0,0,.07,13l3.76-.66A38.77,38.77,0,0,1,52.06,85.64Z" transform="translate(-4.46)"/><path id="Trazado_100002" data-name="Trazado 100002" class="cls-1" d="M108.82,118.78a37.35,37.35,0,0,1-11.43,4.06l-.71.13.94,5.17.71-.13a43.08,43.08,0,0,0,13-4.62L112,123l-2.53-4.6Z" transform="translate(-4.46)"/><path id="Trazado_100003" data-name="Trazado 100003" class="cls-13" d="M97.51,123.55l.69,3.75a42,42,0,0,0,12.8-4.54l-1.84-3.35A38.24,38.24,0,0,1,97.51,123.55Z" transform="translate(-4.46)"/><path id="Trazado_100004" data-name="Trazado 100004" class="cls-1" d="M83.89,43.09a42.79,42.79,0,0,0-12.84,4.18l-.64.32,2.41,4.67.63-.32a37.34,37.34,0,0,1,11.26-3.65l.71-.11L84.6,43Z" transform="translate(-4.46)"/><path id="Trazado_100005" data-name="Trazado 100005" class="cls-13" d="M84.6,47.58,84,43.8a42,42,0,0,0-12.63,4.11l1.76,3.39A38,38,0,0,1,84.6,47.58Z" transform="translate(-4.46)"/><path id="Trazado_100006" data-name="Trazado 100006" class="cls-1" d="M120.23,55.38,117,58.55l.51.51a38,38,0,0,1,7.14,10.09l.31.64,4.76-2.25-.32-.65a43.18,43.18,0,0,0-8.14-11.5l-.5-.51Z" transform="translate(-4.46)"/><path id="Trazado_100007" data-name="Trazado 100007" class="cls-13" d="M125.28,68.84l3.45-1.63a42.41,42.41,0,0,0-8-11.32L118,58.56A38.85,38.85,0,0,1,125.28,68.84Z" transform="translate(-4.46)"/><path id="Trazado_100008" data-name="Trazado 100008" class="cls-1" d="M55.71,102.05l-4,2,.31.64a43.21,43.21,0,0,0,7.79,11l.51.52L64,112.52l-.5-.51a37.71,37.71,0,0,1-6.82-9.64l-.32-.65Z" transform="translate(-4.46)"/><path id="Trazado_100009" data-name="Trazado 100009" class="cls-13" d="M56,102.69l-3.41,1.72a42.47,42.47,0,0,0,7.66,10.8l2.71-2.7A38.66,38.66,0,0,1,56,102.69Z" transform="translate(-4.46)"/><path id="Trazado_100010" data-name="Trazado 100010" class="cls-1" d="M125.1,101.11a37.68,37.68,0,0,1-6.59,10l-.48.52,3.85,3.58.49-.54a42.61,42.61,0,0,0,7.51-11.43l.3-.64-4.78-2.19Z" transform="translate(-4.46)"/><path id="Trazado_100011" data-name="Trazado 100011" class="cls-13" d="M119,111.63l2.8,2.6A42.5,42.5,0,0,0,129.23,103l-3.48-1.58A38.79,38.79,0,0,1,119,111.63Z" transform="translate(-4.46)"/><path id="Trazado_100012" data-name="Trazado 100012" class="cls-1" d="M59.7,55.64a43.08,43.08,0,0,0-7.59,10.67l-.33.64,4.72,2.31.32-.63a38,38,0,0,1,6.67-9.34l.5-.52L60.2,55.13Z" transform="translate(-4.46)"/><path id="Trazado_100013" data-name="Trazado 100013" class="cls-13" d="M63,58.79l-2.75-2.65a42.55,42.55,0,0,0-7.47,10.49l3.43,1.68A38.77,38.77,0,0,1,63,58.79Z" transform="translate(-4.46)"/><path id="Trazado_100014" data-name="Trazado 100014" class="cls-1" d="M96.48,43.69l-.71,4.48.71.12a37.31,37.31,0,0,1,11.08,3.56l.64.32,2.38-4.68-.64-.32A42.66,42.66,0,0,0,97.29,43.1l-.7-.11Z" transform="translate(-4.46)"/><path id="Trazado_100015" data-name="Trazado 100015" class="cls-13" d="M107.88,51.21l1.74-3.4a41.94,41.94,0,0,0-12.44-4l-.59,3.78A38,38,0,0,1,107.88,51.21Z" transform="translate(-4.46)"/><path id="Trazado_100016" data-name="Trazado 100016" class="cls-1" d="M72.79,119.83l-2,4.07.64.31a42.53,42.53,0,0,0,12.48,4l.71.11.79-5.2L84.7,123a37.66,37.66,0,0,1-11-3.5l-.65-.32Z" transform="translate(-4.46)"/><path id="Trazado_100017" data-name="Trazado 100017" class="cls-13" d="M73.43,120.14l-1.68,3.44A42.3,42.3,0,0,0,84,127.49l.58-3.78A38.11,38.11,0,0,1,73.43,120.14Z" transform="translate(-4.46)"/></g><g id="Grupo_83360" data-name="Grupo 83360"><path id="Trazado_100018" data-name="Trazado 100018" class="cls-1" d="M84,43.08l-.71.12.83,5.18.7-.1a37.93,37.93,0,0,1,11.65,0l.7.1L98,43.2l-.71-.12a43.55,43.55,0,0,0-13.29,0Z" transform="translate(-4.46)"/><path id="Trazado_100019" data-name="Trazado 100019" class="cls-1" d="M90.59,47.11a38.15,38.15,0,0,1,5.94.46l.6-3.78a42.75,42.75,0,0,0-13.07,0l.6,3.78A38,38,0,0,1,90.59,47.11Z" transform="translate(-4.46)"/><path id="Trazado_100020" data-name="Trazado 100020" class="cls-1" d="M97.33,122.85a37.62,37.62,0,0,1-12.57.16l-.71-.11-.8,5.2.71.1A43,43,0,0,0,98.27,128l.71-.13-1-5.17Z" transform="translate(-4.46)"/><path id="Trazado_100021" data-name="Trazado 100021" class="cls-1" d="M90.59,124.17a39.4,39.4,0,0,1-5.94-.45l-.58,3.78a42.33,42.33,0,0,0,14.07-.19l-.68-3.75A38.65,38.65,0,0,1,90.59,124.17Z" transform="translate(-4.46)"/><path id="Trazado_100022" data-name="Trazado 100022" class="cls-1" d="M128.46,66.63l-4.11,1.94.32.65a38,38,0,0,1,3.21,10.13L128,80l5.19-.81-.12-.71A43,43,0,0,0,129.41,67l-.31-.64Z" transform="translate(-4.46)"/><path id="Trazado_100023" data-name="Trazado 100023" class="cls-1" d="M128.58,79.23l3.78-.59a42.07,42.07,0,0,0-3.59-11.37l-3.46,1.64A37.85,37.85,0,0,1,128.58,79.23Z" transform="translate(-4.46)"/><path id="Trazado_100024" data-name="Trazado 100024" class="cls-1" d="M52.43,91.09,48,91.86l.11.7A42.66,42.66,0,0,0,52,104.66l.32.65L57,102.93l-.31-.63a37.4,37.4,0,0,1-3.38-10.62L53.15,91Z" transform="translate(-4.46)"/><path id="Trazado_100025" data-name="Trazado 100025" class="cls-1" d="M52.56,91.8l-3.77.65a42.13,42.13,0,0,0,3.8,11.89L56,102.61A38.1,38.1,0,0,1,52.56,91.8Z" transform="translate(-4.46)"/><path id="Trazado_100026" data-name="Trazado 100026" class="cls-1" d="M118.28,111.39a38.08,38.08,0,0,1-9.4,7.35l-.62.35,2.52,4.61.63-.35a43.23,43.23,0,0,0,10.7-8.36l.49-.53-3.83-3.59Z" transform="translate(-4.46)"/><path id="Trazado_100027" data-name="Trazado 100027" class="cls-1" d="M109.23,119.37l1.84,3.35a43,43,0,0,0,10.52-8.22l-2.79-2.62A38.63,38.63,0,0,1,109.23,119.37Z" transform="translate(-4.46)"/><path id="Trazado_100028" data-name="Trazado 100028" class="cls-1" d="M71,47.3a43.36,43.36,0,0,0-11,8.08l-.5.52,3.76,3.65.5-.5A37.78,37.78,0,0,1,73.38,52l.64-.33L71.61,47Z" transform="translate(-4.46)"/><path id="Trazado_100029" data-name="Trazado 100029" class="cls-1" d="M73.05,51.34l-1.75-3.4a42.56,42.56,0,0,0-10.84,8l2.74,2.66A38.8,38.8,0,0,1,73.05,51.34Z" transform="translate(-4.46)"/><path id="Trazado_100030" data-name="Trazado 100030" class="cls-1" d="M109.05,47.52l-2.06,4,.64.33A37.71,37.71,0,0,1,117.45,59l.5.5,3.76-3.66-.51-.52A43.34,43.34,0,0,0,110,47.2l-.64-.32Z" transform="translate(-4.46)"/><path id="Trazado_100031" data-name="Trazado 100031" class="cls-1" d="M118,58.52l2.74-2.67a42.54,42.54,0,0,0-11-8L108,51.25A38.45,38.45,0,0,1,118,58.52Z" transform="translate(-4.46)"/><path id="Trazado_100032" data-name="Trazado 100032" class="cls-1" d="M62.71,112.25l-3.19,3.22.5.51a43.28,43.28,0,0,0,11.34,8.2l.65.32,2.3-4.72-.63-.32a37.64,37.64,0,0,1-10-7.21l-.51-.51Z" transform="translate(-4.46)"/><path id="Trazado_100033" data-name="Trazado 100033" class="cls-1" d="M63.22,112.76l-2.69,2.71a42.49,42.49,0,0,0,11.15,8.07l1.68-3.43A38.92,38.92,0,0,1,63.22,112.76Z" transform="translate(-4.46)"/><path id="Trazado_100034" data-name="Trazado 100034" class="cls-1" d="M128,91a37.08,37.08,0,0,1-2.89,10l-.29.65,4.78,2.19.3-.66a42.79,42.79,0,0,0,3.3-11.41l.1-.7-5.19-.79Z" transform="translate(-4.46)"/><path id="Trazado_100035" data-name="Trazado 100035" class="cls-1" d="M125.78,101.33l3.48,1.59a42.15,42.15,0,0,0,3.25-11.21l-3.78-.58A37.77,37.77,0,0,1,125.78,101.33Z" transform="translate(-4.46)"/><path id="Trazado_100036" data-name="Trazado 100036" class="cls-1" d="M52.07,66.38A42.69,42.69,0,0,0,48,79.18l-.11.72,5.2.72.11-.7A37.6,37.6,0,0,1,56.78,68.7l.33-.64-4.72-2.32Z" transform="translate(-4.46)"/><path id="Trazado_100037" data-name="Trazado 100037" class="cls-1" d="M56.15,68.38,52.71,66.7a42,42,0,0,0-4,12.59l3.78.53A37.86,37.86,0,0,1,56.15,68.38Z" transform="translate(-4.46)"/></g><path id="Trazado_100038" data-name="Trazado 100038" class="cls-1" d="M84.55,46.86l-.71.11,6,38.06H91.3l6-38.06-.71-.11a39.52,39.52,0,0,0-12.09,0Z" transform="translate(-4.46)"/><path id="Trazado_100039" data-name="Trazado 100039" class="cls-2" d="M90.59,84.82v.09l5.94-37.34a38.73,38.73,0,0,0-11.87,0l5.92,37.27Z" transform="translate(-4.46)"/><path id="Trazado_100040" data-name="Trazado 100040" class="cls-1" d="M89.78,85.4l-6,38.92.71.11a39.36,39.36,0,0,0,13-.17l.71-.13-7.1-38.75Z" transform="translate(-4.46)"/><path id="Trazado_100041" data-name="Trazado 100041" class="cls-2" d="M90.48,85.64v-.13l-5.84,38.21a38.73,38.73,0,0,0,12.8-.16l-7-38Z" transform="translate(-4.46)"/><path id="Trazado_100042" data-name="Trazado 100042" class="cls-1" d="M128.48,78.58l-37.67,6,0,1.42,38.59,5.9.09-.72a38.64,38.64,0,0,0-.14-12l-.11-.7Z" transform="translate(-4.46)"/><path id="Trazado_100043" data-name="Trazado 100043" class="cls-11" d="M91,85.29h-.08l37.87,5.78a37.78,37.78,0,0,0-.15-11.78l-37.67,6Z" transform="translate(-4.46)"/><path id="Trazado_100044" data-name="Trazado 100044" class="cls-1" d="M51.78,79.77a39.79,39.79,0,0,0-.44,5.87,40.42,40.42,0,0,0,.5,6.21l.11.71,38.34-6.67,0-1.42-38.42-5.4Z" transform="translate(-4.46)"/><path id="Trazado_100045" data-name="Trazado 100045" class="cls-11" d="M90.12,85.17h.09l-37.72-5.3a38.91,38.91,0,0,0,0,11.85l37.62-6.54Z" transform="translate(-4.46)"/><path id="Trazado_100046" data-name="Trazado 100046" class="cls-1" d="M125,68.26,90.75,84.49l.42,1.36,38.24-6-.12-.72A39.25,39.25,0,0,0,126,68.6l-.31-.64Z" transform="translate(-4.46)"/><path id="Trazado_100047" data-name="Trazado 100047" class="cls-2" d="M128.58,79.23a37.85,37.85,0,0,0-3.27-10.32L91.06,85.14Z" transform="translate(-4.46)"/><path id="Trazado_100048" data-name="Trazado 100048" class="cls-1" d="M52.43,91.09l-.69.12.11.7a39.14,39.14,0,0,0,3.5,11l.33.65L90.38,86l-.44-1.35Z" transform="translate(-4.46)"/><path id="Trazado_100049" data-name="Trazado 100049" class="cls-2" d="M52.56,91.8A38.1,38.1,0,0,0,56,102.61L90.06,85.33Z" transform="translate(-4.46)"/><path id="Trazado_100050" data-name="Trazado 100050" class="cls-1" d="M89.93,85.77l7,38.61.7-.13A38.86,38.86,0,0,0,109.51,120l.62-.35L91.26,85.3Z" transform="translate(-4.46)"/><path id="Trazado_100051" data-name="Trazado 100051" class="cls-11" d="M97.51,123.54a38,38,0,0,0,11.65-4.13L90.63,85.65Z" transform="translate(-4.46)"/><path id="Trazado_100052" data-name="Trazado 100052" class="cls-1" d="M84.49,46.87A39.16,39.16,0,0,0,72.8,50.66l-.64.33L89.82,85.14l1.35-.44-6-37.94Z" transform="translate(-4.46)"/><path id="Trazado_100053" data-name="Trazado 100053" class="cls-11" d="M84.6,47.58A38,38,0,0,0,73.13,51.3L90.46,84.81Z" transform="translate(-4.46)"/><path id="Trazado_100054" data-name="Trazado 100054" class="cls-1" d="M117.5,58.05,90.38,84.54l.81,1.16,35-16.52-.31-.65a39.32,39.32,0,0,0-7.41-10.47l-.51-.51Z" transform="translate(-4.46)"/><path id="Trazado_100055" data-name="Trazado 100055" class="cls-11" d="M90.88,85.06l34.4-16.22A38.69,38.69,0,0,0,118,58.56Z" transform="translate(-4.46)"/><path id="Trazado_100056" data-name="Trazado 100056" class="cls-1" d="M55.71,102.05l-.63.32.31.63a39.08,39.08,0,0,0,7.08,10l.51.52L90.66,86l-.82-1.15Z" transform="translate(-4.46)"/><path id="Trazado_100057" data-name="Trazado 100057" class="cls-11" d="M56,102.69a38.49,38.49,0,0,0,7,9.82L90.16,85.44Z" transform="translate(-4.46)"/><path id="Trazado_100058" data-name="Trazado 100058" class="cls-1" d="M90.14,85.93,109,120.34l.63-.34a39.66,39.66,0,0,0,9.75-7.63l.48-.52L91.26,85.07Z" transform="translate(-4.46)"/><path id="Trazado_100059" data-name="Trazado 100059" class="cls-2" d="M109.23,119.37a38.45,38.45,0,0,0,9.57-7.49l-28-26.29Z" transform="translate(-4.46)"/><path id="Trazado_100060" data-name="Trazado 100060" class="cls-1" d="M72.73,50.7A39.2,39.2,0,0,0,62.7,58l-.51.52L89.83,85.39,91,84.55,73.36,50.37Z" transform="translate(-4.46)"/><path id="Trazado_100061" data-name="Trazado 100061" class="cls-2" d="M73.05,51.34a38.56,38.56,0,0,0-9.85,7.21L90.32,84.87Z" transform="translate(-4.46)"/><path id="Trazado_100062" data-name="Trazado 100062" class="cls-1" d="M107.32,50.92,90.19,84.63l1.14.84L119,58.52l-.51-.51a39.07,39.07,0,0,0-10.18-7.4l-.64-.33Z" transform="translate(-4.46)"/><path id="Trazado_100063" data-name="Trazado 100063" class="cls-2" d="M118,58.52a38.45,38.45,0,0,0-10-7.27L90.83,85Z" transform="translate(-4.46)"/><path id="Trazado_100064" data-name="Trazado 100064" class="cls-1" d="M62.72,112.25l-.5.51.5.5A39.31,39.31,0,0,0,73,120.75l.65.32L90.9,85.84,89.75,85Z" transform="translate(-4.46)"/><path id="Trazado_100065" data-name="Trazado 100065" class="cls-2" d="M90.24,85.53h0l-27,27.24a38.66,38.66,0,0,0,10.14,7.34L90.25,85.52Z" transform="translate(-4.46)"/><path id="Trazado_100066" data-name="Trazado 100066" class="cls-1" d="M90.36,86l28.72,26.62.49-.53a39.23,39.23,0,0,0,6.84-10.42l.29-.65L91.15,84.85Z" transform="translate(-4.46)"/><path id="Trazado_100067" data-name="Trazado 100067" class="cls-11" d="M119,111.63a38.79,38.79,0,0,0,6.71-10.22L90.85,85.5Z" transform="translate(-4.46)"/><path id="Trazado_100068" data-name="Trazado 100068" class="cls-1" d="M62.46,58.29A39.21,39.21,0,0,0,55.54,68l-.32.65L89.9,85.57l.81-1.16L63,57.78Z" transform="translate(-4.46)"/><path id="Trazado_100069" data-name="Trazado 100069" class="cls-11" d="M63,58.79a38.77,38.77,0,0,0-6.79,9.52l34,16.62Z" transform="translate(-4.46)"/><path id="Trazado_100070" data-name="Trazado 100070" class="cls-1" d="M95.88,47.47,90,84.72l1.35.44,17.49-34.27-.65-.32a39.18,39.18,0,0,0-11.5-3.7L96,46.76Z" transform="translate(-4.46)"/><path id="Trazado_100071" data-name="Trazado 100071" class="cls-11" d="M107.88,51.21a38,38,0,0,0-11.29-3.63L90.72,84.83Z" transform="translate(-4.46)"/><path id="Trazado_100072" data-name="Trazado 100072" class="cls-1" d="M72.79,119.83l-.31.64.63.31a39,39,0,0,0,11.37,3.64l.71.11,5.87-38.76-1.35-.43Z" transform="translate(-4.46)"/><path id="Trazado_100073" data-name="Trazado 100073" class="cls-11" d="M73.43,120.14a38.11,38.11,0,0,0,11.16,3.57l5.76-38Z" transform="translate(-4.46)"/><path id="Trazado_100074" data-name="Trazado 100074" class="cls-1" d="M90.75,86.08l35.4,16.21.29-.66a38.91,38.91,0,0,0,3-10.39l.1-.71L91.16,84.72Z" transform="translate(-4.46)"/><path id="Trazado_100075" data-name="Trazado 100075" class="cls-2" d="M125.78,101.33a37.77,37.77,0,0,0,2.95-10.2l-37.68-5.7Z" transform="translate(-4.46)"/><path id="Trazado_100076" data-name="Trazado 100076" class="cls-1" d="M55.5,68.06a39.05,39.05,0,0,0-3.71,11.65l-.11.72L90,85.77l.41-1.35-34.63-17Z" transform="translate(-4.46)"/><path id="Trazado_100077" data-name="Trazado 100077" class="cls-2" d="M56.15,68.38A38.14,38.14,0,0,0,52.5,79.82l37.64,5.24Z" transform="translate(-4.46)"/><path id="Trazado_100078" data-name="Trazado 100078" class="cls-1" d="M79.52,85.16A11.11,11.11,0,1,0,90.63,74.05h0A11.12,11.12,0,0,0,79.52,85.16Z" transform="translate(-4.46)"/><path id="Trazado_100079" data-name="Trazado 100079" class="cls-13" d="M101,85.16A10.39,10.39,0,1,1,90.62,74.77h0A10.39,10.39,0,0,1,101,85.16Z" transform="translate(-4.46)"/><path id="Trazado_100080" data-name="Trazado 100080" class="cls-1" d="M84.35,85.16a6.28,6.28,0,1,0,6.28-6.28A6.27,6.27,0,0,0,84.35,85.16Z" transform="translate(-4.46)"/><path id="Trazado_100081" data-name="Trazado 100081" class="cls-12" d="M96.18,85.16a5.56,5.56,0,1,1-5.56-5.56h0A5.56,5.56,0,0,1,96.18,85.16Z" transform="translate(-4.46)"/><path id="Trazado_100082" data-name="Trazado 100082" class="cls-11" d="M116.21,16.28c-.74,0-1.18,0-1.92,0s-1.23,0-1.92,0a.56.56,0,0,1,0-.34l.71-.1c.37-.09.46-.38.53-.76.12-.54.24-1.3.44-2.49.17-1,.33-2,.35-2.33s0-.44-.22-.48-.44-.08-.65-.1a.44.44,0,0,1,.06-.32,8.4,8.4,0,0,0,2.52-.58s.17,0,.17.07c-.11.51-.19.93-.37,2s-.49,3.17-.62,4.2c0,.47,0,.76.27.83a5.16,5.16,0,0,0,.67.1A.58.58,0,0,1,116.21,16.28Z" transform="translate(-4.46)"/><path id="Trazado_100083" data-name="Trazado 100083" class="cls-11" d="M135.47,144.41c-.05,0-.23-.2-.2-.25a3.45,3.45,0,0,1,2.64-1.61,1.87,1.87,0,0,1,1.87,1.87v.06c0,1-.47,1.77-1.72,2.85-.5.43-1,.81-1.56,1.3,0,0,0,.07,0,.07.42,0,1.91,0,2.44,0,.27,0,.57-.12,1-.81,0,0,.28.08.28.15a9.5,9.5,0,0,1-.89,1.81c-.08.14-.28.19-.69.21-.91,0-2.39,0-3.31,0-.25,0-.67,0-.88,0a1.24,1.24,0,0,1,0-.33,14.62,14.62,0,0,0,2.54-2.1,3.47,3.47,0,0,0,1.18-2.54,1.25,1.25,0,0,0-1.12-1.35H137A2,2,0,0,0,135.47,144.41Z" transform="translate(-4.46)"/><path id="Trazado_100084" data-name="Trazado 100084" class="cls-11" d="M94.11,159.7c0,.73-.49,1.24-1.39,1.73,0,0,0,0,0,.06a2.07,2.07,0,0,1,1.57,1.86,2.65,2.65,0,0,1-1.54,2.3,3.67,3.67,0,0,1-1.83.47,3.27,3.27,0,0,1-1.44-.3.74.74,0,0,1-.41-.47,4.73,4.73,0,0,1,0-1.19.55.55,0,0,1,.29-.11,2,2,0,0,0,.79,1.31,1.73,1.73,0,0,0,1.07.36c.9,0,1.45-.74,1.45-1.74a1.45,1.45,0,0,0-1.3-1.59h-.23l-.38,0a1.42,1.42,0,0,1,.29-.59c1.25-.22,1.71-.69,1.71-1.44a1.12,1.12,0,0,0-1-1.23.43.43,0,0,0-.16,0,2,2,0,0,0-1.43.65s-.17-.23-.17-.28a3.63,3.63,0,0,1,2.52-1.39,1.58,1.58,0,0,1,1.65,1.51Z" transform="translate(-4.46)"/><path id="Trazado_100085" data-name="Trazado 100085" class="cls-11" d="M153.72,42.57s-.05,0-.05,0l-.35,2.29c-.39,0-1.33.07-1.7.12l.42-2.39a.09.09,0,0,0,0-.07h-2.93a2.64,2.64,0,0,1,.14-.48c1-1.15,3.77-4.16,4.3-4.73l.45,0c.24,0,.43,0,.51,0-.12.81-.5,3.15-.67,4.38,0,0,0,.07.06.07l1.28,0a7.49,7.49,0,0,0-.23.81Zm-1.6-.75s.07,0,.07-.06l.55-3a0,0,0,0,0-.05,0h0c-.33.34-2,2.27-2.57,3,0,0,0,0,0,0Z" transform="translate(-4.46)"/><path id="Trazado_100086" data-name="Trazado 100086" class="cls-11" d="M68.25,8.91a3.59,3.59,0,0,1-.55,1,.86.86,0,0,1-.79.4c-.72,0-1.22-.09-1.56-.09a.24.24,0,0,0-.12.07,3.6,3.6,0,0,0-.32.69s0,.1,0,.13a24.28,24.28,0,0,1,2.26,1.23,2,2,0,0,1,1,1.72c0,1.79-1.83,2.68-3.08,2.68a2.33,2.33,0,0,1-2-.89.65.65,0,0,1-.1-.36,2.55,2.55,0,0,1,.4-.83.44.44,0,0,1,.15,0,2.57,2.57,0,0,0,2.11,1.62,1,1,0,0,0,1.12-1,.81.81,0,0,0,0-.22A1.74,1.74,0,0,0,66,13.66c-.59-.44-1.76-1.08-2-1.28A1.12,1.12,0,0,1,64,12a26.3,26.3,0,0,1,1.34-2.78.6.6,0,0,1,.36-.3c.24,0,1,.08,1.67.08a.88.88,0,0,0,.67-.22S68.25,8.84,68.25,8.91Z" transform="translate(-4.46)"/><path id="Trazado_100087" data-name="Trazado 100087" class="cls-14" d="M166.32,84.7s0,.1,0,.08a3.11,3.11,0,0,1,1.48-.5,1.76,1.76,0,0,1,1.67,2,3,3,0,0,1-1.83,2.83,3.28,3.28,0,0,1-1.27.26,2.18,2.18,0,0,1-2.34-2.42c0-2.82,2.9-5.08,5.72-5.77.08,0,.17.27.12.31A7.35,7.35,0,0,0,166.32,84.7Zm-.13.51a.42.42,0,0,0-.17.2,5.26,5.26,0,0,0-.28,1.63c0,1.29.39,1.86,1,1.86s1.14-1.07,1.14-2.18-.41-1.68-1.1-1.68a1.26,1.26,0,0,0-.6.17Z" transform="translate(-4.46)"/><path id="Trazado_100088" data-name="Trazado 100088" class="cls-11" d="M48,143.09c-.64,1.37-3.85,6.51-4.33,7.45a.27.27,0,0,1-.08.07,1.3,1.3,0,0,1-.42-.22.74.74,0,0,1,0-.21c.81-1.29,3-4.61,3.57-5.72,0,0,0-.09,0-.09-.41,0-2.26,0-3.17,0-.38,0-.54.24-.94.87,0,0-.31-.13-.33-.16a16.12,16.12,0,0,0,.81-2.3,2.3,2.3,0,0,0,.94.11h2.59c.49,0,1.06,0,1.33,0C48,142.9,48,143.06,48,143.09Z" transform="translate(-4.46)"/><path id="Trazado_100089" data-name="Trazado 100089" class="cls-11" d="M19.73,107.65c0,.77-.54,1.12-1.48,1.75-.05,0,0,0,0,.06.81.64,1.28,1.22,1.29,1.89a2.65,2.65,0,0,1-2.9,2.34c-1.66,0-2.27-.88-2.27-1.66s.42-1,1.87-1.93c0,0,0,0,0,0a2.32,2.32,0,0,1-1-1.68,2.15,2.15,0,0,1,1-1.82,2.92,2.92,0,0,1,1.59-.47A1.66,1.66,0,0,1,19.73,107.65Zm-1.68,4.52c0-.57-.38-1-1.44-1.85a.08.08,0,0,0-.09,0,2,2,0,0,0-.89,1.6,1.29,1.29,0,0,0,1.22,1.37H17a1,1,0,0,0,1.09-1v-.12Zm-1.44-4.67c0,.6.31,1,1.27,1.69a0,0,0,0,0,.08,0,1.83,1.83,0,0,0,.63-1.41,1.15,1.15,0,0,0-1-1.3h-.09a1,1,0,0,0-.92,1v0Z" transform="translate(-4.46)"/><path id="Trazado_100090" data-name="Trazado 100090" class="cls-11" d="M24.35,45.81a6.9,6.9,0,0,0,3.49-3.16,0,0,0,0,0,0-.06,3.89,3.89,0,0,1-1.55.48,1.81,1.81,0,0,1-1.71-2,3,3,0,0,1,1.67-2.72A3.28,3.28,0,0,1,27.65,38,2.27,2.27,0,0,1,30,40.56c0,2.64-2.4,4.84-5.48,5.58A.45.45,0,0,1,24.35,45.81Zm1.78-5.29c0,1.32.58,1.78,1.27,1.78a1.17,1.17,0,0,0,.49-.11.61.61,0,0,0,.18-.24,5.42,5.42,0,0,0,.3-1.69c0-1.17-.3-1.82-1-1.82S26.13,39.39,26.13,40.52Z" transform="translate(-4.46)"/><g id="Grupo_83361" data-name="Grupo 83361"><path id="Trazado_100091" data-name="Trazado 100091" class="cls-11" d="M162.24,110.24c-.74,0-1.18,0-1.92,0s-1.23,0-1.92,0a.58.58,0,0,1,0-.34c.32,0,.48-.06.71-.1s.46-.37.54-.76c.11-.54.23-1.3.43-2.49.17-1,.33-2,.36-2.33s0-.44-.23-.48-.43-.08-.65-.1a.45.45,0,0,1,.06-.32,8,8,0,0,0,2.52-.58c.05,0,.18,0,.18.08-.11.5-.2.93-.38,2s-.49,3.17-.61,4.2c0,.46,0,.75.26.83a3.84,3.84,0,0,0,.68.09A.66.66,0,0,1,162.24,110.24Z" transform="translate(-4.46)"/><path id="Trazado_100092" data-name="Trazado 100092" class="cls-11" d="M169.91,105.31c0,1.7-.65,3.85-2.06,4.67a3,3,0,0,1-1.47.38c-1.61,0-2.17-1.13-2.16-2.6s.5-3.55,1.85-4.48a3.1,3.1,0,0,1,1.72-.54C169.34,102.74,169.91,103.88,169.91,105.31ZM167,103.45c-.69.85-1.09,3.09-1.09,4.79,0,1.35.3,1.73.76,1.73a.77.77,0,0,0,.47-.22c.7-.74,1.2-3.38,1.2-5.15,0-1.39-.43-1.49-.74-1.49a.78.78,0,0,0-.6.34Z" transform="translate(-4.46)"/></g><g id="Grupo_83362" data-name="Grupo 83362"><path id="Trazado_100093" data-name="Trazado 100093" class="cls-11" d="M11.72,90.07c-.74,0-1.18,0-1.92,0s-1.23,0-1.92,0a.56.56,0,0,1,0-.34l.7-.1c.38-.09.47-.38.54-.76.12-.55.24-1.3.44-2.49.17-1,.33-2,.35-2.33s0-.44-.22-.48a4.87,4.87,0,0,0-.65-.1.48.48,0,0,1,.06-.33,7.84,7.84,0,0,0,2.52-.58c.05,0,.17,0,.17.08-.11.5-.2.93-.37,2s-.49,3.17-.61,4.2c0,.47,0,.75.26.83a5.16,5.16,0,0,0,.67.1A.67.67,0,0,1,11.72,90.07Z" transform="translate(-4.46)"/><path id="Trazado_100094" data-name="Trazado 100094" class="cls-11" d="M18,90.07c-.74,0-1.18,0-1.92,0s-1.23,0-1.92,0a.49.49,0,0,1,.05-.34l.7-.1c.38-.09.46-.38.54-.76.11-.55.24-1.3.44-2.49.16-1,.32-2,.35-2.33s0-.44-.23-.48a4.63,4.63,0,0,0-.65-.1.48.48,0,0,1,.06-.33,7.78,7.78,0,0,0,2.52-.58c.05,0,.18,0,.18.08-.11.5-.2.93-.38,2s-.49,3.17-.61,4.2c0,.47,0,.75.26.83a5.06,5.06,0,0,0,.68.1A.8.8,0,0,1,18,90.07Z" transform="translate(-4.46)"/></g><g id="Grupo_83363" data-name="Grupo 83363"><path id="Trazado_100095" data-name="Trazado 100095" class="cls-11" d="M42.27,27.15c-.73,0-1.17,0-1.91,0s-1.23,0-1.92,0a.45.45,0,0,1,.05-.34l.7-.1c.38-.09.46-.37.54-.76s.24-1.29.44-2.49c.16-1,.32-2,.35-2.33s0-.44-.23-.48a4.63,4.63,0,0,0-.65-.1.48.48,0,0,1,.06-.33,7.77,7.77,0,0,0,2.52-.57c.05,0,.18,0,.18.08-.11.49-.2.92-.38,1.95s-.49,3.17-.61,4.2c0,.47,0,.76.26.83a5.06,5.06,0,0,0,.68.1A.66.66,0,0,1,42.27,27.15Z" transform="translate(-4.46)"/><path id="Trazado_100096" data-name="Trazado 100096" class="cls-11" d="M45,21.5s-.23-.2-.2-.25a3.45,3.45,0,0,1,2.64-1.6,1.86,1.86,0,0,1,1.87,1.87v.06c0,1-.47,1.77-1.72,2.85l-1.56,1.29s0,.07,0,.07c.42,0,1.91,0,2.44,0,.27,0,.57-.12,1-.81,0,0,.28.09.28.15A9.3,9.3,0,0,1,48.89,27c-.08.14-.28.19-.69.2-.9,0-2.39,0-3.31,0a8.24,8.24,0,0,0-.88,0,1.27,1.27,0,0,1,0-.34,14.19,14.19,0,0,0,2.54-2.1,3.45,3.45,0,0,0,1.18-2.53,1.23,1.23,0,0,0-1.11-1.35h-.1A2,2,0,0,0,45,21.5Z" transform="translate(-4.46)"/></g><g id="Grupo_83364" data-name="Grupo 83364"><path id="Trazado_100097" data-name="Trazado 100097" class="cls-11" d="M162.06,67.08c-.74,0-1.18,0-1.92,0s-1.23,0-1.92,0a.56.56,0,0,1,.05-.34l.7-.1c.38-.09.47-.38.54-.76.12-.55.24-1.3.44-2.49.17-1,.33-2,.35-2.33s0-.44-.22-.48a5,5,0,0,0-.66-.1.55.55,0,0,1,.07-.33,8.16,8.16,0,0,0,2.52-.57c.05,0,.17,0,.17.07-.11.5-.2.93-.37,2s-.49,3.18-.62,4.2c0,.47,0,.76.27.83a5.16,5.16,0,0,0,.67.1A.67.67,0,0,1,162.06,67.08Z" transform="translate(-4.46)"/><path id="Trazado_100098" data-name="Trazado 100098" class="cls-11" d="M169.07,61.14c0,.74-.5,1.25-1.39,1.73a.06.06,0,0,0,0,.07,2,2,0,0,1,1.57,1.85,2.63,2.63,0,0,1-1.53,2.31,3.78,3.78,0,0,1-1.83.47,3.12,3.12,0,0,1-1.44-.31.7.7,0,0,1-.41-.46,4.76,4.76,0,0,1,0-1.19.55.55,0,0,1,.28-.11,2.07,2.07,0,0,0,.8,1.31,1.69,1.69,0,0,0,1.06.35c.91,0,1.46-.74,1.46-1.74a1.46,1.46,0,0,0-1.3-1.59h-.23l-.38,0a1.42,1.42,0,0,1,.29-.59c1.24-.21,1.71-.69,1.71-1.44a1.12,1.12,0,0,0-1-1.23h-.16a2,2,0,0,0-1.43.65s-.18-.22-.18-.27a3.65,3.65,0,0,1,2.53-1.4,1.58,1.58,0,0,1,1.65,1.51Z" transform="translate(-4.46)"/></g><g id="Grupo_83365" data-name="Grupo 83365"><path id="Trazado_100099" data-name="Trazado 100099" class="cls-11" d="M14.41,67.57c-.74,0-1.18,0-1.92,0s-1.23,0-1.91,0a.49.49,0,0,1,0-.34l.71-.1c.37-.09.46-.38.54-.77.11-.54.24-1.29.44-2.48.16-1,.32-2,.35-2.33s0-.44-.23-.48a4.63,4.63,0,0,0-.65-.1.44.44,0,0,1,.06-.32,8.33,8.33,0,0,0,2.52-.58c.05,0,.18,0,.18.07-.11.51-.2.93-.37,2s-.5,3.18-.62,4.2c0,.47,0,.76.26.83a5.31,5.31,0,0,0,.68.1A.68.68,0,0,1,14.41,67.57Z" transform="translate(-4.46)"/><path id="Trazado_100100" data-name="Trazado 100100" class="cls-11" d="M20.76,65.37s-.05,0-.05,0l-.35,2.29c-.39,0-1.33.07-1.69.12l.41-2.39a.09.09,0,0,0,0-.07H16.11a2.42,2.42,0,0,1,.13-.48c1-1.16,3.78-4.17,4.31-4.73l.45,0c.24,0,.42,0,.51,0-.12.81-.5,3.15-.67,4.38,0,0,0,.07.06.07l1.28,0a6.89,6.89,0,0,0-.23.81Zm-1.59-.75s.06-.05.06-.06l.55-3h-.05c-.32.34-2,2.27-2.57,3,0,0,0,.05,0,.05Z" transform="translate(-4.46)"/></g><g id="Grupo_83366" data-name="Grupo 83366"><path id="Trazado_100101" data-name="Trazado 100101" class="cls-11" d="M25.74,133c-.74,0-1.18,0-1.92,0s-1.23,0-1.91,0a.46.46,0,0,1,.05-.34l.7-.1c.37-.09.46-.38.53-.76.12-.54.24-1.3.44-2.49.17-1,.33-2,.36-2.33s0-.44-.23-.48a4.87,4.87,0,0,0-.65-.1.44.44,0,0,1,.06-.32,8,8,0,0,0,2.52-.58s.18,0,.18.08c-.12.5-.2.92-.38,2s-.49,3.17-.61,4.2c0,.47,0,.75.26.83a5.06,5.06,0,0,0,.68.1A.66.66,0,0,1,25.74,133Z" transform="translate(-4.46)"/><path id="Trazado_100102" data-name="Trazado 100102" class="cls-11" d="M30.05,128.54s0,.1,0,.07a3.3,3.3,0,0,1,1.48-.5,1.76,1.76,0,0,1,1.67,2,3,3,0,0,1-1.83,2.82,3.44,3.44,0,0,1-1.27.27,2.2,2.2,0,0,1-2.34-2.43c0-2.82,2.91-5.08,5.73-5.77.08,0,.16.28.11.32A7.2,7.2,0,0,0,30.05,128.54Zm-.13.5a.49.49,0,0,0-.18.2,5.35,5.35,0,0,0-.27,1.63c0,1.29.39,1.86,1,1.86s1.14-1.07,1.14-2.17-.41-1.68-1.1-1.68a1.21,1.21,0,0,0-.59.16Z" transform="translate(-4.46)"/></g><g id="Grupo_83367" data-name="Grupo 83367"><path id="Trazado_100103" data-name="Trazado 100103" class="cls-11" d="M152.28,130.89c-.74,0-1.18,0-1.92,0s-1.23,0-1.92,0a.57.57,0,0,1,.05-.34l.7-.1c.38-.08.47-.37.55-.76s.23-1.29.43-2.49c.16-1,.33-2,.35-2.33s0-.44-.22-.48a3.74,3.74,0,0,0-.66-.09.61.61,0,0,1,.06-.33,8.17,8.17,0,0,0,2.53-.58c.05,0,.17,0,.17.07-.11.51-.2.93-.37,2s-.49,3.18-.62,4.2c0,.47,0,.76.27.83a3.87,3.87,0,0,0,.67.1A.67.67,0,0,1,152.28,130.89Z" transform="translate(-4.46)"/><path id="Trazado_100104" data-name="Trazado 100104" class="cls-11" d="M159.39,123.49a3.35,3.35,0,0,1-.55,1,.83.83,0,0,1-.79.4c-.71,0-1.22-.09-1.55-.09a.22.22,0,0,0-.13.08,4.28,4.28,0,0,0-.31.69s0,.1,0,.12c.55.28,1.8.91,2.26,1.23a2,2,0,0,1,1,1.72c0,1.79-1.83,2.69-3.08,2.69a2.36,2.36,0,0,1-2-.89.78.78,0,0,1-.1-.36,2.77,2.77,0,0,1,.4-.83.3.3,0,0,1,.15,0,2.58,2.58,0,0,0,2.11,1.61,1,1,0,0,0,1.12-1,.88.88,0,0,0,0-.23,1.71,1.71,0,0,0-.83-1.41c-.59-.45-1.76-1.08-2-1.28a1.2,1.2,0,0,1,0-.42,28.25,28.25,0,0,1,1.34-2.77.56.56,0,0,1,.37-.3c.23,0,1,.07,1.66.07a.85.85,0,0,0,.67-.21S159.39,123.43,159.39,123.49Z" transform="translate(-4.46)"/></g><g id="Grupo_83368" data-name="Grupo 83368"><path id="Trazado_100105" data-name="Trazado 100105" class="cls-11" d="M114.55,160.58c-.74,0-1.18,0-1.92,0s-1.23,0-1.92,0a.56.56,0,0,1,.05-.34l.71-.1c.37-.09.46-.38.53-.77s.24-1.29.44-2.48c.17-1,.33-2,.35-2.33s0-.44-.22-.48a4.87,4.87,0,0,0-.65-.1.47.47,0,0,1,.06-.33,8,8,0,0,0,2.52-.57s.18,0,.18.07c-.11.5-.2.93-.38,2s-.49,3.18-.61,4.2c0,.47,0,.76.26.83a5.06,5.06,0,0,0,.68.1A.68.68,0,0,1,114.55,160.58Z" transform="translate(-4.46)"/><path id="Trazado_100106" data-name="Trazado 100106" class="cls-11" d="M122.77,153.4c-.64,1.37-3.85,6.51-4.33,7.46l-.09.06a1.44,1.44,0,0,1-.41-.21.54.54,0,0,1,0-.22c.8-1.29,3-4.6,3.56-5.72,0,0,0-.09,0-.09-.41,0-2.27,0-3.18,0-.37,0-.53.24-.94.86,0,0-.31-.12-.32-.16a16.91,16.91,0,0,0,.8-2.3,2.51,2.51,0,0,0,.94.12h2.6c.49,0,1,0,1.33,0C122.77,153.22,122.78,153.38,122.77,153.4Z" transform="translate(-4.46)"/></g><g id="Grupo_83369" data-name="Grupo 83369"><path id="Trazado_100107" data-name="Trazado 100107" class="cls-11" d="M134.9,28.25c-.74,0-1.18,0-1.92,0s-1.23,0-1.92,0a.58.58,0,0,1,.05-.34,6.86,6.86,0,0,0,.7-.1c.38-.09.47-.37.55-.77s.23-1.29.43-2.48c.16-1,.33-2,.36-2.33s0-.44-.23-.48a5,5,0,0,0-.66-.1.51.51,0,0,1,.07-.32,8.33,8.33,0,0,0,2.52-.58c.05,0,.18,0,.18.07-.12.51-.21.93-.38,2S134.16,26,134,27c0,.47,0,.76.27.83a3.85,3.85,0,0,0,.68.1A.66.66,0,0,1,134.9,28.25Z" transform="translate(-4.46)"/><path id="Trazado_100108" data-name="Trazado 100108" class="cls-11" d="M142.33,22.32c0,.76-.54,1.11-1.48,1.74,0,0,0,0,0,.06.82.64,1.28,1.22,1.3,1.9a2.65,2.65,0,0,1-2.9,2.33c-1.67,0-2.27-.88-2.27-1.66s.42-1,1.87-1.93c0,0,0,0,0-.05a2.31,2.31,0,0,1-1-1.68,2.15,2.15,0,0,1,1-1.82,3,3,0,0,1,1.59-.46A1.66,1.66,0,0,1,142.33,22.32Zm-1.68,4.51c0-.56-.38-1-1.44-1.84,0,0-.07,0-.09,0a2,2,0,0,0-.89,1.59,1.3,1.3,0,0,0,1.2,1.38h.13a1,1,0,0,0,1.09-1Zm-1.44-4.66c0,.6.31,1,1.26,1.69a.08.08,0,0,0,.09,0,1.92,1.92,0,0,0,.63-1.42,1.14,1.14,0,0,0-1-1.29h-.09a1,1,0,0,0-.92,1v0Z" transform="translate(-4.46)"/></g><path id="Trazado_100109" data-name="Trazado 100109" class="cls-11" d="M64.58,161.54c-.74,0-1.18,0-1.92,0s-1.23,0-1.92,0a.56.56,0,0,1,0-.34l.71-.1c.37-.09.46-.38.53-.77.12-.54.24-1.29.44-2.48.17-1,.33-2,.36-2.34s0-.44-.23-.47a4.63,4.63,0,0,0-.65-.1.47.47,0,0,1,.06-.33,7.78,7.78,0,0,0,2.52-.58s.18,0,.18.08c-.11.5-.2.93-.38,2s-.49,3.17-.61,4.2c0,.46,0,.75.26.83a5.06,5.06,0,0,0,.68.1A.68.68,0,0,1,64.58,161.54Z" transform="translate(-4.46)"/><path id="Trazado_100110" data-name="Trazado 100110" class="cls-11" d="M66.66,161.82a7,7,0,0,0,3.49-3.17s0-.07,0-.06a4,4,0,0,1-1.56.48,1.81,1.81,0,0,1-1.71-2,3,3,0,0,1,1.67-2.72A3.32,3.32,0,0,1,70,154a2.26,2.26,0,0,1,2.3,2.52c0,2.65-2.39,4.84-5.48,5.58A.44.44,0,0,1,66.66,161.82Zm1.79-5.3c0,1.32.57,1.78,1.26,1.78a1.17,1.17,0,0,0,.49-.11.55.55,0,0,0,.18-.24,5.1,5.1,0,0,0,.3-1.69c0-1.17-.3-1.82-1-1.82s-1.22.95-1.22,2.08Z" transform="translate(-4.46)"/><g id="Grupo_83370" data-name="Grupo 83370"><path id="Trazado_100111" data-name="Trazado 100111" class="cls-11" d="M85.36,7.59s-.23-.2-.2-.25A3.44,3.44,0,0,1,87.8,5.73a1.86,1.86,0,0,1,1.87,1.88v0c0,1-.47,1.77-1.72,2.85-.5.43-1,.8-1.57,1.29,0,0,0,.08,0,.08.42,0,1.9,0,2.44,0,.27,0,.57-.13,1-.82,0,0,.28.09.28.15A9.9,9.9,0,0,1,89.21,13c-.08.14-.28.19-.69.2-.9,0-2.38,0-3.31,0a8.24,8.24,0,0,0-.88,0,1.27,1.27,0,0,1,0-.34,14.19,14.19,0,0,0,2.54-2.1,3.45,3.45,0,0,0,1.18-2.53A1.23,1.23,0,0,0,87,6.9h-.11A2,2,0,0,0,85.36,7.59Z" transform="translate(-4.46)"/><path id="Trazado_100112" data-name="Trazado 100112" class="cls-11" d="M96.5,8.3c0,1.69-.66,3.85-2.06,4.67a3,3,0,0,1-1.47.38c-1.62,0-2.17-1.14-2.16-2.6s.49-3.55,1.85-4.48a3,3,0,0,1,1.71-.54C95.93,5.73,96.5,6.87,96.5,8.3Zm-3-1.87c-.69.85-1.1,3.1-1.1,4.79,0,1.36.3,1.73.77,1.73a.73.73,0,0,0,.46-.21c.7-.74,1.21-3.39,1.21-5.16,0-1.39-.43-1.49-.74-1.49A.81.81,0,0,0,93.55,6.43Z" transform="translate(-4.46)"/></g></g></g></svg>