<?xml version="1.0" encoding="utf-8"?>
<!-- Generator: Adobe Illustrator 25.3.1, SVG Export Plug-In . SVG Version: 6.00 Build 0)  -->
<svg version="1.1" id="Layer_1" xmlns="http://www.w3.org/2000/svg" xmlns:xlink="http://www.w3.org/1999/xlink" x="0px" y="0px"
	 viewBox="0 0 310.2 262.2" style="enable-background:new 0 0 310.2 262.2;" xml:space="preserve">
<style type="text/css">
	.st0{fill:#12263F;}
	.st1{fill:#265D99;}
	.st2{fill:url(#Trazado_99918_1_);}
	.st3{fill:url(#Trazado_99920_1_);}
	.st4{fill:url(#Trazado_99922_1_);}
	.st5{fill:url(#Trazado_99924_1_);}
	.st6{fill:url(#Trazado_99926_1_);}
	.st7{fill:url(#Trazado_99928_1_);}
	.st8{fill:url(#Trazado_99930_1_);}
	.st9{fill:url(#Trazado_99932_1_);}
	.st10{fill:#FFFFFF;}
	.st11{fill:#76C2DD;}
	.st12{fill:#CCF8FF;}
	.st13{fill:#D9DBDC;}
</style>
<g id="Grupo_83372" transform="translate(-102.149 -96.417)">
	<g id="Grupo_83371" transform="translate(102.149 96.417)">
		<path id="Trazado_99916" class="st0" d="M263.8,131.1c0,60-48.7,108.7-108.7,108.7c-60,0-108.7-48.7-108.7-108.7
			S95.1,22.4,155.1,22.4c0,0,0,0,0,0C215.2,22.4,263.8,71.1,263.8,131.1C263.8,131.1,263.8,131.1,263.8,131.1z"/>
		<path id="Trazado_99917" class="st1" d="M261.3,131.1c0,58.6-47.5,106.2-106.2,106.2S49,189.7,49,131.1C49,72.5,96.5,25,155.1,25
			c0,0,0,0,0,0C213.7,25,261.3,72.5,261.3,131.1C261.3,131.1,261.3,131.1,261.3,131.1z"/>
		
			<radialGradient id="Trazado_99918_1_" cx="-802.1382" cy="662.235" r="0.3095" gradientTransform="matrix(43.7692 0 0 -43.7607 35264.6328 29045.0781)" gradientUnits="userSpaceOnUse">
			<stop  offset="0" style="stop-color:#FFF064"/>
			<stop  offset="0.427" style="stop-color:#FBCB6B"/>
			<stop  offset="0.778" style="stop-color:#F9B570"/>
			<stop  offset="1" style="stop-color:#F9AD72"/>
		</radialGradient>
		<path id="Trazado_99918" class="st2" d="M143.4,52.3l-0.9,0.1l4.2,26.5l0.9-0.1c5.4-0.8,10.9-0.8,16.3,0l0.9,0.1l4.2-26.5
			l-0.9-0.1C159.9,51.1,151.6,51.1,143.4,52.3L143.4,52.3z"/>
		<path id="Trazado_99919" class="st1" d="M155.7,77.3c2.8,0,5.5,0.2,8.3,0.6l3.9-24.7c-8.1-1.3-16.4-1.3-24.5,0l3.9,24.7
			C150.2,77.6,152.9,77.3,155.7,77.3z"/>
		
			<radialGradient id="Trazado_99920_1_" cx="-802.3165" cy="664.0569" r="0.3179" gradientTransform="matrix(44.1623 0 0 -44.1567 35588.8984 29519.4629)" gradientUnits="userSpaceOnUse">
			<stop  offset="0" style="stop-color:#FFF064"/>
			<stop  offset="0.427" style="stop-color:#FBCB6B"/>
			<stop  offset="0.778" style="stop-color:#F9B570"/>
			<stop  offset="1" style="stop-color:#F9AD72"/>
		</radialGradient>
		<path id="Trazado_99920" class="st3" d="M165.1,183.1c-5.8,1.1-11.7,1.1-17.6,0.2l-0.9-0.1l-4.1,26.6l0.9,0.1
			c8.8,1.3,17.7,1.2,26.5-0.3l0.9-0.2l-4.8-26.5L165.1,183.1z"/>
		<path id="Trazado_99921" class="st1" d="M155.7,184.9c-2.8,0-5.5-0.2-8.3-0.6l-3.8,24.8c8.7,1.3,17.5,1.2,26.2-0.3l-4.5-24.7
			C162.1,184.6,158.9,184.8,155.7,184.9z"/>
		
			<radialGradient id="Trazado_99922_1_" cx="-802.7836" cy="662.7496" r="0.3411" gradientTransform="matrix(43.363 0 0 -43.379 35027.5352 28858.9316)" gradientUnits="userSpaceOnUse">
			<stop  offset="0" style="stop-color:#FFF064"/>
			<stop  offset="0.427" style="stop-color:#FBCB6B"/>
			<stop  offset="0.778" style="stop-color:#F9B570"/>
			<stop  offset="1" style="stop-color:#F9AD72"/>
		</radialGradient>
		<path id="Trazado_99922" class="st4" d="M226.4,96.2L203,107.3l0.4,0.8c2.2,4.5,3.7,9.3,4.5,14.2l0.2,0.9l26.6-4.2l-0.1-0.9
			c-1.2-7.5-3.5-14.7-6.8-21.5l-0.4-0.8L226.4,96.2z"/>
		<path id="Trazado_99923" class="st1" d="M204.2,107.8c2.2,4.6,3.7,9.4,4.6,14.4l24.8-3.9c-1.2-7.4-3.4-14.5-6.7-21.3L204.2,107.8z
			"/>
		
			<radialGradient id="Trazado_99924_1_" cx="-802.0483" cy="663.7105" r="0.3329" gradientTransform="matrix(45.4829 0 0 -45.474 36574.1992 30334.6328)" gradientUnits="userSpaceOnUse">
			<stop  offset="0" style="stop-color:#FFF064"/>
			<stop  offset="0.427" style="stop-color:#FBCB6B"/>
			<stop  offset="0.778" style="stop-color:#F9B570"/>
			<stop  offset="1" style="stop-color:#F9AD72"/>
		</radialGradient>
		<path id="Trazado_99924" class="st5" d="M102.5,138.8l-25.6,4.4l0.1,0.9c1.3,7.8,3.7,15.4,7.3,22.4l0.4,0.8l24-12.2l-0.4-0.8
			c-2.3-4.7-3.9-9.7-4.7-14.8l-0.1-0.9L102.5,138.8z"/>
		<path id="Trazado_99925" class="st1" d="M102.7,139.7L78,144c1.3,7.7,3.7,15.2,7.2,22.2l22.4-11.3
			C105.1,150.1,103.5,145,102.7,139.7z"/>
		
			<radialGradient id="Trazado_99926_1_" cx="-806.4291" cy="665.4259" r="0.312" gradientTransform="matrix(55.3697 0 0 -55.353 44849.5781 37017.2266)" gradientUnits="userSpaceOnUse">
			<stop  offset="0" style="stop-color:#FFF064"/>
			<stop  offset="0.427" style="stop-color:#FBCB6B"/>
			<stop  offset="0.778" style="stop-color:#F9B570"/>
			<stop  offset="1" style="stop-color:#F9AD72"/>
		</radialGradient>
		<path id="Trazado_99926" class="st6" d="M194.4,167.1c-3.8,4.1-8.2,7.6-13.1,10.3l-0.8,0.4l12.9,23.6l0.8-0.4
			c7.4-4.1,14.1-9.3,19.8-15.5l0.6-0.7L195,166.4L194.4,167.1z"/>
		<path id="Trazado_99927" class="st1" d="M181.7,178.2l12,22c7.3-4,13.9-9.2,19.6-15.3l-18.3-17.1
			C191.2,171.9,186.7,175.4,181.7,178.2z"/>
		
			<radialGradient id="Trazado_99928_1_" cx="-805.5145" cy="664.284" r="0.3133" gradientTransform="matrix(55.2092 0 0 -55.219 44586.9219 36758.2617)" gradientUnits="userSpaceOnUse">
			<stop  offset="0" style="stop-color:#FFF064"/>
			<stop  offset="0.427" style="stop-color:#FBCB6B"/>
			<stop  offset="0.778" style="stop-color:#F9B570"/>
			<stop  offset="1" style="stop-color:#F9AD72"/>
		</radialGradient>
		<path id="Trazado_99928" class="st7" d="M119.3,60.1c-7.6,3.9-14.5,9-20.5,15.1l-0.6,0.7l19.3,18.7l0.6-0.6c4-4,8.5-7.3,13.5-9.9
			l0.8-0.4l-12.3-23.9L119.3,60.1z"/>
		<path id="Trazado_99929" class="st1" d="M131.2,83.2l-11.5-22.3c-7.5,3.9-14.3,8.9-20.3,14.9l18,17.5
			C121.5,89.3,126.1,85.9,131.2,83.2z"/>
		
			<radialGradient id="Trazado_99930_1_" cx="-806.4372" cy="664.3122" r="0.3133" gradientTransform="matrix(55.4708 0 0 -55.445 44929.9023 36909.8359)" gradientUnits="userSpaceOnUse">
			<stop  offset="0" style="stop-color:#FFF064"/>
			<stop  offset="0.427" style="stop-color:#FBCB6B"/>
			<stop  offset="0.778" style="stop-color:#F9B570"/>
			<stop  offset="1" style="stop-color:#F9AD72"/>
		</radialGradient>
		<path id="Trazado_99930" class="st8" d="M190.5,60.3l-11.8,23.2l0.8,0.4c5.1,2.6,9.7,5.9,13.7,10l0.6,0.6l19.2-18.8l-0.6-0.6
			c-6.1-6.2-13.1-11.3-20.8-15.2l-0.8-0.4L190.5,60.3z"/>
		<path id="Trazado_99931" class="st1" d="M193.9,93.3l17.9-17.5c-6-6.1-12.9-11.2-20.5-15L180,83.1
			C185.1,85.7,189.8,89.2,193.9,93.3z"/>
		
			<radialGradient id="Trazado_99932_1_" cx="-805.6956" cy="665.4941" r="0.3114" gradientTransform="matrix(55.8716 0 0 -55.847 45130.9531 37351.1445)" gradientUnits="userSpaceOnUse">
			<stop  offset="0" style="stop-color:#FFF064"/>
			<stop  offset="0.427" style="stop-color:#FBCB6B"/>
			<stop  offset="0.778" style="stop-color:#F9B570"/>
			<stop  offset="1" style="stop-color:#F9AD72"/>
		</radialGradient>
		<path id="Trazado_99932" class="st9" d="M116.9,168.3l-18.3,18.4l0.6,0.6c6.1,6.2,13.2,11.3,21,15.1l0.8,0.4l11.8-24.2l-0.8-0.4
			c-5.2-2.6-9.9-6-13.9-10.1l-0.6-0.7L116.9,168.3z"/>
		<path id="Trazado_99933" class="st1" d="M117.6,169l-17.7,17.8c6.1,6.1,13.1,11.1,20.8,15l11-22.5
			C126.5,176.6,121.7,173.1,117.6,169z"/>
		<g id="Grupo_83357" transform="translate(46.863 47.174)">
			<path id="Trazado_99934" class="st0" d="M186.5,70.3l-25.7,4.1l0.1,0.9c0.9,5.3,1,10.8,0.2,16.2l-0.1,0.9l26.6,4.1l0.1-0.9
				c1.2-8.1,1.1-16.4-0.2-24.4l-0.1-0.9L186.5,70.3z"/>
			<path id="Trazado_99935" class="st10" d="M162.6,83.9c0,2.6-0.2,5.1-0.6,7.6l24.8,3.8c1.2-8,1.1-16.2-0.2-24.2l-24.8,3.9
				C162.4,78,162.6,81,162.6,83.9z"/>
			<path id="Trazado_99936" class="st0" d="M30,72.3c-1.2,8.2-1.1,16.5,0.2,24.6l0.1,0.9l26.5-4.6l-0.1-0.9
				c-0.9-5.4-0.9-10.9-0.1-16.3l0.1-0.9l-26.6-3.7L30,72.3z"/>
			<path id="Trazado_99937" class="st10" d="M55.1,83.9c0-2.7,0.2-5.3,0.6-8l-24.8-3.5c-1.2,8.1-1.1,16.3,0.2,24.3l24.7-4.3
				C55.3,89.7,55.1,86.8,55.1,83.9z"/>
			<path id="Trazado_99938" class="st0" d="M134.3,130.2c-5,2.7-10.4,4.7-16,5.7l-0.9,0.2l4.8,26.5l0.9-0.2
				c8.4-1.5,16.6-4.4,24.1-8.6l0.8-0.4l-12.9-23.6L134.3,130.2z"/>
			<path id="Trazado_99939" class="st10" d="M118.5,136.8l4.5,24.7c8.3-1.5,16.4-4.4,23.8-8.5l-12.1-22
				C129.7,133.8,124.2,135.8,118.5,136.8z"/>
			<path id="Trazado_99940" class="st0" d="M96.5,5.2C88.1,6.5,80,9.1,72.5,12.9l-0.8,0.4l12.4,23.9l0.8-0.4
				c4.9-2.5,10.3-4.3,15.8-5.1l0.9-0.1L97.4,5L96.5,5.2z"/>
			<path id="Trazado_99941" class="st10" d="M100.5,30.8L96.6,6.1c-8.2,1.3-16.2,3.9-23.7,7.7L84.5,36
				C89.5,33.5,94.9,31.7,100.5,30.8z"/>
			<path id="Trazado_99942" class="st0" d="M164.4,28l-18.6,18.2l0.6,0.7c4.1,4.1,7.5,8.9,10,14.1l0.4,0.8l24.3-11.5l-0.4-0.8
				c-3.8-7.9-8.9-15.2-15.1-21.4l-0.6-0.6L164.4,28z"/>
			<path id="Trazado_99943" class="st10" d="M157.3,60.5l22.7-10.7c-3.8-7.8-8.8-15-14.9-21.2l-17.9,17.5
				C151.3,50.4,154.7,55.2,157.3,60.5z"/>
			<path id="Trazado_99944" class="st0" d="M60.3,106.9l-23.2,11.7l0.4,0.8c3.7,7.5,8.6,14.4,14.5,20.3l0.6,0.7l19-19l-0.6-0.6
				c-3.9-4-7.1-8.5-9.6-13.5l-0.4-0.8L60.3,106.9z"/>
			<path id="Trazado_99945" class="st10" d="M60.7,107.7L38.3,119c3.7,7.4,8.5,14.2,14.3,20.1l17.8-17.7
				C66.4,117.4,63.2,112.8,60.7,107.7z"/>
			<path id="Trazado_99946" class="st0" d="M157.1,105.6c-2.3,5.1-5.4,9.9-9.2,14l-0.6,0.7l19.7,18.3l0.6-0.7
				c5.8-6.3,10.5-13.4,14-21.1l0.4-0.8l-24.5-11.2L157.1,105.6z"/>
			<path id="Trazado_99947" class="st10" d="M148.5,120.2l7.1,6.5l11.3,10.5c5.7-6.2,10.4-13.2,13.8-20.9l-22.8-10.4
				C155.5,111.2,152.4,116,148.5,120.2z"/>
			<path id="Trazado_99948" class="st0" d="M51.6,28.5c-5.7,5.9-10.4,12.6-14.1,19.9l-0.4,0.8L61.2,61l0.4-0.8
				c2.4-4.8,5.6-9.2,9.3-13.1l0.6-0.7L52.2,27.8L51.6,28.5z"/>
			<path id="Trazado_99949" class="st10" d="M70.3,46.5L52.2,29.1c-5.6,5.8-10.3,12.4-13.9,19.7l22.5,11
				C63.3,54.9,66.5,50.4,70.3,46.5z"/>
			<path id="Trazado_99950" class="st0" d="M120.2,5.9l-1.8,11.6l-2.2,14l0.9,0.1c5.4,0.8,10.6,2.5,15.5,5l0.8,0.4l12.2-24l-0.8-0.4
				c-7.4-3.7-15.4-6.3-23.6-7.6L120.4,5L120.2,5.9z"/>
			<path id="Trazado_99951" class="st10" d="M133,35.9l11.4-22.3c-7.3-3.7-15.2-6.2-23.3-7.5l-3.9,24.8
				C122.7,31.7,128,33.4,133,35.9z"/>
			<path id="Trazado_99952" class="st0" d="M84.1,131.7L72.7,155l0.8,0.4c7.3,3.6,15.1,6.1,23.1,7.3l0.9,0.1l4-26.6l-0.9-0.1
				c-5.3-0.8-10.5-2.5-15.3-4.9l-0.8-0.4L84.1,131.7z"/>
			<path id="Trazado_99953" class="st10" d="M84.9,132.1l-11,22.5c7.2,3.6,14.9,6,22.9,7.2l3.8-24.8
				C95.1,136.2,89.8,134.5,84.9,132.1z"/>
		</g>
		<path id="Trazado_99954" class="st0" d="M208,138.7c-0.7,4.8-2.1,9.5-4.1,14l-0.4,0.8l24.5,11.2l0.4-0.8c3-6.7,5.1-13.9,6.2-21.2
			l0.1-0.9l-26.6-4L208,138.7z"/>
		<path id="Trazado_99955" class="st1" d="M204.8,153l22.8,10.4c3-6.7,5.1-13.7,6.1-20.9l-24.8-3.8
			C208.2,143.7,206.8,148.5,204.8,153z"/>
		<g id="Grupo_83358" transform="translate(37.225 34.994)">
			<path id="Trazado_99956" class="st0" d="M105.1,10.5l-0.9,0.1l1.4,8.6l0.9-0.1c8-1.2,16.2-1.2,24.2,0l0.9,0.1l1.4-8.6l-0.9-0.1
				C123,9.2,114,9.2,105.1,10.5L105.1,10.5z"/>
			<path id="Trazado_99957" class="st11" d="M118.5,17.3c4.1,0,8.2,0.3,12.2,0.9l1.1-6.8c-8.8-1.4-17.8-1.4-26.6,0l1.1,6.8
				C110.3,17.6,114.4,17.3,118.5,17.3z"/>
			<path id="Trazado_99958" class="st0" d="M132.4,172.8c-8.5,1.5-17.3,1.7-25.9,0.3l-0.9-0.1l-1.3,8.6l0.9,0.1
				c9.5,1.5,19.2,1.3,28.7-0.4l0.9-0.2l-1.6-8.6L132.4,172.8z"/>
			<path id="Trazado_99959" class="st11" d="M118.5,174.9c-4,0-8.1-0.3-12.1-0.9l-1,6.8c9.4,1.4,19,1.3,28.4-0.4l-1.2-6.8
				C127.9,174.5,123.2,174.9,118.5,174.9z"/>
			<path id="Trazado_99960" class="st0" d="M195.4,58.3l-7,3.3l0.4,0.8c3.2,6.7,5.4,13.7,6.6,21l0.1,0.9l8.6-1.4l-0.1-0.9
				c-1.3-8.1-3.8-16-7.3-23.4l-0.4-0.8L195.4,58.3z"/>
			<path id="Trazado_99961" class="st11" d="M196.3,83.3l6.8-1.1c-1.3-8-3.7-15.8-7.3-23.1l-6.2,2.9
				C192.8,68.8,195.1,75.9,196.3,83.3z"/>
			<path id="Trazado_99962" class="st0" d="M40.6,108.1l-7.7,1.3l0.1,0.9c1.4,8.5,4.1,16.7,7.9,24.4l0.4,0.8l7.8-3.9l-0.4-0.8
				c-3.4-6.9-5.8-14.3-7.1-21.9l-0.1-0.9L40.6,108.1z"/>
			<path id="Trazado_99963" class="st11" d="M40.7,109l-6.8,1.2c1.4,8.4,4,16.5,7.8,24.1l6.1-3.1C44.4,124.2,42,116.7,40.7,109z"/>
			<path id="Trazado_99964" class="st0" d="M175.5,149.2c-5.6,6-12.2,11.1-19.4,15.1l-0.8,0.4l4.2,7.6l0.8-0.4
				c8-4.4,15.3-10.1,21.6-16.8l0.6-0.7l-6.3-5.9L175.5,149.2z"/>
			<path id="Trazado_99965" class="st11" d="M156.5,165.2l3.3,6c7.9-4.4,15.1-10,21.3-16.6l-5-4.7
				C170.4,156,163.8,161.1,156.5,165.2z"/>
			<path id="Trazado_99966" class="st0" d="M79,19c-8.3,4.2-15.8,9.8-22.3,16.4l-0.6,0.7l6.2,6.1l0.6-0.6c5.8-6,12.6-10.9,20-14.8
				l0.8-0.4l-4-7.7L79,19z"/>
			<path id="Trazado_99967" class="st11" d="M82.5,26l-3.1-6.1c-8.2,4.2-15.6,9.7-22,16.2l4.9,4.8C68.2,34.9,75,29.8,82.5,26z"/>
			<path id="Trazado_99968" class="st0" d="M156.4,19.2l-3.5,6.9l0.8,0.4c7.5,3.8,14.4,8.8,20.3,14.9l0.6,0.6l6.2-6.1l-0.6-0.7
				c-6.6-6.7-14.2-12.3-22.6-16.5l-0.8-0.4L156.4,19.2z"/>
			<path id="Trazado_99969" class="st11" d="M174.6,40.8l4.9-4.8c-6.5-6.6-14.1-12.2-22.4-16.4l-3.1,6.1
				C161.7,29.6,168.6,34.7,174.6,40.8z"/>
			<path id="Trazado_99970" class="st0" d="M62,151.1l-5.5,5.5l0.6,0.6c6.7,6.7,14.4,12.2,22.9,16.4l0.8,0.4l3.8-7.8l-0.8-0.4
				c-7.6-3.8-14.6-8.8-20.6-14.8l-0.6-0.6L62,151.1z"/>
			<path id="Trazado_99971" class="st11" d="M62.7,151.8l-4.8,4.9c6.6,6.6,14.2,12.1,22.6,16.3l3-6.2
				C75.8,162.9,68.8,157.8,62.7,151.8z"/>
			<path id="Trazado_99972" class="st0" d="M195.6,107.4c-1,7.1-3.1,14.1-6,20.7l-0.4,0.8l7.9,3.6l0.4-0.8c3.3-7.3,5.6-15.1,6.7-23
				l0.1-0.9l-8.6-1.3L195.6,107.4z"/>
			<path id="Trazado_99973" class="st11" d="M190.4,128.5l6.3,2.9c3.3-7.2,5.5-14.9,6.6-22.8l-6.8-1
				C195.4,114.8,193.4,121.8,190.4,128.5z"/>
			<path id="Trazado_99974" class="st0" d="M40.9,57.6c-4.1,8.2-6.8,16.9-8.1,25.9l-0.1,0.9l8.6,1.2l0.1-0.9
				c1.2-8.1,3.7-16,7.3-23.3l0.4-0.8l-7.8-3.8L40.9,57.6z"/>
			<path id="Trazado_99975" class="st11" d="M47.9,61l-6.2-3c-4,8.1-6.7,16.7-8,25.6l6.8,0.9C41.7,76.4,44.2,68.4,47.9,61z"/>
		</g>
		<path id="Trazado_99976" class="st0" d="M84.3,95.6c-3.7,7.5-6.3,15.6-7.5,23.8l-0.1,0.9l26.6,3.7l0.1-0.9
			c0.8-5.5,2.5-10.8,5-15.7l0.4-0.8L84.7,94.8L84.3,95.6z"/>
		<path id="Trazado_99977" class="st1" d="M107.6,107L85.1,96c-3.7,7.4-6.2,15.4-7.4,23.6l5,0.7l2.4,0.3l17.4,2.4
			C103.4,117.5,105.1,112.1,107.6,107z"/>
		<g id="Grupo_83359" transform="translate(35.985 36.424)">
			<path id="Trazado_99978" class="st0" d="M204.2,79.9l-7.7,1.2l0.1,0.9c1.3,7.9,1.4,16,0.2,23.9l-0.1,0.9l8.6,1.3l0.1-0.9
				c1.3-8.8,1.2-17.8-0.2-26.6l-0.1-0.9L204.2,79.9z"/>
			<path id="Trazado_99979" class="st12" d="M198.6,94.7c0,3.8-0.3,7.6-0.8,11.4l6.8,1c1.3-8.7,1.2-17.6-0.2-26.3l-6.8,1.1
				C198.2,86.1,198.6,90.4,198.6,94.7z"/>
			<path id="Trazado_99980" class="st0" d="M34.1,82.1c-1.3,8.9-1.2,17.9,0.2,26.8l0.2,0.9l8.6-1.5l-0.1-0.9
				c-1.3-8-1.4-16.1-0.2-24.1l0.1-0.9l-8.6-1.2L34.1,82.1z"/>
			<path id="Trazado_99981" class="st12" d="M40.9,94.7c0-3.8,0.3-7.7,0.8-11.5l-6.8-1c-1.3,8.8-1.2,17.7,0.2,26.5l6.8-1.2
				C41.3,103.3,40.9,99,40.9,94.7z"/>
			<path id="Trazado_99982" class="st0" d="M157.3,163c-7.3,4-15.3,6.9-23.5,8.4l-0.9,0.2l1.6,8.6l0.9-0.2c9.2-1.7,18-4.8,26.2-9.3
				l0.8-0.4l-4.2-7.6L157.3,163z"/>
			<path id="Trazado_99983" class="st12" d="M133.9,172.2l1.2,6.8c9.1-1.6,17.8-4.8,25.9-9.2l-3.3-6
				C150.3,167.8,142.2,170.7,133.9,172.2z"/>
			<path id="Trazado_99984" class="st0" d="M106.3,9.1c-9.1,1.4-17.9,4.3-26,8.5L79.4,18l4,7.7l0.8-0.4c7.3-3.8,15.2-6.3,23.4-7.6
				l0.9-0.1L107.2,9L106.3,9.1z"/>
			<path id="Trazado_99985" class="st12" d="M107.5,16.8l-1.1-6.8c-9,1.4-17.7,4.2-25.7,8.4l3.2,6.1C91.2,20.7,99.2,18.1,107.5,16.8
				z"/>
			<path id="Trazado_99986" class="st0" d="M180.2,33.9l-5.6,5.4l0.6,0.7c6,6.1,11,13.2,14.7,20.9l0.4,0.8l7.9-3.7l-0.4-0.8
				c-4.1-8.6-9.7-16.5-16.4-23.3l-0.6-0.6L180.2,33.9z"/>
			<path id="Trazado_99987" class="st12" d="M190.8,60.6l6.2-2.9c-4.1-8.5-9.6-16.3-16.2-23.1l-4.9,4.8
				C182,45.6,187,52.7,190.8,60.6z"/>
			<path id="Trazado_99988" class="st0" d="M48.8,129l-6.9,3.5l0.4,0.8c4.1,8.1,9.4,15.6,15.8,22.1l0.6,0.7l6.2-6.1l-0.6-0.6
				c-5.7-5.8-10.5-12.5-14.2-19.9l-0.4-0.8L48.8,129z"/>
			<path id="Trazado_99989" class="st12" d="M49.2,129.8l-6.1,3.1c4,8.1,9.3,15.4,15.6,21.8l4.9-4.9C57.7,144,52.9,137.2,49.2,129.8
				z"/>
			<path id="Trazado_99990" class="st0" d="M190.8,126.7c-3.4,7.6-8,14.5-13.7,20.7l-0.6,0.7l6.4,5.9l0.6-0.7
				c6.3-6.8,11.4-14.5,15.2-23l0.4-0.8l-7.9-3.6L190.8,126.7z"/>
			<path id="Trazado_99991" class="st12" d="M177.8,148l5,4.7c6.2-6.7,11.3-14.4,15-22.7l-6.3-2.8
				C188.1,134.7,183.5,141.8,177.8,148z"/>
			<path id="Trazado_99992" class="st0" d="M57.5,34.5c-6.2,6.4-11.3,13.7-15.3,21.6l-0.4,0.8l7.8,3.8l0.4-0.8
				c3.6-7.1,8.2-13.7,13.8-19.4l0.6-0.7l-6.3-6L57.5,34.5z"/>
			<path id="Trazado_99993" class="st12" d="M63.1,39.9l-5-4.8C52,41.4,46.9,48.6,43,56.5l6.2,3C52.8,52.3,57.5,45.7,63.1,39.9z"/>
			<path id="Trazado_99994" class="st0" d="M132.2,9.9l-1.2,7.7l0.9,0.1c8,1.3,15.8,3.8,23,7.4l0.8,0.4l4-7.7l-0.8-0.4
				c-8-4.1-16.7-6.9-25.6-8.3L132.3,9L132.2,9.9z"/>
			<path id="Trazado_99995" class="st12" d="M155.3,24.3l3.1-6.1c-8-4-16.5-6.8-25.3-8.2l-1.1,6.8C140.1,18.1,148,20.6,155.3,24.3z"
				/>
			<path id="Trazado_99996" class="st0" d="M84,164.9l-3.4,7l0.8,0.4c7.9,3.9,16.4,6.6,25.1,8l0.9,0.1l1.3-8.6l-0.9-0.1
				c-7.9-1.2-15.5-3.6-22.6-7.2l-0.8-0.4L84,164.9z"/>
			<path id="Trazado_99997" class="st12" d="M84.8,165.3l-3,6.2c7.8,3.9,16.2,6.5,24.9,7.9l1-6.8C99.7,171.3,92,168.9,84.8,165.3z"
				/>
			<path id="Trazado_99998" class="st0" d="M172.6,85l-5.7,0.9l0.2,0.9c0.8,4.9,0.9,9.8,0.2,14.7l-0.1,0.9l6.6,1l0.1-0.9
				c0.4-2.6,0.6-5.2,0.6-7.8c0-3-0.3-6-0.7-9l-0.1-0.9L172.6,85z"/>
			<path id="Trazado_99999" class="st12" d="M168.6,94.7c0,2.3-0.2,4.6-0.5,6.9l4.8,0.7c0.8-5.5,0.7-11-0.2-16.4l-4.8,0.8
				C168.4,89.3,168.6,92,168.6,94.7z"/>
			<path id="Trazado_100000" class="st0" d="M65.7,86.5c-0.8,5.6-0.8,11.3,0.1,16.8l0.1,0.9l6.6-1.1l-0.1-0.9
				c-0.8-4.9-0.8-9.9-0.1-14.8l0.1-0.9l-6.6-0.9L65.7,86.5z"/>
			<path id="Trazado_100001" class="st12" d="M70.8,94.7c0-2.4,0.2-4.9,0.5-7.3l-4.8-0.7c-0.8,5.5-0.8,11.1,0.1,16.6l4.8-0.8
				C71,99.8,70.8,97.3,70.8,94.7z"/>
			<path id="Trazado_100002" class="st0" d="M142.9,136.7c-4.5,2.5-9.4,4.2-14.5,5.1l-0.9,0.2l1.2,6.6l0.9-0.2
				c5.8-1,11.4-3,16.5-5.9l0.8-0.4l-3.2-5.8L142.9,136.7z"/>
			<path id="Trazado_100003" class="st12" d="M128.5,142.8l0.9,4.8c5.7-1,11.2-3,16.2-5.8l-2.3-4.3
				C138.7,140.1,133.7,141.8,128.5,142.8z"/>
			<path id="Trazado_100004" class="st0" d="M111.2,40.7c-5.7,0.9-11.2,2.7-16.3,5.3l-0.8,0.4l3.1,5.9l0.8-0.4
				c4.5-2.3,9.3-3.9,14.3-4.6l0.9-0.1l-1-6.6L111.2,40.7z"/>
			<path id="Trazado_100005" class="st12" d="M112.1,46.4l-0.8-4.8c-5.6,0.9-11,2.6-16,5.2l2.2,4.3
				C102.1,48.7,107.1,47.2,112.1,46.4z"/>
			<path id="Trazado_100006" class="st0" d="M157.3,56.3l-4.1,4l0.6,0.7c3.7,3.7,6.8,8.1,9.1,12.8l0.4,0.8l6-2.8l-0.4-0.8
				c-2.6-5.4-6.1-10.3-10.3-14.6l-0.6-0.6L157.3,56.3z"/>
			<path id="Trazado_100007" class="st12" d="M163.8,73.3l4.4-2.1c-2.6-5.3-6-10.2-10.2-14.4l-3.5,3.4
				C158.3,64.1,161.4,68.5,163.8,73.3z"/>
			<path id="Trazado_100008" class="st0" d="M75.5,115.5l-5.1,2.6l0.4,0.8c2.5,5.1,5.9,9.8,9.9,13.9l0.6,0.7l4.7-4.7l-0.6-0.6
				c-3.5-3.6-6.4-7.7-8.7-12.2l-0.4-0.8L75.5,115.5z"/>
			<path id="Trazado_100009" class="st12" d="M75.9,116.3l-4.3,2.2c2.5,5,5.8,9.7,9.7,13.7l3.4-3.4
				C81.1,125.1,78.1,120.9,75.9,116.3z"/>
			<path id="Trazado_100010" class="st0" d="M163.5,114.3c-2.1,4.7-4.9,9-8.4,12.7l-0.6,0.7l4.9,4.5l0.6-0.7
				c3.9-4.3,7.2-9.2,9.5-14.5l0.4-0.8l-6.1-2.8L163.5,114.3z"/>
			<path id="Trazado_100011" class="st12" d="M155.8,127.7l3.6,3.3c3.9-4.2,7-9,9.4-14.3l-4.4-2
				C162.2,119.4,159.3,123.8,155.8,127.7z"/>
			<path id="Trazado_100012" class="st0" d="M80.5,56.6c-3.9,4-7.1,8.6-9.6,13.5L70.5,71l6,2.9l0.4-0.8c2.2-4.4,5.1-8.4,8.5-11.9
				l0.6-0.7l-4.8-4.6L80.5,56.6z"/>
			<path id="Trazado_100013" class="st12" d="M84.7,60.6l-3.5-3.4c-3.8,3.9-7,8.4-9.5,13.3l4.4,2.1C78.3,68.2,81.2,64.2,84.7,60.6z"
				/>
			<path id="Trazado_100014" class="st0" d="M127.2,41.4l-0.9,5.7l0.9,0.1c4.9,0.8,9.6,2.3,14.1,4.5l0.8,0.4l3-5.9l-0.8-0.4
				c-5-2.5-10.5-4.3-16.1-5.2l-0.9-0.1L127.2,41.4z"/>
			<path id="Trazado_100015" class="st12" d="M141.7,51l2.2-4.3c-5-2.5-10.3-4.2-15.8-5.1l-0.8,4.8C132.3,47.1,137.2,48.7,141.7,51z
				"/>
			<path id="Trazado_100016" class="st0" d="M97.1,138.1l-2.5,5.2l0.8,0.4c5,2.5,10.3,4.2,15.8,5.1l0.9,0.1l1-6.6l-0.9-0.1
				c-4.8-0.8-9.5-2.3-13.9-4.4l-0.8-0.4L97.1,138.1z"/>
			<path id="Trazado_100017" class="st12" d="M98,138.5l-2.1,4.4c4.9,2.4,10.2,4.1,15.6,5l0.7-4.8C107.2,142.2,102.4,140.7,98,138.5
				z"/>
		</g>
		<g id="Grupo_83360" transform="translate(87.286 85.542)">
			<path id="Trazado_100018" class="st0" d="M60-8.5l-0.9,0.1l1,6.6L61-1.9c4.9-0.8,9.9-0.8,14.8,0l0.9,0.1l1-6.6l-0.9-0.1
				C71.3-9.3,65.6-9.3,60-8.5L60-8.5z"/>
			<path id="Trazado_100019" class="st0" d="M68.4-3.4c2.5,0,5,0.2,7.5,0.6l0.8-4.8c-5.5-0.8-11.1-0.8-16.6,0l0.8,4.8
				C63.4-3.2,65.9-3.4,68.4-3.4z"/>
			<path id="Trazado_100020" class="st0" d="M77,92.8c-5.3,1-10.7,1-16,0.2l-0.9-0.1l-1,6.6l0.9,0.1c6,0.9,12.2,0.9,18.2-0.2
				l0.9-0.2l-1.2-6.6L77,92.8z"/>
			<path id="Trazado_100021" class="st0" d="M68.4,94.5c-2.5,0-5-0.2-7.5-0.6l-0.7,4.8c5.9,0.9,12,0.8,17.9-0.2l-0.9-4.8
				C74.3,94.2,71.4,94.5,68.4,94.5z"/>
			<path id="Trazado_100022" class="st0" d="M116.5,21.4l-5.2,2.5l0.4,0.8c2,4.1,3.3,8.4,4.1,12.9l0.1,0.9l6.6-1l-0.2-0.9
				c-0.8-5.1-2.4-10-4.6-14.7l-0.4-0.8L116.5,21.4z"/>
			<path id="Trazado_100023" class="st0" d="M116.7,37.4l4.8-0.8c-0.8-5-2.4-9.9-4.6-14.4l-4.4,2.1
				C114.5,28.5,115.9,32.9,116.7,37.4z"/>
			<path id="Trazado_100024" class="st0" d="M20,52.5l-5.7,1l0.1,0.9c0.9,5.3,2.5,10.5,4.9,15.4l0.4,0.8l5.9-3l-0.4-0.8
				c-2.1-4.3-3.5-8.8-4.3-13.5l-0.1-0.9L20,52.5z"/>
			<path id="Trazado_100025" class="st0" d="M20.2,53.4l-4.8,0.8c0.8,5.2,2.5,10.3,4.8,15.1l4.3-2.2C22.4,62.8,20.9,58.1,20.2,53.4z
				"/>
			<path id="Trazado_100026" class="st0" d="M103.6,78.2c-3.5,3.7-7.5,6.9-11.9,9.3L90.9,88l3.2,5.9l0.8-0.4
				c5.1-2.8,9.6-6.4,13.6-10.6l0.6-0.7l-4.9-4.6L103.6,78.2z"/>
			<path id="Trazado_100027" class="st0" d="M92.1,88.4l2.3,4.3c5-2.8,9.5-6.3,13.4-10.4l-3.5-3.3C100.7,82.6,96.6,85.9,92.1,88.4z"
				/>
			<path id="Trazado_100028" class="st0" d="M43.5-3.1c-5.2,2.7-9.9,6.1-14,10.3l-0.6,0.7l4.8,4.6l0.6-0.6c3.6-3.6,7.7-6.7,12.3-9
				l0.8-0.4l-3.1-5.9L43.5-3.1z"/>
			<path id="Trazado_100029" class="st0" d="M46.2,2L44-2.3c-5.1,2.6-9.7,6-13.8,10.1l3.5,3.4C37.3,7.5,41.5,4.4,46.2,2z"/>
			<path id="Trazado_100030" class="st0" d="M91.9-2.8l-2.6,5.1l0.8,0.4c4.6,2.3,8.8,5.4,12.5,9.1l0.6,0.6l4.8-4.7l-0.6-0.7
				c-4.1-4.2-8.9-7.7-14.2-10.3l-0.8-0.4L91.9-2.8z"/>
			<path id="Trazado_100031" class="st0" d="M103.2,11.1l3.5-3.4c-4.1-4.1-8.8-7.5-14-10.2l-2.2,4.3C95.2,4.3,99.5,7.4,103.2,11.1z"
				/>
			<path id="Trazado_100032" class="st0" d="M33,79.3L29,83.4l0.6,0.6c4.2,4.2,9.1,7.7,14.4,10.4l0.8,0.4l2.9-6L47,88.5
				c-4.7-2.3-8.9-5.4-12.6-9.2l-0.6-0.6L33,79.3z"/>
			<path id="Trazado_100033" class="st0" d="M33.7,80l-3.4,3.4c4.1,4.2,8.9,7.6,14.1,10.2l2.1-4.4C41.8,86.9,37.4,83.8,33.7,80z"/>
			<path id="Trazado_100034" class="st0" d="M115.9,52.4c-0.6,4.4-1.9,8.7-3.7,12.7l-0.4,0.8l6.1,2.8l0.4-0.8
				c2.1-4.6,3.5-9.5,4.2-14.5l0.1-0.9l-6.6-1L115.9,52.4z"/>
			<path id="Trazado_100035" class="st0" d="M113.1,65.5l4.4,2c2-4.5,3.4-9.3,4.1-14.2l-4.8-0.7C116.2,57,114.9,61.3,113.1,65.5z"/>
			<path id="Trazado_100036" class="st0" d="M19.5,21.1c-2.6,5.1-4.3,10.6-5.2,16.3l-0.1,0.9l6.6,0.9l0.1-0.9
				c0.8-5,2.3-9.8,4.5-14.2l0.4-0.8l-6-2.9L19.5,21.1z"/>
			<path id="Trazado_100037" class="st0" d="M24.7,23.6l-4.4-2.1c-2.5,5-4.2,10.4-5.1,16l4.8,0.7C20.9,33.1,22.4,28.2,24.7,23.6z"/>
		</g>
		<path id="Trazado_100038" class="st0" d="M148,81.9l-0.9,0.1l7.7,48.3h1.8l7.7-48.3l-0.9-0.1C158.3,81.1,153.1,81.1,148,81.9
			L148,81.9z"/>
		<path id="Trazado_100039" class="st1" d="M155.7,130L155.7,130v0.1l7.5-47.4c-5-0.8-10.1-0.8-15.1,0L155.7,130L155.7,130z"/>
		<path id="Trazado_100040" class="st0" d="M154.7,130.8l-7.6,49.4l0.9,0.1c5.5,0.9,11.1,0.8,16.6-0.2l0.9-0.2l-9-49.2L154.7,130.8z
			"/>
		<path id="Trazado_100041" class="st1" d="M155.6,131.1l0-0.1l0,0l-7.4,48.5c5.4,0.8,10.9,0.8,16.3-0.2L155.6,131.1L155.6,131.1z"
			/>
		<path id="Trazado_100042" class="st0" d="M203.8,122.1l-47.8,7.6l-0.1,1.8l49,7.5l0.1-0.9c0.7-5.1,0.7-10.2-0.2-15.2l-0.1-0.9
			L203.8,122.1z"/>
		<path id="Trazado_100043" class="st10" d="M156.2,130.6L156.2,130.6l-0.1,0l48.1,7.3c0.3-2.3,0.5-4.6,0.5-6.9
			c0-2.7-0.2-5.4-0.7-8.1L156.2,130.6L156.2,130.6z"/>
		<path id="Trazado_100044" class="st0" d="M106.5,123.6c-0.4,2.5-0.6,5-0.6,7.5c0,2.6,0.2,5.3,0.6,7.9l0.1,0.9l48.7-8.5l0-1.8
			l-48.8-6.9L106.5,123.6z"/>
		<path id="Trazado_100045" class="st10" d="M155.1,130.5l0.1,0h0l-47.9-6.7c-0.8,5-0.7,10.1,0.1,15L155.1,130.5L155.1,130.5z"/>
		<path id="Trazado_100046" class="st0" d="M199.4,109l-43.5,20.6l0.5,1.7l48.5-7.6l-0.2-0.9c-0.8-4.6-2.2-9.1-4.2-13.3l-0.4-0.8
			L199.4,109z"/>
		<path id="Trazado_100047" class="st1" d="M203.9,123c-0.8-4.5-2.2-9-4.2-13.1l-43.5,20.6L203.9,123z"/>
		<path id="Trazado_100048" class="st0" d="M107.3,138l-0.9,0.2l0.1,0.9c0.8,4.9,2.3,9.6,4.4,14l0.4,0.8l44-22.4l-0.6-1.7L107.3,138
			z"/>
		<path id="Trazado_100049" class="st1" d="M107.4,138.9c0.8,4.8,2.2,9.4,4.4,13.7l43.2-21.9L107.4,138.9z"/>
		<path id="Trazado_100050" class="st0" d="M154.9,131.3l8.9,49l0.9-0.2c5.3-1,10.4-2.8,15.1-5.3l0.8-0.4l-24-43.6L154.9,131.3z"/>
		<path id="Trazado_100051" class="st10" d="M164.5,179.2c5.2-0.9,10.2-2.7,14.8-5.2l-23.5-42.9L164.5,179.2z"/>
		<path id="Trazado_100052" class="st0" d="M148,81.9c-5.2,0.8-10.2,2.4-14.8,4.8l-0.8,0.4l22.4,43.3l1.7-0.6l-7.6-48.2L148,81.9z"
			/>
		<path id="Trazado_100053" class="st10" d="M148.1,82.8c-5.1,0.8-10,2.4-14.6,4.7l22,42.5L148.1,82.8z"/>
		<path id="Trazado_100054" class="st0" d="M189.9,96.1l-34.4,33.6l1,1.5l44.5-21l-0.4-0.8c-2.4-4.9-5.6-9.4-9.4-13.3l-0.6-0.6
			L189.9,96.1z"/>
		<path id="Trazado_100055" class="st10" d="M156.1,130.3l43.7-20.6c-2.3-4.8-5.5-9.2-9.2-13L156.1,130.3z"/>
		<path id="Trazado_100056" class="st0" d="M111.4,151.9l-0.8,0.4l0.4,0.8c2.3,4.7,5.3,9,9,12.7l0.6,0.7l35.1-35l-1-1.5L111.4,151.9
			z"/>
		<path id="Trazado_100057" class="st10" d="M111.9,152.7c2.3,4.6,5.2,8.8,8.8,12.5l34.5-34.4L111.9,152.7z"/>
		<path id="Trazado_100058" class="st0" d="M155.1,131.5l23.9,43.7l0.8-0.4c4.6-2.6,8.8-5.8,12.4-9.7l0.6-0.7l-36.2-34L155.1,131.5z
			"/>
		<path id="Trazado_100059" class="st1" d="M179.4,173.9c4.5-2.5,8.6-5.7,12.1-9.5L155.9,131L179.4,173.9z"/>
		<path id="Trazado_100060" class="st0" d="M133,86.7c-4.7,2.4-9,5.6-12.7,9.3l-0.6,0.7l35.1,34.1l1.4-1.1l-22.3-43.4L133,86.7z"/>
		<path id="Trazado_100061" class="st1" d="M133.5,87.6c-4.6,2.4-8.8,5.5-12.5,9.1l34.4,33.4L133.5,87.6z"/>
		<path id="Trazado_100062" class="st0" d="M176.9,87l-21.7,42.8l1.4,1.1l35.1-34.2l-0.6-0.7c-3.8-3.8-8.1-7-12.9-9.4l-0.8-0.4
			L176.9,87z"/>
		<path id="Trazado_100063" class="st1" d="M190.4,96.7c-3.7-3.7-8-6.9-12.7-9.2L156,130.2L190.4,96.7z"/>
		<path id="Trazado_100064" class="st0" d="M120.3,164.9l-0.6,0.6l0.6,0.6c3.8,3.9,8.2,7.1,13.1,9.5l0.8,0.4l21.8-44.7l-1.5-1.1
			L120.3,164.9z"/>
		<path id="Trazado_100065" class="st1" d="M155.3,130.9L155.3,130.9L155.3,130.9L121,165.5c3.8,3.8,8.1,6.9,12.9,9.3L155.3,130.9
			L155.3,130.9z"/>
		<path id="Trazado_100066" class="st0" d="M155.4,131.6l36.4,33.8l0.6-0.7c3.6-3.9,6.5-8.4,8.7-13.2l0.4-0.8l-45.1-20.6
			L155.4,131.6z"/>
		<path id="Trazado_100067" class="st10" d="M191.8,164.1c3.5-3.8,6.4-8.2,8.5-13l-44.3-20.2L191.8,164.1z"/>
		<path id="Trazado_100068" class="st0" d="M120,96.4c-3.5,3.6-6.5,7.8-8.8,12.3l-0.4,0.8l44,21.5l1-1.5l-35.2-33.8L120,96.4z"/>
		<path id="Trazado_100069" class="st10" d="M120.7,97c-3.5,3.6-6.4,7.6-8.6,12.1l43.2,21.1L120.7,97z"/>
		<path id="Trazado_100070" class="st0" d="M162.4,82.6l-7.4,47.3l1.7,0.6L178.9,87l-0.8-0.4c-4.6-2.3-9.5-3.9-14.6-4.7l-0.9-0.1
			L162.4,82.6z"/>
		<path id="Trazado_100071" class="st10" d="M177.7,87.4c-4.5-2.3-9.3-3.8-14.3-4.6l-7.4,47.3L177.7,87.4z"/>
		<path id="Trazado_100072" class="st0" d="M133.1,174.5l-0.4,0.8l0.8,0.4c4.5,2.3,9.4,3.8,14.4,4.6l0.9,0.1l7.5-49.2l-1.7-0.5
			L133.1,174.5z"/>
		<path id="Trazado_100073" class="st10" d="M133.9,174.9c4.5,2.2,9.2,3.8,14.2,4.5l7.3-48.3L133.9,174.9z"/>
		<path id="Trazado_100074" class="st0" d="M155.9,131.6l44.9,20.6l0.4-0.8c1.9-4.2,3.2-8.6,3.8-13.2l0.1-0.9l-48.7-7.4L155.9,131.6
			z"/>
		<path id="Trazado_100075" class="st1" d="M200.4,151c1.8-4.1,3.1-8.5,3.7-12.9l-47.8-7.2L200.4,151z"/>
		<path id="Trazado_100076" class="st0" d="M111.2,108.8c-2.3,4.6-3.9,9.6-4.7,14.8l-0.1,0.9l48.7,6.8l0.5-1.7l-44-21.6L111.2,108.8
			z"/>
		<path id="Trazado_100077" class="st1" d="M112,109.2c-2.3,4.6-3.9,9.5-4.6,14.5l47.8,6.7L112,109.2z"/>
		<path id="Trazado_100078" class="st0" d="M141.7,130.5c0,7.8,6.3,14.1,14.1,14.1c7.8,0,14.1-6.3,14.1-14.1
			c0-7.8-6.3-14.1-14.1-14.1c0,0,0,0,0,0C148,116.4,141.7,122.7,141.7,130.5z"/>
		<path id="Trazado_100079" class="st12" d="M168.9,130.5c0,7.3-5.9,13.2-13.2,13.2s-13.2-5.9-13.2-13.2c0-7.3,5.9-13.2,13.2-13.2
			c0,0,0,0,0,0C163,117.3,168.9,123.2,168.9,130.5z"/>
		<path id="Trazado_100080" class="st0" d="M147.8,130.5c0,4.4,3.6,8,8,8c4.4,0,8-3.6,8-8c0-4.4-3.6-8-8-8
			C151.4,122.5,147.8,126.1,147.8,130.5z"/>
		<path id="Trazado_100081" class="st11" d="M162.8,130.5c0,3.9-3.2,7.1-7.1,7.1s-7.1-3.2-7.1-7.1c0-3.9,3.2-7.1,7.1-7.1
			c0,0,0,0,0,0C159.7,123.4,162.8,126.6,162.8,130.5z"/>
		<path id="Trazado_100082" class="st10" d="M188.2,43.1c-0.9,0-1.5,0-2.4,0c-0.9,0-1.6,0-2.4,0c0-0.1,0-0.3,0.1-0.4
			c0.4,0,0.6-0.1,0.9-0.1c0.5-0.1,0.6-0.5,0.7-1c0.1-0.7,0.3-1.6,0.6-3.2c0.2-1.3,0.4-2.5,0.4-3c0-0.3,0-0.6-0.3-0.6
			c-0.3-0.1-0.5-0.1-0.8-0.1c0-0.1,0-0.3,0.1-0.4c1.1-0.1,2.2-0.3,3.2-0.7c0.1,0,0.2,0,0.2,0.1c-0.1,0.6-0.3,1.2-0.5,2.5
			c-0.2,1.3-0.6,4-0.8,5.3c-0.1,0.6-0.1,1,0.3,1c0.3,0.1,0.6,0.1,0.9,0.1C188.3,42.8,188.3,42.9,188.2,43.1z"/>
		<path id="Trazado_100083" class="st10" d="M212.7,205.7c-0.1,0-0.3-0.3-0.3-0.3c1.1-1.4,2.3-2,3.4-2c1.3,0,2.4,1.1,2.4,2.4
			c0,0,0,0.1,0,0.1c0,1.2-0.6,2.2-2.2,3.6c-0.6,0.5-1.2,1-2,1.6c0,0,0,0.1,0,0.1c0.5,0,2.4,0,3.1,0c0.3,0,0.7-0.2,1.2-1
			c0-0.1,0.3,0.1,0.3,0.2c-0.3,0.8-0.7,1.6-1.1,2.3c-0.1,0.2-0.4,0.2-0.9,0.3c-1.1,0-3,0-4.2,0c-0.3,0-0.8,0-1.1,0
			c0-0.1,0-0.3,0-0.4c1.2-0.8,2.3-1.7,3.2-2.7c0.9-0.8,1.5-2,1.5-3.2c0.1-0.9-0.6-1.6-1.4-1.7c0,0-0.1,0-0.1,0
			C213.9,204.8,213.2,205.1,212.7,205.7z"/>
		<path id="Trazado_100084" class="st10" d="M160.2,225.1c0,0.9-0.6,1.6-1.8,2.2c0,0,0,0.1,0,0.1c1.1,0.3,1.9,1.2,2,2.4
			c0,1.3-0.8,2.4-1.9,2.9c-0.7,0.4-1.5,0.6-2.3,0.6c-0.6,0-1.3-0.1-1.8-0.4c-0.3-0.1-0.4-0.3-0.5-0.6c-0.1-0.5-0.1-1,0-1.5
			c0-0.1,0.3-0.1,0.4-0.1c0.1,0.7,0.5,1.3,1,1.7c0.4,0.3,0.9,0.5,1.4,0.4c1.1,0,1.8-0.9,1.8-2.2c0.1-1-0.6-1.9-1.7-2
			c-0.1,0-0.2,0-0.3,0c-0.2,0-0.3,0-0.5,0c0.1-0.3,0.2-0.5,0.4-0.7c1.6-0.3,2.2-0.9,2.2-1.8c0.1-0.8-0.5-1.5-1.3-1.6
			c-0.1,0-0.1,0-0.2,0c-0.7,0-1.3,0.3-1.8,0.8c-0.1,0-0.2-0.3-0.2-0.4c0.8-0.8,1.8-1.8,3.2-1.8C159.2,223,160.1,223.9,160.2,225.1
			C160.2,225,160.2,225.1,160.2,225.1z"/>
		<path id="Trazado_100085" class="st10" d="M235.8,76.4C235.8,76.4,235.8,76.5,235.8,76.4l-0.5,3c-0.5,0-1.7,0.1-2.2,0.2l0.5-3
			c0,0,0-0.1,0-0.1c-1.2,0-2.5,0-3.7,0c0-0.2,0.1-0.4,0.2-0.6c1.3-1.5,4.8-5.3,5.5-6c0.1,0,0.3,0,0.6,0c0.3,0,0.5,0,0.7,0
			c-0.2,1-0.6,4-0.9,5.6c0,0,0,0.1,0.1,0.1l1.6,0c-0.1,0.3-0.2,0.7-0.3,1L235.8,76.4z M233.8,75.5C233.9,75.5,233.9,75.4,233.8,75.5
			l0.8-3.9c0,0,0,0-0.1,0c0,0,0,0,0,0c-0.4,0.4-2.6,2.9-3.3,3.8c0,0,0,0.1,0,0.1L233.8,75.5z"/>
		<path id="Trazado_100086" class="st10" d="M127.4,33.7c-0.2,0.5-0.4,0.9-0.7,1.3c-0.2,0.3-0.6,0.5-1,0.5c-0.9,0-1.5-0.1-2-0.1
			c-0.1,0-0.1,0-0.2,0.1c-0.2,0.3-0.3,0.6-0.4,0.9c0,0,0,0.1,0,0.2c0.7,0.4,2.3,1.1,2.9,1.6c0.8,0.4,1.3,1.3,1.3,2.2
			c0,2.3-2.3,3.4-3.9,3.4c-1,0.1-1.9-0.4-2.5-1.1c-0.1-0.1-0.1-0.3-0.1-0.5c0.1-0.4,0.3-0.7,0.5-1.1c0.1,0,0.1-0.1,0.2-0.1
			c0.5,1,1.3,2.1,2.7,2.1c0.7,0.1,1.4-0.5,1.4-1.2c0-0.1,0-0.2,0-0.3c0-0.7-0.4-1.4-1.1-1.8c-0.7-0.6-2.2-1.4-2.6-1.6
			c0-0.2,0-0.4,0-0.5c0.5-1.2,1.1-2.4,1.7-3.5c0.1-0.2,0.3-0.3,0.5-0.4c0.3,0,1.2,0.1,2.1,0.1c0.3,0,0.6-0.1,0.8-0.3
			C127.2,33.5,127.4,33.6,127.4,33.7z"/>
		<path id="Trazado_100087" class="st13" d="M251.8,129.9C251.8,129.9,251.8,130,251.8,129.9c0.6-0.3,1.3-0.5,1.9-0.5
			c1.1,0,2.1,0.9,2.1,2.5c0,1.6-0.9,3-2.3,3.6c-0.5,0.2-1.1,0.3-1.6,0.3c-2.1,0-3-1.4-3-3.1c0-3.6,3.7-6.4,7.3-7.3
			c0.1,0,0.2,0.3,0.1,0.4C254.4,126.6,252.8,128,251.8,129.9z M251.7,130.5c-0.1,0.1-0.2,0.2-0.2,0.3c-0.2,0.7-0.3,1.4-0.4,2.1
			c0,1.6,0.5,2.4,1.3,2.4c0.8,0,1.5-1.4,1.5-2.8c0-1.4-0.5-2.1-1.4-2.1C252.2,130.3,251.9,130.4,251.7,130.5L251.7,130.5z"/>
		<path id="Trazado_100088" class="st10" d="M101.7,204c-0.8,1.7-4.9,8.3-5.5,9.5c0,0-0.1,0.1-0.1,0.1c-0.2-0.1-0.4-0.1-0.5-0.3
			c0-0.1,0-0.2,0-0.3c1-1.6,3.8-5.8,4.5-7.3c0,0,0-0.1,0-0.1c-0.5,0-2.9,0-4,0c-0.5,0-0.7,0.3-1.2,1.1c-0.1,0-0.4-0.2-0.4-0.2
			c0.4-0.9,0.8-1.9,1-2.9c0.4,0.1,0.8,0.2,1.2,0.1h3.3c0.6,0,1.3,0,1.7,0C101.7,203.8,101.7,204,101.7,204z"/>
		<path id="Trazado_100089" class="st10" d="M65.8,159c0,1-0.7,1.4-1.9,2.2c-0.1,0,0,0.1,0,0.1c1,0.8,1.6,1.5,1.6,2.4
			c0,1.7-1.7,3-3.7,3c-2.1,0-2.9-1.1-2.9-2.1c0-0.8,0.5-1.3,2.4-2.5c0,0,0,0,0-0.1c-0.7-0.5-1.1-1.3-1.2-2.1c0-0.9,0.5-1.8,1.3-2.3
			c0.6-0.4,1.3-0.6,2-0.6C64.9,157,65.8,157.9,65.8,159z M63.6,164.8c0-0.7-0.5-1.2-1.8-2.3c0,0-0.1,0-0.1,0c-0.7,0.5-1.1,1.2-1.1,2
			c-0.1,0.9,0.6,1.7,1.5,1.8c0,0,0.1,0,0.1,0c0.7,0,1.3-0.5,1.4-1.3C63.7,164.9,63.7,164.8,63.6,164.8L63.6,164.8z M61.8,158.8
			c0,0.8,0.4,1.3,1.6,2.1c0,0,0.1,0,0.1,0c0.5-0.5,0.8-1.1,0.8-1.8c0.1-0.8-0.4-1.5-1.2-1.6c0,0-0.1,0-0.1,0
			C62.3,157.6,61.8,158.1,61.8,158.8C61.8,158.8,61.8,158.8,61.8,158.8L61.8,158.8z"/>
		<path id="Trazado_100090" class="st10" d="M71.6,80.5c1.9-0.8,3.5-2.2,4.4-4c0,0,0-0.1,0-0.1c-0.6,0.3-1.3,0.5-2,0.6
			c-1.4,0-2.2-1.2-2.2-2.5c0-1.5,0.8-2.8,2.1-3.5c0.6-0.3,1.2-0.4,1.8-0.4c2,0,2.9,1.5,2.9,3.2c0,3.4-3,6.1-7,7.1
			C71.7,80.9,71.6,80.6,71.6,80.5z M73.9,73.8c0,1.7,0.7,2.3,1.6,2.3c0.2,0,0.4-0.1,0.6-0.1c0.1-0.1,0.2-0.2,0.2-0.3
			c0.2-0.7,0.4-1.4,0.4-2.1c0-1.5-0.4-2.3-1.3-2.3C74.7,71.2,73.9,72.4,73.9,73.8z"/>
		<g id="Grupo_83361" transform="translate(309.303 206.431)">
			<path id="Trazado_100091" class="st10" d="M-62.6-44.1c-0.9,0-1.5-0.1-2.4-0.1c-0.9,0-1.6,0.1-2.4,0.1c0-0.1,0-0.3,0.1-0.4
				c0.4,0,0.6-0.1,0.9-0.1c0.5-0.1,0.6-0.5,0.7-1c0.1-0.7,0.3-1.6,0.6-3.2c0.2-1.3,0.4-2.5,0.4-3c0-0.3,0-0.6-0.3-0.6
				c-0.3-0.1-0.6-0.1-0.8-0.1c0-0.1,0-0.3,0.1-0.4c1.1-0.1,2.2-0.3,3.2-0.7c0.1,0,0.2,0,0.2,0.1c-0.1,0.6-0.3,1.2-0.5,2.5
				c-0.2,1.3-0.6,4-0.8,5.3c0,0.6,0,1,0.3,1c0.3,0.1,0.6,0.1,0.9,0.1C-62.5-44.4-62.6-44.2-62.6-44.1z"/>
			<path id="Trazado_100092" class="st10" d="M-52.9-50.4c0,2.1-0.8,4.9-2.6,5.9c-0.6,0.3-1.2,0.5-1.9,0.5c-2.1,0-2.8-1.4-2.7-3.3
				c0-1.8,0.6-4.5,2.3-5.7c0.6-0.4,1.4-0.7,2.2-0.7C-53.6-53.6-52.9-52.2-52.9-50.4z M-56.7-52.7c-0.9,1.1-1.4,3.9-1.4,6.1
				c0,1.7,0.4,2.2,1,2.2c0.2,0,0.4-0.1,0.6-0.3c0.9-0.9,1.5-4.3,1.5-6.5c0-1.8-0.5-1.9-0.9-1.9C-56.2-53.1-56.5-53-56.7-52.7
				L-56.7-52.7z"/>
		</g>
		<g id="Grupo_83362" transform="translate(6.864 165.893)">
			<path id="Trazado_100093" class="st10" d="M48.8-29.2c-0.9,0-1.5,0-2.4,0c-0.9,0-1.6,0-2.4,0c0-0.1,0-0.3,0.1-0.4
				c0.4,0,0.6-0.1,0.9-0.1c0.5-0.1,0.6-0.5,0.7-1c0.1-0.7,0.3-1.6,0.6-3.2c0.2-1.3,0.4-2.5,0.4-3c0-0.3,0-0.6-0.3-0.6
				c-0.3-0.1-0.5-0.1-0.8-0.1c0-0.1,0-0.3,0.1-0.4c1.1-0.1,2.2-0.3,3.2-0.7c0.1,0,0.2,0,0.2,0.1c-0.1,0.6-0.3,1.2-0.5,2.5
				c-0.2,1.3-0.6,4-0.8,5.3c-0.1,0.6-0.1,1,0.3,1c0.3,0.1,0.6,0.1,0.9,0.1C48.9-29.5,48.8-29.3,48.8-29.2z"/>
			<path id="Trazado_100094" class="st10" d="M56.7-29.2c-0.9,0-1.5,0-2.4,0c-0.9,0-1.6,0-2.4,0c0-0.1,0-0.3,0.1-0.4
				c0.4,0,0.6-0.1,0.9-0.1c0.5-0.1,0.6-0.5,0.7-1c0.1-0.7,0.3-1.6,0.6-3.2c0.2-1.3,0.4-2.5,0.4-3c0-0.3,0-0.6-0.3-0.6
				c-0.3-0.1-0.5-0.1-0.8-0.1c0-0.1,0-0.3,0.1-0.4c1.1-0.1,2.2-0.3,3.2-0.7c0.1,0,0.2,0,0.2,0.1c-0.1,0.6-0.3,1.2-0.5,2.5
				c-0.2,1.3-0.6,4-0.8,5.3c0,0.6,0,1,0.3,1c0.3,0.1,0.6,0.1,0.9,0.1C56.8-29.5,56.7-29.3,56.7-29.2z"/>
		</g>
		<g id="Grupo_83363" transform="translate(68.255 39.469)">
			<path id="Trazado_100095" class="st10" d="M26.1,17.4c-0.9,0-1.5-0.1-2.4-0.1c-0.9,0-1.6,0.1-2.4,0.1c0-0.1,0-0.3,0.1-0.4
				c0.4-0.1,0.6-0.1,0.9-0.1c0.5-0.1,0.6-0.5,0.7-1c0.1-0.7,0.3-1.6,0.6-3.2c0.2-1.3,0.4-2.5,0.4-3c0-0.3,0-0.6-0.3-0.6
				C23.4,9.1,23.1,9,22.8,9c0-0.1,0-0.3,0.1-0.4c1.1-0.1,2.2-0.3,3.2-0.7c0.1,0,0.2,0,0.2,0.1c-0.1,0.6-0.3,1.2-0.5,2.5
				c-0.2,1.3-0.6,4-0.8,5.3c0,0.6,0,1,0.3,1.1c0.3,0.1,0.6,0.1,0.9,0.1C26.2,17.1,26.2,17.3,26.1,17.4z"/>
			<path id="Trazado_100096" class="st10" d="M29.6,10.2c-0.1,0-0.3-0.3-0.3-0.3c1.1-1.4,2.3-2,3.4-2c1.3,0,2.4,1.1,2.4,2.4
				c0,0,0,0,0,0.1c0,1.2-0.6,2.2-2.2,3.6c-0.6,0.5-1.2,1-2,1.6c0,0,0,0.1,0,0.1c0.5,0,2.4,0,3.1,0c0.3,0,0.7-0.2,1.2-1
				c0,0,0.4,0.1,0.4,0.2c-0.3,0.8-0.7,1.6-1.1,2.3c-0.1,0.2-0.4,0.2-0.9,0.3c-1.1,0-3-0.1-4.2-0.1c-0.3,0-0.8,0-1.1,0
				c0-0.1,0-0.3,0-0.4c1.2-0.8,2.3-1.7,3.2-2.7c1.1-1.1,1.5-2.1,1.5-3.2c0.1-0.9-0.5-1.6-1.4-1.7c0,0-0.1,0-0.1,0
				C30.8,9.4,30.1,9.7,29.6,10.2z"/>
		</g>
		<g id="Grupo_83364" transform="translate(308.933 119.697)">
			<path id="Trazado_100097" class="st10" d="M-62.5-12.2c-0.9,0-1.5,0-2.4,0c-0.9,0-1.6,0-2.4,0c0-0.1,0-0.3,0.1-0.4
				c0.4,0,0.6-0.1,0.9-0.1c0.5-0.1,0.6-0.5,0.7-1c0.1-0.7,0.3-1.6,0.6-3.2c0.2-1.3,0.4-2.5,0.4-3c0-0.3,0-0.6-0.3-0.6
				c-0.3-0.1-0.6-0.1-0.8-0.1c0-0.1,0-0.3,0.1-0.4c1.1-0.1,2.2-0.3,3.2-0.7c0.1,0,0.2,0,0.2,0.1c-0.1,0.6-0.3,1.2-0.5,2.5
				c-0.2,1.3-0.6,4-0.8,5.3c0,0.6,0,1,0.3,1.1c0.3,0.1,0.6,0.1,0.9,0.1C-62.4-12.4-62.4-12.3-62.5-12.2z"/>
			<path id="Trazado_100098" class="st10" d="M-53.6-19.7c0,0.9-0.6,1.6-1.8,2.2c0,0-0.1,0.1,0,0.1c1.1,0.3,1.9,1.2,2,2.4
				c0,1.3-0.8,2.4-1.9,2.9c-0.7,0.4-1.5,0.6-2.3,0.6c-0.6,0-1.3-0.1-1.8-0.4c-0.3-0.1-0.4-0.3-0.5-0.6c-0.1-0.5-0.1-1,0-1.5
				c0-0.1,0.3-0.1,0.4-0.1c0.1,0.7,0.5,1.3,1,1.7c0.4,0.3,0.9,0.4,1.4,0.4c1.1,0,1.8-0.9,1.8-2.2c0.1-1-0.6-1.9-1.7-2
				c-0.1,0-0.2,0-0.3,0c-0.2,0-0.3,0-0.5,0c0.1-0.3,0.2-0.5,0.4-0.7c1.6-0.3,2.2-0.9,2.2-1.8c0.1-0.8-0.5-1.5-1.3-1.6
				c-0.1,0-0.1,0-0.2,0c-0.7,0-1.3,0.3-1.8,0.8c-0.1,0-0.2-0.3-0.2-0.4c0.8-0.8,1.8-1.8,3.2-1.8C-54.6-21.7-53.7-20.9-53.6-19.7
				C-53.6-19.8-53.6-19.7-53.6-19.7z"/>
		</g>
		<g id="Grupo_83365" transform="translate(12.276 120.683)">
			<path id="Trazado_100099" class="st10" d="M46.8-12.5c-0.9,0-1.5,0-2.4,0c-0.9,0-1.6,0-2.4,0c0-0.1,0-0.3,0.1-0.4
				c0.4,0,0.6-0.1,0.9-0.1c0.5-0.1,0.6-0.5,0.7-1c0.1-0.7,0.3-1.6,0.6-3.2c0.2-1.3,0.4-2.5,0.4-3c0-0.3,0-0.6-0.3-0.6
				c-0.3-0.1-0.6-0.1-0.8-0.1c0-0.1,0-0.3,0.1-0.4c1.1-0.1,2.2-0.3,3.2-0.7c0.1,0,0.2,0,0.2,0.1c-0.1,0.6-0.3,1.2-0.5,2.5
				c-0.2,1.3-0.6,4-0.8,5.3c0,0.6,0,1,0.3,1.1c0.3,0.1,0.6,0.1,0.9,0.1C46.9-12.8,46.8-12.7,46.8-12.5z"/>
			<path id="Trazado_100100" class="st10" d="M54.8-15.3C54.8-15.3,54.8-15.3,54.8-15.3l-0.5,3c-0.5,0-1.7,0.1-2.1,0.2l0.5-3
				c0,0,0-0.1,0-0.1c-1.2,0-2.5,0-3.7,0c0-0.2,0.1-0.4,0.2-0.6c1.3-1.5,4.8-5.3,5.5-6c0.1,0,0.3,0,0.6,0c0.3,0,0.5,0,0.7,0
				c-0.2,1-0.6,4-0.9,5.6c0,0,0,0.1,0.1,0.1l1.6,0c-0.1,0.3-0.2,0.7-0.3,1L54.8-15.3z M52.8-16.3C52.8-16.3,52.9-16.3,52.8-16.3
				l0.8-3.9c0,0,0,0-0.1,0c0,0,0,0,0,0c-0.4,0.4-2.6,2.9-3.3,3.8c0,0,0,0.1,0,0.1L52.8-16.3z"/>
		</g>
		<g id="Grupo_83366" transform="translate(35.038 251.085)">
			<path id="Trazado_100101" class="st10" d="M38.4-59.8c-0.9,0-1.5,0-2.4,0c-0.9,0-1.6,0-2.4,0c0-0.1,0-0.3,0.1-0.4
				c0.4,0,0.6-0.1,0.9-0.1c0.5-0.1,0.6-0.5,0.7-1c0.1-0.7,0.3-1.6,0.6-3.2c0.2-1.3,0.4-2.5,0.4-3c0-0.3,0-0.6-0.3-0.6
				c-0.3-0.1-0.5-0.1-0.8-0.1c0-0.1,0-0.3,0.1-0.4c1.1-0.1,2.2-0.3,3.2-0.7c0.1,0,0.2,0,0.2,0.1c-0.1,0.6-0.3,1.2-0.5,2.5
				c-0.2,1.3-0.6,4-0.8,5.3c0,0.6,0,1,0.3,1.1c0.3,0.1,0.6,0.1,0.9,0.1C38.5-60.1,38.4-60,38.4-59.8z"/>
			<path id="Trazado_100102" class="st10" d="M43.8-65.5C43.8-65.5,43.8-65.4,43.8-65.5c0.6-0.3,1.3-0.5,1.9-0.5
				c1.1,0,2.1,0.9,2.1,2.5c0,1.6-0.9,3-2.3,3.6c-0.5,0.2-1.1,0.3-1.6,0.3c-2.1,0-3-1.4-3-3.1c0-3.6,3.7-6.4,7.3-7.3
				c0.1,0,0.2,0.3,0.1,0.4C46.4-68.9,44.8-67.4,43.8-65.5z M43.7-64.9c-0.1,0.1-0.2,0.2-0.2,0.3c-0.2,0.7-0.3,1.4-0.3,2.1
				c0,1.6,0.5,2.4,1.3,2.4c0.8,0,1.4-1.4,1.4-2.8c0-1.5-0.5-2.1-1.4-2.1C44.2-65.1,43.9-65,43.7-64.9L43.7-64.9z"/>
		</g>
		<g id="Grupo_83367" transform="translate(289.284 247.82)">
			<path id="Trazado_100103" class="st10" d="M-55.3-59.3c-0.9,0-1.5,0-2.4,0c-0.9,0-1.6,0-2.4,0c0-0.1,0-0.3,0.1-0.4
				c0.4,0,0.6-0.1,0.9-0.1c0.5-0.1,0.6-0.5,0.7-1c0.1-0.7,0.3-1.6,0.6-3.2c0.2-1.3,0.4-2.5,0.4-3c0-0.3,0-0.6-0.3-0.6
				c-0.3-0.1-0.5-0.1-0.8-0.1c0-0.1,0-0.3,0.1-0.4c1.1-0.1,2.2-0.3,3.2-0.7c0.1,0,0.2,0,0.2,0.1c-0.1,0.6-0.3,1.2-0.5,2.5
				c-0.2,1.3-0.6,4-0.8,5.3c0,0.6,0,1,0.3,1.1c0.3,0.1,0.6,0.1,0.9,0.1C-55.2-59.6-55.2-59.4-55.3-59.3z"/>
			<path id="Trazado_100104" class="st10" d="M-46.2-68.7c-0.2,0.5-0.4,0.9-0.7,1.3c-0.2,0.3-0.6,0.5-1,0.5c-0.9,0-1.5-0.1-2-0.1
				c-0.1,0-0.1,0-0.2,0.1c-0.2,0.3-0.3,0.6-0.4,0.9c0,0,0,0.1,0,0.2c0.7,0.4,2.3,1.1,2.9,1.6c0.8,0.4,1.3,1.3,1.3,2.2
				c0,2.3-2.3,3.4-3.9,3.4c-1,0.1-1.9-0.4-2.5-1.1c-0.1-0.1-0.1-0.3-0.1-0.5c0.1-0.4,0.3-0.7,0.5-1.1c0.1,0,0.1-0.1,0.2-0.1
				c0.5,1,1.3,2.1,2.7,2.1c0.7,0.1,1.4-0.5,1.4-1.2c0-0.1,0-0.2,0-0.3c0-0.7-0.4-1.4-1-1.8c-0.7-0.6-2.2-1.4-2.6-1.6
				c0-0.2,0-0.4,0-0.5c0.5-1.2,1.1-2.4,1.7-3.5c0.1-0.2,0.3-0.3,0.5-0.4c0.3,0,1.2,0.1,2.1,0.1c0.3,0,0.6-0.1,0.8-0.3
				C-46.4-68.9-46.2-68.8-46.2-68.7z"/>
		</g>
		<g id="Grupo_83368" transform="translate(213.475 307.567)">
			<path id="Trazado_100105" class="st10" d="M-27.3-81.4c-0.9,0-1.5,0-2.4,0c-0.9,0-1.6,0-2.4,0c0-0.1,0-0.3,0.1-0.4
				c0.4,0,0.6-0.1,0.9-0.1c0.5-0.1,0.6-0.5,0.7-1c0.1-0.7,0.3-1.6,0.6-3.2c0.2-1.3,0.4-2.5,0.4-3c0-0.3,0-0.6-0.3-0.6
				c-0.3-0.1-0.5-0.1-0.8-0.1c-0.1-0.1,0-0.4,0.1-0.4c1.1-0.1,2.2-0.3,3.2-0.7c0.1,0,0.2,0,0.2,0.1c-0.1,0.6-0.3,1.2-0.5,2.5
				c-0.2,1.3-0.6,4-0.8,5.3c-0.1,0.6-0.1,1,0.3,1c0.3,0.1,0.6,0.1,0.9,0.1C-27.2-81.6-27.3-81.5-27.3-81.4z"/>
			<path id="Trazado_100106" class="st10" d="M-16.9-90.5c-0.8,1.7-4.9,8.3-5.5,9.5c0,0-0.1,0.1-0.1,0.1c-0.2-0.1-0.4-0.1-0.5-0.3
				c0-0.1,0-0.2,0-0.3c1-1.6,3.8-5.8,4.5-7.3c0,0,0-0.1,0-0.1c-0.5,0-2.9,0-4,0c-0.5,0-0.7,0.3-1.2,1.1c-0.1,0-0.4-0.2-0.4-0.2
				c0.4-0.9,0.8-1.9,1-2.9c0.4,0.1,0.8,0.2,1.2,0.1h3.3c0.6,0,1.3,0,1.7,0C-16.9-90.7-16.9-90.5-16.9-90.5z"/>
		</g>
		<g id="Grupo_83369" transform="translate(254.367 41.685)">
			<path id="Trazado_100107" class="st10" d="M-42.4,16.6c-0.9,0-1.5-0.1-2.4-0.1c-0.9,0-1.6,0.1-2.4,0.1c0-0.1,0-0.3,0.1-0.4
				c0.4,0,0.6-0.1,0.9-0.1c0.5-0.1,0.6-0.5,0.7-1c0.1-0.7,0.3-1.6,0.6-3.2c0.2-1.3,0.4-2.5,0.4-3c0-0.3,0-0.6-0.3-0.6
				c-0.3-0.1-0.6-0.1-0.8-0.1c0-0.1,0-0.3,0.1-0.4c1.1-0.1,2.2-0.3,3.2-0.7c0.1,0,0.2,0,0.2,0.1c-0.1,0.6-0.3,1.2-0.5,2.5
				c-0.2,1.3-0.6,4-0.8,5.3c0,0.6,0,1,0.3,1c0.3,0.1,0.6,0.1,0.9,0.1C-42.3,16.3-42.3,16.4-42.4,16.6z"/>
			<path id="Trazado_100108" class="st10" d="M-33,9c0,1-0.7,1.4-1.9,2.2c-0.1,0,0,0.1,0,0.1c1,0.8,1.6,1.5,1.6,2.4
				c0,1.7-1.7,3-3.7,3c-2.1,0-2.9-1.1-2.9-2.1c0-0.8,0.5-1.3,2.4-2.5c0,0,0,0,0-0.1c-0.7-0.5-1.2-1.3-1.2-2.1c0-0.9,0.5-1.8,1.3-2.3
				c0.6-0.4,1.3-0.6,2-0.6C-33.9,7-33,7.9-33,9z M-35.1,14.8c0-0.7-0.5-1.2-1.8-2.3c0,0-0.1,0-0.1,0c-0.7,0.5-1.1,1.2-1.1,2
				c-0.1,0.9,0.6,1.7,1.5,1.7c0.1,0,0.1,0,0.2,0c0.7,0,1.4-0.5,1.4-1.3C-35.1,14.9-35.1,14.8-35.1,14.8z M-36.9,8.8
				c0,0.8,0.4,1.3,1.6,2.1c0,0,0.1,0,0.1,0c0.5-0.5,0.8-1.1,0.8-1.8c0.1-0.8-0.4-1.5-1.2-1.6c0,0-0.1,0-0.1,0
				C-36.5,7.6-37,8.1-36.9,8.8C-36.9,8.8-36.9,8.8-36.9,8.8L-36.9,8.8z"/>
		</g>
		<path id="Trazado_100109" class="st10" d="M122.7,227.4c-0.9,0-1.5,0-2.4,0c-0.9,0-1.6,0-2.4,0c0-0.1,0-0.3,0.1-0.4
			c0.4,0,0.6-0.1,0.9-0.1c0.5-0.1,0.6-0.5,0.7-1c0.1-0.7,0.3-1.6,0.6-3.1c0.2-1.3,0.4-2.5,0.4-3c0-0.3,0-0.6-0.3-0.6
			c-0.3-0.1-0.5-0.1-0.8-0.1c0-0.1,0-0.3,0.1-0.4c1.1-0.1,2.2-0.3,3.2-0.7c0.1,0,0.2,0,0.2,0.1c-0.1,0.6-0.3,1.2-0.5,2.5
			c-0.2,1.3-0.6,4-0.8,5.3c0,0.6,0,1,0.3,1.1c0.3,0.1,0.6,0.1,0.9,0.1C122.8,227.1,122.8,227.3,122.7,227.4z"/>
		<path id="Trazado_100110" class="st10" d="M125.3,227.8c1.9-0.8,3.5-2.2,4.4-4c0,0,0-0.1,0-0.1c-0.6,0.3-1.3,0.5-2,0.6
			c-1.4,0-2.2-1.2-2.2-2.5c0-1.5,0.8-2.8,2.1-3.5c0.6-0.3,1.2-0.4,1.8-0.4c2,0,2.9,1.5,2.9,3.2c0,3.4-3,6.1-7,7.1
			C125.4,228.2,125.3,227.9,125.3,227.8z M127.6,221.1c0,1.7,0.7,2.3,1.6,2.3c0.2,0,0.4-0.1,0.6-0.1c0.1-0.1,0.2-0.2,0.2-0.3
			c0.2-0.7,0.4-1.4,0.4-2.1c0-1.5-0.4-2.3-1.3-2.3C128.4,218.4,127.6,219.6,127.6,221.1L127.6,221.1z"/>
		<g id="Grupo_83370" transform="translate(160.482 11.513)">
			<path id="Trazado_100111" class="st10" d="M-11.4,20.5c-0.1,0-0.3-0.3-0.3-0.3c1.1-1.4,2.3-2,3.4-2c1.3,0,2.4,1.1,2.4,2.4
				c0,0,0,0,0,0.1c0,1.2-0.6,2.2-2.2,3.6c-0.6,0.5-1.2,1-2,1.6c0,0,0,0.1,0,0.1c0.5,0,2.4,0,3.1,0c0.3,0,0.7-0.2,1.2-1
				c0,0,0.4,0.1,0.4,0.2c-0.3,0.8-0.7,1.6-1.1,2.3c-0.1,0.2-0.4,0.2-0.9,0.3c-1.1,0-3,0-4.2,0c-0.3,0-0.8,0-1.1,0c0-0.1,0-0.3,0-0.4
				c1.2-0.8,2.3-1.7,3.2-2.7c1.1-1.1,1.5-2.1,1.5-3.2c0.1-0.9-0.6-1.6-1.4-1.7c0,0-0.1,0-0.1,0C-10.2,19.6-10.9,20-11.4,20.5z"/>
			<path id="Trazado_100112" class="st10" d="M2.7,21.4c0,2.1-0.8,4.9-2.6,5.9c-0.6,0.3-1.2,0.5-1.9,0.5c-2.1,0-2.8-1.4-2.7-3.3
				c0-1.8,0.6-4.5,2.3-5.7c0.6-0.4,1.4-0.7,2.2-0.7C2,18.2,2.7,19.6,2.7,21.4z M-1,19c-0.9,1.1-1.4,3.9-1.4,6.1c0,1.7,0.4,2.2,1,2.2
				c0.2,0,0.4-0.1,0.6-0.3c0.9-0.9,1.5-4.3,1.5-6.5c0-1.8-0.5-1.9-0.9-1.9C-0.6,18.6-0.8,18.8-1,19z"/>
		</g>
	</g>
</g>
</svg>
