<?xml version="1.0" encoding="utf-8"?>
<!-- Generator: Adobe Illustrator 25.3.1, SVG Export Plug-In . SVG Version: 6.00 Build 0)  -->
<svg version="1.1" id="Layer_1" xmlns="http://www.w3.org/2000/svg" xmlns:xlink="http://www.w3.org/1999/xlink" x="0px" y="0px"
	 viewBox="0 0 344.2 344.2" style="enable-background:new 0 0 344.2 344.2;" xml:space="preserve">
<style type="text/css">
	.st0{fill:#12263F;}
	.st1{fill:#265D99;}
	.st2{fill:url(#Trazado_99918_1_);}
	.st3{fill:url(#Trazado_99920_1_);}
	.st4{fill:url(#Trazado_99922_1_);}
	.st5{fill:url(#Trazado_99924_1_);}
	.st6{fill:url(#Trazado_99926_1_);}
	.st7{fill:url(#Trazado_99928_1_);}
	.st8{fill:url(#Trazado_99930_1_);}
	.st9{fill:url(#Trazado_99932_1_);}
	.st10{fill:#FFFFFF;}
	.st11{fill:#76C2DD;}
	.st12{fill:#CCF8FF;}
	.st13{fill:#D9DBDC;}
</style>
<g id="Grupo_83372" transform="translate(-102.149 -96.417)">
	<g id="Grupo_83371" transform="translate(102.149 96.417)">
		<path id="Trazado_99916" class="st0" d="M295.3,172.1c0,68-55.2,123.2-123.2,123.2S48.9,240.2,48.9,172.1S104.1,48.9,172.1,48.9
			c0,0,0,0,0,0C240.2,48.9,295.3,104.1,295.3,172.1C295.3,172.1,295.3,172.1,295.3,172.1z"/>
		<path id="Trazado_99917" class="st1" d="M292.4,172.1c0,66.4-53.9,120.3-120.3,120.3c-66.4,0-120.3-53.9-120.3-120.3
			c0-66.4,53.9-120.3,120.3-120.3c0,0,0,0,0,0C238.5,51.8,292.4,105.7,292.4,172.1C292.4,172.1,292.4,172.1,292.4,172.1z"/>
		
			<radialGradient id="Trazado_99918_1_" cx="-768.525" cy="703.4355" r="0.3507" gradientTransform="matrix(43.7692 0 0 -43.7607 33810.4805 30880.2676)" gradientUnits="userSpaceOnUse">
			<stop  offset="0" style="stop-color:#FFF064"/>
			<stop  offset="0.427" style="stop-color:#FBCB6B"/>
			<stop  offset="0.778" style="stop-color:#F9B570"/>
			<stop  offset="1" style="stop-color:#F9AD72"/>
		</radialGradient>
		<path id="Trazado_99918" class="st2" d="M158.8,82.8l-1,0.2l4.8,30.1l1-0.2c6.1-0.9,12.4-0.9,18.5,0l1,0.2l4.8-30.1l-1-0.2
			C177.5,81.4,168.1,81.4,158.8,82.8L158.8,82.8z"/>
		<path id="Trazado_99919" class="st1" d="M172.8,111.2c3.1,0,6.3,0.2,9.4,0.7l4.5-28c-9.2-1.4-18.5-1.4-27.7,0l4.5,28
			C166.5,111.4,169.7,111.2,172.8,111.2z"/>
		
			<radialGradient id="Trazado_99920_1_" cx="-768.6965" cy="704.8588" r="0.3602" gradientTransform="matrix(44.1623 0 0 -44.1567 34121.3789 31370.8887)" gradientUnits="userSpaceOnUse">
			<stop  offset="0" style="stop-color:#FFF064"/>
			<stop  offset="0.427" style="stop-color:#FBCB6B"/>
			<stop  offset="0.778" style="stop-color:#F9B570"/>
			<stop  offset="1" style="stop-color:#F9AD72"/>
		</radialGradient>
		<path id="Trazado_99920" class="st3" d="M183.5,231c-6.6,1.2-13.3,1.3-19.9,0.3l-1-0.2l-4.6,30.1l1,0.2c9.9,1.5,20.1,1.4,30-0.4
			l1-0.2l-5.5-30L183.5,231z"/>
		<path id="Trazado_99921" class="st1" d="M172.8,233c-3.1,0-6.3-0.2-9.4-0.7l-4.3,28.1c9.8,1.5,19.9,1.4,29.6-0.4l-5.1-27.9
			C180.1,232.7,176.4,233,172.8,233z"/>
		
			<radialGradient id="Trazado_99922_1_" cx="-768.9875" cy="703.8158" r="0.3865" gradientTransform="matrix(43.363 0 0 -43.379 33587.1953 30678.4688)" gradientUnits="userSpaceOnUse">
			<stop  offset="0" style="stop-color:#FFF064"/>
			<stop  offset="0.427" style="stop-color:#FBCB6B"/>
			<stop  offset="0.778" style="stop-color:#F9B570"/>
			<stop  offset="1" style="stop-color:#F9AD72"/>
		</radialGradient>
		<path id="Trazado_99922" class="st4" d="M252.9,132.6l-26.6,12.6l0.5,0.9c2.5,5.1,4.2,10.5,5.1,16.1l0.2,1l30.1-4.7l-0.2-1
			c-1.4-8.4-4-16.6-7.7-24.4l-0.4-0.9L252.9,132.6z"/>
		<path id="Trazado_99923" class="st1" d="M227.7,145.7c2.5,5.2,4.2,10.7,5.2,16.3l28.1-4.4c-1.4-8.3-3.9-16.5-7.6-24.1L227.7,145.7
			z"/>
		
			<radialGradient id="Trazado_99924_1_" cx="-768.5988" cy="704.6464" r="0.3772" gradientTransform="matrix(45.4829 0 0 -45.474 35061.7773 32240.0684)" gradientUnits="userSpaceOnUse">
			<stop  offset="0" style="stop-color:#FFF064"/>
			<stop  offset="0.427" style="stop-color:#FBCB6B"/>
			<stop  offset="0.778" style="stop-color:#F9B570"/>
			<stop  offset="1" style="stop-color:#F9AD72"/>
		</radialGradient>
		<path id="Trazado_99924" class="st5" d="M112.5,180.9l-29,5l0.2,1c1.5,8.8,4.2,17.4,8.2,25.4l0.5,0.9l27.2-13.8l-0.5-0.9
			c-2.6-5.3-4.4-11-5.4-16.8l-0.2-1L112.5,180.9z"/>
		<path id="Trazado_99925" class="st1" d="M112.7,181.9l-28,4.8c1.4,8.7,4.2,17.2,8.1,25.1l25.3-12.9
			C115.5,193.6,113.6,187.8,112.7,181.9z"/>
		
			<radialGradient id="Trazado_99926_1_" cx="-772.6335" cy="706.299" r="0.3536" gradientTransform="matrix(55.3697 0 0 -55.353 43001.0078 39327.6992)" gradientUnits="userSpaceOnUse">
			<stop  offset="0" style="stop-color:#FFF064"/>
			<stop  offset="0.427" style="stop-color:#FBCB6B"/>
			<stop  offset="0.778" style="stop-color:#F9B570"/>
			<stop  offset="1" style="stop-color:#F9AD72"/>
		</radialGradient>
		<path id="Trazado_99926" class="st6" d="M216.6,212.9c-4.3,4.6-9.3,8.6-14.9,11.6l-0.9,0.5l14.6,26.7l0.9-0.5
			c8.4-4.6,16-10.5,22.5-17.5l0.7-0.8l-22.2-20.8L216.6,212.9z"/>
		<path id="Trazado_99927" class="st1" d="M202.2,225.4l13.6,24.9c8.3-4.6,15.8-10.4,22.2-17.3l-20.7-19.4
			C213,218.3,207.9,222.3,202.2,225.4z"/>
		
			<radialGradient id="Trazado_99928_1_" cx="-771.9189" cy="705.414" r="0.355" gradientTransform="matrix(55.2092 0 0 -55.219 42743.8086 39063.2422)" gradientUnits="userSpaceOnUse">
			<stop  offset="0" style="stop-color:#FFF064"/>
			<stop  offset="0.427" style="stop-color:#FBCB6B"/>
			<stop  offset="0.778" style="stop-color:#F9B570"/>
			<stop  offset="1" style="stop-color:#F9AD72"/>
		</radialGradient>
		<path id="Trazado_99928" class="st7" d="M131.6,91.7c-8.6,4.4-16.4,10.2-23.2,17.1l-0.7,0.7l21.9,21.2l0.7-0.7
			c4.5-4.5,9.7-8.3,15.3-11.2l0.9-0.5l-14-27.1L131.6,91.7z"/>
		<path id="Trazado_99929" class="st1" d="M145.1,117.9l-13-25.3c-8.5,4.4-16.3,10.1-23,16.9l20.4,19.8
			C134,124.7,139.3,120.8,145.1,117.9z"/>
		
			<radialGradient id="Trazado_99930_1_" cx="-772.6453" cy="705.442" r="0.355" gradientTransform="matrix(55.4708 0 0 -55.445 43077.8906 39224.082)" gradientUnits="userSpaceOnUse">
			<stop  offset="0" style="stop-color:#FFF064"/>
			<stop  offset="0.427" style="stop-color:#FBCB6B"/>
			<stop  offset="0.778" style="stop-color:#F9B570"/>
			<stop  offset="1" style="stop-color:#F9AD72"/>
		</radialGradient>
		<path id="Trazado_99930" class="st8" d="M212.2,91.9l-13.3,26.3l0.9,0.5c5.8,2.9,11,6.7,15.6,11.3l0.7,0.7l21.8-21.3l-0.7-0.7
			c-6.9-7-14.8-12.8-23.6-17.2l-0.9-0.5L212.2,91.9z"/>
		<path id="Trazado_99931" class="st1" d="M216.1,129.2l20.3-19.8c-6.8-6.9-14.7-12.6-23.3-17l-12.9,25.3
			C206.1,120.7,211.5,124.6,216.1,129.2z"/>
		
			<radialGradient id="Trazado_99932_1_" cx="-772.0944" cy="706.3651" r="0.3529" gradientTransform="matrix(55.8716 0 0 -55.847 43265.3164 39681.8711)" gradientUnits="userSpaceOnUse">
			<stop  offset="0" style="stop-color:#FFF064"/>
			<stop  offset="0.427" style="stop-color:#FBCB6B"/>
			<stop  offset="0.778" style="stop-color:#F9B570"/>
			<stop  offset="1" style="stop-color:#F9AD72"/>
		</radialGradient>
		<path id="Trazado_99932" class="st9" d="M128.8,214.3l-20.7,20.9l0.7,0.7c7,7,15,12.8,23.8,17.2l0.9,0.5l13.4-27.4l-0.9-0.5
			c-5.8-2.9-11.2-6.8-15.8-11.4l-0.7-0.7L128.8,214.3z"/>
		<path id="Trazado_99933" class="st1" d="M129.6,215l-20,20.2c6.9,6.9,14.8,12.6,23.6,17l12.5-25.5
			C139.7,223.6,134.2,219.7,129.6,215z"/>
		<g id="Grupo_83357" transform="translate(46.863 47.174)">
			<path id="Trazado_99934" class="st0" d="M213.9,109.4l-29.1,4.6l0.2,1c1,6.1,1.1,12.2,0.2,18.3l-0.1,1l30.1,4.6l0.2-1
				c1.3-9.2,1.3-18.5-0.2-27.7l-0.2-1L213.9,109.4z"/>
			<path id="Trazado_99935" class="st10" d="M186.8,124.9c0,2.9-0.2,5.8-0.6,8.6l28.1,4.3c1.3-9.1,1.2-18.3-0.2-27.4l-28.1,4.5
				C186.6,118.2,186.8,121.6,186.8,124.9z"/>
			<path id="Trazado_99936" class="st0" d="M36.6,111.8c-1.4,9.3-1.3,18.7,0.2,27.9l0.2,1l30-5.2l-0.2-1c-1-6.1-1-12.3-0.1-18.4
				l0.2-1l-30.2-4.2L36.6,111.8z"/>
			<path id="Trazado_99937" class="st10" d="M65,124.9c0-3,0.2-6.1,0.7-9.1l-28.1-4c-1.3,9.2-1.3,18.5,0.2,27.6l28-4.9
				C65.3,131.4,65,128.2,65,124.9z"/>
			<path id="Trazado_99938" class="st0" d="M154.8,177.4c-5.6,3.1-11.8,5.3-18.1,6.4l-1,0.2l5.4,30l1-0.2c9.6-1.7,18.8-5,27.3-9.7
				l0.9-0.5l-14.7-26.7L154.8,177.4z"/>
			<path id="Trazado_99939" class="st10" d="M136.9,184.8l5.1,28c9.5-1.7,18.6-5,27-9.6l-13.7-24.9
				C149.5,181.5,143.3,183.7,136.9,184.8z"/>
			<path id="Trazado_99940" class="st0" d="M111.9,35.7c-9.5,1.5-18.6,4.5-27.1,8.8L83.9,45l14,27.1l0.9-0.5
				c5.6-2.9,11.6-4.8,17.9-5.8l1-0.2l-4.7-30.1L111.9,35.7z"/>
			<path id="Trazado_99941" class="st10" d="M116.5,64.7L112,36.7c-9.3,1.5-18.4,4.4-26.8,8.7l13.1,25.2
				C104,67.7,110.1,65.7,116.5,64.7z"/>
			<path id="Trazado_99942" class="st0" d="M188.9,61.5l-21.1,20.6l0.7,0.7c4.6,4.7,8.4,10.1,11.3,16l0.4,0.9l27.6-13l-0.5-0.9
				c-4.3-9-10.1-17.2-17.1-24.3l-0.7-0.7L188.9,61.5z"/>
			<path id="Trazado_99943" class="st10" d="M180.8,98.4l25.7-12.1c-4.3-8.9-10-17-16.9-24l-20.3,19.8
				C174,86.9,177.9,92.4,180.8,98.4z"/>
			<path id="Trazado_99944" class="st0" d="M70.9,151l-26.3,13.3l0.5,0.9c4.2,8.5,9.8,16.3,16.4,23l0.7,0.7l21.6-21.5l-0.7-0.7
				c-4.4-4.5-8-9.6-10.8-15.3l-0.5-0.9L70.9,151z"/>
			<path id="Trazado_99945" class="st10" d="M71.3,151.9L46,164.7c4.2,8.4,9.7,16.1,16.2,22.8l20.1-20
				C77.9,162.9,74.2,157.6,71.3,151.9z"/>
			<path id="Trazado_99946" class="st0" d="M180.6,149.4c-2.6,5.8-6.1,11.2-10.4,15.9l-0.7,0.8l22.3,20.7l0.7-0.8
				c6.5-7.1,11.9-15.2,15.8-24l0.4-0.9L181,148.5L180.6,149.4z"/>
			<path id="Trazado_99947" class="st10" d="M170.9,166l8,7.4l12.8,11.9c6.5-7,11.7-15,15.7-23.7l-25.9-11.8
				C178.8,155.8,175.3,161.2,170.9,166z"/>
			<path id="Trazado_99948" class="st0" d="M61,62.1c-6.4,6.7-11.8,14.3-16,22.5l-0.5,0.9L72,98.9l0.5-0.9
				c2.7-5.5,6.3-10.4,10.6-14.8l0.7-0.7l-22-21.1L61,62.1z"/>
			<path id="Trazado_99949" class="st10" d="M82.3,82.5L61.8,62.8C55.4,69.4,50.1,76.9,46,85.1l25.5,12.5
				C74.3,92,77.9,86.9,82.3,82.5z"/>
			<path id="Trazado_99950" class="st0" d="M138.8,36.5l-2.1,13.2l-2.5,15.9l1,0.2c6.1,1,12,2.9,17.6,5.7l0.9,0.5l13.8-27.1
				l-0.9-0.5c-8.4-4.2-17.4-7.2-26.7-8.6l-1-0.2L138.8,36.5z"/>
			<path id="Trazado_99951" class="st10" d="M153.3,70.5l12.9-25.3c-8.3-4.2-17.2-7.1-26.4-8.5l-4.4,28.1
				C141.6,65.7,147.7,67.7,153.3,70.5z"/>
			<path id="Trazado_99952" class="st0" d="M97.9,179l-13,26.4l0.9,0.5c8.3,4.1,17.1,6.9,26.2,8.3l1,0.2l4.6-30.1l-1-0.2
				c-6-0.9-11.9-2.8-17.3-5.5l-0.9-0.5L97.9,179z"/>
			<path id="Trazado_99953" class="st10" d="M98.8,179.5L86.3,205c8.2,4,16.9,6.8,25.9,8.2l4.2-28.1
				C110.3,184.1,104.4,182.2,98.8,179.5z"/>
		</g>
		<path id="Trazado_99954" class="st0" d="M232.1,180.7c-0.8,5.5-2.3,10.8-4.6,15.9l-0.4,0.9l27.7,12.7l0.4-0.9
			c3.4-7.6,5.8-15.7,7-24l0.1-1l-30.1-4.6L232.1,180.7z"/>
		<path id="Trazado_99955" class="st1" d="M228.4,196.9l25.8,11.8c3.4-7.5,5.7-15.5,6.9-23.7l-28.1-4.3
			C232.3,186.4,230.7,191.8,228.4,196.9z"/>
		<g id="Grupo_83358" transform="translate(37.225 34.994)">
			<path id="Trazado_99956" class="st0" d="M120.3,40.2l-1,0.2l1.5,9.7l1-0.2c9.1-1.4,18.3-1.4,27.4,0l1,0.2l1.5-9.7l-1-0.2
				C140.7,38.6,130.4,38.6,120.3,40.2L120.3,40.2z"/>
			<path id="Trazado_99957" class="st11" d="M135.6,47.8c4.6,0,9.3,0.4,13.9,1.1l1.2-7.7c-10-1.6-20.2-1.6-30.1,0l1.2,7.7
				C126.3,48.2,130.9,47.8,135.6,47.8z"/>
			<path id="Trazado_99958" class="st0" d="M151.4,224c-9.7,1.7-19.6,1.9-29.3,0.4l-1-0.2l-1.5,9.7l1,0.2
				c10.8,1.7,21.8,1.5,32.6-0.4l1-0.2l-1.8-9.7L151.4,224z"/>
			<path id="Trazado_99959" class="st11" d="M135.6,226.4c-4.6,0-9.1-0.3-13.7-1l-1.2,7.7c10.7,1.6,21.6,1.5,32.2-0.4l-1.4-7.7
				C146.3,225.9,140.9,226.4,135.6,226.4z"/>
			<path id="Trazado_99960" class="st0" d="M222.7,94.3l-8,3.8l0.4,0.9c3.6,7.5,6.1,15.6,7.5,23.8l0.2,1l9.7-1.5l-0.2-1
				c-1.5-9.2-4.3-18.1-8.3-26.5l-0.4-0.9L222.7,94.3z"/>
			<path id="Trazado_99961" class="st11" d="M223.7,122.6l7.7-1.2c-1.5-9.1-4.2-17.9-8.2-26.2l-7,3.3
				C219.8,106.1,222.3,114.3,223.7,122.6z"/>
			<path id="Trazado_99962" class="st0" d="M47.3,150.7l-8.7,1.5l0.2,1c1.6,9.6,4.6,18.9,8.9,27.6l0.5,0.9l8.8-4.5l-0.5-0.9
				c-3.9-7.8-6.6-16.2-8-24.8l-0.2-1L47.3,150.7z"/>
			<path id="Trazado_99963" class="st11" d="M47.5,151.7l-7.7,1.3c1.6,9.5,4.6,18.7,8.9,27.3l6.9-3.5
				C51.6,168.9,48.9,160.4,47.5,151.7z"/>
			<path id="Trazado_99964" class="st0" d="M200.1,197.3c-6.4,6.8-13.8,12.6-22,17.1l-0.9,0.5l4.7,8.6l0.9-0.5
				c9.1-5,17.3-11.4,24.4-19l0.7-0.8l-7.2-6.7L200.1,197.3z"/>
			<path id="Trazado_99965" class="st11" d="M178.6,215.3l3.7,6.8c9-5,17.2-11.3,24.2-18.8l-5.7-5.3
				C194.4,204.9,186.9,210.8,178.6,215.3z"/>
			<path id="Trazado_99966" class="st0" d="M90.8,49.8c-9.4,4.8-17.9,11.1-25.2,18.6l-0.7,0.7l7.1,6.9l0.7-0.7
				c6.6-6.7,14.3-12.4,22.7-16.7l0.9-0.5l-4.5-8.8L90.8,49.8z"/>
			<path id="Trazado_99967" class="st11" d="M94.8,57.6l-3.6-6.9c-9.3,4.8-17.7,11-25,18.4l5.6,5.4C78.6,67.7,86.3,62,94.8,57.6z"/>
			<path id="Trazado_99968" class="st0" d="M178.5,50l-4,7.9l0.9,0.5c8.5,4.3,16.3,10,23,16.8l0.7,0.7l7.1-6.9l-0.7-0.7
				c-7.5-7.6-16.1-13.9-25.6-18.7l-0.9-0.5L178.5,50z"/>
			<path id="Trazado_99969" class="st11" d="M199.2,74.4l5.6-5.4c-7.4-7.5-15.9-13.8-25.3-18.5l-3.5,6.9
				C184.5,61.8,192.4,67.5,199.2,74.4z"/>
			<path id="Trazado_99970" class="st0" d="M71.6,199.4l-6.2,6.3l0.7,0.7C73.7,214,82.4,220.3,92,225l0.9,0.5l4.3-8.8l-0.9-0.5
				c-8.6-4.3-16.5-9.9-23.3-16.8l-0.7-0.7L71.6,199.4z"/>
			<path id="Trazado_99971" class="st11" d="M72.3,200.2l-5.5,5.5c7.5,7.5,16.1,13.7,25.6,18.4l3.4-7
				C87.2,212.8,79.2,207.1,72.3,200.2z"/>
			<path id="Trazado_99972" class="st0" d="M222.9,149.9c-1.2,8.1-3.5,16-6.8,23.4l-0.4,0.9l9,4.1l0.4-0.9
				c3.7-8.3,6.3-17.1,7.6-26.1l0.2-1l-9.7-1.5L222.9,149.9z"/>
			<path id="Trazado_99973" class="st11" d="M217,173.8l7.1,3.2c3.7-8.2,6.2-16.9,7.5-25.8l-7.7-1.2
				C222.8,158.3,220.4,166.2,217,173.8z"/>
			<path id="Trazado_99974" class="st0" d="M47.7,93.4c-4.6,9.2-7.7,19.2-9.2,29.4l-0.2,1l9.8,1.4l0.1-1c1.3-9.2,4.1-18.1,8.3-26.4
				l0.5-0.9l-8.8-4.3L47.7,93.4z"/>
			<path id="Trazado_99975" class="st11" d="M55.6,97.3l-7-3.4c-4.6,9.1-7.6,19-9.1,29.1l7.7,1.1C48.6,114.8,51.4,105.7,55.6,97.3z"
				/>
		</g>
		<path id="Trazado_99976" class="st0" d="M91.9,131.9c-4.2,8.5-7.1,17.6-8.5,27l-0.2,1l30.2,4.2l0.2-1c0.9-6.2,2.8-12.2,5.7-17.8
			l0.5-0.9L92.4,131L91.9,131.9z"/>
		<path id="Trazado_99977" class="st1" d="M118.3,144.8l-25.5-12.5c-4.2,8.4-7,17.4-8.4,26.7l5.7,0.8l2.7,0.4l19.7,2.8
			C113.5,156.7,115.5,150.5,118.3,144.8z"/>
		<g id="Grupo_83359" transform="translate(35.985 36.424)">
			<path id="Trazado_99978" class="st0" d="M232.5,119l-8.7,1.4l0.2,1c1.5,9,1.5,18.1,0.2,27.1l-0.1,1l9.7,1.5l0.2-1
				c1.5-10,1.4-20.1-0.2-30.1l-0.2-1L232.5,119z"/>
			<path id="Trazado_99979" class="st12" d="M226.1,135.7c0,4.3-0.3,8.7-0.9,12.9l7.7,1.2c1.4-9.9,1.4-19.9-0.2-29.8l-7.7,1.2
				C225.7,126,226.1,130.8,226.1,135.7z"/>
			<path id="Trazado_99980" class="st0" d="M39.7,121.4c-1.5,10.1-1.4,20.3,0.3,30.3l0.2,1l9.7-1.7l-0.2-1c-1.5-9-1.6-18.2-0.2-27.3
				l0.2-1l-9.8-1.4L39.7,121.4z"/>
			<path id="Trazado_99981" class="st12" d="M47.5,135.7c0-4.4,0.3-8.7,0.9-13l-7.7-1.1c-1.5,10-1.4,20.1,0.3,30l7.7-1.3
				C47.9,145.4,47.5,140.5,47.5,135.7z"/>
			<path id="Trazado_99982" class="st0" d="M179.3,213c-8.3,4.6-17.3,7.8-26.7,9.5l-1,0.2l1.8,9.7l1-0.2
				c10.4-1.9,20.4-5.4,29.7-10.5l0.9-0.5l-4.7-8.6L179.3,213z"/>
			<path id="Trazado_99983" class="st12" d="M152.8,223.5l1.4,7.7c10.3-1.9,20.2-5.4,29.3-10.4l-3.7-6.8
				C171.4,218.6,162.3,221.8,152.8,223.5z"/>
			<path id="Trazado_99984" class="st0" d="M121.6,38.7c-10.3,1.6-20.2,4.8-29.5,9.6l-0.9,0.5l4.5,8.7l0.9-0.5
				c8.3-4.3,17.3-7.2,26.5-8.6l1-0.2l-1.5-9.7L121.6,38.7z"/>
			<path id="Trazado_99985" class="st12" d="M122.9,47.4l-1.2-7.7c-10.2,1.6-20,4.8-29.2,9.5l3.6,6.9
				C104.5,51.8,113.6,48.9,122.9,47.4z"/>
			<path id="Trazado_99986" class="st0" d="M205.3,66.9L199,73l0.7,0.7c6.8,6.9,12.5,14.9,16.7,23.7l0.4,0.9l8.9-4.2l-0.4-0.9
				c-4.7-9.8-11-18.7-18.6-26.4l-0.7-0.7L205.3,66.9z"/>
			<path id="Trazado_99987" class="st12" d="M217.4,97l7-3.3c-4.6-9.7-10.9-18.5-18.4-26.1l-5.6,5.4C207.4,80,213.1,88.2,217.4,97z"
				/>
			<path id="Trazado_99988" class="st0" d="M56.4,174.5l-7.9,4l0.5,0.9c4.6,9.2,10.6,17.7,17.9,25l0.7,0.7l7-6.9l-0.7-0.7
				c-6.5-6.6-11.9-14.2-16.1-22.5l-0.5-0.9L56.4,174.5z"/>
			<path id="Trazado_99989" class="st12" d="M56.9,175.5l-6.9,3.5c4.6,9.1,10.5,17.5,17.7,24.8l5.5-5.5
				C66.5,191.5,61,183.9,56.9,175.5z"/>
			<path id="Trazado_99990" class="st0" d="M217.3,172c-3.9,8.6-9.1,16.5-15.5,23.4l-0.7,0.8l7.2,6.7l0.7-0.8
				c7.1-7.7,12.9-16.5,17.2-26l0.4-0.9l-9-4.1L217.3,172z"/>
			<path id="Trazado_99991" class="st12" d="M202.6,196.1l5.7,5.3c7-7.6,12.8-16.3,17-25.7l-7.1-3.2
				C214.3,181.1,209,189.1,202.6,196.1z"/>
			<path id="Trazado_99992" class="st0" d="M66.3,67.5C59.3,74.7,53.4,83,48.9,92l-0.5,0.9l8.8,4.3l0.5-0.9c4-8.1,9.3-15.5,15.6-22
				l0.7-0.7L67,66.7L66.3,67.5z"/>
			<path id="Trazado_99993" class="st12" d="M72.6,73.6L67,68.2c-6.9,7.2-12.7,15.3-17.2,24.3l7,3.4C61,87.7,66.3,80.1,72.6,73.6z"
				/>
			<path id="Trazado_99994" class="st0" d="M150.9,39.6l-1.4,8.7l1,0.2c9.1,1.4,17.9,4.3,26.1,8.4l0.9,0.5l4.5-8.8l-0.9-0.5
				c-9.1-4.6-18.9-7.8-29-9.4l-1-0.2L150.9,39.6z"/>
			<path id="Trazado_99995" class="st12" d="M177.1,55.9l3.5-6.9c-9-4.6-18.7-7.7-28.7-9.3l-1.2,7.7
				C159.9,48.9,168.8,51.7,177.1,55.9z"/>
			<path id="Trazado_99996" class="st0" d="M96.3,215.3l-3.9,7.9l0.9,0.5c9,4.4,18.6,7.5,28.5,9l1,0.2l1.5-9.7l-1-0.2
				c-8.9-1.4-17.5-4.1-25.6-8.1l-0.9-0.5L96.3,215.3z"/>
			<path id="Trazado_99997" class="st12" d="M97.2,215.7l-3.4,7c8.9,4.4,18.4,7.4,28.2,8.9l1.2-7.7
				C114.1,222.5,105.4,219.8,97.2,215.7z"/>
			<path id="Trazado_99998" class="st0" d="M196.7,124.7l-6.5,1l0.2,1c0.9,5.5,1,11.1,0.2,16.6l-0.1,1l7.5,1.1l0.2-1
				c0.4-2.9,0.6-5.8,0.6-8.8c0-3.4-0.3-6.8-0.8-10.2l-0.2-1L196.7,124.7z"/>
			<path id="Trazado_99999" class="st12" d="M192.2,135.7c0,2.6-0.2,5.2-0.6,7.8l5.4,0.8c0.9-6.2,0.8-12.5-0.2-18.6l-5.4,0.9
				C192,129.5,192.2,132.6,192.2,135.7z"/>
			<path id="Trazado_100000" class="st0" d="M75.6,126.5c-0.9,6.3-0.9,12.8,0.1,19.1l0.2,1l7.4-1.3l-0.2-1
				c-0.9-5.5-0.9-11.2-0.1-16.7l0.2-1l-7.5-1.1L75.6,126.5z"/>
			<path id="Trazado_100001" class="st12" d="M81.4,135.7c0-2.8,0.2-5.5,0.6-8.3l-5.4-0.8c-0.9,6.2-0.9,12.5,0.1,18.8l5.4-0.9
				C81.6,141.5,81.4,138.6,81.4,135.7z"/>
			<path id="Trazado_100002" class="st0" d="M163,183.3c-5.1,2.8-10.7,4.8-16.4,5.8l-1,0.2l1.3,7.4l1-0.2c6.6-1.2,12.9-3.4,18.7-6.6
				l0.9-0.5l-3.6-6.6L163,183.3z"/>
			<path id="Trazado_100003" class="st12" d="M146.8,190.2l1,5.4c6.4-1.2,12.7-3.4,18.4-6.5l-2.6-4.8
				C158.3,187.1,152.6,189.1,146.8,190.2z"/>
			<path id="Trazado_100004" class="st0" d="M127.2,74.5c-6.4,1-12.7,3-18.5,6l-0.9,0.5l3.5,6.7l0.9-0.5c5.1-2.6,10.5-4.4,16.2-5.3
				l1-0.2l-1.2-7.5L127.2,74.5z"/>
			<path id="Trazado_100005" class="st12" d="M128.2,80.9l-0.9-5.4c-6.3,1-12.5,3-18.2,5.9l2.5,4.9
				C116.9,83.6,122.4,81.8,128.2,80.9z"/>
			<path id="Trazado_100006" class="st0" d="M179.4,92.1l-4.7,4.6l0.7,0.7c4.2,4.2,7.7,9.1,10.3,14.5l0.4,0.9l6.8-3.2l-0.5-0.9
				c-3-6.1-6.9-11.7-11.7-16.5l-0.7-0.7L179.4,92.1z"/>
			<path id="Trazado_100007" class="st12" d="M186.7,111.5l5-2.3c-2.9-6-6.8-11.5-11.5-16.3l-3.9,3.8C180.5,101,184,106,186.7,111.5
				z"/>
			<path id="Trazado_100008" class="st0" d="M86.7,159.3l-5.8,2.9l0.5,0.9c2.9,5.8,6.7,11.1,11.2,15.8l0.7,0.7l5.4-5.3l-0.7-0.7
				c-4-4.1-7.3-8.8-9.8-13.9l-0.5-0.9L86.7,159.3z"/>
			<path id="Trazado_100009" class="st12" d="M87.1,160.2l-4.9,2.5c2.8,5.7,6.5,11,11,15.5l3.9-3.9
				C93.1,170.1,89.7,165.4,87.1,160.2z"/>
			<path id="Trazado_100010" class="st0" d="M186.4,157.9c-2.4,5.3-5.6,10.2-9.5,14.4l-0.7,0.8l5.5,5.1l0.7-0.8
				c4.5-4.9,8.1-10.4,10.8-16.4l0.4-0.9l-6.9-3.1L186.4,157.9z"/>
			<path id="Trazado_100011" class="st12" d="M177.7,173l4,3.7c4.4-4.8,8-10.2,10.6-16.2l-5-2.3C185,163.7,181.7,168.7,177.7,173z"
				/>
			<path id="Trazado_100012" class="st0" d="M92.4,92.5c-4.4,4.5-8.1,9.7-10.9,15.3l-0.5,0.9l6.8,3.3l0.5-0.9
				c2.5-4.9,5.7-9.5,9.6-13.4l0.7-0.7l-5.5-5.2L92.4,92.5z"/>
			<path id="Trazado_100013" class="st12" d="M97.1,97l-4-3.8c-4.3,4.5-7.9,9.5-10.7,15.1l4.9,2.4C89.9,105.7,93.2,101.1,97.1,97z"
				/>
			<path id="Trazado_100014" class="st0" d="M145.3,75.3l-1,6.4l1,0.2c5.5,0.9,10.9,2.6,15.9,5.1l0.9,0.5l3.4-6.7l-0.9-0.5
				c-5.7-2.9-11.9-4.9-18.2-5.9l-1-0.2L145.3,75.3z"/>
			<path id="Trazado_100015" class="st12" d="M161.7,86.1l2.5-4.9c-5.6-2.8-11.7-4.8-17.9-5.8l-0.9,5.4
				C151.1,81.8,156.6,83.6,161.7,86.1z"/>
			<path id="Trazado_100016" class="st0" d="M111.2,184.8l-2.9,5.9l0.9,0.5c5.7,2.8,11.7,4.8,17.9,5.7l1,0.2l1.1-7.5l-1-0.2
				c-5.5-0.9-10.8-2.6-15.7-5l-0.9-0.5L111.2,184.8z"/>
			<path id="Trazado_100017" class="st12" d="M112.1,185.3l-2.4,4.9c5.6,2.8,11.5,4.7,17.6,5.6l0.8-5.4
				C122.6,189.5,117.2,187.8,112.1,185.3z"/>
		</g>
		<g id="Grupo_83360" transform="translate(87.286 85.542)">
			<path id="Trazado_100018" class="st0" d="M76,25.3l-1,0.2l1.2,7.5l1-0.2c5.5-0.9,11.2-0.9,16.7,0l1,0.2l1.2-7.5l-1-0.2
				C88.7,24.4,82.3,24.4,76,25.3L76,25.3z"/>
			<path id="Trazado_100019" class="st0" d="M85.5,31.1c2.9,0,5.7,0.2,8.5,0.7l0.9-5.4c-6.2-1-12.6-1-18.8,0l0.9,5.4
				C79.8,31.4,82.7,31.1,85.5,31.1z"/>
			<path id="Trazado_100020" class="st0" d="M95.2,140.1c-6,1.1-12.1,1.2-18.1,0.2l-1-0.2l-1.1,7.5l1,0.2c6.8,1.1,13.8,1,20.6-0.3
				l1-0.2l-1.4-7.4L95.2,140.1z"/>
			<path id="Trazado_100021" class="st0" d="M85.5,142c-2.9,0-5.7-0.2-8.5-0.7l-0.8,5.4c6.7,1,13.6,1,20.2-0.3l-1-5.4
				C92.1,141.7,88.8,142,85.5,142z"/>
			<path id="Trazado_100022" class="st0" d="M140,59.2l-5.9,2.8l0.5,0.9c2.2,4.6,3.8,9.5,4.6,14.6l0.2,1l7.5-1.2l-0.2-1
				c-1-5.8-2.7-11.4-5.3-16.6l-0.4-0.9L140,59.2z"/>
			<path id="Trazado_100023" class="st0" d="M140.1,77.3l5.4-0.9c-0.9-5.7-2.7-11.2-5.2-16.3l-5,2.4
				C137.7,67.2,139.3,72.2,140.1,77.3z"/>
			<path id="Trazado_100024" class="st0" d="M30.6,94.4l-6.4,1.1l0.2,1c1,6,2.8,11.9,5.6,17.4l0.5,0.9l6.7-3.4l-0.4-0.9
				c-2.4-4.8-4-10-4.9-15.3l-0.2-1L30.6,94.4z"/>
			<path id="Trazado_100025" class="st0" d="M30.8,95.4l-5.4,0.9c1,5.9,2.8,11.7,5.5,17.1l4.9-2.5C33.3,106,31.7,100.8,30.8,95.4z"
				/>
			<path id="Trazado_100026" class="st0" d="M125.3,123.6c-3.9,4.2-8.5,7.8-13.5,10.6l-0.9,0.5l3.6,6.6l0.9-0.5
				c5.7-3.2,10.9-7.2,15.4-12l0.7-0.8l-5.5-5.2L125.3,123.6z"/>
			<path id="Trazado_100027" class="st0" d="M112.3,135l2.6,4.8c5.6-3.1,10.7-7.1,15.1-11.8l-4-3.8
				C122.1,128.6,117.4,132.2,112.3,135z"/>
			<path id="Trazado_100028" class="st0" d="M57.3,31.4c-5.9,3-11.2,6.9-15.9,11.6l-0.7,0.7l5.4,5.3l0.7-0.7
				c4.1-4.1,8.8-7.5,13.9-10.2l0.9-0.5l-3.5-6.7L57.3,31.4z"/>
			<path id="Trazado_100029" class="st0" d="M60.3,37.2l-2.5-4.9c-5.8,3-11,6.8-15.6,11.4l3.9,3.8C50.3,43.4,55.1,39.9,60.3,37.2z"
				/>
			<path id="Trazado_100030" class="st0" d="M112.1,31.7l-3,5.8L110,38c5.2,2.6,10,6.1,14.1,10.3l0.7,0.7l5.4-5.3l-0.7-0.7
				c-4.7-4.7-10.1-8.7-16.1-11.7l-0.9-0.5L112.1,31.7z"/>
			<path id="Trazado_100031" class="st0" d="M124.9,47.5l3.9-3.8c-4.6-4.7-10-8.6-15.8-11.5l-2.5,4.9
				C115.8,39.8,120.7,43.3,124.9,47.5z"/>
			<path id="Trazado_100032" class="st0" d="M45.4,124.8l-4.6,4.6l0.7,0.7c4.8,4.8,10.3,8.8,16.3,11.8l0.9,0.5l3.3-6.8l-0.9-0.5
				c-5.3-2.7-10.1-6.2-14.3-10.4l-0.7-0.7L45.4,124.8z"/>
			<path id="Trazado_100033" class="st0" d="M46.2,125.5l-3.9,3.9c4.7,4.7,10.1,8.6,16,11.6l2.4-4.9
				C55.3,133.4,50.4,129.8,46.2,125.5z"/>
			<path id="Trazado_100034" class="st0" d="M139.3,94.3c-0.7,5-2.1,9.8-4.2,14.4l-0.4,0.9l6.9,3.1l0.4-0.9
				c2.3-5.2,3.9-10.7,4.8-16.4l0.1-1l-7.5-1.1L139.3,94.3z"/>
			<path id="Trazado_100035" class="st0" d="M136.1,109.1l5,2.3c2.3-5.1,3.9-10.6,4.7-16.1l-5.4-0.8
				C139.6,99.5,138.2,104.4,136.1,109.1z"/>
			<path id="Trazado_100036" class="st0" d="M30.1,58.8c-2.9,5.8-4.9,12-5.8,18.4l-0.2,1l7.5,1l0.2-1c0.9-5.6,2.6-11.1,5.1-16.1
				l0.5-0.9l-6.8-3.3L30.1,58.8z"/>
			<path id="Trazado_100037" class="st0" d="M36,61.7L31,59.3c-2.9,5.7-4.8,11.8-5.7,18.1l5.4,0.8C31.6,72.4,33.4,66.9,36,61.7z"/>
		</g>
		<path id="Trazado_100038" class="st0" d="M164.1,116.3l-1,0.2l8.7,54.7h2l8.7-54.7l-1-0.2C175.7,115.4,169.9,115.4,164.1,116.3
			L164.1,116.3z"/>
		<path id="Trazado_100039" class="st1" d="M172.8,170.9L172.8,170.9v0.1l8.5-53.7c-5.7-0.9-11.4-0.9-17.1,0L172.8,170.9
			L172.8,170.9z"/>
		<path id="Trazado_100040" class="st0" d="M171.6,171.7l-8.6,56l1,0.2c6.2,1,12.6,0.9,18.8-0.2l1-0.2l-10.2-55.7L171.6,171.7z"/>
		<path id="Trazado_100041" class="st1" d="M172.6,172.1l0-0.1l0,0l-8.4,54.9c6.1,0.9,12.3,0.9,18.4-0.2L172.6,172.1L172.6,172.1z"
			/>
		<path id="Trazado_100042" class="st0" d="M227.3,161.9l-54.2,8.6l-0.1,2l55.5,8.5l0.1-1c0.8-5.7,0.8-11.6-0.2-17.3l-0.2-1
			L227.3,161.9z"/>
		<path id="Trazado_100043" class="st10" d="M173.3,171.6L173.3,171.6l-0.1,0l54.5,8.3c0.4-2.6,0.6-5.2,0.6-7.8
			c0-3.1-0.3-6.1-0.8-9.1L173.3,171.6L173.3,171.6z"/>
		<path id="Trazado_100044" class="st0" d="M117,163.6c-0.4,2.8-0.6,5.6-0.6,8.4c0,3,0.2,6,0.7,8.9l0.2,1l55.1-9.6l0-2l-55.3-7.8
			L117,163.6z"/>
		<path id="Trazado_100045" class="st10" d="M172.1,171.4l0.1,0h0l-54.2-7.6c-0.9,5.7-0.8,11.4,0.1,17L172.1,171.4L172.1,171.4z"/>
		<path id="Trazado_100046" class="st0" d="M222.3,147.1L173,170.4l0.6,1.9l55-8.7l-0.2-1c-0.9-5.2-2.5-10.3-4.8-15.1l-0.4-0.9
			L222.3,147.1z"/>
		<path id="Trazado_100047" class="st1" d="M227.4,162.9c-0.9-5.1-2.4-10.1-4.7-14.8l-49.3,23.3L227.4,162.9z"/>
		<path id="Trazado_100048" class="st0" d="M117.9,179.9l-1,0.2l0.2,1c0.9,5.5,2.6,10.8,5,15.8l0.5,0.9l49.9-25.3l-0.6-1.9
			L117.9,179.9z"/>
		<path id="Trazado_100049" class="st1" d="M118.1,180.9c0.9,5.4,2.5,10.6,5,15.5l49-24.9L118.1,180.9z"/>
		<path id="Trazado_100050" class="st0" d="M171.8,172.3l10.1,55.5l1-0.2c6-1.1,11.7-3.1,17.1-6.1l0.9-0.5l-27.1-49.5L171.8,172.3z"
			/>
		<path id="Trazado_100051" class="st10" d="M182.8,226.6c5.9-1.1,11.5-3.1,16.7-5.9l-26.7-48.6L182.8,226.6z"/>
		<path id="Trazado_100052" class="st0" d="M164,116.3c-5.9,0.9-11.5,2.8-16.8,5.5l-0.9,0.5l25.4,49.1l1.9-0.6l-8.6-54.6L164,116.3z
			"/>
		<path id="Trazado_100053" class="st10" d="M164.2,117.4c-5.7,0.9-11.3,2.7-16.5,5.4l24.9,48.2L164.2,117.4z"/>
		<path id="Trazado_100054" class="st0" d="M211.5,132.4l-39,38.1l1.2,1.7l50.4-23.8l-0.5-0.9c-2.7-5.6-6.3-10.7-10.7-15.1l-0.7-0.7
			L211.5,132.4z"/>
		<path id="Trazado_100055" class="st10" d="M173.2,171.2l49.5-23.3c-2.7-5.5-6.2-10.5-10.5-14.8L173.2,171.2z"/>
		<path id="Trazado_100056" class="st0" d="M122.6,195.7l-0.9,0.5l0.5,0.9c2.6,5.3,6.1,10.2,10.2,14.4l0.7,0.7l39.8-39.7l-1.2-1.7
			L122.6,195.7z"/>
		<path id="Trazado_100057" class="st10" d="M123.1,196.6c2.6,5.2,5.9,10,10,14.1l39.1-38.9L123.1,196.6z"/>
		<path id="Trazado_100058" class="st0" d="M172.2,172.5l27,49.5l0.9-0.5c5.2-2.9,10-6.6,14-11l0.7-0.8l-41.1-38.5L172.2,172.5z"/>
		<path id="Trazado_100059" class="st1" d="M199.6,220.6c5.1-2.8,9.8-6.5,13.8-10.8L173.1,172L199.6,220.6z"/>
		<path id="Trazado_100060" class="st0" d="M147.1,121.8c-5.3,2.7-10.2,6.3-14.4,10.6l-0.7,0.7l39.8,38.6l1.6-1.2L148,121.4
			L147.1,121.8z"/>
		<path id="Trazado_100061" class="st1" d="M147.6,122.8c-5.2,2.7-10,6.2-14.2,10.4l39,37.9L147.6,122.8z"/>
		<path id="Trazado_100062" class="st0" d="M196.9,122.2l-24.6,48.5l1.6,1.2l39.8-38.7l-0.7-0.7c-4.3-4.3-9.2-7.9-14.6-10.6
			l-0.9-0.5L196.9,122.2z"/>
		<path id="Trazado_100063" class="st1" d="M212.1,133.1c-4.2-4.2-9.1-7.8-14.4-10.5l-24.6,48.5L212.1,133.1z"/>
		<path id="Trazado_100064" class="st0" d="M132.7,210.4l-0.7,0.7l0.7,0.7c4.3,4.4,9.3,8,14.8,10.8l0.9,0.5l24.8-50.7l-1.7-1.2
			L132.7,210.4z"/>
		<path id="Trazado_100065" class="st1" d="M172.3,171.9L172.3,171.9L172.3,171.9l-38.9,39.2c4.3,4.3,9.2,7.9,14.6,10.6L172.3,171.9
			L172.3,171.9z"/>
		<path id="Trazado_100066" class="st0" d="M172.5,172.6l41.3,38.3l0.7-0.8c4.1-4.4,7.4-9.5,9.8-15l0.4-0.9L173.6,171L172.5,172.6z"
			/>
		<path id="Trazado_100067" class="st10" d="M213.7,209.5c4-4.4,7.2-9.3,9.7-14.7l-50.2-22.9L213.7,209.5z"/>
		<path id="Trazado_100068" class="st0" d="M132.3,132.8c-4,4.1-7.4,8.8-9.9,13.9l-0.5,0.9l49.9,24.4l1.2-1.7L133.1,132L132.3,132.8
			z"/>
		<path id="Trazado_100069" class="st10" d="M133.1,133.5c-3.9,4-7.2,8.7-9.8,13.7l48.9,23.9L133.1,133.5z"/>
		<path id="Trazado_100070" class="st0" d="M180.4,117.2l-8.4,53.6l1.9,0.6l25.2-49.3l-0.9-0.5c-5.2-2.6-10.8-4.4-16.5-5.3l-1-0.2
			L180.4,117.2z"/>
		<path id="Trazado_100071" class="st10" d="M197.7,122.6c-5.1-2.6-10.6-4.3-16.2-5.2l-8.4,53.6L197.7,122.6z"/>
		<path id="Trazado_100072" class="st0" d="M147.2,221.2l-0.4,0.9l0.9,0.5c5.1,2.6,10.7,4.3,16.3,5.2l1,0.2l8.4-55.7l-1.9-0.6
			L147.2,221.2z"/>
		<path id="Trazado_100073" class="st10" d="M148.1,221.7c5.1,2.5,10.5,4.3,16,5.1l8.3-54.7L148.1,221.7z"/>
		<path id="Trazado_100074" class="st0" d="M173,172.7l50.9,23.3l0.4-0.9c2.1-4.8,3.6-9.8,4.3-14.9l0.1-1l-55.2-8.4L173,172.7z"/>
		<path id="Trazado_100075" class="st1" d="M223.4,194.7c2.1-4.7,3.5-9.6,4.2-14.7l-54.2-8.2L223.4,194.7z"/>
		<path id="Trazado_100076" class="st0" d="M122.3,146.8c-2.6,5.3-4.5,10.9-5.3,16.8l-0.2,1l55.2,7.7l0.6-1.9l-49.8-24.4
			L122.3,146.8z"/>
		<path id="Trazado_100077" class="st1" d="M123.3,147.3c-2.6,5.2-4.4,10.7-5.2,16.4l54.1,7.5L123.3,147.3z"/>
		<path id="Trazado_100078" class="st0" d="M156.9,171.4c0,8.8,7.1,16,16,16c8.8,0,16-7.1,16-16c0-8.8-7.1-16-16-16c0,0,0,0,0,0
			C164,155.4,156.9,162.6,156.9,171.4z"/>
		<path id="Trazado_100079" class="st12" d="M187.8,171.4c0,8.3-6.7,14.9-14.9,14.9s-14.9-6.7-14.9-14.9c0-8.3,6.7-14.9,14.9-14.9
			c0,0,0,0,0,0C181.1,156.4,187.8,163.1,187.8,171.4z"/>
		<path id="Trazado_100080" class="st0" d="M163.8,171.4c0,5,4,9,9,9c5,0,9-4,9-9c0-5-4-9-9-9C167.9,162.4,163.8,166.4,163.8,171.4z
			"/>
		<path id="Trazado_100081" class="st11" d="M180.8,171.4c0,4.4-3.6,8-8,8s-8-3.6-8-8c0-4.4,3.6-8,8-8c0,0,0,0,0,0
			C177.3,163.4,180.8,167,180.8,171.4z"/>
		<path id="Trazado_100082" class="st10" d="M209.6,72.3c-1.1,0-1.7-0.1-2.8-0.1c-1,0-1.8,0.1-2.8,0.1c0-0.2,0-0.3,0.1-0.5
			c0.5-0.1,0.7-0.1,1-0.1c0.5-0.1,0.7-0.5,0.8-1.1c0.2-0.8,0.3-1.9,0.6-3.6c0.2-1.5,0.5-2.9,0.5-3.4c0-0.3,0-0.6-0.3-0.7
			c-0.3-0.1-0.6-0.1-0.9-0.1c0-0.2,0-0.3,0.1-0.5c1.2-0.1,2.5-0.4,3.6-0.8c0.1,0,0.2,0,0.2,0.1c-0.2,0.7-0.3,1.3-0.5,2.8
			c-0.2,1.5-0.7,4.6-0.9,6c-0.1,0.7-0.1,1.1,0.4,1.2c0.3,0.1,0.6,0.1,1,0.1C209.8,72,209.7,72.2,209.6,72.3z"/>
		<path id="Trazado_100083" class="st10" d="M237.3,256.6c-0.1,0-0.3-0.3-0.3-0.4c1.3-1.6,2.6-2.3,3.8-2.3c1.5,0,2.7,1.2,2.7,2.7
			c0,0,0,0.1,0,0.1c0,1.4-0.7,2.5-2.5,4.1c-0.7,0.6-1.4,1.2-2.3,1.9c0,0,0,0.1,0,0.1c0.6,0,2.7,0,3.5,0c0.4,0,0.8-0.2,1.4-1.2
			c0.1-0.1,0.4,0.1,0.4,0.2c-0.3,0.9-0.8,1.8-1.3,2.6c-0.1,0.2-0.4,0.3-1,0.3c-1.3,0-3.4-0.1-4.8-0.1c-0.4,0-1,0-1.3,0
			c0-0.2,0-0.3,0.1-0.5c1.3-0.9,2.6-1.9,3.7-3c1.1-0.9,1.7-2.2,1.7-3.7c0.1-1-0.6-1.8-1.6-1.9c0,0-0.1,0-0.1,0
			C238.7,255.6,237.9,256,237.3,256.6z"/>
		<path id="Trazado_100084" class="st10" d="M177.9,278.6c0,1.1-0.7,1.8-2,2.5c0,0-0.1,0.1,0,0.1c1.3,0.3,2.2,1.4,2.3,2.7
			c0,1.4-0.9,2.7-2.2,3.3c-0.8,0.4-1.7,0.7-2.6,0.7c-0.7,0-1.4-0.1-2.1-0.4c-0.3-0.1-0.5-0.4-0.6-0.7c-0.1-0.6-0.1-1.1,0-1.7
			c0.1-0.1,0.3-0.2,0.4-0.2c0.1,0.8,0.5,1.4,1.1,1.9c0.4,0.3,1,0.5,1.5,0.5c1.3,0,2.1-1.1,2.1-2.5c0.1-1.1-0.7-2.2-1.9-2.3
			c-0.1,0-0.2,0-0.3,0c-0.2,0-0.4,0-0.5,0c0.1-0.3,0.2-0.6,0.4-0.8c1.8-0.3,2.5-1,2.5-2.1c0.1-0.9-0.6-1.7-1.4-1.8
			c-0.1,0-0.2,0-0.2,0c-0.8,0-1.5,0.4-2.1,0.9c-0.1,0-0.3-0.3-0.3-0.4c0.9-0.9,2.1-2,3.6-2C176.7,276.3,177.8,277.2,177.9,278.6
			C177.9,278.5,177.9,278.6,177.9,278.6z"/>
		<path id="Trazado_100085" class="st10" d="M263.6,110.2C263.5,110.2,263.5,110.2,263.6,110.2l-0.6,3.4c-0.6,0-1.9,0.1-2.4,0.2
			l0.6-3.4c0,0,0-0.1-0.1-0.1c-1.4,0-2.8,0-4.2,0c0-0.2,0.1-0.5,0.2-0.7c1.4-1.7,5.4-6,6.2-6.8c0.1,0,0.3,0,0.6,0c0.3,0,0.6,0,0.7,0
			c-0.2,1.2-0.7,4.5-1,6.3c0,0,0,0.1,0.1,0.1l1.8-0.1c-0.1,0.4-0.2,0.8-0.3,1.2L263.6,110.2z M261.3,109.1
			C261.3,109.1,261.4,109,261.3,109.1l0.9-4.4c0,0-0.1,0-0.1,0c0,0,0,0,0,0c-0.5,0.5-2.9,3.3-3.7,4.3c0,0,0,0.1,0,0.1L261.3,109.1z"
			/>
		<path id="Trazado_100086" class="st10" d="M140.7,61.7c-0.2,0.5-0.4,1-0.8,1.5c-0.2,0.4-0.7,0.6-1.1,0.6c-1,0-1.8-0.1-2.2-0.1
			c-0.1,0-0.1,0.1-0.2,0.1c-0.2,0.3-0.3,0.6-0.5,1c0,0,0,0.1,0.1,0.2c0.8,0.4,2.6,1.3,3.2,1.8c0.9,0.5,1.5,1.4,1.5,2.5
			c0,2.6-2.6,3.9-4.4,3.9c-1.1,0.1-2.2-0.4-2.9-1.3c-0.1-0.2-0.1-0.3-0.1-0.5c0.1-0.4,0.3-0.8,0.6-1.2c0.1,0,0.1-0.1,0.2-0.1
			c0.6,1.1,1.5,2.3,3,2.3c0.8,0.1,1.6-0.6,1.6-1.4c0-0.1,0-0.2,0-0.3c0-0.8-0.5-1.6-1.2-2c-0.8-0.6-2.5-1.5-2.9-1.8
			c0-0.2,0-0.4,0.1-0.6c0.6-1.4,1.2-2.7,1.9-4c0.1-0.2,0.3-0.4,0.5-0.4c0.3,0,1.4,0.1,2.4,0.1c0.3,0,0.7-0.1,1-0.3
			C140.5,61.5,140.7,61.6,140.7,61.7z"/>
		<path id="Trazado_100087" class="st13" d="M281.7,170.7c0,0.1,0,0.1,0.1,0.1c0.6-0.4,1.4-0.7,2.1-0.7c1.3,0,2.4,1,2.4,2.8
			c0,1.8-1,3.4-2.6,4.1c-0.6,0.2-1.2,0.4-1.8,0.4c-2.4,0-3.4-1.6-3.4-3.5c0-4.1,4.2-7.3,8.2-8.3c0.1,0,0.2,0.4,0.2,0.4
			C284.7,167,282.8,168.6,281.7,170.7z M281.5,171.5c-0.1,0.1-0.2,0.2-0.2,0.3c-0.3,0.8-0.4,1.5-0.4,2.3c0,1.9,0.6,2.7,1.4,2.7
			c0.9,0,1.6-1.5,1.6-3.1c0-1.6-0.6-2.4-1.6-2.4C282.1,171.2,281.8,171.3,281.5,171.5L281.5,171.5z"/>
		<path id="Trazado_100088" class="st10" d="M111.6,254.7c-0.9,2-5.5,9.4-6.2,10.7c0,0-0.1,0.1-0.1,0.1c-0.2-0.1-0.4-0.2-0.6-0.3
			c0-0.1,0-0.2,0-0.3c1.2-1.9,4.3-6.6,5.1-8.2c0,0,0-0.1,0-0.1c-0.6,0-3.3,0-4.6,0c-0.5,0.1-0.8,0.3-1.3,1.2c-0.1,0-0.5-0.2-0.5-0.2
			c0.5-1.1,0.9-2.2,1.2-3.3c0.4,0.1,0.9,0.2,1.4,0.2h3.7c0.7,0,1.5,0,1.9,0C111.6,254.4,111.6,254.7,111.6,254.7z"/>
		<path id="Trazado_100089" class="st10" d="M70.9,203.7c0,1.1-0.8,1.6-2.1,2.5c-0.1,0-0.1,0.1,0,0.1c1.2,0.9,1.8,1.8,1.9,2.7
			c0,1.9-1.9,3.4-4.2,3.4c-2.4,0-3.3-1.3-3.3-2.4c0-0.9,0.6-1.5,2.7-2.8c0,0,0,0,0-0.1c-0.8-0.6-1.3-1.4-1.4-2.4
			c0-1.1,0.5-2,1.4-2.6c0.7-0.4,1.5-0.7,2.3-0.7C69.9,201.5,70.9,202.5,70.9,203.7z M68.5,210.2c0-0.8-0.5-1.4-2.1-2.7
			c0,0-0.1-0.1-0.1,0c-0.8,0.5-1.2,1.4-1.3,2.3c-0.1,1,0.7,1.9,1.7,2c0.1,0,0.1,0,0.2,0c0.8,0,1.5-0.6,1.6-1.4
			C68.5,210.4,68.5,210.3,68.5,210.2L68.5,210.2z M66.4,203.5c0,0.9,0.5,1.4,1.8,2.4c0,0,0.1,0,0.1,0c0.6-0.5,0.9-1.3,0.9-2
			c0.1-0.9-0.5-1.7-1.4-1.9c0,0-0.1,0-0.1,0C67,202.1,66.4,202.7,66.4,203.5C66.4,203.5,66.4,203.5,66.4,203.5L66.4,203.5z"/>
		<path id="Trazado_100090" class="st10" d="M77.5,114.8c2.2-0.9,3.9-2.5,5-4.5c0,0,0-0.1-0.1-0.1c-0.7,0.4-1.5,0.6-2.2,0.7
			c-1.5,0-2.5-1.3-2.5-2.8c0-1.7,0.9-3.2,2.4-3.9c0.6-0.3,1.4-0.5,2.1-0.5c2.3,0,3.3,1.7,3.3,3.6c0,3.8-3.4,7-7.9,8
			C77.7,115.3,77.5,114.9,77.5,114.8z M80.1,107.2c0,1.9,0.8,2.6,1.8,2.6c0.2,0,0.5-0.1,0.7-0.2c0.1-0.1,0.2-0.2,0.3-0.3
			c0.3-0.8,0.4-1.6,0.4-2.4c0-1.7-0.4-2.6-1.4-2.6C81,104.2,80.1,105.6,80.1,107.2z"/>
		<g id="Grupo_83361" transform="translate(309.303 206.431)">
			<path id="Trazado_100091" class="st10" d="M-33.5,1C-34.5,1-35.2,1-36.2,1C-37.2,1-38,1-39,1c0-0.2,0-0.3,0.1-0.5
				c0.5,0,0.7-0.1,1-0.1c0.5-0.1,0.7-0.5,0.8-1.1c0.2-0.8,0.3-1.9,0.6-3.6c0.2-1.5,0.5-2.9,0.5-3.4c0-0.3,0-0.6-0.3-0.7
				c-0.3-0.1-0.6-0.1-0.9-0.1c0-0.2,0-0.3,0.1-0.5c1.2-0.1,2.5-0.4,3.6-0.8c0.1,0,0.3,0,0.3,0.1c-0.2,0.7-0.3,1.3-0.5,2.8
				c-0.2,1.5-0.7,4.6-0.9,6c-0.1,0.7-0.1,1.1,0.4,1.2c0.3,0.1,0.6,0.1,1,0.1C-33.4,0.7-33.4,0.9-33.5,1z"/>
			<path id="Trazado_100092" class="st10" d="M-22.4-6.1c0,2.4-0.9,5.5-3,6.7C-26,1-26.8,1.2-27.5,1.2c-2.3,0-3.1-1.6-3.1-3.7
				c0-2,0.7-5.1,2.7-6.4c0.7-0.5,1.6-0.8,2.5-0.8C-23.3-9.8-22.4-8.1-22.4-6.1z M-26.7-8.7c-1,1.2-1.6,4.5-1.6,6.9
				c0,1.9,0.4,2.5,1.1,2.5c0.3,0,0.5-0.1,0.7-0.3c1-1.1,1.7-4.9,1.7-7.4c0-2-0.6-2.1-1.1-2.1C-26.2-9.2-26.5-9-26.7-8.7L-26.7-8.7z"
				/>
		</g>
		<g id="Grupo_83362" transform="translate(6.864 165.893)">
			<path id="Trazado_100093" class="st10" d="M52.5,12.6c-1.1,0-1.7-0.1-2.8-0.1c-1,0-1.8,0.1-2.8,0.1c0-0.2,0-0.3,0.1-0.5
				c0.5-0.1,0.7-0.1,1-0.1c0.5-0.1,0.7-0.5,0.8-1.1c0.2-0.8,0.3-1.9,0.6-3.6c0.2-1.5,0.5-2.9,0.5-3.4c0-0.3,0-0.6-0.3-0.7
				c-0.3-0.1-0.6-0.1-0.9-0.1c0-0.2,0-0.3,0.1-0.5c1.2-0.1,2.5-0.4,3.6-0.8c0.1,0,0.3,0,0.3,0.1c-0.2,0.7-0.3,1.3-0.5,2.8
				c-0.2,1.5-0.7,4.6-0.9,6c-0.1,0.7-0.1,1.1,0.4,1.2c0.3,0.1,0.6,0.1,1,0.1C52.6,12.2,52.6,12.4,52.5,12.6z"/>
			<path id="Trazado_100094" class="st10" d="M61.5,12.6c-1.1,0-1.7-0.1-2.8-0.1c-1,0-1.8,0.1-2.8,0.1c0-0.2,0-0.3,0.1-0.5
				c0.5-0.1,0.7-0.1,1-0.1c0.5-0.1,0.7-0.5,0.8-1.1c0.2-0.8,0.3-1.9,0.6-3.6c0.2-1.5,0.5-2.9,0.5-3.4c0-0.3,0-0.6-0.3-0.7
				c-0.3-0.1-0.6-0.1-0.9-0.1c0-0.2,0-0.3,0.1-0.5c1.2-0.1,2.5-0.4,3.6-0.8c0.1,0,0.3,0,0.3,0.1c-0.2,0.7-0.3,1.3-0.5,2.8
				c-0.2,1.5-0.7,4.6-0.9,6c-0.1,0.7-0.1,1.1,0.4,1.2c0.3,0.1,0.6,0.1,1,0.1C61.6,12.2,61.6,12.4,61.5,12.6z"/>
		</g>
		<g id="Grupo_83363" transform="translate(68.255 39.469)">
			<path id="Trazado_100095" class="st10" d="M35.1,48.5c-1.1,0-1.7-0.1-2.8-0.1c-1,0-1.8,0.1-2.8,0.1c0-0.2,0-0.3,0.1-0.5
				c0.5-0.1,0.7-0.1,1-0.1c0.5-0.1,0.7-0.5,0.8-1.1c0.2-0.8,0.3-1.9,0.6-3.6c0.2-1.5,0.5-2.9,0.5-3.4c0-0.3,0-0.6-0.3-0.7
				c-0.3-0.1-0.6-0.1-0.9-0.1c0-0.2,0-0.3,0.1-0.5c1.2-0.1,2.5-0.4,3.6-0.8c0.1,0,0.3,0,0.3,0.1c-0.2,0.7-0.3,1.3-0.5,2.8
				c-0.2,1.5-0.7,4.6-0.9,6c-0.1,0.7-0.1,1.1,0.4,1.2c0.3,0.1,0.6,0.1,1,0.1C35.2,48.2,35.1,48.4,35.1,48.5z"/>
			<path id="Trazado_100096" class="st10" d="M39,40.4c-0.1,0-0.3-0.3-0.3-0.4c1.3-1.6,2.6-2.3,3.8-2.3c1.5,0,2.7,1.2,2.7,2.7
				c0,0,0,0.1,0,0.1c0,1.4-0.7,2.5-2.5,4.1c-0.7,0.6-1.4,1.2-2.3,1.9c0,0,0,0.1,0,0.1c0.6,0,2.7,0,3.5,0c0.4,0,0.8-0.2,1.4-1.2
				c0.1-0.1,0.4,0.1,0.4,0.2c-0.3,0.9-0.8,1.8-1.3,2.6c-0.1,0.2-0.4,0.3-1,0.3c-1.3,0-3.4-0.1-4.8-0.1c-0.4,0-1,0-1.3,0
				c0-0.2,0-0.3,0.1-0.5c1.3-0.9,2.6-1.9,3.7-3c1.2-1.3,1.7-2.3,1.7-3.6c0.1-1-0.6-1.8-1.6-1.9c0,0-0.1,0-0.1,0
				C40.4,39.4,39.6,39.8,39,40.4z"/>
		</g>
		<g id="Grupo_83364" transform="translate(308.933 119.697)">
			<path id="Trazado_100097" class="st10" d="M-33.4,25.7c-1.1,0-1.7-0.1-2.8-0.1c-1,0-1.8,0.1-2.8,0.1c0-0.2,0-0.3,0.1-0.5
				c0.4-0.1,0.7-0.1,1-0.1c0.5-0.1,0.7-0.5,0.8-1.1c0.2-0.8,0.3-1.9,0.6-3.6c0.2-1.5,0.5-2.9,0.5-3.4c0-0.3,0-0.6-0.3-0.7
				c-0.3-0.1-0.6-0.1-0.9-0.1c0-0.2,0-0.3,0.1-0.5c1.2-0.1,2.5-0.4,3.6-0.8c0.1,0,0.3,0,0.3,0.1c-0.2,0.7-0.3,1.3-0.5,2.8
				c-0.2,1.5-0.7,4.6-0.9,6c-0.1,0.7-0.1,1.1,0.4,1.2c0.3,0.1,0.6,0.1,1,0.1C-33.2,25.4-33.3,25.5-33.4,25.7z"/>
			<path id="Trazado_100098" class="st10" d="M-23.3,17.2c0,1.1-0.7,1.8-2,2.5c0,0-0.1,0.1,0,0.1c1.3,0.3,2.2,1.4,2.3,2.7
				c0,1.4-0.9,2.7-2.2,3.3c-0.8,0.4-1.7,0.7-2.6,0.7c-0.7,0-1.4-0.1-2.1-0.4c-0.3-0.1-0.5-0.4-0.6-0.7c-0.1-0.6-0.1-1.1,0-1.7
				c0.1-0.1,0.3-0.2,0.4-0.2c0.1,0.8,0.5,1.4,1.1,1.9c0.4,0.3,1,0.5,1.5,0.5c1.3,0,2.1-1.1,2.1-2.5c0.1-1.1-0.7-2.2-1.9-2.3
				c-0.1,0-0.2,0-0.3,0c-0.2,0-0.4,0-0.5,0c0.1-0.3,0.2-0.6,0.4-0.8c1.8-0.3,2.4-1,2.4-2.1c0.1-0.9-0.6-1.7-1.4-1.8
				c-0.1,0-0.2,0-0.2,0c-0.8,0-1.5,0.4-2.1,0.9c-0.1,0-0.3-0.3-0.3-0.4c0.9-0.9,2.1-2,3.6-2C-24.4,14.8-23.3,15.8-23.3,17.2
				C-23.3,17.1-23.3,17.1-23.3,17.2z"/>
		</g>
		<g id="Grupo_83365" transform="translate(12.276 120.683)">
			<path id="Trazado_100099" class="st10" d="M51,25.4c-1.1,0-1.7-0.1-2.8-0.1c-1,0-1.8,0.1-2.8,0.1c0-0.2,0-0.3,0.1-0.5
				c0.5-0.1,0.7-0.1,1-0.1c0.5-0.1,0.7-0.5,0.8-1.1c0.2-0.8,0.3-1.9,0.6-3.6c0.2-1.5,0.5-2.9,0.5-3.4c0-0.3,0-0.6-0.3-0.7
				c-0.3-0.1-0.6-0.1-0.9-0.1c0-0.2,0-0.3,0.1-0.5c1.2-0.1,2.5-0.4,3.6-0.8c0.1,0,0.3,0,0.3,0.1c-0.2,0.7-0.3,1.3-0.5,2.8
				c-0.2,1.5-0.7,4.6-0.9,6c-0.1,0.7-0.1,1.1,0.4,1.2c0.3,0.1,0.6,0.1,1,0.1C51.1,25.1,51.1,25.3,51,25.4z"/>
			<path id="Trazado_100100" class="st10" d="M60.1,22.3C60.1,22.3,60,22.3,60.1,22.3l-0.6,3.4c-0.6,0-1.9,0.1-2.4,0.2l0.6-3.4
				c0-0.1,0-0.1-0.1-0.1c-1.4,0-2.8,0-4.2,0c0-0.2,0.1-0.5,0.2-0.7c1.4-1.7,5.4-6,6.2-6.8c0.1,0,0.3,0,0.6,0c0.3,0,0.6,0,0.7,0
				c-0.2,1.2-0.7,4.5-1,6.3c0,0,0,0.1,0.1,0.1l1.8-0.1c-0.1,0.4-0.2,0.8-0.3,1.2L60.1,22.3z M57.8,21.2
				C57.8,21.2,57.9,21.1,57.8,21.2l0.9-4.4c0,0,0,0-0.1,0c0,0,0,0,0,0c-0.5,0.5-2.9,3.3-3.7,4.3c0,0,0,0.1,0,0.1L57.8,21.2z"/>
		</g>
		<g id="Grupo_83366" transform="translate(35.038 251.085)">
			<path id="Trazado_100101" class="st10" d="M44.5-10.8c-1.1,0-1.7-0.1-2.8-0.1c-1,0-1.8,0.1-2.8,0.1c0-0.2,0-0.3,0.1-0.5
				c0.5-0.1,0.7-0.1,1-0.1c0.5-0.1,0.7-0.5,0.8-1.1c0.2-0.8,0.3-1.9,0.6-3.6c0.2-1.5,0.5-2.9,0.5-3.4c0-0.3,0-0.6-0.3-0.7
				c-0.3-0.1-0.6-0.1-0.9-0.1c0-0.2,0-0.3,0.1-0.5c1.2-0.1,2.5-0.4,3.6-0.8c0.1,0,0.3,0,0.3,0.1c-0.2,0.7-0.3,1.3-0.5,2.8
				c-0.2,1.5-0.7,4.6-0.9,6c-0.1,0.7-0.1,1.1,0.4,1.2c0.3,0.1,0.6,0.1,1,0.1C44.6-11.2,44.6-11,44.5-10.8z"/>
			<path id="Trazado_100102" class="st10" d="M50.7-17.3c0,0.1,0,0.1,0.1,0.1c0.6-0.4,1.4-0.7,2.1-0.7c1.3,0,2.4,1,2.4,2.8
				c0,1.8-1,3.4-2.6,4.1c-0.6,0.2-1.2,0.4-1.8,0.4c-2.4,0-3.4-1.6-3.4-3.5c0-4.1,4.2-7.3,8.2-8.3c0.1,0,0.2,0.4,0.2,0.5
				C53.6-21.1,51.8-19.4,50.7-17.3z M50.5-16.6c-0.1,0.1-0.2,0.2-0.3,0.3c-0.3,0.8-0.4,1.5-0.4,2.3c0,1.9,0.6,2.7,1.4,2.7
				c0.9,0,1.6-1.5,1.6-3.1c0-1.6-0.6-2.4-1.6-2.4C51.1-16.8,50.8-16.7,50.5-16.6L50.5-16.6z"/>
		</g>
		<g id="Grupo_83367" transform="translate(289.284 247.82)">
			<path id="Trazado_100103" class="st10" d="M-27.8-10.7c-1.1,0-1.7-0.1-2.8-0.1c-1,0-1.8,0.1-2.8,0.1c0-0.2,0-0.3,0.1-0.5
				c0.5-0.1,0.7-0.1,1-0.1c0.5-0.1,0.7-0.5,0.8-1.1c0.2-0.8,0.3-1.9,0.6-3.6c0.2-1.5,0.5-2.9,0.5-3.4c0-0.3,0-0.6-0.3-0.7
				c-0.3-0.1-0.6-0.1-0.9-0.1c0-0.2,0-0.3,0.1-0.5c1.2-0.1,2.5-0.4,3.6-0.8c0.1,0,0.2,0,0.2,0.1c-0.2,0.7-0.3,1.3-0.5,2.8
				c-0.2,1.5-0.7,4.6-0.9,6c-0.1,0.7-0.1,1.1,0.4,1.2c0.3,0.1,0.6,0.1,1,0.1C-27.7-11-27.7-10.8-27.8-10.7z"/>
			<path id="Trazado_100104" class="st10" d="M-17.5-21.3c-0.2,0.5-0.4,1-0.8,1.5c-0.2,0.4-0.7,0.6-1.1,0.6c-1,0-1.7-0.1-2.2-0.1
				c-0.1,0-0.1,0.1-0.2,0.1c-0.2,0.3-0.3,0.6-0.5,1c0,0,0,0.1,0.1,0.2c0.8,0.4,2.6,1.3,3.3,1.8c0.9,0.5,1.5,1.4,1.5,2.5
				c0,2.6-2.6,3.9-4.4,3.9c-1.1,0.1-2.2-0.4-2.9-1.3c-0.1-0.2-0.1-0.3-0.1-0.5c0.1-0.4,0.3-0.8,0.6-1.2c0.1,0,0.1-0.1,0.2-0.1
				c0.6,1.1,1.5,2.3,3,2.3c0.8,0.1,1.6-0.6,1.6-1.4c0-0.1,0-0.2,0-0.3c0-0.8-0.5-1.6-1.2-2c-0.8-0.6-2.5-1.6-2.9-1.8
				c0-0.2,0-0.4,0.1-0.6c0.6-1.4,1.2-2.7,1.9-4c0.1-0.2,0.3-0.4,0.5-0.4c0.3,0,1.4,0.1,2.4,0.1c0.3,0,0.7-0.1,1-0.3
				C-17.8-21.5-17.5-21.4-17.5-21.3z"/>
		</g>
		<g id="Grupo_83368" transform="translate(213.475 307.567)">
			<path id="Trazado_100105" class="st10" d="M-6.2-27.7c-1.1,0-1.7-0.1-2.8-0.1c-1,0-1.8,0.1-2.8,0.1c0-0.2,0-0.3,0.1-0.5
				c0.5-0.1,0.7-0.1,1-0.1c0.5-0.1,0.7-0.5,0.8-1.1c0.2-0.8,0.3-1.9,0.6-3.6c0.2-1.5,0.5-2.9,0.5-3.4c0-0.3,0-0.6-0.3-0.7
				c-0.3-0.1-0.6-0.1-0.9-0.1c-0.1-0.1,0-0.4,0.1-0.5c1.2-0.1,2.5-0.4,3.6-0.8c0.1,0,0.3,0,0.3,0.1c-0.2,0.7-0.3,1.3-0.5,2.8
				c-0.2,1.5-0.7,4.6-0.9,6c-0.1,0.7-0.1,1.1,0.4,1.2c0.3,0.1,0.6,0.1,1,0.1C-6.1-28-6.1-27.9-6.2-27.7z"/>
			<path id="Trazado_100106" class="st10" d="M5.6-38c-0.9,2-5.5,9.4-6.2,10.7c0,0-0.1,0.1-0.1,0.1c-0.2-0.1-0.4-0.2-0.6-0.3
				c0-0.1,0-0.2,0-0.3c1.2-1.9,4.3-6.6,5.1-8.2c0,0,0-0.1,0-0.1c-0.6,0-3.3,0-4.6,0c-0.5,0.1-0.8,0.3-1.4,1.2
				c-0.1,0-0.4-0.2-0.5-0.2c0.5-1.1,0.9-2.2,1.2-3.3c0.4,0.1,0.9,0.2,1.3,0.2h3.7c0.7,0,1.5,0,1.9,0C5.6-38.3,5.6-38.1,5.6-38z"/>
		</g>
		<g id="Grupo_83369" transform="translate(254.367 41.685)">
			<path id="Trazado_100107" class="st10" d="M-17.8,47.9c-1.1,0-1.7-0.1-2.8-0.1c-1,0-1.8,0.1-2.8,0.1c0-0.2,0-0.3,0.1-0.5
				c0.5,0,0.7-0.1,1-0.1c0.5-0.1,0.7-0.5,0.8-1.1c0.2-0.8,0.3-1.9,0.6-3.6c0.2-1.5,0.5-2.9,0.5-3.4c0-0.3,0-0.6-0.3-0.7
				c-0.3-0.1-0.6-0.1-0.9-0.1c0-0.2,0-0.3,0.1-0.5c1.2-0.1,2.5-0.4,3.6-0.8c0.1,0,0.3,0,0.3,0.1c-0.2,0.7-0.3,1.3-0.5,2.8
				c-0.2,1.5-0.7,4.6-0.9,6c-0.1,0.7-0.1,1.1,0.4,1.2c0.3,0.1,0.6,0.1,1,0.1C-17.7,47.6-17.8,47.7-17.8,47.9z"/>
			<path id="Trazado_100108" class="st10" d="M-7.2,39.3c0,1.1-0.8,1.6-2.1,2.5c-0.1,0-0.1,0.1,0,0.1c1.2,0.9,1.8,1.7,1.9,2.7
				c0,1.9-1.9,3.4-4.2,3.4c-2.4,0-3.3-1.3-3.3-2.4c0-0.9,0.6-1.5,2.7-2.8c0,0,0,0,0-0.1c-0.8-0.6-1.3-1.4-1.4-2.4
				c0-1.1,0.5-2,1.4-2.6c0.7-0.4,1.5-0.7,2.3-0.7C-8.2,37.1-7.2,38.1-7.2,39.3z M-9.6,45.8c0-0.8-0.5-1.4-2.1-2.7c0,0-0.1-0.1-0.1,0
				c-0.8,0.5-1.2,1.4-1.3,2.3c-0.1,1,0.7,1.9,1.7,2c0.1,0,0.1,0,0.2,0c0.8,0,1.5-0.6,1.6-1.4C-9.6,46-9.6,45.9-9.6,45.8z
				 M-11.7,39.1c0,0.9,0.5,1.4,1.8,2.4c0,0,0.1,0,0.1,0c0.6-0.5,0.9-1.3,0.9-2c0.1-0.9-0.5-1.7-1.4-1.9c0,0-0.1,0-0.1,0
				C-11.1,37.7-11.7,38.3-11.7,39.1C-11.7,39.1-11.7,39.1-11.7,39.1L-11.7,39.1z"/>
		</g>
		<path id="Trazado_100109" class="st10" d="M135.4,281.2c-1.1,0-1.7-0.1-2.8-0.1c-1,0-1.8,0.1-2.8,0.1c0-0.2,0-0.3,0.1-0.5
			c0.5-0.1,0.7-0.1,1-0.1c0.5-0.1,0.7-0.5,0.8-1.1c0.2-0.8,0.3-1.9,0.6-3.6c0.2-1.5,0.5-2.9,0.5-3.4c0-0.3,0-0.6-0.3-0.7
			c-0.3-0.1-0.6-0.1-0.9-0.1c0-0.2,0-0.3,0.1-0.5c1.2-0.1,2.5-0.4,3.6-0.8c0.1,0,0.3,0,0.3,0.1c-0.2,0.7-0.3,1.3-0.5,2.8
			c-0.2,1.5-0.7,4.6-0.9,6c-0.1,0.7-0.1,1.1,0.4,1.2c0.3,0.1,0.6,0.1,1,0.1C135.5,280.9,135.5,281.1,135.4,281.2z"/>
		<path id="Trazado_100110" class="st10" d="M138.4,281.6c2.2-0.9,3.9-2.5,5-4.5c0-0.1,0-0.1-0.1-0.1c-0.7,0.4-1.5,0.6-2.2,0.7
			c-1.5,0-2.5-1.3-2.5-2.8c0-1.7,0.9-3.2,2.4-3.9c0.6-0.3,1.4-0.5,2.1-0.5c2.3,0,3.3,1.7,3.3,3.6c0,3.8-3.4,7-7.9,8
			C138.5,282.1,138.3,281.7,138.4,281.6z M141,274c0,1.9,0.8,2.6,1.8,2.6c0.2,0,0.5-0.1,0.7-0.2c0.1-0.1,0.2-0.2,0.3-0.3
			c0.3-0.8,0.4-1.6,0.4-2.4c0-1.7-0.4-2.6-1.4-2.6C141.8,271,141,272.4,141,274L141,274z"/>
		<g id="Grupo_83370" transform="translate(160.482 11.513)">
			<path id="Trazado_100111" class="st10" d="M4.8,48.3c-0.1,0-0.3-0.3-0.3-0.4c1.3-1.6,2.6-2.3,3.8-2.3c1.5,0,2.7,1.2,2.7,2.7
				c0,0,0,0.1,0,0.1c0,1.4-0.7,2.5-2.5,4.1c-0.7,0.6-1.4,1.2-2.3,1.9c0,0,0,0.1,0,0.1c0.6,0,2.7,0,3.5,0c0.4,0,0.8-0.2,1.4-1.2
				c0.1-0.1,0.4,0.1,0.4,0.2c-0.3,0.9-0.8,1.8-1.3,2.6c-0.1,0.2-0.4,0.3-1,0.3c-1.3,0-3.4-0.1-4.8-0.1c-0.4,0-1,0-1.3,0
				c0-0.2,0-0.3,0.1-0.5c1.3-0.9,2.6-1.9,3.7-3c1.2-1.3,1.7-2.3,1.7-3.6c0.1-1-0.6-1.8-1.6-1.9c0,0-0.1,0-0.1,0
				C6.1,47.3,5.3,47.7,4.8,48.3z"/>
			<path id="Trazado_100112" class="st10" d="M20.8,49.4c0,2.4-0.9,5.5-3,6.7c-0.6,0.4-1.4,0.5-2.1,0.5c-2.3,0-3.1-1.6-3.1-3.7
				c0-2,0.7-5.1,2.7-6.4c0.7-0.5,1.6-0.8,2.5-0.8C20,45.7,20.8,47.3,20.8,49.4z M16.6,46.7c-1,1.2-1.6,4.5-1.6,6.9
				c0,1.9,0.4,2.5,1.1,2.5c0.3,0,0.5-0.1,0.7-0.3c1-1.1,1.7-4.9,1.7-7.4c0-2-0.6-2.1-1.1-2.1C17.1,46.2,16.8,46.4,16.6,46.7z"/>
		</g>
	</g>
</g>
</svg>
