<?xml version="1.0" encoding="utf-8"?>
<!-- Generator: Adobe Illustrator 25.3.1, SVG Export Plug-In . SVG Version: 6.00 Build 0)  -->
<svg version="1.1" id="Layer_1" xmlns="http://www.w3.org/2000/svg" xmlns:xlink="http://www.w3.org/1999/xlink" x="0px" y="0px"
	 viewBox="0 0 505 300" style="enable-background:new 0 0 505 300;" xml:space="preserve">
<style type="text/css">
	.st0{fill:#F3F9FF;}
	.st1{fill:#265D99;stroke:#12263F;stroke-width:2;stroke-linecap:round;stroke-linejoin:round;}
	.st2{fill:#76C2DD;stroke:#12263F;stroke-width:2;stroke-linecap:round;stroke-linejoin:round;}
	.st3{fill:none;stroke:#EE6C4D;stroke-miterlimit:10;}
	.st4{fill:#EE6C4D;stroke:#EE6C4D;stroke-miterlimit:10;}
	.st5{enable-background:new    ;}
	.st6{fill:#12263F;}
</style>
<g id="Grupo_84294" transform="translate(-810.285 -897)">
	<rect id="paper-egg-tray-3325411_1920" x="810.3" y="897" class="st0" width="505" height="300"/>
	<g id="Grupo_83344" transform="translate(35)">
		<g id="Grupo_83341" transform="translate(0.402 -0.26)">
			<path id="Trazado_99887" class="st1" d="M1205.1,1047.1l-55.5,70.8H919.9v-22.5h218.8l37.8-48.3H1205.1z"/>
			<path id="Trazado_99888" class="st2" d="M1176.6,1047.1l-37.8-48.3H919.9v-22.5h229.8l55.5,70.8H1176.6z"/>
		</g>
		<g id="Grupo_83342" transform="translate(349.809 648.5)">
			<path id="Trazado_99889" class="st3" d="M549.5,345.5c-11,15-10,27-10,27"/>
			<path id="Trazado_99890" class="st4" d="M545.5,342.5l8,6l1-10L545.5,342.5z"/>
		</g>
		<g id="Grupo_83343" transform="translate(889.285 1073)">
			<path id="Trazado_99889-2" class="st3" d="M10,27C-1,12,0,0,0,0"/>
			<path id="Trazado_99890-2" class="st4" d="M6,30l8-6l1,10L6,30z"/>
		</g>
		<g class="st5">
			<path class="st6" d="M802.8,1048.9l2.9-9.6h2.9l-4.5,12.8h-2.8l-4.4-12.8h2.9L802.8,1048.9z"/>
		</g>
		<g class="st5">
			<path class="st6" d="M814.3,1049.7c0-0.4-0.1-0.6-0.4-0.8s-0.7-0.4-1.4-0.6s-1.2-0.4-1.6-0.6c-1-0.6-1.6-1.3-1.6-2.3
				c0-0.5,0.1-0.9,0.4-1.3c0.3-0.4,0.7-0.7,1.2-0.9c0.5-0.2,1.1-0.3,1.8-0.3c0.7,0,1.2,0.1,1.8,0.4s0.9,0.6,1.2,1
				c0.3,0.4,0.4,0.9,0.4,1.5h-1.9c0-0.4-0.1-0.8-0.4-1c-0.3-0.2-0.6-0.4-1.1-0.4c-0.5,0-0.8,0.1-1.1,0.3c-0.3,0.2-0.4,0.5-0.4,0.8
				c0,0.3,0.2,0.6,0.5,0.8c0.3,0.2,0.7,0.4,1.3,0.6c1.1,0.3,1.9,0.7,2.4,1.2s0.7,1.1,0.7,1.8c0,0.8-0.3,1.4-0.9,1.9
				s-1.4,0.7-2.4,0.7c-0.7,0-1.4-0.1-1.9-0.4c-0.6-0.3-1-0.6-1.3-1.1c-0.3-0.5-0.5-1-0.5-1.6h1.9c0,1,0.6,1.5,1.8,1.5
				c0.5,0,0.8-0.1,1.1-0.3C814.2,1050.3,814.3,1050,814.3,1049.7z"/>
			<path class="st6" d="M823.1,1048.1h-3.7v2.5h4.3v1.5h-6.2v-9.2h6.2v1.5h-4.3v2.2h3.7V1048.1z"/>
			<path class="st6" d="M830.4,1048.1h-3.7v2.5h4.3v1.5h-6.2v-9.2h6.2v1.5h-4.3v2.2h3.7V1048.1z"/>
			<path class="st6" d="M832.1,1052.1v-9.2h3.2c1.1,0,2,0.2,2.6,0.6s0.9,1.1,0.9,1.9c0,0.5-0.1,0.9-0.3,1.2s-0.6,0.6-1,0.8
				c0.5,0.1,0.8,0.4,1.1,0.7c0.3,0.4,0.4,0.8,0.4,1.3c0,0.9-0.3,1.6-0.9,2s-1.4,0.7-2.4,0.7H832.1z M834,1046.7h1.4
				c1,0,1.4-0.4,1.4-1.1c0-0.4-0.1-0.7-0.4-0.9c-0.2-0.2-0.6-0.3-1.2-0.3H834V1046.7z M834,1048.1v2.5h1.6c0.4,0,0.8-0.1,1.1-0.3
				c0.3-0.2,0.4-0.5,0.4-0.9c0-0.8-0.4-1.3-1.3-1.3H834z"/>
			<path class="st6" d="M846,1048.1h-3.7v2.5h4.3v1.5h-6.2v-9.2h6.2v1.5h-4.3v2.2h3.7V1048.1z"/>
			<path class="st6" d="M855,1049c-0.1,1-0.4,1.8-1.1,2.3c-0.7,0.6-1.5,0.9-2.6,0.9c-1.2,0-2.1-0.4-2.8-1.2c-0.7-0.8-1-1.9-1-3.3
				v-0.6c0-0.9,0.2-1.7,0.5-2.3c0.3-0.7,0.8-1.2,1.3-1.6c0.6-0.4,1.3-0.5,2-0.5c1.1,0,1.9,0.3,2.6,0.9c0.7,0.6,1,1.4,1.1,2.4h-1.9
				c0-0.6-0.2-1-0.5-1.3c-0.3-0.3-0.7-0.4-1.3-0.4c-0.6,0-1.1,0.2-1.4,0.7c-0.3,0.5-0.5,1.2-0.5,2.1v0.7c0,1,0.2,1.7,0.5,2.2
				c0.3,0.5,0.8,0.7,1.4,0.7c0.6,0,1-0.1,1.3-0.4c0.3-0.3,0.5-0.7,0.5-1.2H855z"/>
			<path class="st6" d="M859.5,1046l1.7-3.2h2.2l-2.7,4.6l2.8,4.7h-2.2l-1.8-3.2l-1.8,3.2h-2.2l2.8-4.7l-2.7-4.6h2.2L859.5,1046z"/>
		</g>
		<g class="st5">
			<path class="st6" d="M961.3,1039.4h-3.9v10.7h-2.6v-10.7h-3.9v-2.1h10.4V1039.4z"/>
		</g>
		<g class="st5">
			<path class="st6" d="M967.7,1048.2h-3.3l-0.6,1.9h-2l3.4-9.2h1.8l3.5,9.2h-2L967.7,1048.2z M964.9,1046.6h2.3l-1.2-3.5
				L964.9,1046.6z"/>
			<path class="st6" d="M973.7,1040.8l2.4,6.7l2.4-6.7h2.5v9.2H979v-2.5l0.2-4.4l-2.5,6.9h-1.3l-2.5-6.9l0.2,4.4v2.5h-1.9v-9.2
				H973.7z"/>
			<path class="st6" d="M982.6,1050.1v-9.2h3.2c1.1,0,2,0.2,2.6,0.6s0.9,1.1,0.9,1.9c0,0.5-0.1,0.9-0.3,1.2s-0.6,0.6-1,0.8
				c0.5,0.1,0.8,0.4,1.1,0.7c0.3,0.4,0.4,0.8,0.4,1.3c0,0.9-0.3,1.6-0.9,2s-1.4,0.7-2.4,0.7H982.6z M984.5,1044.7h1.4
				c1,0,1.4-0.4,1.4-1.1c0-0.4-0.1-0.7-0.4-0.9c-0.2-0.2-0.6-0.3-1.2-0.3h-1.3V1044.7z M984.5,1046.1v2.5h1.6c0.4,0,0.8-0.1,1.1-0.3
				c0.3-0.2,0.4-0.5,0.4-0.9c0-0.8-0.4-1.3-1.3-1.3H984.5z"/>
		</g>
		<g class="st5">
			<path class="st6" d="M1224.5,1039.4h-3.9v10.7h-2.6v-10.7h-3.9v-2.1h10.4V1039.4z"/>
		</g>
		<g class="st5">
			<path class="st6" d="M1066.3,953.3l2.9,8.2l2.9-8.2h3.1v11.4h-2.4v-3.1l0.2-5.4l-3.1,8.5h-1.6l-3.1-8.5l0.2,5.4v3.1h-2.3v-11.4
				H1066.3z"/>
			<path class="st6" d="M1081,964.8c-1.2,0-2.2-0.4-3-1.1s-1.2-1.8-1.2-3v-0.2c0-0.8,0.2-1.6,0.5-2.3s0.8-1.2,1.4-1.5
				s1.3-0.5,2.1-0.5c1.2,0,2.1,0.4,2.7,1.1s1,1.8,1,3.1v0.9h-5.4c0.1,0.6,0.3,1,0.7,1.3s0.8,0.5,1.4,0.5c0.9,0,1.5-0.3,2-0.9
				l1.1,1.2c-0.3,0.5-0.8,0.9-1.4,1.1S1081.7,964.8,1081,964.8z M1080.8,957.9c-0.4,0-0.8,0.2-1.1,0.5s-0.5,0.7-0.5,1.3h3.1v-0.2
				c0-0.5-0.1-0.9-0.4-1.2S1081.3,957.9,1080.8,957.9z"/>
			<path class="st6" d="M1088.5,954.1v2.1h1.4v1.7h-1.4v4.2c0,0.3,0.1,0.5,0.2,0.7s0.3,0.2,0.7,0.2c0.2,0,0.5,0,0.7-0.1v1.7
				c-0.4,0.1-0.9,0.2-1.4,0.2c-1.6,0-2.4-0.8-2.4-2.4v-4.6h-1.2v-1.7h1.2v-2.1H1088.5z"/>
			<path class="st6" d="M1096.1,964.6c-0.1-0.2-0.2-0.5-0.2-0.8c-0.5,0.6-1.3,0.9-2.1,0.9c-0.8,0-1.5-0.2-2.1-0.7s-0.8-1.1-0.8-1.8
				c0-0.9,0.3-1.6,1-2.1s1.6-0.7,2.9-0.7h1V959c0-0.4-0.1-0.7-0.3-0.9s-0.5-0.4-0.9-0.4c-0.4,0-0.7,0.1-0.9,0.3s-0.3,0.4-0.3,0.8
				h-2.3c0-0.5,0.2-0.9,0.5-1.4s0.7-0.7,1.3-1s1.2-0.4,1.9-0.4c1,0,1.9,0.3,2.5,0.8s0.9,1.3,0.9,2.2v3.7c0,0.8,0.1,1.4,0.3,1.8v0.1
				H1096.1z M1094.2,963.1c0.3,0,0.6-0.1,0.9-0.2s0.5-0.3,0.6-0.6v-1.5h-0.8c-1.1,0-1.7,0.4-1.8,1.2l0,0.1c0,0.3,0.1,0.5,0.3,0.7
				S1093.9,963.1,1094.2,963.1z"/>
			<path class="st6" d="M1102.2,964.6h-2.3v-12h2.3V964.6z"/>
			<path class="st6" d="M1113.4,964.6h-2.3v-8.7l-2.7,0.8v-1.8l4.7-1.7h0.2V964.6z"/>
		</g>
		<g class="st5">
			<path class="st6" d="M1066.3,1132.6l2.9,8.2l2.9-8.2h3.1v11.4h-2.4v-3.1l0.2-5.4l-3.1,8.5h-1.6l-3.1-8.5l0.2,5.4v3.1h-2.3v-11.4
				H1066.3z"/>
			<path class="st6" d="M1081,1144.2c-1.2,0-2.2-0.4-3-1.1s-1.2-1.8-1.2-3v-0.2c0-0.8,0.2-1.6,0.5-2.3s0.8-1.2,1.4-1.5
				s1.3-0.5,2.1-0.5c1.2,0,2.1,0.4,2.7,1.1s1,1.8,1,3.1v0.9h-5.4c0.1,0.6,0.3,1,0.7,1.3s0.8,0.5,1.4,0.5c0.9,0,1.5-0.3,2-0.9
				l1.1,1.2c-0.3,0.5-0.8,0.9-1.4,1.1S1081.7,1144.2,1081,1144.2z M1080.8,1137.2c-0.4,0-0.8,0.2-1.1,0.5s-0.5,0.7-0.5,1.3h3.1v-0.2
				c0-0.5-0.1-0.9-0.4-1.2S1081.3,1137.2,1080.8,1137.2z"/>
			<path class="st6" d="M1088.5,1133.5v2.1h1.4v1.7h-1.4v4.2c0,0.3,0.1,0.5,0.2,0.7s0.3,0.2,0.7,0.2c0.2,0,0.5,0,0.7-0.1v1.7
				c-0.4,0.1-0.9,0.2-1.4,0.2c-1.6,0-2.4-0.8-2.4-2.4v-4.6h-1.2v-1.7h1.2v-2.1H1088.5z"/>
			<path class="st6" d="M1096.1,1144c-0.1-0.2-0.2-0.5-0.2-0.8c-0.5,0.6-1.3,0.9-2.1,0.9c-0.8,0-1.5-0.2-2.1-0.7s-0.8-1.1-0.8-1.8
				c0-0.9,0.3-1.6,1-2.1s1.6-0.7,2.9-0.7h1v-0.5c0-0.4-0.1-0.7-0.3-0.9s-0.5-0.4-0.9-0.4c-0.4,0-0.7,0.1-0.9,0.3s-0.3,0.4-0.3,0.8
				h-2.3c0-0.5,0.2-0.9,0.5-1.4s0.7-0.7,1.3-1s1.2-0.4,1.9-0.4c1,0,1.9,0.3,2.5,0.8s0.9,1.3,0.9,2.2v3.7c0,0.8,0.1,1.4,0.3,1.8v0.1
				H1096.1z M1094.2,1142.4c0.3,0,0.6-0.1,0.9-0.2s0.5-0.3,0.6-0.6v-1.5h-0.8c-1.1,0-1.7,0.4-1.8,1.2l0,0.1c0,0.3,0.1,0.5,0.3,0.7
				S1093.9,1142.4,1094.2,1142.4z"/>
			<path class="st6" d="M1102.2,1144h-2.3v-12h2.3V1144z"/>
			<path class="st6" d="M1115.7,1144h-7.8v-1.5l3.7-3.9c0.5-0.6,0.9-1,1.1-1.4s0.4-0.8,0.4-1.2c0-0.5-0.1-0.9-0.4-1.2
				s-0.6-0.4-1.1-0.4c-0.5,0-0.9,0.2-1.2,0.5s-0.4,0.8-0.4,1.4h-2.3c0-0.7,0.2-1.3,0.5-1.9s0.8-1,1.4-1.3s1.3-0.5,2.1-0.5
				c1.2,0,2.1,0.3,2.7,0.8s1,1.4,1,2.4c0,0.6-0.1,1.1-0.4,1.7s-0.8,1.3-1.5,2l-2.6,2.7h4.9V1144z"/>
		</g>
	</g>
</g>
</svg>
