<svg xmlns="http://www.w3.org/2000/svg" width="505" height="172" viewBox="0 0 505 172">
  <g id="Grupo_84300" data-name="Grupo 84300" transform="translate(-810.57 -3198)">
    <rect id="Rect치ngulo_31411" data-name="Rect치ngulo 31411" width="5" height="28" transform="translate(810.57 3198)" fill="#76c2dd"/>
    <g id="Grupo_84299" data-name="Grupo 84299">
      <g id="Grupo_84298" data-name="Grupo 84298">
        <rect id="Rect치ngulo_31407" data-name="Rect치ngulo 31407" width="505" height="89" transform="translate(810.57 3265.5)" fill="#ccf8ff"/>
        <path id="Trazado_102532" data-name="Trazado 102532" d="M3.665-12.8,7.849-2.355,12.032-12.8h2.188V0H12.533V-4.983l.158-5.379L8.49,0H7.2L3.006-10.336l.167,5.353V0H1.485V-12.8ZM22.816-.94A3.454,3.454,0,0,1,20.03.176a2.956,2.956,0,0,1-2.316-.883,3.823,3.823,0,0,1-.8-2.615V-9.51h1.626v6.144q0,2.162,1.758,2.162a2.434,2.434,0,0,0,2.479-1.389V-9.51H24.4V0H22.852ZM28.635,0H27.009V-13.5h1.626Zm4.808-11.812v2.3h1.775v1.257H33.442v5.9a1.32,1.32,0,0,0,.237.858,1,1,0,0,0,.809.286,3.937,3.937,0,0,0,.773-.105V0a4.742,4.742,0,0,1-1.248.175A2.025,2.025,0,0,1,32.37-.483a2.832,2.832,0,0,1-.554-1.872v-5.9H30.085V-9.51h1.731v-2.3ZM38.883,0H37.248V-9.51h1.635ZM38.9-13.491h1.969l-2.355,2.584-1.31,0ZM43.093-9.51l.044,1.055a3.512,3.512,0,0,1,2.821-1.23,2.719,2.719,0,0,1,2.716,1.529,3.6,3.6,0,0,1,1.235-1.107,3.647,3.647,0,0,1,1.8-.422q3.129,0,3.182,3.313V0H53.262V-6.275A2.184,2.184,0,0,0,52.8-7.8a2.051,2.051,0,0,0-1.564-.505,2.156,2.156,0,0,0-1.5.541,2.193,2.193,0,0,0-.694,1.455V0H47.4V-6.231a1.814,1.814,0,0,0-2.03-2.074,2.175,2.175,0,0,0-2.188,1.362V0H41.555V-9.51ZM61.286.176a4.155,4.155,0,0,1-3.146-1.27,4.714,4.714,0,0,1-1.213-3.4v-.3a5.707,5.707,0,0,1,.541-2.527,4.217,4.217,0,0,1,1.512-1.74,3.8,3.8,0,0,1,2.1-.628,3.562,3.562,0,0,1,2.883,1.222A5.289,5.289,0,0,1,65-4.966v.677H58.553a3.38,3.38,0,0,0,.822,2.272,2.583,2.583,0,0,0,2,.866A2.832,2.832,0,0,0,62.833-1.5a3.666,3.666,0,0,0,1.046-.932l.993.773A3.993,3.993,0,0,1,61.286.176Zm-.2-8.525a2.169,2.169,0,0,0-1.652.716,3.482,3.482,0,0,0-.826,2.008h4.764v-.123a3.1,3.1,0,0,0-.668-1.92A2.042,2.042,0,0,0,61.084-8.35Zm8-3.463v2.3h1.775v1.257H69.082v5.9a1.32,1.32,0,0,0,.237.858,1,1,0,0,0,.809.286A3.937,3.937,0,0,0,70.9-1.31V0a4.742,4.742,0,0,1-1.248.175A2.025,2.025,0,0,1,68.01-.483a2.832,2.832,0,0,1-.554-1.872v-5.9H65.725V-9.51h1.731v-2.3Zm8.271,3.762a4.873,4.873,0,0,0-.8-.062A2.143,2.143,0,0,0,74.382-6.75V0H72.756V-9.51h1.582l.026,1.1a2.532,2.532,0,0,1,2.268-1.274,1.661,1.661,0,0,1,.721.123Zm.888,3.208a5.617,5.617,0,0,1,.549-2.514,4.1,4.1,0,0,1,1.529-1.723,4.163,4.163,0,0,1,2.237-.606A4.01,4.01,0,0,1,85.7-8.341a5.174,5.174,0,0,1,1.2,3.577v.114a5.666,5.666,0,0,1-.532,2.492A4.038,4.038,0,0,1,84.845-.439a4.211,4.211,0,0,1-2.272.615A4,4,0,0,1,79.44-1.169a5.147,5.147,0,0,1-1.2-3.56Zm1.635.193a4.068,4.068,0,0,0,.734,2.54,2.349,2.349,0,0,0,1.964.958,2.335,2.335,0,0,0,1.969-.971,4.449,4.449,0,0,0,.729-2.72,4.061,4.061,0,0,0-.743-2.536,2.361,2.361,0,0,0-1.973-.971,2.335,2.335,0,0,0-1.942.958A4.416,4.416,0,0,0,79.875-4.649ZM93-4.834a5.571,5.571,0,0,1,1.037-3.52A3.28,3.28,0,0,1,96.75-9.686,3.3,3.3,0,0,1,99.4-8.543V-13.5h1.626V0H99.527l-.079-1.02a3.311,3.311,0,0,1-2.716,1.2,3.248,3.248,0,0,1-2.694-1.354A5.634,5.634,0,0,1,93-4.711Zm1.626.185a4.218,4.218,0,0,0,.668,2.531,2.159,2.159,0,0,0,1.846.914A2.372,2.372,0,0,0,99.4-2.593V-6.961a2.39,2.39,0,0,0-2.241-1.345,2.17,2.17,0,0,0-1.863.923A4.644,4.644,0,0,0,94.623-4.649ZM105.311,0h-1.626V-9.51h1.626Zm-1.758-12.032a.971.971,0,0,1,.242-.668.907.907,0,0,1,.716-.272.922.922,0,0,1,.721.272.96.96,0,0,1,.246.668.929.929,0,0,1-.246.659.938.938,0,0,1-.721.264.924.924,0,0,1-.716-.264A.938.938,0,0,1,103.553-12.032Zm3.973,7.2a5.589,5.589,0,0,1,1.028-3.538,3.289,3.289,0,0,1,2.725-1.314,3.271,3.271,0,0,1,2.716,1.23l.079-1.055h1.485V-.229a3.869,3.869,0,0,1-1.094,2.909,4.038,4.038,0,0,1-2.94,1.063,4.891,4.891,0,0,1-2.013-.439,3.465,3.465,0,0,1-1.5-1.2l.844-.976a3.18,3.18,0,0,0,2.558,1.292,2.491,2.491,0,0,0,1.85-.668,2.553,2.553,0,0,0,.664-1.881V-.949A3.342,3.342,0,0,1,111.261.176a3.248,3.248,0,0,1-2.7-1.345A5.876,5.876,0,0,1,107.525-4.834Zm1.635.185a4.264,4.264,0,0,0,.659,2.527,2.142,2.142,0,0,0,1.846.918,2.382,2.382,0,0,0,2.259-1.4V-6.943a2.41,2.41,0,0,0-2.241-1.362,2.161,2.161,0,0,0-1.854.923A4.644,4.644,0,0,0,109.16-4.649ZM119.777,0h-1.626V-9.51h1.626ZM118.02-12.032a.971.971,0,0,1,.242-.668.907.907,0,0,1,.716-.272.922.922,0,0,1,.721.272.96.96,0,0,1,.246.668.929.929,0,0,1-.246.659.938.938,0,0,1-.721.264.924.924,0,0,1-.716-.264A.938.938,0,0,1,118.02-12.032Zm6.565.22v2.3h1.775v1.257h-1.775v5.9a1.32,1.32,0,0,0,.237.858,1,1,0,0,0,.809.286,3.937,3.937,0,0,0,.773-.105V0a4.742,4.742,0,0,1-1.248.175,2.025,2.025,0,0,1-1.644-.659,2.832,2.832,0,0,1-.554-1.872v-5.9h-1.731V-9.51h1.731v-2.3ZM134.13,0a3.416,3.416,0,0,1-.229-1A3.628,3.628,0,0,1,131.194.176a3.357,3.357,0,0,1-2.307-.8,2.573,2.573,0,0,1-.9-2.017,2.688,2.688,0,0,1,1.129-2.307,5.325,5.325,0,0,1,3.177-.822h1.582v-.747a1.826,1.826,0,0,0-.51-1.358,2.049,2.049,0,0,0-1.5-.505,2.371,2.371,0,0,0-1.459.439,1.3,1.3,0,0,0-.589,1.063H128.18a2.244,2.244,0,0,1,.505-1.375,3.449,3.449,0,0,1,1.371-1.05,4.613,4.613,0,0,1,1.9-.387,3.759,3.759,0,0,1,2.575.822A2.964,2.964,0,0,1,135.5-6.6v4.377a5.351,5.351,0,0,0,.334,2.083V0Zm-2.7-1.239a2.858,2.858,0,0,0,1.45-.4,2.392,2.392,0,0,0,.993-1.028V-4.614H132.6q-2.988,0-2.988,1.749a1.48,1.48,0,0,0,.51,1.2A1.959,1.959,0,0,0,131.432-1.239ZM139.816,0H138.19V-13.5h1.626Z" transform="translate(833.57 3217)" fill="#12263f"/>
        <g id="multimetro" transform="translate(1011 3249)">
          <g id="Grupo_83943" data-name="Grupo 83943" transform="translate(10.935 2.935)">
            <g id="Grupo_83931" data-name="Grupo 83931">
              <path id="Trazado_102263" data-name="Trazado 102263" d="M95.161,9.742V64.594A7.75,7.75,0,0,1,92.9,70.071l-5.477,5.477v34.839a7.74,7.74,0,0,1-7.742,7.742H25.484a7.74,7.74,0,0,1-7.742-7.742V75.548l-5.477-5.477A7.75,7.75,0,0,1,10,64.594V9.742A7.74,7.74,0,0,1,17.742,2H87.419a7.74,7.74,0,0,1,7.742,7.742Z" transform="translate(-10 -2)" fill="#ccd1d9"/>
            </g>
            <g id="Grupo_83932" data-name="Grupo 83932" transform="translate(58.065 96.774)">
              <circle id="Elipse_4123" data-name="Elipse 4123" cx="3.871" cy="3.871" r="3.871" fill="#ff826e"/>
            </g>
            <g id="Grupo_83933" data-name="Grupo 83933" transform="translate(58.065 81.29)">
              <circle id="Elipse_4124" data-name="Elipse 4124" cx="3.871" cy="3.871" r="3.871" fill="#ff826e"/>
            </g>
            <g id="Grupo_83934" data-name="Grupo 83934" transform="translate(56.129 61.935)">
              <path id="Trazado_102264" data-name="Trazado 102264" d="M39,34H50.613v7.742H39Z" transform="translate(-39 -34)" fill="#fcd770"/>
            </g>
            <g id="Grupo_83935" data-name="Grupo 83935" transform="translate(36.774 61.935)">
              <path id="Trazado_102265" data-name="Trazado 102265" d="M29,34H40.613v7.742H29Z" transform="translate(-29 -34)" fill="#fcd770"/>
            </g>
            <g id="Grupo_83936" data-name="Grupo 83936" transform="translate(17.419 61.935)">
              <path id="Trazado_102266" data-name="Trazado 102266" d="M19,34H30.613v7.742H19Z" transform="translate(-19 -34)" fill="#fcd770"/>
            </g>
            <g id="Grupo_83937" data-name="Grupo 83937" transform="translate(15.484 85.258)">
              <path id="Trazado_102267" data-name="Trazado 102267" d="M20.032,46.05l21.1,21.1a15.237,15.237,0,0,1-7.645,2.032A15.48,15.48,0,0,1,18,53.7a15.237,15.237,0,0,1,2.032-7.645Z" transform="translate(-18 -46.05)" fill="#969faa"/>
            </g>
            <g id="Grupo_83938" data-name="Grupo 83938" transform="translate(23.323 77.419)">
              <path id="Trazado_102268" data-name="Trazado 102268" d="M45.179,57.484a15.237,15.237,0,0,1-2.032,7.645l-21.1-21.1A15.237,15.237,0,0,1,29.7,42,15.48,15.48,0,0,1,45.179,57.484Z" transform="translate(-22.05 -42)" fill="#969faa"/>
            </g>
            <g id="Grupo_83939" data-name="Grupo 83939" transform="translate(17.516 79.452)">
              <path id="Trazado_102269" data-name="Trazado 102269" d="M24.856,43.05l21.1,21.1a15.212,15.212,0,0,1-5.806,5.806l-21.1-21.1a15.212,15.212,0,0,1,5.806-5.806Z" transform="translate(-19.05 -43.05)" fill="#ee6c4d"/>
            </g>
            <g id="Grupo_83940" data-name="Grupo 83940" transform="translate(7.742 7.742)">
              <path id="Trazado_102270" data-name="Trazado 102270" d="M83.677,7.935v5.806H14V7.935A1.941,1.941,0,0,1,15.935,6H81.742A1.941,1.941,0,0,1,83.677,7.935Z" transform="translate(-14 -6)" fill="#e6e9ed"/>
            </g>
            <g id="Grupo_83941" data-name="Grupo 83941" transform="translate(7.742 46.452)">
              <path id="Trazado_102271" data-name="Trazado 102271" d="M83.677,26v5.806a1.941,1.941,0,0,1-1.935,1.935H15.935A1.941,1.941,0,0,1,14,31.806V26Z" transform="translate(-14 -26)" fill="#e6e9ed"/>
            </g>
            <g id="Grupo_83942" data-name="Grupo 83942" transform="translate(7.742 15.484)">
              <path id="Trazado_102272" data-name="Trazado 102272" d="M83.677,40.968H14V10H83.677Z" transform="translate(-14 -10)" fill="#69d6f4"/>
            </g>
          </g>
          <g id="Grupo_83944" data-name="Grupo 83944" transform="translate(9 1)">
            <path id="Trazado_102273" data-name="Trazado 102273" d="M20.871,16.871V32.355h3.871V13H17v3.871Z" transform="translate(-1.516 10.226)"/>
            <path id="Trazado_102274" data-name="Trazado 102274" d="M26.871,32.355h3.871V13H23v3.871h3.871Z" transform="translate(4.097 10.226)"/>
            <path id="Trazado_102275" data-name="Trazado 102275" d="M36.871,32.355h3.871a3.875,3.875,0,0,0,3.871-3.871V16.871A3.875,3.875,0,0,0,40.742,13H36.871A3.875,3.875,0,0,0,33,16.871V28.484A3.875,3.875,0,0,0,36.871,32.355Zm0-15.484h3.871l0,11.613H36.871Z" transform="translate(13.452 10.226)"/>
            <path id="Trazado_102276" data-name="Trazado 102276" d="M44.871,32.355h3.871a3.875,3.875,0,0,0,3.871-3.871V16.871A3.875,3.875,0,0,0,48.742,13H44.871A3.875,3.875,0,0,0,41,16.871V28.484A3.875,3.875,0,0,0,44.871,32.355Zm0-15.484h3.871l0,11.613H44.871Z" transform="translate(20.935 10.226)"/>
            <path id="Trazado_102277" data-name="Trazado 102277" d="M29,21h3.871v3.871H29Z" transform="translate(9.71 17.71)"/>
            <path id="Trazado_102278" data-name="Trazado 102278" d="M82.677,5H16.871A3.875,3.875,0,0,0,13,8.871V51.452a3.875,3.875,0,0,0,3.871,3.871H82.677a3.875,3.875,0,0,0,3.871-3.871V8.871A3.875,3.875,0,0,0,82.677,5Zm0,3.871v3.871H16.871V8.871Zm0,7.742,0,27.1H16.871v-27.1ZM16.871,51.452V47.581H82.679v3.871Z" transform="translate(-5.258 2.742)"/>
            <path id="Trazado_102279" data-name="Trazado 102279" d="M88.355,1H18.677A9.688,9.688,0,0,0,9,10.677V65.535a9.614,9.614,0,0,0,2.834,6.842l4.908,4.908v34.037A9.688,9.688,0,0,0,26.419,121H80.613a9.688,9.688,0,0,0,9.677-9.677V77.285L95.2,72.377a9.611,9.611,0,0,0,2.834-6.842V10.677A9.688,9.688,0,0,0,88.355,1Zm5.806,64.535a5.845,5.845,0,0,1-1.7,4.105l-6.043,6.043v35.64a5.814,5.814,0,0,1-5.806,5.806H26.419a5.814,5.814,0,0,1-5.806-5.806V75.683L14.57,69.64a5.845,5.845,0,0,1-1.7-4.105V10.677a5.814,5.814,0,0,1,5.806-5.806H88.355a5.814,5.814,0,0,1,5.806,5.806Z" transform="translate(-9 -1)"/>
            <path id="Trazado_102280" data-name="Trazado 102280" d="M38,44.613H53.484V33H38Zm3.871-7.742h7.742v3.871H41.871Z" transform="translate(18.129 28.935)"/>
            <path id="Trazado_102281" data-name="Trazado 102281" d="M28,44.613H43.484V33H28Zm3.871-7.742h7.742v3.871H31.871Z" transform="translate(8.774 28.935)"/>
            <path id="Trazado_102282" data-name="Trazado 102282" d="M33.484,33H18V44.613H33.484Zm-3.871,7.742H21.871V36.871h7.742Z" transform="translate(-0.581 28.935)"/>
            <path id="Trazado_102283" data-name="Trazado 102283" d="M34.419,41A17.419,17.419,0,1,0,51.839,58.419,17.441,17.441,0,0,0,34.419,41ZM20.871,58.419a13.431,13.431,0,0,1,.71-4.295L38.716,71.259a13.525,13.525,0,0,1-17.845-12.84ZM42.328,69.4,23.441,50.511a13.666,13.666,0,0,1,3.07-3.07L45.4,66.328A13.667,13.667,0,0,1,42.328,69.4Zm4.93-6.683L30.123,45.579A13.52,13.52,0,0,1,47.257,62.714Z" transform="translate(-1.516 36.419)"/>
            <path id="Trazado_102284" data-name="Trazado 102284" d="M44.806,43a5.806,5.806,0,1,0,5.806,5.806A5.814,5.814,0,0,0,44.806,43Zm0,7.742a1.935,1.935,0,1,1,1.935-1.935A1.939,1.939,0,0,1,44.806,50.742Z" transform="translate(19.065 38.29)"/>
            <path id="Trazado_102285" data-name="Trazado 102285" d="M44.806,51a5.806,5.806,0,1,0,5.806,5.806A5.814,5.814,0,0,0,44.806,51Zm0,7.742a1.935,1.935,0,1,1,1.935-1.935A1.939,1.939,0,0,1,44.806,58.742Z" transform="translate(19.065 45.774)"/>
          </g>
        </g>
      </g>
    </g>
  </g>
</svg>
