<svg xmlns="http://www.w3.org/2000/svg" width="611" height="440" viewBox="0 0 611 440">
  <g id="Grupo_84307" data-name="Grupo 84307" transform="translate(-494.855 -4208)">
    <rect id="Rectángulo_31893" data-name="Rectángulo 31893" width="5" height="28" transform="translate(494.855 4208)" fill="#76c2dd"/>
    <path id="Trazado_102533" data-name="Trazado 102533" d="M8.842-5.229H3.779V0H1.143V-12.8H9.475v2.136h-5.7v3.3H8.842ZM13.518,0H10.969V-9.51h2.549Zm-2.7-11.971a1.251,1.251,0,0,1,.382-.94,1.436,1.436,0,0,1,1.042-.369,1.44,1.44,0,0,1,1.037.369,1.244,1.244,0,0,1,.387.94,1.247,1.247,0,0,1-.391.949,1.443,1.443,0,0,1-1.033.369,1.443,1.443,0,0,1-1.033-.369A1.247,1.247,0,0,1,10.819-11.971ZM15.24-4.825A5.573,5.573,0,0,1,16.282-8.35,3.375,3.375,0,0,1,19.09-9.686a2.96,2.96,0,0,1,2.435,1.072l.105-.9h2.3V-.316a4.064,4.064,0,0,1-.567,2.171,3.641,3.641,0,0,1-1.6,1.406,5.608,5.608,0,0,1-2.408.483,5.215,5.215,0,0,1-2.039-.417,3.619,3.619,0,0,1-1.5-1.077L16.945.7a2.975,2.975,0,0,0,2.3,1.063,2.178,2.178,0,0,0,1.573-.541,2.027,2.027,0,0,0,.563-1.534v-.51a2.938,2.938,0,0,1-2.312.993A3.366,3.366,0,0,1,16.3-1.165,5.572,5.572,0,0,1,15.24-4.72Zm2.54.189A3.47,3.47,0,0,0,18.3-2.607a1.65,1.65,0,0,0,1.424.735,1.764,1.764,0,0,0,1.661-.871V-6.749A1.76,1.76,0,0,0,19.74-7.62a1.66,1.66,0,0,0-1.437.748A3.911,3.911,0,0,0,17.78-4.636Zm13.8,3.669a3.185,3.185,0,0,1-2.6,1.143A3,3,0,0,1,26.644-.7a3.752,3.752,0,0,1-.822-2.575V-9.51h2.54v6.151q0,1.487,1.354,1.487a1.834,1.834,0,0,0,1.775-.9V-9.51H34.04V0H31.649ZM41.3-7.128a6.9,6.9,0,0,0-.914-.07,1.86,1.86,0,0,0-1.89.976V0h-2.54V-9.51h2.4l.07,1.134a2.354,2.354,0,0,1,2.118-1.31,2.662,2.662,0,0,1,.791.114ZM47.769,0a2.821,2.821,0,0,1-.255-.853,3.073,3.073,0,0,1-2.4,1.028A3.376,3.376,0,0,1,42.8-.633a2.6,2.6,0,0,1-.918-2.039A2.687,2.687,0,0,1,43-4.992a5.529,5.529,0,0,1,3.239-.817h1.169v-.545a1.567,1.567,0,0,0-.338-1.055A1.331,1.331,0,0,0,46-7.8,1.513,1.513,0,0,0,45-7.5a1.045,1.045,0,0,0-.365.844h-2.54a2.551,2.551,0,0,1,.51-1.529,3.37,3.37,0,0,1,1.441-1.1,5.253,5.253,0,0,1,2.092-.4,4.15,4.15,0,0,1,2.791.883,3.09,3.09,0,0,1,1.033,2.483V-2.2a4.546,4.546,0,0,0,.378,2.048V0Zm-2.1-1.767a2.188,2.188,0,0,0,1.037-.25,1.645,1.645,0,0,0,.7-.672V-4.324h-.949q-1.907,0-2.03,1.318l-.009.149a1.017,1.017,0,0,0,.334.782A1.3,1.3,0,0,0,45.668-1.767ZM63.176-12.929v2.092H62.93a4.315,4.315,0,0,0-2.773.9A3.642,3.642,0,0,0,58.9-7.523a3.46,3.46,0,0,1,2.575-1.037,3.26,3.26,0,0,1,2.654,1.2,4.792,4.792,0,0,1,.984,3.146,4.713,4.713,0,0,1-.541,2.259A3.877,3.877,0,0,1,63.04-.387,4.443,4.443,0,0,1,60.8.176,4.15,4.15,0,0,1,57.538-1.23a5.459,5.459,0,0,1-1.244-3.753V-5.9a8.215,8.215,0,0,1,.787-3.678,5.768,5.768,0,0,1,2.259-2.47,6.619,6.619,0,0,1,3.415-.883ZM60.7-6.513a2.029,2.029,0,0,0-1.116.32,1.929,1.929,0,0,0-.738.847v.772a3.42,3.42,0,0,0,.5,1.987,1.619,1.619,0,0,0,1.406.715,1.6,1.6,0,0,0,1.323-.645,2.63,2.63,0,0,0,.505-1.671,2.625,2.625,0,0,0-.51-1.684A1.661,1.661,0,0,0,60.7-6.513ZM66.85-1.248a1.279,1.279,0,0,1,.409-.984,1.45,1.45,0,0,1,1.024-.378,1.462,1.462,0,0,1,1.033.378,1.279,1.279,0,0,1,.409.984,1.261,1.261,0,0,1-.4.971A1.468,1.468,0,0,1,68.282.1a1.456,1.456,0,0,1-1.028-.374A1.261,1.261,0,0,1,66.85-1.248ZM86.326-4.061a4.708,4.708,0,0,1-1.5,3.133,4.911,4.911,0,0,1-3.353,1.1A4.509,4.509,0,0,1,77.84-1.45,6.542,6.542,0,0,1,76.474-5.8v-1.23a7.291,7.291,0,0,1,.637-3.138,4.76,4.76,0,0,1,1.806-2.079,5.029,5.029,0,0,1,2.707-.725,4.624,4.624,0,0,1,3.27,1.138,4.765,4.765,0,0,1,1.433,3.151h-1.7a3.677,3.677,0,0,0-.954-2.222,2.885,2.885,0,0,0-2.052-.688,3.019,3.019,0,0,0-2.536,1.2,5.492,5.492,0,0,0-.918,3.4v1.24a5.645,5.645,0,0,0,.87,3.316A2.812,2.812,0,0,0,81.475-1.2a3.247,3.247,0,0,0,2.158-.637,3.536,3.536,0,0,0,1-2.219Zm1.617-.782a5.617,5.617,0,0,1,.549-2.514,4.1,4.1,0,0,1,1.529-1.723,4.163,4.163,0,0,1,2.237-.606A4.01,4.01,0,0,1,95.4-8.341a5.174,5.174,0,0,1,1.2,3.577v.114a5.666,5.666,0,0,1-.532,2.492A4.038,4.038,0,0,1,94.548-.439a4.211,4.211,0,0,1-2.272.615,4,4,0,0,1-3.133-1.345,5.147,5.147,0,0,1-1.2-3.56Zm1.635.193a4.068,4.068,0,0,0,.734,2.54,2.349,2.349,0,0,0,1.964.958,2.335,2.335,0,0,0,1.969-.971,4.449,4.449,0,0,0,.729-2.72,4.061,4.061,0,0,0-.743-2.536,2.361,2.361,0,0,0-1.973-.971,2.335,2.335,0,0,0-1.942.958A4.416,4.416,0,0,0,89.578-4.649Zm10.6-4.86.053,1.2a3.465,3.465,0,0,1,2.848-1.371q3.015,0,3.041,3.4V0h-1.626V-6.293a2.189,2.189,0,0,0-.47-1.521,1.884,1.884,0,0,0-1.437-.492,2.347,2.347,0,0,0-1.389.422,2.865,2.865,0,0,0-.932,1.107V0H98.64V-9.51ZM112.518.176a4.155,4.155,0,0,1-3.146-1.27,4.714,4.714,0,0,1-1.213-3.4v-.3a5.707,5.707,0,0,1,.541-2.527,4.217,4.217,0,0,1,1.512-1.74,3.8,3.8,0,0,1,2.1-.628A3.562,3.562,0,0,1,115.2-8.464a5.289,5.289,0,0,1,1.028,3.5v.677h-6.442a3.38,3.38,0,0,0,.822,2.272,2.583,2.583,0,0,0,2,.866,2.832,2.832,0,0,0,1.459-.352,3.666,3.666,0,0,0,1.046-.932l.993.773A3.993,3.993,0,0,1,112.518.176Zm-.2-8.525a2.169,2.169,0,0,0-1.652.716,3.482,3.482,0,0,0-.826,2.008H114.6v-.123a3.1,3.1,0,0,0-.668-1.92A2.042,2.042,0,0,0,112.315-8.35ZM121.3-6.038l2.109-3.472h1.9l-3.111,4.7L125.4,0h-1.881l-2.2-3.56L119.127,0h-1.89l3.208-4.808-3.111-4.7h1.881ZM128.795,0h-1.626V-9.51h1.626Zm-1.758-12.032a.971.971,0,0,1,.242-.668.907.907,0,0,1,.716-.272.922.922,0,0,1,.721.272.96.96,0,0,1,.246.668.929.929,0,0,1-.246.659.938.938,0,0,1-.721.264.924.924,0,0,1-.716-.264A.938.938,0,0,1,127.037-12.032Zm3.929,7.189a5.617,5.617,0,0,1,.549-2.514,4.1,4.1,0,0,1,1.529-1.723,4.163,4.163,0,0,1,2.237-.606,4.01,4.01,0,0,1,3.142,1.345,5.174,5.174,0,0,1,1.2,3.577v.114a5.666,5.666,0,0,1-.532,2.492,4.038,4.038,0,0,1-1.521,1.718A4.211,4.211,0,0,1,135.3.176a4,4,0,0,1-3.133-1.345,5.147,5.147,0,0,1-1.2-3.56Zm1.635.193a4.068,4.068,0,0,0,.734,2.54,2.349,2.349,0,0,0,1.964.958,2.335,2.335,0,0,0,1.969-.971A4.449,4.449,0,0,0,138-4.843a4.061,4.061,0,0,0-.743-2.536,2.361,2.361,0,0,0-1.973-.971,2.335,2.335,0,0,0-1.942.958A4.416,4.416,0,0,0,132.6-4.649ZM136.02-13.5h1.969l-2.355,2.584-1.31,0ZM143.2-9.51l.053,1.2A3.465,3.465,0,0,1,146.1-9.686q3.015,0,3.041,3.4V0h-1.626V-6.293a2.189,2.189,0,0,0-.47-1.521,1.884,1.884,0,0,0-1.437-.492,2.347,2.347,0,0,0-1.389.422,2.865,2.865,0,0,0-.932,1.107V0h-1.626V-9.51Zm20.171,6.161H158.01L156.806,0h-1.74l4.887-12.8h1.477l4.9,12.8h-1.731Zm-4.852-1.38h4.351l-2.18-5.985Zm13.869-3.322a4.873,4.873,0,0,0-.8-.062,2.143,2.143,0,0,0-2.171,1.362V0h-1.626V-9.51h1.582l.026,1.1a2.532,2.532,0,0,1,2.268-1.274,1.661,1.661,0,0,1,.721.123Zm.888,3.208a5.617,5.617,0,0,1,.549-2.514,4.1,4.1,0,0,1,1.529-1.723,4.163,4.163,0,0,1,2.237-.606,4.01,4.01,0,0,1,3.142,1.345,5.174,5.174,0,0,1,1.2,3.577v.114a5.666,5.666,0,0,1-.532,2.492,4.038,4.038,0,0,1-1.521,1.718,4.211,4.211,0,0,1-2.272.615,4,4,0,0,1-3.133-1.345,5.147,5.147,0,0,1-1.2-3.56Zm1.635.193a4.068,4.068,0,0,0,.734,2.54,2.349,2.349,0,0,0,1.964.958,2.335,2.335,0,0,0,1.969-.971,4.449,4.449,0,0,0,.729-2.72,4.061,4.061,0,0,0-.743-2.536,2.361,2.361,0,0,0-1.973-.971,2.335,2.335,0,0,0-1.942.958A4.416,4.416,0,0,0,174.911-4.649Zm10.6-4.86.053,1.2a3.465,3.465,0,0,1,2.848-1.371q3.015,0,3.041,3.4V0h-1.626V-6.293a2.189,2.189,0,0,0-.47-1.521,1.884,1.884,0,0,0-1.437-.492,2.347,2.347,0,0,0-1.389.422,2.865,2.865,0,0,0-.932,1.107V0h-1.626V-9.51Z" transform="translate(517.855 4227)" fill="#12263f"/>
    <rect id="Rectángulo_31429" data-name="Rectángulo 31429" width="611" height="400" transform="translate(494.855 4248)" fill="#f3f9ff"/>
    <g id="Grupo_84287" data-name="Grupo 84287" transform="translate(12.855)">
      <g id="Grupo_84235" data-name="Grupo 84235" transform="translate(583.855 4343.365)">
        <path id="Trazado_102482" data-name="Trazado 102482" d="M152,414.925h76.875L229.495,246h58.121l-1.14,168.925H578.222" transform="translate(-152 -246)" fill="none" stroke="#76c2dd" stroke-linecap="round" stroke-linejoin="round" stroke-width="2"/>
        <path id="Trazado_102483" data-name="Trazado 102483" d="M613.736,425.24v6.942l5.832-3.471Z" transform="translate(-187.514 -259.786)" fill="#76c2dd" stroke="#76c2dd" stroke-linecap="round" stroke-linejoin="round" stroke-width="2"/>
      </g>
      <g id="Grupo_84236" data-name="Grupo 84236" transform="translate(583.855 4343.365)">
        <path id="Trazado_102484" data-name="Trazado 102484" d="M152,437.823H578.222" transform="translate(-152 -246)" fill="none" stroke="#265d99" stroke-linecap="round" stroke-linejoin="round" stroke-width="2"/>
        <path id="Trazado_102485" data-name="Trazado 102485" d="M613.736,449.536v7.883l5.832-3.942Z" transform="translate(-187.514 -261.655)" fill="#265d99" stroke="#265d99" stroke-linecap="round" stroke-linejoin="round" stroke-width="2"/>
      </g>
      <path id="Trazado_102487" data-name="Trazado 102487" d="M152,460.2H397.92l.62-214.2h58.121l-1.14,214.2h122.7" transform="translate(431.855 4097.365)" fill="none" stroke="#ee6c4d" stroke-linecap="round" stroke-linejoin="round" stroke-width="2"/>
      <path id="Trazado_102488" data-name="Trazado 102488" d="M613.736,473.279v8.8l5.832-4.4Z" transform="translate(396.342 4079.885)" fill="#ee6c4d" stroke="#ee6c4d" stroke-linecap="round" stroke-linejoin="round" stroke-width="2"/>
      <path id="Trazado_102491" data-name="Trazado 102491" d="M0,141.237V0" transform="translate(690.877 4309.002)" fill="none" stroke="#76c2dd" stroke-linecap="round" stroke-width="1"/>
      <line id="Línea_190" data-name="Línea 190" y1="225.498" transform="translate(774.632 4309.002)" fill="none" stroke="#265d99" stroke-linecap="round" stroke-linejoin="round" stroke-width="1"/>
      <line id="Línea_191" data-name="Línea 191" y1="141.237" transform="translate(858.425 4309.002)" fill="none" stroke="#ee6c4d" stroke-linecap="round" stroke-linejoin="round" stroke-width="1"/>
      <circle id="Elipse_4142" data-name="Elipse 4142" cx="12.923" cy="12.923" r="12.923" transform="translate(677.954 4330.441)" fill="#f3f9ff" stroke="#afafaf" stroke-linecap="round" stroke-linejoin="round" stroke-width="2"/>
      <circle id="Elipse_4143" data-name="Elipse 4143" cx="12.923" cy="12.923" r="12.923" transform="translate(761.728 4330.441)" fill="#f3f9ff" stroke="#afafaf" stroke-linecap="round" stroke-linejoin="round" stroke-width="2"/>
      <circle id="Elipse_4144" data-name="Elipse 4144" cx="12.923" cy="12.923" r="12.923" transform="translate(845.502 4330.441)" fill="#f3f9ff" stroke="#afafaf" stroke-linecap="round" stroke-linejoin="round" stroke-width="2"/>
      <path id="Trazado_102490" data-name="Trazado 102490" d="M267.939,208.772H435.313" transform="translate(422.938 4100.229)" fill="none" stroke="#265d99" stroke-linecap="round" stroke-linejoin="round" stroke-width="1"/>
      <g id="Grupo_84239" data-name="Grupo 84239" transform="translate(645.91 4450.238)">
        <rect id="Rectángulo_31873" data-name="Rectángulo 31873" width="28.155" height="27.765" fill="#f3f9ff" stroke="#afafaf" stroke-linecap="round" stroke-linejoin="round" stroke-width="2"/>
        <rect id="Rectángulo_31874" data-name="Rectángulo 31874" width="28.155" height="27.765" transform="translate(28.155)" fill="#f3f9ff" stroke="#afafaf" stroke-linecap="round" stroke-linejoin="round" stroke-width="2"/>
        <rect id="Rectángulo_31875" data-name="Rectángulo 31875" width="28.155" height="27.765" transform="translate(56.31)" fill="#f3f9ff" stroke="#afafaf" stroke-linecap="round" stroke-linejoin="round" stroke-width="2"/>
        <rect id="Rectángulo_31876" data-name="Rectángulo 31876" width="28.155" height="27.765" transform="translate(84.465)" fill="#f3f9ff" stroke="#afafaf" stroke-linecap="round" stroke-linejoin="round" stroke-width="2"/>
      </g>
      <g id="Grupo_84240" data-name="Grupo 84240" transform="translate(758.53 4450.238)">
        <rect id="Rectángulo_31877" data-name="Rectángulo 31877" width="28.155" height="27.765" transform="translate(0)" fill="#f3f9ff" stroke="#afafaf" stroke-linecap="round" stroke-linejoin="round" stroke-width="2"/>
        <rect id="Rectángulo_31878" data-name="Rectángulo 31878" width="28.155" height="27.765" transform="translate(28.155)" fill="#f3f9ff" stroke="#afafaf" stroke-linecap="round" stroke-linejoin="round" stroke-width="2"/>
        <rect id="Rectángulo_31879" data-name="Rectángulo 31879" width="28.155" height="27.765" transform="translate(56.31)" fill="#f3f9ff" stroke="#afafaf" stroke-linecap="round" stroke-linejoin="round" stroke-width="2"/>
        <rect id="Rectángulo_31880" data-name="Rectángulo 31880" width="28.155" height="27.765" transform="translate(84.465)" fill="#f3f9ff" stroke="#afafaf" stroke-linecap="round" stroke-linejoin="round" stroke-width="2"/>
      </g>
      <g id="Grupo_84241" data-name="Grupo 84241" transform="translate(871.15 4450.238)">
        <rect id="Rectángulo_31881" data-name="Rectángulo 31881" width="28.155" height="27.765" fill="#f3f9ff" stroke="#afafaf" stroke-linecap="round" stroke-linejoin="round" stroke-width="2"/>
        <rect id="Rectángulo_31882" data-name="Rectángulo 31882" width="28.155" height="27.765" transform="translate(28.155)" fill="#f3f9ff" stroke="#afafaf" stroke-linecap="round" stroke-linejoin="round" stroke-width="2"/>
        <rect id="Rectángulo_31883" data-name="Rectángulo 31883" width="28.155" height="27.765" transform="translate(56.31)" fill="#f3f9ff" stroke="#afafaf" stroke-linecap="round" stroke-linejoin="round" stroke-width="2"/>
        <rect id="Rectángulo_31884" data-name="Rectángulo 31884" width="28.155" height="27.765" transform="translate(84.465)" fill="#f3f9ff" stroke="#afafaf" stroke-linecap="round" stroke-linejoin="round" stroke-width="2"/>
      </g>
      <g id="Grupo_84242" data-name="Grupo 84242" transform="translate(663.988 4460.252)">
        <rect id="Rectángulo_31885" data-name="Rectángulo 31885" width="18.97" height="7.738" rx="3.807" transform="translate(0.324)" fill="#f3f9ff" stroke="#76c2dd" stroke-linecap="round" stroke-linejoin="round" stroke-width="1"/>
        <circle id="Elipse_4134" data-name="Elipse 4134" cx="3.869" cy="3.869" r="3.869" fill="#f3f9ff" stroke="#76c2dd" stroke-linecap="round" stroke-linejoin="round" stroke-width="1"/>
        <circle id="Elipse_4135" data-name="Elipse 4135" cx="3.869" cy="3.869" r="3.869" transform="translate(11.555)" fill="#f3f9ff" stroke="#76c2dd" stroke-linecap="round" stroke-linejoin="round" stroke-width="1"/>
      </g>
      <g id="Grupo_84244" data-name="Grupo 84244" transform="translate(833.349 4460.252)">
        <rect id="Rectángulo_31887" data-name="Rectángulo 31887" width="18.97" height="7.738" rx="3.807" transform="translate(0.324)" fill="#f3f9ff" stroke="#ee6c4d" stroke-linecap="round" stroke-linejoin="round" stroke-width="1"/>
        <circle id="Elipse_4138" data-name="Elipse 4138" cx="3.869" cy="3.869" r="3.869" transform="translate(0)" fill="#f3f9ff" stroke="#ee6c4d" stroke-linecap="round" stroke-linejoin="round" stroke-width="1"/>
        <circle id="Elipse_4139" data-name="Elipse 4139" cx="3.869" cy="3.869" r="3.869" transform="translate(11.555)" fill="#f3f9ff" stroke="#ee6c4d" stroke-linecap="round" stroke-linejoin="round" stroke-width="1"/>
      </g>
      <text id="L1" transform="translate(568 4517.18)" fill="#12263f" font-size="16" font-family="Roboto-Bold, Roboto" font-weight="700"><tspan x="-8.922" y="0">L1</tspan></text>
      <text id="_1" data-name="1" transform="translate(658.988 4469.621)" fill="#12263f" font-size="14" font-family="Roboto-Regular, Roboto"><tspan x="-3.931" y="0">1</tspan></text>
      <text id="_2" data-name="2" transform="translate(690 4469.621)" fill="#12263f" font-size="14" font-family="Roboto-Regular, Roboto"><tspan x="-3.931" y="0">2</tspan></text>
      <text id="_3" data-name="3" transform="translate(716 4469.621)" fill="#12263f" font-size="14" font-family="Roboto-Regular, Roboto"><tspan x="-3.931" y="0">3</tspan></text>
      <text id="_4" data-name="4" transform="translate(743.884 4469.621)" fill="#12263f" font-size="14" font-family="Roboto-Regular, Roboto"><tspan x="-3.931" y="0">4</tspan></text>
      <text id="_5" data-name="5" transform="translate(774.896 4469.621)" fill="#12263f" font-size="14" font-family="Roboto-Regular, Roboto"><tspan x="-3.931" y="0">5</tspan></text>
      <text id="_6" data-name="6" transform="translate(800.896 4469.621)" fill="#12263f" font-size="14" font-family="Roboto-Regular, Roboto"><tspan x="-3.931" y="0">6</tspan></text>
      <text id="_7" data-name="7" transform="translate(827.896 4469.621)" fill="#12263f" font-size="14" font-family="Roboto-Regular, Roboto"><tspan x="-3.931" y="0">7</tspan></text>
      <text id="_8" data-name="8" transform="translate(859.36 4469.621)" fill="#12263f" font-size="14" font-family="Roboto-Regular, Roboto"><tspan x="-3.931" y="0">8</tspan></text>
      <text id="_9" data-name="9" transform="translate(885.36 4469.621)" fill="#12263f" font-size="14" font-family="Roboto-Regular, Roboto"><tspan x="-3.931" y="0">9</tspan></text>
      <text id="_10" data-name="10" transform="translate(909 4469.621)" fill="#12263f" font-size="14" font-family="Roboto-Regular, Roboto"><tspan x="-7.861" y="0">10</tspan></text>
      <text id="_11" data-name="11" transform="translate(945.921 4469.621)" fill="#12263f" font-size="14" font-family="Roboto-Regular, Roboto"><tspan x="-7.861" y="0">11</tspan></text>
      <text id="_12" data-name="12" transform="translate(968.921 4469.621)" fill="#12263f" font-size="14" font-family="Roboto-Regular, Roboto"><tspan x="-7.861" y="0">12</tspan></text>
      <text id="L2" transform="translate(568 4540.18)" fill="#12263f" font-size="16" font-family="Roboto-Bold, Roboto" font-weight="700"><tspan x="-8.922" y="0">L2</tspan></text>
      <text id="L3" transform="translate(568 4563.18)" fill="#12263f" font-size="16" font-family="Roboto-Bold, Roboto" font-weight="700"><tspan x="-8.922" y="0">L3</tspan></text>
      <circle id="Elipse_4162" data-name="Elipse 4162" cx="3.5" cy="3.5" r="3.5" transform="translate(770.855 4532)" fill="#265d99"/>
    </g>
  </g>
</svg>
