<?xml version="1.0" encoding="utf-8"?>
<!-- Generator: Adobe Illustrator 25.3.1, SVG Export Plug-In . SVG Version: 6.00 Build 0)  -->
<svg version="1.1" id="Layer_1" xmlns="http://www.w3.org/2000/svg" xmlns:xlink="http://www.w3.org/1999/xlink" x="0px" y="0px"
	 viewBox="0 0 611 400" style="enable-background:new 0 0 611 400;" xml:space="preserve">
<style type="text/css">
	.st0{fill:#F3F9FF;}
	.st1{fill:none;stroke:#76C2DD;stroke-width:2;stroke-linecap:round;stroke-linejoin:round;}
	.st2{fill:none;stroke:#76C2DD;stroke-linecap:round;stroke-linejoin:round;}
	.st3{fill:#76C2DD;stroke:#76C2DD;stroke-width:2;stroke-linecap:round;stroke-linejoin:round;}
	.st4{fill:none;stroke:#12263F;stroke-width:2;stroke-linecap:round;stroke-linejoin:round;}
	.st5{fill:none;stroke:#265D99;stroke-width:2;stroke-linecap:round;stroke-linejoin:round;}
	.st6{fill:#265D99;stroke:#265D99;stroke-width:2;stroke-linecap:round;stroke-linejoin:round;}
	.st7{fill:none;stroke:#265D99;stroke-linecap:round;stroke-linejoin:round;}
	.st8{fill:none;stroke:#AFAFAF;stroke-width:2;stroke-linecap:round;stroke-linejoin:round;}
	.st9{fill:none;stroke:#EE6C4D;stroke-width:2;stroke-linecap:round;stroke-linejoin:round;}
	.st10{fill:#EE6C4D;stroke:#EE6C4D;stroke-width:2;stroke-linecap:round;stroke-linejoin:round;}
	.st11{fill:#AFAFAF;stroke:#AFAFAF;stroke-width:2;stroke-linecap:round;stroke-linejoin:round;}
	.st12{fill:none;stroke:#76C2DD;stroke-linecap:round;}
	.st13{fill:none;stroke:#265D99;stroke-linecap:round;}
	.st14{fill:none;stroke:#EE6C4D;stroke-linecap:round;}
	.st15{fill:#F3F9FF;stroke:#AFAFAF;stroke-width:2;stroke-linecap:round;stroke-linejoin:round;}
	.st16{fill:none;stroke:#AFAFAF;stroke-linecap:round;stroke-linejoin:round;}
	.st17{enable-background:new    ;}
	.st18{fill:#12263F;}
	.st19{fill:#AFAFAF;}
	.st20{fill:#76C2DD;}
	.st21{fill:#265D99;}
	.st22{fill:#EE6C4D;}
	.st23{fill:none;stroke:#12263F;stroke-width:2;stroke-linecap:round;}
	.st24{fill:none;stroke:#EE6C4D;stroke-linecap:round;stroke-linejoin:round;}
</style>
<g id="Grupo_84318" transform="translate(-494.855 -2848)">
	<g id="Grupo_84269">
		<rect id="Rectángulo_31890" x="494.9" y="2848" class="st0" width="611" height="400"/>
		<g id="Grupo_84246" transform="translate(583.855 2943.365)">
			<path id="Trazado_102482" class="st1" d="M76.9,121.9L77.5,0h58.1l-1.1,121.9"/>
			<path id="Trazado_102499" class="st2" d="M91.2,160.9H76.9v-50"/>
			<path id="Trazado_102500" class="st2" d="M121.1,160.9h14.4V111"/>
			<path id="Trazado_102483" class="st3" d="M426.2,165.5v6.9l5.8-3.5L426.2,165.5z"/>
			<path id="Trazado_102498" class="st1" d="M0,168.9h426.2"/>
			<g id="Grupo_84253" transform="translate(-269.693 37.684)">
				<path id="Trazado_102501" class="st4" d="M374.8,122c3.5,3.8,3.3,9.6-0.5,13.1s-9.6,3.3-13.1-0.5c-2.9-3.2-3.3-7.9-0.9-11.5"/>
				<path id="Trazado_102502" class="st4" d="M389.3,123.1"/>
				<path id="Trazado_102503" class="st4" d="M389.2,123.1c2.9,4.3,1.7,10-2.5,12.9s-10,1.7-12.9-2.5c-2.4-3.6-2-8.4,0.9-11.6"/>
			</g>
		</g>
		<g id="Grupo_84247" transform="translate(583.855 2943.365)">
			<path id="Trazado_102484" class="st5" d="M161.2,125.8L161.9,0H220l-1.1,125.8"/>
			<path id="Trazado_102485" class="st6" d="M426.2,187.9v7.9l5.8-3.9L426.2,187.9z"/>
			<path id="Trazado_102504" class="st5" d="M0,191.8h426.2"/>
			<path id="Trazado_102506" class="st7" d="M175.6,183.9h-14.4v-50"/>
			<path id="Trazado_102507" class="st7" d="M204.5,183.9h14.4V134"/>
		</g>
		<path id="Trazado_102493" class="st8" d="M583.9,3181.4h426.2"/>
		<path id="Trazado_102492" class="st9" d="M829.8,3065.6l0.6-122.2h58.1l-1.1,122.2"/>
		<path id="Trazado_102496" class="st10" d="M1010.1,3153.2v8.8l5.8-4.4L1010.1,3153.2z"/>
		<path id="Trazado_102497" class="st11" d="M1010.1,3177v8.8l5.8-4.4L1010.1,3177z"/>
		<path id="Trazado_102494" class="st12" d="M625.9,3112.3v-17.9h65V2909"/>
		<path id="Trazado_102505" class="st13" d="M729.8,3135.6v-41.2h44.8V2909"/>
		<path id="Trazado_102509" class="st14" d="M815.4,3156.8v-63.5h43.1l-0.1-184.3"/>
		<circle id="Elipse_4145" class="st15" cx="690.9" cy="2943.4" r="12.9"/>
		<circle id="Elipse_4146" class="st15" cx="774.7" cy="2943.4" r="12.9"/>
		<circle id="Elipse_4147" class="st15" cx="858.4" cy="2943.4" r="12.9"/>
		<path id="Trazado_102495" class="st16" d="M690.9,2909h250.7v272.4"/>
		<g id="Grupo_84248" transform="translate(645.91 3050.238)">
			<rect id="Rectángulo_31873" x="0" y="0" class="st15" width="28.2" height="27.8"/>
			<rect id="Rectángulo_31874" x="28.2" y="0" class="st15" width="28.2" height="27.8"/>
			<rect id="Rectángulo_31875" x="56.3" y="0" class="st15" width="28.2" height="27.8"/>
			<rect id="Rectángulo_31876" x="84.5" y="0" class="st15" width="28.2" height="27.8"/>
		</g>
		<g id="Grupo_84249" transform="translate(758.53 3050.238)">
			<rect id="Rectángulo_31877" x="0" y="0" class="st15" width="28.2" height="27.8"/>
			<rect id="Rectángulo_31878" x="28.2" y="0" class="st15" width="28.2" height="27.8"/>
			<rect id="Rectángulo_31879" x="56.3" y="0" class="st15" width="28.2" height="27.8"/>
			<rect id="Rectángulo_31880" x="84.5" y="0" class="st15" width="28.2" height="27.8"/>
		</g>
		<g id="Grupo_84252" transform="translate(871.15 3050.238)">
			<rect id="Rectángulo_31881" x="0" y="0" class="st15" width="28.2" height="27.8"/>
			<rect id="Rectángulo_31882" x="28.2" y="0" class="st15" width="28.2" height="27.8"/>
			<rect id="Rectángulo_31883" x="56.3" y="0" class="st15" width="28.2" height="27.8"/>
			<rect id="Rectángulo_31884" x="84.5" y="0" class="st15" width="28.2" height="27.8"/>
		</g>
		<g class="st17">
			<path class="st18" d="M562.4,3115.3h5v1.9h-7.3v-11.4h2.3V3115.3z"/>
			<path class="st18" d="M574,3117.2h-2.3v-8.7l-2.7,0.8v-1.8l4.7-1.7h0.2V3117.2z"/>
		</g>
		<g class="st17">
			<path class="st18" d="M661.2,3069.6h-1.3v-8.4l-2.5,0.9v-1.1l3.6-1.4h0.2V3069.6z"/>
		</g>
		<g class="st17">
			<path class="st18" d="M692.4,3069.6h-6.5v-0.9l3.4-3.8c0.5-0.6,0.9-1,1.1-1.4c0.2-0.4,0.3-0.7,0.3-1.1c0-0.5-0.2-0.9-0.5-1.3
				s-0.7-0.5-1.3-0.5c-0.6,0-1.1,0.2-1.5,0.5c-0.3,0.4-0.5,0.9-0.5,1.5h-1.3c0-0.9,0.3-1.7,0.9-2.2s1.4-0.8,2.4-0.8
				c0.9,0,1.7,0.2,2.2,0.7c0.5,0.5,0.8,1.1,0.8,1.9c0,1-0.6,2.1-1.9,3.5l-2.7,2.9h5V3069.6z"/>
		</g>
		<g class="st17">
			<path class="st18" d="M715.7,3064h1c0.6,0,1.1-0.2,1.4-0.5s0.5-0.7,0.5-1.2c0-1.2-0.6-1.8-1.7-1.8c-0.5,0-1,0.2-1.3,0.5
				c-0.3,0.3-0.5,0.7-0.5,1.2h-1.3c0-0.8,0.3-1.4,0.9-2c0.6-0.5,1.3-0.8,2.2-0.8c0.9,0,1.7,0.2,2.2,0.7s0.8,1.2,0.8,2.1
				c0,0.4-0.1,0.9-0.4,1.3s-0.7,0.7-1.1,0.9c0.5,0.2,1,0.5,1.3,0.9s0.4,0.9,0.4,1.5c0,0.9-0.3,1.6-0.9,2.1s-1.3,0.8-2.3,0.8
				s-1.7-0.3-2.3-0.8s-0.9-1.2-0.9-2h1.3c0,0.5,0.2,0.9,0.5,1.3s0.8,0.5,1.4,0.5c0.6,0,1.1-0.2,1.4-0.5s0.5-0.8,0.5-1.4
				c0-0.6-0.2-1-0.5-1.3s-0.9-0.5-1.5-0.5h-1V3064z"/>
		</g>
		<g class="st17">
			<path class="st18" d="M747.1,3066.3h1.4v1h-1.4v2.3h-1.3v-2.3h-4.5v-0.7l4.5-6.9h1.3V3066.3z M742.8,3066.3h3.1v-4.9l-0.2,0.3
				L742.8,3066.3z"/>
		</g>
		<g class="st17">
			<path class="st18" d="M770.5,3064.6l0.5-5h5.1v1.2h-4l-0.3,2.7c0.5-0.3,1-0.4,1.7-0.4c0.9,0,1.6,0.3,2.2,0.9
				c0.5,0.6,0.8,1.4,0.8,2.4c0,1-0.3,1.8-0.8,2.4c-0.6,0.6-1.3,0.9-2.3,0.9c-0.9,0-1.6-0.2-2.2-0.7s-0.9-1.2-1-2h1.2
				c0.1,0.6,0.3,1,0.6,1.3c0.3,0.3,0.8,0.4,1.3,0.4c0.6,0,1-0.2,1.4-0.6s0.5-1,0.5-1.7c0-0.7-0.2-1.2-0.5-1.6
				c-0.4-0.4-0.8-0.6-1.4-0.6c-0.6,0-1,0.1-1.3,0.4l-0.3,0.3L770.5,3064.6z"/>
		</g>
		<g class="st17">
			<path class="st18" d="M802.8,3059.7v1.1h-0.2c-1,0-1.8,0.3-2.4,0.9s-0.9,1.4-1,2.4c0.5-0.6,1.2-0.9,2.1-0.9
				c0.9,0,1.6,0.3,2.1,0.9c0.5,0.6,0.8,1.4,0.8,2.4c0,1-0.3,1.8-0.8,2.5c-0.6,0.6-1.3,0.9-2.2,0.9c-1,0-1.7-0.4-2.3-1.1
				c-0.6-0.7-0.9-1.7-0.9-2.8v-0.5c0-1.8,0.4-3.2,1.2-4.2c0.8-1,1.9-1.5,3.5-1.5H802.8z M801.1,3064.1c-0.4,0-0.8,0.1-1.2,0.4
				s-0.6,0.6-0.8,1v0.5c0,0.8,0.2,1.5,0.6,2s0.8,0.8,1.4,0.8c0.6,0,1-0.2,1.3-0.6c0.3-0.4,0.5-1,0.5-1.6c0-0.7-0.2-1.2-0.5-1.7
				C802.1,3064.4,801.6,3064.1,801.1,3064.1z"/>
		</g>
		<g class="st17">
			<path class="st18" d="M832.1,3060.4l-4.1,9.2h-1.3l4.1-8.9h-5.4v-1h6.7V3060.4z"/>
		</g>
		<g class="st17">
			<path class="st18" d="M860.3,3062.3c0,0.5-0.1,0.9-0.4,1.3c-0.3,0.4-0.6,0.7-1.1,0.9c0.5,0.2,0.9,0.5,1.2,1
				c0.3,0.4,0.5,0.9,0.5,1.5c0,0.9-0.3,1.5-0.9,2.1s-1.3,0.8-2.3,0.8c-1,0-1.7-0.3-2.3-0.8c-0.6-0.5-0.9-1.2-0.9-2.1
				c0-0.5,0.1-1,0.4-1.5s0.7-0.8,1.2-1c-0.4-0.2-0.8-0.5-1-0.9c-0.3-0.4-0.4-0.8-0.4-1.3c0-0.8,0.3-1.5,0.8-2
				c0.5-0.5,1.2-0.7,2.1-0.7c0.9,0,1.6,0.2,2.1,0.7S860.3,3061.4,860.3,3062.3z M859.3,3066.9c0-0.6-0.2-1-0.5-1.4
				c-0.4-0.4-0.8-0.5-1.4-0.5c-0.6,0-1,0.2-1.4,0.5c-0.3,0.3-0.5,0.8-0.5,1.4s0.2,1,0.5,1.3s0.8,0.5,1.4,0.5c0.6,0,1.1-0.2,1.4-0.5
				C859.1,3067.9,859.3,3067.5,859.3,3066.9z M857.4,3060.6c-0.5,0-0.9,0.2-1.2,0.5c-0.3,0.3-0.5,0.7-0.5,1.3c0,0.5,0.2,0.9,0.5,1.2
				c0.3,0.3,0.7,0.5,1.2,0.5s0.9-0.2,1.2-0.5c0.3-0.3,0.5-0.7,0.5-1.2s-0.2-0.9-0.5-1.2S857.8,3060.6,857.4,3060.6z"/>
		</g>
		<g class="st17">
			<path class="st18" d="M887.1,3065.2c-0.3,0.3-0.6,0.6-0.9,0.8c-0.4,0.2-0.8,0.3-1.2,0.3c-0.6,0-1.1-0.1-1.5-0.4
				c-0.4-0.3-0.8-0.7-1-1.2c-0.2-0.5-0.3-1.1-0.3-1.7c0-0.7,0.1-1.3,0.4-1.8s0.6-0.9,1.1-1.2s1-0.4,1.6-0.4c1,0,1.8,0.4,2.3,1.1
				c0.6,0.7,0.9,1.7,0.9,3v0.4c0,1.9-0.4,3.4-1.1,4.2c-0.8,0.9-1.9,1.3-3.5,1.4h-0.2v-1.1h0.3c1,0,1.8-0.3,2.4-0.8
				S887.1,3066.4,887.1,3065.2z M885.2,3065.2c0.4,0,0.8-0.1,1.2-0.4c0.4-0.3,0.6-0.6,0.8-1v-0.5c0-0.8-0.2-1.5-0.5-2
				c-0.4-0.5-0.8-0.8-1.4-0.8c-0.6,0-1,0.2-1.3,0.6c-0.3,0.4-0.5,1-0.5,1.7c0,0.7,0.2,1.2,0.5,1.7
				C884.2,3065,884.6,3065.2,885.2,3065.2z"/>
		</g>
		<g class="st17">
			<path class="st18" d="M910.1,3069.6h-1.3v-8.4l-2.5,0.9v-1.1l3.6-1.4h0.2V3069.6z"/>
			<path class="st18" d="M920.1,3065.4c0,1.5-0.3,2.6-0.8,3.3s-1.3,1.1-2.4,1.1c-1.1,0-1.8-0.4-2.4-1.1c-0.5-0.7-0.8-1.8-0.8-3.2
				v-1.7c0-1.5,0.3-2.5,0.8-3.3s1.3-1.1,2.4-1.1c1.1,0,1.9,0.3,2.4,1c0.5,0.7,0.8,1.7,0.8,3.2V3065.4z M918.8,3063.6
				c0-1.1-0.2-1.9-0.5-2.3c-0.3-0.5-0.8-0.7-1.4-0.7c-0.6,0-1.1,0.2-1.4,0.7c-0.3,0.5-0.4,1.2-0.5,2.2v2c0,1.1,0.2,1.9,0.5,2.4
				c0.3,0.5,0.8,0.8,1.4,0.8c0.6,0,1.1-0.2,1.4-0.7c0.3-0.5,0.5-1.2,0.5-2.3V3063.6z"/>
		</g>
		<g class="st17">
			<path class="st18" d="M938.7,3069.6h-1.3v-8.4l-2.5,0.9v-1.1l3.6-1.4h0.2V3069.6z"/>
			<path class="st18" d="M946.5,3069.6h-1.3v-8.4l-2.5,0.9v-1.1l3.6-1.4h0.2V3069.6z"/>
		</g>
		<g class="st17">
			<path class="st18" d="M966,3069.6h-1.3v-8.4l-2.5,0.9v-1.1l3.6-1.4h0.2V3069.6z"/>
			<path class="st18" d="M976.3,3069.6h-6.5v-0.9l3.4-3.8c0.5-0.6,0.9-1,1.1-1.4c0.2-0.4,0.3-0.7,0.3-1.1c0-0.5-0.2-0.9-0.5-1.3
				s-0.7-0.5-1.3-0.5c-0.6,0-1.1,0.2-1.5,0.5c-0.3,0.4-0.5,0.9-0.5,1.5h-1.3c0-0.9,0.3-1.7,0.9-2.2c0.6-0.6,1.4-0.8,2.4-0.8
				c0.9,0,1.7,0.2,2.2,0.7c0.5,0.5,0.8,1.1,0.8,1.9c0,1-0.6,2.1-1.9,3.5l-2.7,2.9h5V3069.6z"/>
		</g>
		<g class="st17">
			<path class="st18" d="M562.4,3138.3h5v1.9h-7.3v-11.4h2.3V3138.3z"/>
			<path class="st18" d="M576.3,3140.2h-7.8v-1.5l3.7-3.9c0.5-0.6,0.9-1,1.1-1.4s0.4-0.8,0.4-1.2c0-0.5-0.1-0.9-0.4-1.2
				c-0.3-0.3-0.6-0.4-1.1-0.4c-0.5,0-0.9,0.2-1.2,0.5c-0.3,0.4-0.4,0.8-0.4,1.4h-2.3c0-0.7,0.2-1.3,0.5-1.9c0.3-0.6,0.8-1,1.4-1.3
				c0.6-0.3,1.3-0.5,2.1-0.5c1.2,0,2.1,0.3,2.7,0.8s1,1.4,1,2.4c0,0.6-0.1,1.1-0.4,1.7c-0.3,0.6-0.8,1.3-1.5,2l-2.6,2.7h4.9V3140.2z
				"/>
		</g>
		<g class="st17">
			<path class="st18" d="M562.4,3161.3h5v1.9h-7.3v-11.4h2.3V3161.3z"/>
			<path class="st18" d="M570.8,3156.5h1.2c0.6,0,1-0.1,1.3-0.4c0.3-0.3,0.4-0.7,0.4-1.1c0-0.5-0.1-0.8-0.4-1.1s-0.6-0.4-1.1-0.4
				c-0.4,0-0.8,0.1-1.1,0.4c-0.3,0.2-0.4,0.5-0.4,0.9h-2.3c0-0.6,0.2-1.1,0.5-1.6s0.8-0.8,1.3-1.1c0.6-0.3,1.2-0.4,1.9-0.4
				c1.2,0,2.1,0.3,2.8,0.9c0.7,0.6,1,1.4,1,2.4c0,0.5-0.2,1-0.5,1.4c-0.3,0.4-0.7,0.8-1.2,1c0.6,0.2,1.1,0.6,1.4,1
				c0.3,0.5,0.5,1,0.5,1.6c0,1-0.4,1.8-1.1,2.4c-0.7,0.6-1.7,0.9-2.9,0.9c-1.1,0-2.1-0.3-2.8-0.9c-0.7-0.6-1.1-1.4-1.1-2.4h2.3
				c0,0.4,0.2,0.8,0.5,1s0.7,0.4,1.2,0.4c0.5,0,1-0.1,1.3-0.4s0.5-0.7,0.5-1.1c0-1.1-0.6-1.7-1.9-1.7h-1.2V3156.5z"/>
		</g>
		<g class="st17">
			<path class="st18" d="M572.6,3186.2h-2.3l-4.6-7.5v7.5h-2.3v-11.4h2.3l4.6,7.5v-7.5h2.3V3186.2z"/>
		</g>
		<circle id="Elipse_4148" class="st19" cx="941.4" cy="3181.5" r="3.5"/>
		<circle id="Elipse_4149" class="st20" cx="625.4" cy="3111.5" r="3.5"/>
		<circle id="Elipse_4151" class="st21" cx="729.4" cy="3135.5" r="3.5"/>
		<circle id="Elipse_4152" class="st22" cx="815.4" cy="3157.5" r="3.5"/>
		<g id="Grupo_84254">
			<circle id="Elipse_4150" class="st18" cx="674.4" cy="3125.5" r="3.5"/>
			<line id="Línea_194" class="st23" x1="681" y1="3125.5" x2="705" y2="3125.5"/>
		</g>
		<g id="Grupo_84256" transform="translate(85 22.68)">
			<circle id="Elipse_4150-2" class="st18" cx="674.4" cy="3125.5" r="3.5"/>
			<line id="Línea_194-2" class="st23" x1="681" y1="3125.5" x2="705" y2="3125.5"/>
		</g>
		<g id="Grupo_84255" transform="translate(399.162 3003.549)">
			<path id="Trazado_102501-2" class="st4" d="M374.8,122c3.5,3.8,3.3,9.6-0.5,13.1s-9.6,3.3-13.1-0.5c-2.9-3.2-3.3-7.9-0.9-11.5"/>
			<path id="Trazado_102502-2" class="st4" d="M389.3,123.1"/>
			<path id="Trazado_102503-2" class="st4" d="M389.2,123.1c2.9,4.3,1.7,10-2.5,12.9s-10,1.7-12.9-2.5c-2.4-3.6-2-8.4,0.9-11.6"/>
		</g>
		<path id="Trazado_102508" class="st9" d="M583.9,3157.6h426.2"/>
		<path id="Trazado_102510" class="st24" d="M844,3151.7h-14.4v-74.4"/>
		<path id="Trazado_102511" class="st24" d="M872.9,3151.7h14.4v-74.3"/>
		<g id="Grupo_84258" transform="translate(169.855 47.857)">
			<circle id="Elipse_4150-3" class="st18" cx="674.4" cy="3125.5" r="3.5"/>
			<line id="Línea_194-3" class="st23" x1="681" y1="3125.5" x2="705" y2="3125.5"/>
		</g>
		<g id="Grupo_84257" transform="translate(484.018 3028.727)">
			<path id="Trazado_102501-3" class="st4" d="M374.8,122c3.5,3.8,3.3,9.6-0.5,13.1s-9.6,3.3-13.1-0.5c-2.9-3.2-3.3-7.9-0.9-11.5"/>
			<path id="Trazado_102502-3" class="st4" d="M389.3,123.1"/>
			<path id="Trazado_102503-3" class="st4" d="M389.2,123.1c2.9,4.3,1.7,10-2.5,12.9s-10,1.7-12.9-2.5c-2.4-3.6-2-8.4,0.9-11.6"/>
		</g>
	</g>
</g>
</svg>
