<svg xmlns="http://www.w3.org/2000/svg" width="611" height="444" viewBox="0 0 611 444">
  <g id="Grupo_84307" data-name="Grupo 84307" transform="translate(-494.855 -2804)">
    <rect id="Rectángulo_31436" data-name="Rectángulo 31436" width="5" height="28" transform="translate(494.855 2804)" fill="#76c2dd"/>
    <text id="Figura_4._Medida_semidirecta_" data-name="Figura 4. Medida semidirecta
" transform="translate(517.855 2823)" fill="#12263f" font-size="18" font-family="Roboto-Bold, Roboto" font-weight="700"><tspan x="0" y="0">Figura 4.</tspan><tspan y="0" xml:space="preserve" font-family="Roboto-Regular, Roboto" font-weight="400"> Medida semidirecta</tspan><tspan font-family="Roboto-Regular, Roboto" font-weight="400"><tspan x="0" y="18"></tspan></tspan></text>
    <g id="Grupo_84269" data-name="Grupo 84269">
      <rect id="Rectángulo_31890" data-name="Rectángulo 31890" width="611" height="400" transform="translate(494.855 2848)" fill="#f3f9ff"/>
      <g id="Grupo_84246" data-name="Grupo 84246" transform="translate(583.855 2943.365)">
        <path id="Trazado_102482" data-name="Trazado 102482" d="M228.875,367.925,229.495,246h58.121l-1.14,121.925" transform="translate(-152 -246)" fill="none" stroke="#76c2dd" stroke-linecap="round" stroke-linejoin="round" stroke-width="2"/>
        <path id="Trazado_102499" data-name="Trazado 102499" d="M273.247,246h14.369v50.037" transform="translate(364.491 406.92) rotate(180)" fill="none" stroke="#76c2dd" stroke-linecap="round" stroke-linejoin="round" stroke-width="1"/>
        <path id="Trazado_102500" data-name="Trazado 102500" d="M0,48.92H14.369V-.977" transform="translate(121.145 111.999)" fill="none" stroke="#76c2dd" stroke-linecap="round" stroke-linejoin="round" stroke-width="1"/>
        <path id="Trazado_102483" data-name="Trazado 102483" d="M613.736,425.24v6.942l5.832-3.471Z" transform="translate(-187.514 -259.786)" fill="#76c2dd" stroke="#76c2dd" stroke-linecap="round" stroke-linejoin="round" stroke-width="2"/>
        <path id="Trazado_102498" data-name="Trazado 102498" d="M152,414.925H578.222" transform="translate(-152 -246)" fill="none" stroke="#76c2dd" stroke-linecap="round" stroke-linejoin="round" stroke-width="2"/>
        <g id="Grupo_84253" data-name="Grupo 84253" transform="translate(-269.693 37.684)">
          <path id="Trazado_102501" data-name="Trazado 102501" d="M374.785,121.952a9.293,9.293,0,1,1-14.523,1.169" transform="translate(0 0)" fill="none" stroke="#12263f" stroke-linecap="round" stroke-linejoin="round" stroke-width="2"/>
          <path id="Trazado_102502" data-name="Trazado 102502" d="M404.722,123.733" transform="translate(-15.471 -0.599)" fill="none" stroke="#12263f" stroke-linecap="round" stroke-linejoin="round" stroke-width="2"/>
          <path id="Trazado_102503" data-name="Trazado 102503" d="M396.114,123.135a9.295,9.295,0,1,1-14.468-1.181" transform="translate(-6.864 -0.001)" fill="none" stroke="#12263f" stroke-linecap="round" stroke-linejoin="round" stroke-width="2"/>
        </g>
      </g>
      <g id="Grupo_84247" data-name="Grupo 84247" transform="translate(583.855 2943.365)">
        <path id="Trazado_102484" data-name="Trazado 102484" d="M313.23,371.823,313.851,246h58.121l-1.14,125.823" transform="translate(-152 -246)" fill="none" stroke="#265d99" stroke-linecap="round" stroke-linejoin="round" stroke-width="2"/>
        <path id="Trazado_102485" data-name="Trazado 102485" d="M613.736,449.536v7.883l5.832-3.942Z" transform="translate(-187.514 -261.655)" fill="#265d99" stroke="#265d99" stroke-linecap="round" stroke-linejoin="round" stroke-width="2"/>
        <path id="Trazado_102504" data-name="Trazado 102504" d="M152,437.823H578.222" transform="translate(-152 -246)" fill="none" stroke="#265d99" stroke-linecap="round" stroke-linejoin="round" stroke-width="2"/>
        <path id="Trazado_102506" data-name="Trazado 102506" d="M273.247,246h14.369v50.037" transform="translate(448.847 429.92) rotate(180)" fill="none" stroke="#265d99" stroke-linecap="round" stroke-linejoin="round" stroke-width="1"/>
        <path id="Trazado_102507" data-name="Trazado 102507" d="M0,48.92H14.369V-.977" transform="translate(204.5 134.998)" fill="none" stroke="#265d99" stroke-linecap="round" stroke-linejoin="round" stroke-width="1"/>
      </g>
      <path id="Trazado_102493" data-name="Trazado 102493" d="M152,492.637H578.222" transform="translate(431.855 2688.73)" fill="none" stroke="#afafaf" stroke-linecap="round" stroke-linejoin="round" stroke-width="2"/>
      <path id="Trazado_102492" data-name="Trazado 102492" d="M397.92,368.2l.62-122.2h58.121l-1.14,122.2" transform="translate(431.855 2697.365)" fill="none" stroke="#ee6c4d" stroke-linecap="round" stroke-linejoin="round" stroke-width="2"/>
      <path id="Trazado_102496" data-name="Trazado 102496" d="M613.736,473.279v8.8l5.832-4.4Z" transform="translate(396.342 2679.885)" fill="#ee6c4d" stroke="#ee6c4d" stroke-linecap="round" stroke-linejoin="round" stroke-width="2"/>
      <path id="Trazado_102497" data-name="Trazado 102497" d="M613.736,501.232v8.8l5.832-4.4Z" transform="translate(396.342 2675.734)" fill="#afafaf" stroke="#afafaf" stroke-linecap="round" stroke-linejoin="round" stroke-width="2"/>
      <path id="Trazado_102494" data-name="Trazado 102494" d="M-65.02,203.285v-17.9H0V0" transform="translate(690.877 2909.002)" fill="none" stroke="#76c2dd" stroke-linecap="round" stroke-width="1"/>
      <path id="Trazado_102505" data-name="Trazado 102505" d="M-44.831,226.629V185.437H0V0" transform="translate(774.632 2909.002)" fill="none" stroke="#265d99" stroke-linecap="round" stroke-width="1"/>
      <path id="Trazado_102509" data-name="Trazado 102509" d="M-43.021,247.779V184.3H.081L0,0" transform="translate(858.425 2909.002)" fill="none" stroke="#ee6c4d" stroke-linecap="round" stroke-width="1"/>
      <circle id="Elipse_4145" data-name="Elipse 4145" cx="12.923" cy="12.923" r="12.923" transform="translate(677.954 2930.441)" fill="#f3f9ff" stroke="#afafaf" stroke-linecap="round" stroke-linejoin="round" stroke-width="2"/>
      <circle id="Elipse_4146" data-name="Elipse 4146" cx="12.923" cy="12.923" r="12.923" transform="translate(761.728 2930.441)" fill="#f3f9ff" stroke="#afafaf" stroke-linecap="round" stroke-linejoin="round" stroke-width="2"/>
      <circle id="Elipse_4147" data-name="Elipse 4147" cx="12.923" cy="12.923" r="12.923" transform="translate(845.502 2930.441)" fill="#f3f9ff" stroke="#afafaf" stroke-linecap="round" stroke-linejoin="round" stroke-width="2"/>
      <path id="Trazado_102495" data-name="Trazado 102495" d="M267.939,208.772H518.6V481.2" transform="translate(422.938 2700.229)" fill="none" stroke="#afafaf" stroke-linecap="round" stroke-linejoin="round" stroke-width="1"/>
      <g id="Grupo_84248" data-name="Grupo 84248" transform="translate(645.91 3050.238)">
        <rect id="Rectángulo_31873" data-name="Rectángulo 31873" width="28.155" height="27.765" fill="#f3f9ff" stroke="#afafaf" stroke-linecap="round" stroke-linejoin="round" stroke-width="2"/>
        <rect id="Rectángulo_31874" data-name="Rectángulo 31874" width="28.155" height="27.765" transform="translate(28.155)" fill="#f3f9ff" stroke="#afafaf" stroke-linecap="round" stroke-linejoin="round" stroke-width="2"/>
        <rect id="Rectángulo_31875" data-name="Rectángulo 31875" width="28.155" height="27.765" transform="translate(56.31)" fill="#f3f9ff" stroke="#afafaf" stroke-linecap="round" stroke-linejoin="round" stroke-width="2"/>
        <rect id="Rectángulo_31876" data-name="Rectángulo 31876" width="28.155" height="27.765" transform="translate(84.465)" fill="#f3f9ff" stroke="#afafaf" stroke-linecap="round" stroke-linejoin="round" stroke-width="2"/>
      </g>
      <g id="Grupo_84249" data-name="Grupo 84249" transform="translate(758.53 3050.238)">
        <rect id="Rectángulo_31877" data-name="Rectángulo 31877" width="28.155" height="27.765" transform="translate(0)" fill="#f3f9ff" stroke="#afafaf" stroke-linecap="round" stroke-linejoin="round" stroke-width="2"/>
        <rect id="Rectángulo_31878" data-name="Rectángulo 31878" width="28.155" height="27.765" transform="translate(28.155)" fill="#f3f9ff" stroke="#afafaf" stroke-linecap="round" stroke-linejoin="round" stroke-width="2"/>
        <rect id="Rectángulo_31879" data-name="Rectángulo 31879" width="28.155" height="27.765" transform="translate(56.31)" fill="#f3f9ff" stroke="#afafaf" stroke-linecap="round" stroke-linejoin="round" stroke-width="2"/>
        <rect id="Rectángulo_31880" data-name="Rectángulo 31880" width="28.155" height="27.765" transform="translate(84.465)" fill="#f3f9ff" stroke="#afafaf" stroke-linecap="round" stroke-linejoin="round" stroke-width="2"/>
      </g>
      <g id="Grupo_84252" data-name="Grupo 84252" transform="translate(871.15 3050.238)">
        <rect id="Rectángulo_31881" data-name="Rectángulo 31881" width="28.155" height="27.765" fill="#f3f9ff" stroke="#afafaf" stroke-linecap="round" stroke-linejoin="round" stroke-width="2"/>
        <rect id="Rectángulo_31882" data-name="Rectángulo 31882" width="28.155" height="27.765" transform="translate(28.155)" fill="#f3f9ff" stroke="#afafaf" stroke-linecap="round" stroke-linejoin="round" stroke-width="2"/>
        <rect id="Rectángulo_31883" data-name="Rectángulo 31883" width="28.155" height="27.765" transform="translate(56.31)" fill="#f3f9ff" stroke="#afafaf" stroke-linecap="round" stroke-linejoin="round" stroke-width="2"/>
        <rect id="Rectángulo_31884" data-name="Rectángulo 31884" width="28.155" height="27.765" transform="translate(84.465)" fill="#f3f9ff" stroke="#afafaf" stroke-linecap="round" stroke-linejoin="round" stroke-width="2"/>
      </g>
      <text id="L1" transform="translate(568 3117.18)" fill="#12263f" font-size="16" font-family="Roboto-Bold, Roboto" font-weight="700"><tspan x="-8.922" y="0">L1</tspan></text>
      <text id="_1" data-name="1" transform="translate(660.116 3069.621)" fill="#12263f" font-size="14" font-family="Roboto-Regular, Roboto"><tspan x="-3.931" y="0">1</tspan></text>
      <text id="_2" data-name="2" transform="translate(689 3069.621)" fill="#12263f" font-size="14" font-family="Roboto-Regular, Roboto"><tspan x="-3.931" y="0">2</tspan></text>
      <text id="_3" data-name="3" transform="translate(717 3069.621)" fill="#12263f" font-size="14" font-family="Roboto-Regular, Roboto"><tspan x="-3.931" y="0">3</tspan></text>
      <text id="_4" data-name="4" transform="translate(744.884 3069.621)" fill="#12263f" font-size="14" font-family="Roboto-Regular, Roboto"><tspan x="-3.931" y="0">4</tspan></text>
      <text id="_5" data-name="5" transform="translate(773.012 3069.621)" fill="#12263f" font-size="14" font-family="Roboto-Regular, Roboto"><tspan x="-3.931" y="0">5</tspan></text>
      <text id="_6" data-name="6" transform="translate(800.896 3069.621)" fill="#12263f" font-size="14" font-family="Roboto-Regular, Roboto"><tspan x="-3.931" y="0">6</tspan></text>
      <text id="_7" data-name="7" transform="translate(828.779 3069.621)" fill="#12263f" font-size="14" font-family="Roboto-Regular, Roboto"><tspan x="-3.931" y="0">7</tspan></text>
      <text id="_8" data-name="8" transform="translate(857.36 3069.621)" fill="#12263f" font-size="14" font-family="Roboto-Regular, Roboto"><tspan x="-3.931" y="0">8</tspan></text>
      <text id="_9" data-name="9" transform="translate(885.36 3069.621)" fill="#12263f" font-size="14" font-family="Roboto-Regular, Roboto"><tspan x="-3.931" y="0">9</tspan></text>
      <text id="_10" data-name="10" transform="translate(913 3069.621)" fill="#12263f" font-size="14" font-family="Roboto-Regular, Roboto"><tspan x="-7.861" y="0">10</tspan></text>
      <text id="_11" data-name="11" transform="translate(941.537 3069.621)" fill="#12263f" font-size="14" font-family="Roboto-Regular, Roboto"><tspan x="-7.861" y="0">11</tspan></text>
      <text id="_12" data-name="12" transform="translate(968.921 3069.621)" fill="#12263f" font-size="14" font-family="Roboto-Regular, Roboto"><tspan x="-7.861" y="0">12</tspan></text>
      <text id="L2" transform="translate(568 3140.18)" fill="#12263f" font-size="16" font-family="Roboto-Bold, Roboto" font-weight="700"><tspan x="-8.922" y="0">L2</tspan></text>
      <text id="L3" transform="translate(568 3163.18)" fill="#12263f" font-size="16" font-family="Roboto-Bold, Roboto" font-weight="700"><tspan x="-8.922" y="0">L3</tspan></text>
      <text id="N" transform="translate(568 3186.18)" fill="#12263f" font-size="16" font-family="Roboto-Bold, Roboto" font-weight="700"><tspan x="-5.648" y="0">N</tspan></text>
      <circle id="Elipse_4148" data-name="Elipse 4148" cx="3.5" cy="3.5" r="3.5" transform="translate(937.855 3178)" fill="#afafaf"/>
      <circle id="Elipse_4149" data-name="Elipse 4149" cx="3.5" cy="3.5" r="3.5" transform="translate(621.855 3108)" fill="#76c2dd"/>
      <circle id="Elipse_4151" data-name="Elipse 4151" cx="3.5" cy="3.5" r="3.5" transform="translate(725.855 3132)" fill="#265d99"/>
      <circle id="Elipse_4152" data-name="Elipse 4152" cx="3.5" cy="3.5" r="3.5" transform="translate(811.855 3154)" fill="#ee6c4d"/>
      <g id="Grupo_84254" data-name="Grupo 84254">
        <circle id="Elipse_4150" data-name="Elipse 4150" cx="3.5" cy="3.5" r="3.5" transform="translate(670.855 3122)" fill="#12263f"/>
        <line id="Línea_194" data-name="Línea 194" x2="24" transform="translate(681 3125.5)" fill="none" stroke="#12263f" stroke-linecap="round" stroke-width="2"/>
      </g>
      <g id="Grupo_84256" data-name="Grupo 84256" transform="translate(85 22.68)">
        <circle id="Elipse_4150-2" data-name="Elipse 4150" cx="3.5" cy="3.5" r="3.5" transform="translate(670.855 3122)" fill="#12263f"/>
        <line id="Línea_194-2" data-name="Línea 194" x2="24" transform="translate(681 3125.5)" fill="none" stroke="#12263f" stroke-linecap="round" stroke-width="2"/>
      </g>
      <g id="Grupo_84255" data-name="Grupo 84255" transform="translate(399.162 3003.549)">
        <path id="Trazado_102501-2" data-name="Trazado 102501" d="M374.785,121.952a9.293,9.293,0,1,1-14.523,1.169" transform="translate(0 0)" fill="none" stroke="#12263f" stroke-linecap="round" stroke-linejoin="round" stroke-width="2"/>
        <path id="Trazado_102502-2" data-name="Trazado 102502" d="M404.722,123.733" transform="translate(-15.471 -0.599)" fill="none" stroke="#12263f" stroke-linecap="round" stroke-linejoin="round" stroke-width="2"/>
        <path id="Trazado_102503-2" data-name="Trazado 102503" d="M396.114,123.135a9.295,9.295,0,1,1-14.468-1.181" transform="translate(-6.864 -0.001)" fill="none" stroke="#12263f" stroke-linecap="round" stroke-linejoin="round" stroke-width="2"/>
      </g>
      <path id="Trazado_102508" data-name="Trazado 102508" d="M152,460.2H578.222" transform="translate(431.855 2697.365)" fill="none" stroke="#ee6c4d" stroke-linecap="round" stroke-linejoin="round" stroke-width="2"/>
      <path id="Trazado_102510" data-name="Trazado 102510" d="M0,0H14.369V74.432" transform="translate(843.975 3151.68) rotate(180)" fill="none" stroke="#ee6c4d" stroke-linecap="round" stroke-linejoin="round" stroke-width="1"/>
      <path id="Trazado_102511" data-name="Trazado 102511" d="M0,73.314H14.369V-.977" transform="translate(872.875 3078.363)" fill="none" stroke="#ee6c4d" stroke-linecap="round" stroke-linejoin="round" stroke-width="1"/>
      <g id="Grupo_84258" data-name="Grupo 84258" transform="translate(169.855 47.857)">
        <circle id="Elipse_4150-3" data-name="Elipse 4150" cx="3.5" cy="3.5" r="3.5" transform="translate(670.855 3122)" fill="#12263f"/>
        <line id="Línea_194-3" data-name="Línea 194" x2="24" transform="translate(681 3125.5)" fill="none" stroke="#12263f" stroke-linecap="round" stroke-width="2"/>
      </g>
      <g id="Grupo_84257" data-name="Grupo 84257" transform="translate(484.018 3028.727)">
        <path id="Trazado_102501-3" data-name="Trazado 102501" d="M374.785,121.952a9.293,9.293,0,1,1-14.523,1.169" transform="translate(0 0)" fill="none" stroke="#12263f" stroke-linecap="round" stroke-linejoin="round" stroke-width="2"/>
        <path id="Trazado_102502-3" data-name="Trazado 102502" d="M404.722,123.733" transform="translate(-15.471 -0.599)" fill="none" stroke="#12263f" stroke-linecap="round" stroke-linejoin="round" stroke-width="2"/>
        <path id="Trazado_102503-3" data-name="Trazado 102503" d="M396.114,123.135a9.295,9.295,0,1,1-14.468-1.181" transform="translate(-6.864 -0.001)" fill="none" stroke="#12263f" stroke-linecap="round" stroke-linejoin="round" stroke-width="2"/>
      </g>
    </g>
  </g>
</svg>
