<?xml version="1.0" encoding="utf-8"?>
<!-- Generator: Adobe Illustrator 25.3.1, SVG Export Plug-In . SVG Version: 6.00 Build 0)  -->
<svg version="1.1" id="Layer_1" xmlns="http://www.w3.org/2000/svg" xmlns:xlink="http://www.w3.org/1999/xlink" x="0px" y="0px"
	 viewBox="0 0 505 300" style="enable-background:new 0 0 505 300;" xml:space="preserve">
<style type="text/css">
	.st0{fill:#F3F9FF;}
	.st1{fill:none;stroke:#EE6C4D;stroke-width:2;stroke-linecap:round;stroke-linejoin:round;}
	.st2{fill:none;stroke:#AFAFAF;stroke-width:2;stroke-linecap:round;stroke-linejoin:round;}
	.st3{fill:none;stroke:#265D99;stroke-width:2;stroke-linecap:round;stroke-linejoin:round;}
	.st4{fill:none;stroke:#76C2DD;stroke-width:2;stroke-linecap:round;}
	.st5{fill:#AFAFAF;stroke:#AFAFAF;stroke-width:2;stroke-linecap:round;stroke-linejoin:round;}
	.st6{fill:#F3F9FF;stroke:#AFAFAF;stroke-width:2;stroke-linecap:round;}
	.st7{fill:#F3F9FF;stroke:#AFAFAF;stroke-width:2;stroke-linecap:round;stroke-linejoin:round;}
	.st8{enable-background:new    ;}
	.st9{fill:#12263F;}
</style>
<g id="Grupo_84316" transform="translate(-809.855 -958)">
	<g id="Grupo_84271">
		<rect id="Rectángulo_31422" x="809.9" y="958" class="st0" width="505" height="300"/>
		<g id="Grupo_84234" transform="translate(190.666 -0.211)">
			<g id="Grupo_84233" transform="translate(-109.31 765.73)">
				<path id="Trazado_102472" class="st1" d="M847,424.7h258.4v-37.3"/>
				<path id="Trazado_102473" class="st2" d="M847,461.3h295V344.8h-118.7l-81.4,43.3"/>
				<line id="Línea_184" class="st3" x1="847" y1="388.1" x2="942.3" y2="388.1"/>
				<path id="Trazado_102479" class="st4" d="M849,257.6h173.6"/>
				<line id="Línea_186" class="st2" x1="889.1" y1="262.7" x2="889.1" y2="382.2"/>
				<path id="Trazado_102474" class="st5" d="M886.3,264.5h5.6l-2.8-3.8L886.3,264.5z"/>
				<path id="Trazado_102475" class="st5" d="M891.9,381.8h-5.6l2.8,3.8L891.9,381.8z"/>
				<path id="Trazado_102480" class="st6" d="M928.8,246.6c5.8,0,10.5,4.7,10.5,10.5c0,5.8-4.7,10.5-10.5,10.5
					c-5.8,0-10.5-4.7-10.5-10.5c0,0,0,0,0,0C918.2,251.3,923,246.6,928.8,246.6z"/>
				<circle id="Elipse_4132" class="st7" cx="889.2" cy="322.8" r="10.5"/>
				<line id="Línea_187" class="st2" x1="1104.9" y1="387.1" x2="1023.6" y2="344.9"/>
				<line id="Línea_188" class="st2" x1="1023.6" y1="257.6" x2="1023.6" y2="344.9"/>
				<rect id="Rectángulo_31870" x="1017.6" y="285.7" class="st7" width="10" height="37.1"/>
				
					<rect id="Rectángulo_31871" x="966.1" y="360.9" transform="matrix(0.8886 -0.4587 0.4587 0.8886 -58.0472 492.474)" class="st7" width="37.3" height="9.7"/>
				
					<rect id="Rectángulo_31872" x="1059.1" y="347.1" transform="matrix(0.4587 -0.8886 0.8886 0.4587 250.9058 1143.3539)" class="st7" width="9.7" height="37.3"/>
				<path id="Trazado_102476" class="st2" d="M1035.9,357.5l-7.5,11.9l52.3,28.4l8.2-13.4"/>
				<circle id="Elipse_4133" class="st7" cx="1051.2" cy="385.6" r="10.5"/>
				<path id="Trazado_102477" class="st5" d="M1032.9,356.8l5,2.6l-0.7-4.7L1032.9,356.8z"/>
				<path id="Trazado_102478" class="st5" d="M1085.9,384.4l5,2.6l-0.7-4.7L1085.9,384.4z"/>
			</g>
			<g class="st8">
				<path class="st9" d="M797,990.3c-0.1,1-0.5,1.7-1.1,2.3c-0.6,0.5-1.4,0.8-2.4,0.8c-1.1,0-2-0.4-2.6-1.2c-0.7-0.8-1-1.8-1-3.1
					v-0.9c0-0.9,0.2-1.6,0.5-2.3c0.3-0.7,0.7-1.2,1.3-1.5c0.6-0.3,1.2-0.5,2-0.5c1,0,1.8,0.3,2.4,0.8c0.6,0.5,0.9,1.3,1,2.3h-1.2
					c-0.1-0.7-0.3-1.3-0.7-1.6s-0.8-0.5-1.5-0.5c-0.8,0-1.4,0.3-1.8,0.9s-0.7,1.4-0.7,2.5v0.9c0,1,0.2,1.8,0.6,2.4s1,0.9,1.8,0.9
					c0.7,0,1.2-0.2,1.6-0.5c0.4-0.3,0.6-0.8,0.7-1.6H797z"/>
				<path class="st9" d="M798.2,989.7c0-0.7,0.1-1.3,0.4-1.8c0.3-0.5,0.6-1,1.1-1.2c0.5-0.3,1-0.4,1.6-0.4c0.9,0,1.7,0.3,2.3,1
					c0.6,0.6,0.9,1.5,0.9,2.6v0.1c0,0.7-0.1,1.3-0.4,1.8s-0.6,0.9-1.1,1.2c-0.5,0.3-1,0.4-1.6,0.4c-0.9,0-1.7-0.3-2.3-1
					C798.5,991.7,798.2,990.9,798.2,989.7L798.2,989.7z M799.4,989.9c0,0.8,0.2,1.4,0.5,1.8c0.4,0.5,0.8,0.7,1.4,0.7
					c0.6,0,1.1-0.2,1.4-0.7c0.4-0.5,0.5-1.1,0.5-2c0-0.8-0.2-1.4-0.5-1.8c-0.4-0.5-0.8-0.7-1.4-0.7c-0.6,0-1,0.2-1.4,0.7
					C799.6,988.3,799.4,989,799.4,989.9z"/>
				<path class="st9" d="M809.3,987.4c-0.2,0-0.4,0-0.6,0c-0.8,0-1.3,0.3-1.6,1v4.9h-1.2v-6.9h1.1l0,0.8c0.4-0.6,0.9-0.9,1.6-0.9
					c0.2,0,0.4,0,0.5,0.1V987.4z"/>
				<path class="st9" d="M813.7,987.4c-0.2,0-0.4,0-0.6,0c-0.8,0-1.3,0.3-1.6,1v4.9h-1.2v-6.9h1.1l0,0.8c0.4-0.6,0.9-0.9,1.6-0.9
					c0.2,0,0.4,0,0.5,0.1V987.4z"/>
				<path class="st9" d="M814.7,984.5c0-0.2,0.1-0.4,0.2-0.5c0.1-0.1,0.3-0.2,0.5-0.2s0.4,0.1,0.5,0.2c0.1,0.1,0.2,0.3,0.2,0.5
					c0,0.2-0.1,0.3-0.2,0.5c-0.1,0.1-0.3,0.2-0.5,0.2s-0.4-0.1-0.5-0.2C814.8,984.9,814.7,984.7,814.7,984.5z M816,993.2h-1.2v-6.9
					h1.2V993.2z"/>
				<path class="st9" d="M820.7,993.3c-0.9,0-1.7-0.3-2.3-0.9s-0.9-1.4-0.9-2.5v-0.2c0-0.7,0.1-1.3,0.4-1.8c0.3-0.5,0.6-1,1.1-1.3
					s1-0.5,1.5-0.5c0.9,0,1.6,0.3,2.1,0.9c0.5,0.6,0.7,1.4,0.7,2.5v0.5h-4.7c0,0.7,0.2,1.2,0.6,1.6c0.4,0.4,0.9,0.6,1.4,0.6
					c0.4,0,0.8-0.1,1.1-0.3c0.3-0.2,0.5-0.4,0.8-0.7l0.7,0.6C822.8,992.9,821.9,993.3,820.7,993.3z M820.6,987.2
					c-0.5,0-0.9,0.2-1.2,0.5c-0.3,0.3-0.5,0.8-0.6,1.5h3.4v-0.1c0-0.6-0.2-1.1-0.5-1.4C821.5,987.3,821.1,987.2,820.6,987.2z"/>
				<path class="st9" d="M825.9,986.3l0,0.9c0.5-0.7,1.2-1,2.1-1c1.5,0,2.2,0.8,2.2,2.5v4.5H829v-4.5c0-0.5-0.1-0.9-0.3-1.1
					c-0.2-0.2-0.6-0.4-1-0.4c-0.4,0-0.7,0.1-1,0.3c-0.3,0.2-0.5,0.5-0.7,0.8v4.9h-1.2v-6.9H825.9z"/>
				<path class="st9" d="M833.5,984.7v1.7h1.3v0.9h-1.3v4.3c0,0.3,0.1,0.5,0.2,0.6s0.3,0.2,0.6,0.2c0.1,0,0.3,0,0.6-0.1v0.9
					c-0.3,0.1-0.6,0.1-0.9,0.1c-0.5,0-0.9-0.2-1.2-0.5c-0.3-0.3-0.4-0.8-0.4-1.4v-4.3h-1.2v-0.9h1.2v-1.7H833.5z"/>
				<path class="st9" d="M839.1,993.3c-0.9,0-1.7-0.3-2.3-0.9s-0.9-1.4-0.9-2.5v-0.2c0-0.7,0.1-1.3,0.4-1.8c0.3-0.5,0.6-1,1.1-1.3
					s1-0.5,1.5-0.5c0.9,0,1.6,0.3,2.1,0.9c0.5,0.6,0.7,1.4,0.7,2.5v0.5h-4.7c0,0.7,0.2,1.2,0.6,1.6c0.4,0.4,0.9,0.6,1.4,0.6
					c0.4,0,0.8-0.1,1.1-0.3c0.3-0.2,0.5-0.4,0.8-0.7l0.7,0.6C841.1,992.9,840.2,993.3,839.1,993.3z M838.9,987.2
					c-0.5,0-0.9,0.2-1.2,0.5c-0.3,0.3-0.5,0.8-0.6,1.5h3.4v-0.1c0-0.6-0.2-1.1-0.5-1.4C839.8,987.3,839.4,987.2,838.9,987.2z"/>
			</g>
			<g class="st8">
				<path class="st9" d="M721.9,1084.6l2.6-7.6h1.3l-3.4,9.2h-1.1l-3.4-9.2h1.3L721.9,1084.6z"/>
				<path class="st9" d="M726.3,1082.7c0-0.7,0.1-1.3,0.4-1.8c0.3-0.5,0.6-1,1.1-1.2c0.5-0.3,1-0.4,1.6-0.4c0.9,0,1.7,0.3,2.3,1
					c0.6,0.6,0.9,1.5,0.9,2.6v0.1c0,0.7-0.1,1.3-0.4,1.8s-0.6,0.9-1.1,1.2c-0.5,0.3-1,0.4-1.6,0.4c-0.9,0-1.7-0.3-2.3-1
					C726.6,1084.7,726.3,1083.9,726.3,1082.7L726.3,1082.7z M727.5,1082.9c0,0.8,0.2,1.4,0.5,1.8c0.4,0.5,0.8,0.7,1.4,0.7
					c0.6,0,1.1-0.2,1.4-0.7c0.4-0.5,0.5-1.1,0.5-2c0-0.8-0.2-1.4-0.5-1.8c-0.4-0.5-0.8-0.7-1.4-0.7c-0.6,0-1,0.2-1.4,0.7
					C727.7,1081.3,727.5,1082,727.5,1082.9z"/>
				<path class="st9" d="M735.3,1086.2h-1.2v-9.8h1.2V1086.2z"/>
				<path class="st9" d="M738.8,1077.7v1.7h1.3v0.9h-1.3v4.3c0,0.3,0.1,0.5,0.2,0.6s0.3,0.2,0.6,0.2c0.1,0,0.3,0,0.6-0.1v0.9
					c-0.3,0.1-0.6,0.1-0.9,0.1c-0.5,0-0.9-0.2-1.2-0.5c-0.3-0.3-0.4-0.8-0.4-1.4v-4.3h-1.3v-0.9h1.3v-1.7H738.8z"/>
				<path class="st9" d="M745.7,1086.2c-0.1-0.1-0.1-0.4-0.2-0.7c-0.5,0.6-1.2,0.9-2,0.9c-0.7,0-1.2-0.2-1.7-0.6s-0.7-0.9-0.7-1.5
					c0-0.7,0.3-1.3,0.8-1.7s1.3-0.6,2.3-0.6h1.1v-0.5c0-0.4-0.1-0.7-0.4-1c-0.2-0.2-0.6-0.4-1.1-0.4c-0.4,0-0.8,0.1-1.1,0.3
					c-0.3,0.2-0.4,0.5-0.4,0.8h-1.2c0-0.3,0.1-0.7,0.4-1c0.2-0.3,0.6-0.6,1-0.8c0.4-0.2,0.9-0.3,1.4-0.3c0.8,0,1.4,0.2,1.9,0.6
					c0.4,0.4,0.7,0.9,0.7,1.6v3.2c0,0.6,0.1,1.1,0.2,1.5v0.1H745.7z M743.7,1085.3c0.4,0,0.7-0.1,1-0.3s0.6-0.4,0.7-0.7v-1.4h-0.9
					c-1.4,0-2.2,0.4-2.2,1.3c0,0.4,0.1,0.7,0.4,0.9C743,1085.2,743.4,1085.3,743.7,1085.3z"/>
				<path class="st9" d="M749.7,1079.3v7.7c0,1.3-0.6,2-1.8,2c-0.3,0-0.5,0-0.7-0.1v-0.9c0.1,0,0.3,0.1,0.5,0.1
					c0.3,0,0.5-0.1,0.6-0.2s0.2-0.4,0.2-0.7v-7.7H749.7z M748.4,1077.5c0-0.2,0.1-0.3,0.2-0.5c0.1-0.1,0.3-0.2,0.5-0.2
					c0.2,0,0.4,0.1,0.5,0.2c0.1,0.1,0.2,0.3,0.2,0.5c0,0.2-0.1,0.3-0.2,0.5c-0.1,0.1-0.3,0.2-0.5,0.2s-0.4-0.1-0.5-0.2
					S748.4,1077.7,748.4,1077.5z"/>
				<path class="st9" d="M754.5,1086.3c-0.9,0-1.7-0.3-2.3-0.9s-0.9-1.4-0.9-2.5v-0.2c0-0.7,0.1-1.3,0.4-1.8c0.3-0.5,0.6-1,1.1-1.3
					s1-0.5,1.5-0.5c0.9,0,1.6,0.3,2.1,0.9c0.5,0.6,0.7,1.4,0.7,2.5v0.5h-4.7c0,0.7,0.2,1.2,0.6,1.6c0.4,0.4,0.9,0.6,1.4,0.6
					c0.4,0,0.8-0.1,1.1-0.3c0.3-0.2,0.5-0.4,0.8-0.7l0.7,0.6C756.5,1085.9,755.6,1086.3,754.5,1086.3z M754.3,1080.2
					c-0.5,0-0.9,0.2-1.2,0.5c-0.3,0.3-0.5,0.8-0.6,1.5h3.4v-0.1c0-0.6-0.2-1.1-0.5-1.4C755.2,1080.3,754.8,1080.2,754.3,1080.2z"/>
			</g>
			<g class="st8">
				<path class="st9" d="M879.9,1157.6l2.6-7.6h1.3l-3.4,9.2h-1.1l-3.4-9.2h1.3L879.9,1157.6z"/>
				<path class="st9" d="M884.3,1155.7c0-0.7,0.1-1.3,0.4-1.8c0.3-0.5,0.6-1,1.1-1.2c0.5-0.3,1-0.4,1.6-0.4c0.9,0,1.7,0.3,2.3,1
					c0.6,0.6,0.9,1.5,0.9,2.6v0.1c0,0.7-0.1,1.3-0.4,1.8s-0.6,0.9-1.1,1.2c-0.5,0.3-1,0.4-1.6,0.4c-0.9,0-1.7-0.3-2.3-1
					C884.6,1157.7,884.3,1156.9,884.3,1155.7L884.3,1155.7z M885.5,1155.9c0,0.8,0.2,1.4,0.5,1.8c0.4,0.5,0.8,0.7,1.4,0.7
					c0.6,0,1.1-0.2,1.4-0.7c0.4-0.5,0.5-1.1,0.5-2c0-0.8-0.2-1.4-0.5-1.8c-0.4-0.5-0.8-0.7-1.4-0.7c-0.6,0-1,0.2-1.4,0.7
					C885.7,1154.3,885.5,1155,885.5,1155.9z"/>
				<path class="st9" d="M893.3,1159.2h-1.2v-9.8h1.2V1159.2z"/>
				<path class="st9" d="M896.8,1150.7v1.7h1.3v0.9h-1.3v4.3c0,0.3,0.1,0.5,0.2,0.6s0.3,0.2,0.6,0.2c0.1,0,0.3,0,0.6-0.1v0.9
					c-0.3,0.1-0.6,0.1-0.9,0.1c-0.5,0-0.9-0.2-1.2-0.5c-0.3-0.3-0.4-0.8-0.4-1.4v-4.3h-1.3v-0.9h1.3v-1.7H896.8z"/>
				<path class="st9" d="M903.7,1159.2c-0.1-0.1-0.1-0.4-0.2-0.7c-0.5,0.6-1.2,0.9-2,0.9c-0.7,0-1.2-0.2-1.7-0.6s-0.7-0.9-0.7-1.5
					c0-0.7,0.3-1.3,0.8-1.7s1.3-0.6,2.3-0.6h1.1v-0.5c0-0.4-0.1-0.7-0.4-1c-0.2-0.2-0.6-0.4-1.1-0.4c-0.4,0-0.8,0.1-1.1,0.3
					c-0.3,0.2-0.4,0.5-0.4,0.8h-1.2c0-0.3,0.1-0.7,0.4-1c0.2-0.3,0.6-0.6,1-0.8c0.4-0.2,0.9-0.3,1.4-0.3c0.8,0,1.4,0.2,1.9,0.6
					c0.4,0.4,0.7,0.9,0.7,1.6v3.2c0,0.6,0.1,1.1,0.2,1.5v0.1H903.7z M901.7,1158.3c0.4,0,0.7-0.1,1-0.3s0.6-0.4,0.7-0.7v-1.4h-0.9
					c-1.4,0-2.2,0.4-2.2,1.3c0,0.4,0.1,0.7,0.4,0.9C901,1158.2,901.4,1158.3,901.7,1158.3z"/>
				<path class="st9" d="M907.7,1152.3v7.7c0,1.3-0.6,2-1.8,2c-0.3,0-0.5,0-0.7-0.1v-0.9c0.1,0,0.3,0.1,0.5,0.1
					c0.3,0,0.5-0.1,0.6-0.2s0.2-0.4,0.2-0.7v-7.7H907.7z M906.4,1150.5c0-0.2,0.1-0.3,0.2-0.5c0.1-0.1,0.3-0.2,0.5-0.2
					c0.2,0,0.4,0.1,0.5,0.2c0.1,0.1,0.2,0.3,0.2,0.5c0,0.2-0.1,0.3-0.2,0.5c-0.1,0.1-0.3,0.2-0.5,0.2s-0.4-0.1-0.5-0.2
					S906.4,1150.7,906.4,1150.5z"/>
				<path class="st9" d="M912.5,1159.3c-0.9,0-1.7-0.3-2.3-0.9s-0.9-1.4-0.9-2.5v-0.2c0-0.7,0.1-1.3,0.4-1.8c0.3-0.5,0.6-1,1.1-1.3
					s1-0.5,1.5-0.5c0.9,0,1.6,0.3,2.1,0.9c0.5,0.6,0.7,1.4,0.7,2.5v0.5h-4.7c0,0.7,0.2,1.2,0.6,1.6c0.4,0.4,0.9,0.6,1.4,0.6
					c0.4,0,0.8-0.1,1.1-0.3c0.3-0.2,0.5-0.4,0.8-0.7l0.7,0.6C914.5,1158.9,913.6,1159.3,912.5,1159.3z M912.3,1153.2
					c-0.5,0-0.9,0.2-1.2,0.5c-0.3,0.3-0.5,0.8-0.6,1.5h3.4v-0.1c0-0.6-0.2-1.1-0.5-1.4C913.2,1153.3,912.8,1153.2,912.3,1153.2z"/>
			</g>
			<g class="st8">
				<path class="st9" d="M821.7,1025.4h-4.1l-0.8,2.3h-2.5l4.2-11.4h2.2l4.3,11.4h-2.5L821.7,1025.4z M818.3,1023.5h2.8l-1.4-4.3
					L818.3,1023.5z"/>
			</g>
			<g class="st8">
				<path class="st9" d="M779.7,1091.9l2.6-8.6h2.6l-4,11.4h-2.4l-3.9-11.4h2.6L779.7,1091.9z"/>
			</g>
			<g class="st8">
				<path class="st9" d="M941.7,1154.9l2.6-8.6h2.6l-4,11.4h-2.4l-3.9-11.4h2.6L941.7,1154.9z"/>
			</g>
			<g class="st8">
				<path class="st9" d="M713.6,1025.8h5v1.9h-7.3v-11.4h2.3V1025.8z"/>
				<path class="st9" d="M725.2,1027.7h-2.3v-8.7l-2.7,0.8v-1.8l4.7-1.7h0.2V1027.7z"/>
			</g>
			<g class="st8">
				<path class="st9" d="M713.6,1155.8h5v1.9h-7.3v-11.4h2.3V1155.8z"/>
				<path class="st9" d="M727.5,1157.7h-7.8v-1.5l3.7-3.9c0.5-0.6,0.9-1,1.1-1.4s0.4-0.8,0.4-1.2c0-0.5-0.1-0.9-0.4-1.2
					c-0.3-0.3-0.6-0.4-1.1-0.4c-0.5,0-0.9,0.2-1.2,0.5c-0.3,0.4-0.4,0.8-0.4,1.4h-2.3c0-0.7,0.2-1.3,0.5-1.9c0.3-0.6,0.8-1,1.4-1.3
					c0.6-0.3,1.3-0.5,2.1-0.5c1.2,0,2.1,0.3,2.7,0.8s1,1.4,1,2.4c0,0.6-0.1,1.1-0.4,1.7c-0.3,0.6-0.8,1.3-1.5,2l-2.6,2.7h4.9V1157.7
					z"/>
			</g>
			<g class="st8">
				<path class="st9" d="M713.6,1193.8h5v1.9h-7.3v-11.4h2.3V1193.8z"/>
				<path class="st9" d="M722,1189h1.2c0.6,0,1-0.1,1.3-0.4c0.3-0.3,0.4-0.7,0.4-1.1c0-0.5-0.1-0.8-0.4-1.1s-0.6-0.4-1.1-0.4
					c-0.4,0-0.8,0.1-1.1,0.4c-0.3,0.2-0.4,0.5-0.4,0.9h-2.3c0-0.6,0.2-1.1,0.5-1.6s0.8-0.8,1.3-1.1c0.6-0.3,1.2-0.4,1.9-0.4
					c1.2,0,2.1,0.3,2.8,0.9c0.7,0.6,1,1.4,1,2.4c0,0.5-0.2,1-0.5,1.4c-0.3,0.4-0.7,0.8-1.2,1c0.6,0.2,1.1,0.6,1.4,1
					c0.3,0.5,0.5,1,0.5,1.6c0,1-0.4,1.8-1.1,2.4c-0.7,0.6-1.7,0.9-2.9,0.9c-1.1,0-2.1-0.3-2.8-0.9c-0.7-0.6-1.1-1.4-1.1-2.4h2.3
					c0,0.4,0.2,0.8,0.5,1s0.7,0.4,1.2,0.4c0.5,0,1-0.1,1.3-0.4s0.5-0.7,0.5-1.1c0-1.1-0.6-1.7-1.9-1.7H722V1189z"/>
			</g>
			<g class="st8">
				<path class="st9" d="M723.8,1232.7h-2.3l-4.6-7.5v7.5h-2.3v-11.4h2.3l4.6,7.5v-7.5h2.3V1232.7z"/>
			</g>
		</g>
	</g>
</g>
</svg>
