<svg xmlns="http://www.w3.org/2000/svg" width="611" height="500" viewBox="0 0 611 500">
  <g id="Grupo_84324" data-name="Grupo 84324" transform="translate(-494.855 -3478)">
    <rect id="Rectángulo_31891" data-name="Rectángulo 31891" width="611" height="500" transform="translate(494.855 3478)" fill="#f3f9ff"/>
    <g id="Grupo_84323" data-name="Grupo 84323">
      <g id="Grupo_84288" data-name="Grupo 84288" transform="translate(12.855)">
        <g id="Grupo_84259" data-name="Grupo 84259" transform="translate(583.855 3573.365)">
          <path id="Trazado_102482" data-name="Trazado 102482" d="M228.875,367.925,229.495,246h58.121l-1.14,121.925" transform="translate(-152 -246)" fill="none" stroke="#76c2dd" stroke-linecap="round" stroke-linejoin="round" stroke-width="2"/>
          <path id="Trazado_102499" data-name="Trazado 102499" d="M273.247,246h14.369v50.037" transform="translate(364.491 406.92) rotate(180)" fill="none" stroke="#76c2dd" stroke-linecap="round" stroke-linejoin="round" stroke-width="1"/>
          <path id="Trazado_102500" data-name="Trazado 102500" d="M0,48.92H14.369V-.977" transform="translate(121.145 111.999)" fill="none" stroke="#76c2dd" stroke-linecap="round" stroke-linejoin="round" stroke-width="1"/>
          <path id="Trazado_102483" data-name="Trazado 102483" d="M613.736,425.24v6.942l5.832-3.471Z" transform="translate(-187.514 -259.786)" fill="#76c2dd" stroke="#76c2dd" stroke-linecap="round" stroke-linejoin="round" stroke-width="2"/>
          <path id="Trazado_102498" data-name="Trazado 102498" d="M152,414.925H578.222" transform="translate(-152 -246)" fill="none" stroke="#76c2dd" stroke-linecap="round" stroke-linejoin="round" stroke-width="2"/>
          <g id="Grupo_84253" data-name="Grupo 84253" transform="translate(-269.693 37.684)">
            <path id="Trazado_102501" data-name="Trazado 102501" d="M374.785,121.952a9.293,9.293,0,1,1-14.523,1.169" transform="translate(0 0)" fill="none" stroke="#12263f" stroke-linecap="round" stroke-linejoin="round" stroke-width="2"/>
            <path id="Trazado_102502" data-name="Trazado 102502" d="M404.722,123.733" transform="translate(-15.471 -0.599)" fill="none" stroke="#12263f" stroke-linecap="round" stroke-linejoin="round" stroke-width="2"/>
            <path id="Trazado_102503" data-name="Trazado 102503" d="M396.114,123.135a9.295,9.295,0,1,1-14.468-1.181" transform="translate(-6.864 -0.001)" fill="none" stroke="#12263f" stroke-linecap="round" stroke-linejoin="round" stroke-width="2"/>
          </g>
        </g>
        <g id="Grupo_84260" data-name="Grupo 84260" transform="translate(583.855 3573.365)">
          <path id="Trazado_102484" data-name="Trazado 102484" d="M313.23,371.823,313.851,246h58.121l-1.14,125.823" transform="translate(-152 -246)" fill="none" stroke="#265d99" stroke-linecap="round" stroke-linejoin="round" stroke-width="2"/>
          <path id="Trazado_102485" data-name="Trazado 102485" d="M613.736,449.536v7.883l5.832-3.942Z" transform="translate(-187.514 -261.655)" fill="#265d99" stroke="#265d99" stroke-linecap="round" stroke-linejoin="round" stroke-width="2"/>
          <path id="Trazado_102504" data-name="Trazado 102504" d="M152,437.823H578.222" transform="translate(-152 -246)" fill="none" stroke="#265d99" stroke-linecap="round" stroke-linejoin="round" stroke-width="2"/>
          <path id="Trazado_102506" data-name="Trazado 102506" d="M273.247,246h14.369v50.037" transform="translate(448.847 429.92) rotate(180)" fill="none" stroke="#265d99" stroke-linecap="round" stroke-linejoin="round" stroke-width="1"/>
          <path id="Trazado_102507" data-name="Trazado 102507" d="M0,48.92H14.369V-.977" transform="translate(204.5 134.998)" fill="none" stroke="#265d99" stroke-linecap="round" stroke-linejoin="round" stroke-width="1"/>
        </g>
        <path id="Trazado_102515" data-name="Trazado 102515" d="M152,492.637H578.222" transform="translate(431.855 3318.73)" fill="none" stroke="#afafaf" stroke-linecap="round" stroke-linejoin="round" stroke-width="2"/>
        <path id="Trazado_102516" data-name="Trazado 102516" d="M397.92,368.2l.62-122.2h58.121l-1.14,122.2" transform="translate(431.855 3327.365)" fill="none" stroke="#ee6c4d" stroke-linecap="round" stroke-linejoin="round" stroke-width="2"/>
        <path id="Trazado_102521" data-name="Trazado 102521" d="M613.736,473.279v8.8l5.832-4.4Z" transform="translate(396.342 3309.885)" fill="#ee6c4d" stroke="#ee6c4d" stroke-linecap="round" stroke-linejoin="round" stroke-width="2"/>
        <path id="Trazado_102522" data-name="Trazado 102522" d="M613.736,501.232v8.8l5.832-4.4Z" transform="translate(396.342 3305.734)" fill="#afafaf" stroke="#afafaf" stroke-linecap="round" stroke-linejoin="round" stroke-width="2"/>
        <path id="Trazado_102512" data-name="Trazado 102512" d="M-43.384,326.717V185.664L0,185.389V0" transform="translate(690.877 3539.002)" fill="none" stroke="#76c2dd" stroke-linecap="round" stroke-width="1"/>
        <path id="Trazado_102513" data-name="Trazado 102513" d="M-44.831,326.467V185.437H0V0" transform="translate(774.632 3539.002)" fill="none" stroke="#265d99" stroke-linecap="round" stroke-width="1"/>
        <path id="Trazado_102517" data-name="Trazado 102517" d="M-43.021,327.52V184.3H.081L0,0" transform="translate(858.425 3539.002)" fill="none" stroke="#ee6c4d" stroke-linecap="round" stroke-width="1"/>
        <circle id="Elipse_4153" data-name="Elipse 4153" cx="12.923" cy="12.923" r="12.923" transform="translate(677.954 3560.441)" fill="#f3f9ff" stroke="#afafaf" stroke-linecap="round" stroke-linejoin="round" stroke-width="2"/>
        <circle id="Elipse_4154" data-name="Elipse 4154" cx="12.923" cy="12.923" r="12.923" transform="translate(761.728 3560.441)" fill="#f3f9ff" stroke="#afafaf" stroke-linecap="round" stroke-linejoin="round" stroke-width="2"/>
        <circle id="Elipse_4155" data-name="Elipse 4155" cx="12.923" cy="12.923" r="12.923" transform="translate(845.502 3560.441)" fill="#f3f9ff" stroke="#afafaf" stroke-linecap="round" stroke-linejoin="round" stroke-width="2"/>
        <path id="Trazado_102514" data-name="Trazado 102514" d="M267.939,208.772H518.6l-.419,382.045h-293.8V566.967" transform="translate(422.938 3330.229)" fill="none" stroke="#afafaf" stroke-linecap="round" stroke-linejoin="round" stroke-width="1"/>
        <g id="Grupo_84261" data-name="Grupo 84261" transform="translate(645.91 3680.238)">
          <rect id="Rectángulo_31873" data-name="Rectángulo 31873" width="28.155" height="27.765" fill="#f3f9ff" stroke="#afafaf" stroke-linecap="round" stroke-linejoin="round" stroke-width="2"/>
          <rect id="Rectángulo_31874" data-name="Rectángulo 31874" width="28.155" height="27.765" transform="translate(28.155)" fill="#f3f9ff" stroke="#afafaf" stroke-linecap="round" stroke-linejoin="round" stroke-width="2"/>
          <rect id="Rectángulo_31875" data-name="Rectángulo 31875" width="28.155" height="27.765" transform="translate(56.31)" fill="#f3f9ff" stroke="#afafaf" stroke-linecap="round" stroke-linejoin="round" stroke-width="2"/>
          <rect id="Rectángulo_31876" data-name="Rectángulo 31876" width="28.155" height="27.765" transform="translate(84.465)" fill="#f3f9ff" stroke="#afafaf" stroke-linecap="round" stroke-linejoin="round" stroke-width="2"/>
        </g>
        <g id="Grupo_84262" data-name="Grupo 84262" transform="translate(758.53 3680.238)">
          <rect id="Rectángulo_31877" data-name="Rectángulo 31877" width="28.155" height="27.765" transform="translate(0)" fill="#f3f9ff" stroke="#afafaf" stroke-linecap="round" stroke-linejoin="round" stroke-width="2"/>
          <rect id="Rectángulo_31878" data-name="Rectángulo 31878" width="28.155" height="27.765" transform="translate(28.155)" fill="#f3f9ff" stroke="#afafaf" stroke-linecap="round" stroke-linejoin="round" stroke-width="2"/>
          <rect id="Rectángulo_31879" data-name="Rectángulo 31879" width="28.155" height="27.765" transform="translate(56.31)" fill="#f3f9ff" stroke="#afafaf" stroke-linecap="round" stroke-linejoin="round" stroke-width="2"/>
          <rect id="Rectángulo_31880" data-name="Rectángulo 31880" width="28.155" height="27.765" transform="translate(84.465)" fill="#f3f9ff" stroke="#afafaf" stroke-linecap="round" stroke-linejoin="round" stroke-width="2"/>
        </g>
        <g id="Grupo_84263" data-name="Grupo 84263" transform="translate(871.15 3680.238)">
          <rect id="Rectángulo_31881" data-name="Rectángulo 31881" width="28.155" height="27.765" fill="#f3f9ff" stroke="#afafaf" stroke-linecap="round" stroke-linejoin="round" stroke-width="2"/>
          <rect id="Rectángulo_31882" data-name="Rectángulo 31882" width="28.155" height="27.765" transform="translate(28.155)" fill="#f3f9ff" stroke="#afafaf" stroke-linecap="round" stroke-linejoin="round" stroke-width="2"/>
          <rect id="Rectángulo_31883" data-name="Rectángulo 31883" width="28.155" height="27.765" transform="translate(56.31)" fill="#f3f9ff" stroke="#afafaf" stroke-linecap="round" stroke-linejoin="round" stroke-width="2"/>
          <rect id="Rectángulo_31884" data-name="Rectángulo 31884" width="28.155" height="27.765" transform="translate(84.465)" fill="#f3f9ff" stroke="#afafaf" stroke-linecap="round" stroke-linejoin="round" stroke-width="2"/>
        </g>
        <text id="L1" transform="translate(568 3747.18)" fill="#12263f" font-size="16" font-family="Roboto-Bold, Roboto" font-weight="700"><tspan x="-8.922" y="0">L1</tspan></text>
        <text id="_1" data-name="1" transform="translate(660.116 3699.621)" fill="#12263f" font-size="14" font-family="Roboto-Regular, Roboto"><tspan x="-3.931" y="0">1</tspan></text>
        <text id="_2" data-name="2" transform="translate(689 3699.621)" fill="#12263f" font-size="14" font-family="Roboto-Regular, Roboto"><tspan x="-3.931" y="0">2</tspan></text>
        <text id="_3" data-name="3" transform="translate(717 3699.621)" fill="#12263f" font-size="14" font-family="Roboto-Regular, Roboto"><tspan x="-3.931" y="0">3</tspan></text>
        <text id="_4" data-name="4" transform="translate(744.884 3699.621)" fill="#12263f" font-size="14" font-family="Roboto-Regular, Roboto"><tspan x="-3.931" y="0">4</tspan></text>
        <text id="_5" data-name="5" transform="translate(773.012 3699.621)" fill="#12263f" font-size="14" font-family="Roboto-Regular, Roboto"><tspan x="-3.931" y="0">5</tspan></text>
        <text id="_6" data-name="6" transform="translate(800.896 3699.621)" fill="#12263f" font-size="14" font-family="Roboto-Regular, Roboto"><tspan x="-3.931" y="0">6</tspan></text>
        <text id="_7" data-name="7" transform="translate(828.779 3699.621)" fill="#12263f" font-size="14" font-family="Roboto-Regular, Roboto"><tspan x="-3.931" y="0">7</tspan></text>
        <text id="_8" data-name="8" transform="translate(857.36 3699.621)" fill="#12263f" font-size="14" font-family="Roboto-Regular, Roboto"><tspan x="-3.931" y="0">8</tspan></text>
        <text id="_9" data-name="9" transform="translate(885.36 3699.621)" fill="#12263f" font-size="14" font-family="Roboto-Regular, Roboto"><tspan x="-3.931" y="0">9</tspan></text>
        <text id="_10" data-name="10" transform="translate(913 3699.621)" fill="#12263f" font-size="14" font-family="Roboto-Regular, Roboto"><tspan x="-7.861" y="0">10</tspan></text>
        <text id="_11" data-name="11" transform="translate(941.537 3699.621)" fill="#12263f" font-size="14" font-family="Roboto-Regular, Roboto"><tspan x="-7.861" y="0">11</tspan></text>
        <text id="_12" data-name="12" transform="translate(968.921 3699.621)" fill="#12263f" font-size="14" font-family="Roboto-Regular, Roboto"><tspan x="-7.861" y="0">12</tspan></text>
        <text id="L2" transform="translate(568 3770.18)" fill="#12263f" font-size="16" font-family="Roboto-Bold, Roboto" font-weight="700"><tspan x="-8.922" y="0">L2</tspan></text>
        <text id="L3" transform="translate(568 3793.18)" fill="#12263f" font-size="16" font-family="Roboto-Bold, Roboto" font-weight="700"><tspan x="-8.922" y="0">L3</tspan></text>
        <text id="N" transform="translate(568 3816.18)" fill="#12263f" font-size="16" font-family="Roboto-Bold, Roboto" font-weight="700"><tspan x="-5.648" y="0">N</tspan></text>
        <circle id="Elipse_4159" data-name="Elipse 4159" cx="3.5" cy="3.5" r="3.5" transform="translate(811.855 3918)" fill="#afafaf"/>
        <circle id="Elipse_4161" data-name="Elipse 4161" cx="3.5" cy="3.5" r="3.5" transform="translate(726.752 3918)" fill="#afafaf"/>
        <circle id="Elipse_4160" data-name="Elipse 4160" cx="3.5" cy="3.5" r="3.5" transform="translate(685 3940)" fill="#afafaf"/>
        <circle id="Elipse_4156" data-name="Elipse 4156" cx="3.5" cy="3.5" r="3.5" transform="translate(602.855 3738)" fill="#76c2dd"/>
        <circle id="Elipse_4157" data-name="Elipse 4157" cx="3.5" cy="3.5" r="3.5" transform="translate(684.855 3762)" fill="#265d99"/>
        <circle id="Elipse_4158" data-name="Elipse 4158" cx="3.5" cy="3.5" r="3.5" transform="translate(770.855 3784)" fill="#ee6c4d"/>
        <g id="Grupo_84264" data-name="Grupo 84264" transform="translate(0 630)">
          <circle id="Elipse_4150" data-name="Elipse 4150" cx="3.5" cy="3.5" r="3.5" transform="translate(670.855 3122)" fill="#12263f"/>
          <line id="Línea_194" data-name="Línea 194" x2="24" transform="translate(681 3125.5)" fill="none" stroke="#12263f" stroke-linecap="round" stroke-width="2"/>
        </g>
        <g id="Grupo_84279" data-name="Grupo 84279" transform="translate(3750.855 3191.865) rotate(90)">
          <circle id="Elipse_4150-2" data-name="Elipse 4150" cx="3.5" cy="3.5" r="3.5" transform="translate(670.855 3120)" fill="#12263f"/>
          <line id="Línea_194-2" data-name="Línea 194" x2="24" transform="translate(681 3125.5)" fill="none" stroke="#12263f" stroke-linecap="round" stroke-width="2"/>
          <line id="Línea_195" data-name="Línea 195" x2="24" transform="translate(681 3122)" fill="none" stroke="#12263f" stroke-linecap="round" stroke-width="2"/>
        </g>
        <g id="Grupo_84280" data-name="Grupo 84280" transform="translate(3832.855 3191.865) rotate(90)">
          <circle id="Elipse_4150-3" data-name="Elipse 4150" cx="3.5" cy="3.5" r="3.5" transform="translate(670.855 3120)" fill="#12263f"/>
          <line id="Línea_194-3" data-name="Línea 194" x2="24" transform="translate(681 3125.5)" fill="none" stroke="#12263f" stroke-linecap="round" stroke-width="2"/>
          <line id="Línea_195-2" data-name="Línea 195" x2="24" transform="translate(681 3122)" fill="none" stroke="#12263f" stroke-linecap="round" stroke-width="2"/>
        </g>
        <g id="Grupo_84285" data-name="Grupo 84285" transform="translate(3918.868 3191.865) rotate(90)">
          <circle id="Elipse_4150-4" data-name="Elipse 4150" cx="3.5" cy="3.5" r="3.5" transform="translate(670.855 3120)" fill="#12263f"/>
          <line id="Línea_194-4" data-name="Línea 194" x2="24" transform="translate(681 3125.5)" fill="none" stroke="#12263f" stroke-linecap="round" stroke-width="2"/>
          <line id="Línea_195-3" data-name="Línea 195" x2="24" transform="translate(681 3122)" fill="none" stroke="#12263f" stroke-linecap="round" stroke-width="2"/>
        </g>
        <g id="Grupo_84265" data-name="Grupo 84265" transform="translate(85 652.68)">
          <circle id="Elipse_4150-5" data-name="Elipse 4150" cx="3.5" cy="3.5" r="3.5" transform="translate(670.855 3122)" fill="#12263f"/>
          <line id="Línea_194-5" data-name="Línea 194" x2="24" transform="translate(681 3125.5)" fill="none" stroke="#12263f" stroke-linecap="round" stroke-width="2"/>
        </g>
        <g id="Grupo_84266" data-name="Grupo 84266" transform="translate(770.699 3507.027) rotate(90)">
          <path id="Trazado_102501-2" data-name="Trazado 102501" d="M374.785,121.952a9.293,9.293,0,1,1-14.523,1.169" transform="translate(0 0)" fill="none" stroke="#12263f" stroke-linecap="round" stroke-linejoin="round" stroke-width="2"/>
          <path id="Trazado_102502-2" data-name="Trazado 102502" d="M404.722,123.733" transform="translate(-15.471 -0.599)" fill="none" stroke="#12263f" stroke-linecap="round" stroke-linejoin="round" stroke-width="2"/>
          <path id="Trazado_102503-2" data-name="Trazado 102503" d="M396.114,123.135a9.295,9.295,0,1,1-14.468-1.181" transform="translate(-6.864 -0.001)" fill="none" stroke="#12263f" stroke-linecap="round" stroke-linejoin="round" stroke-width="2"/>
        </g>
        <g id="Grupo_84282" data-name="Grupo 84282" transform="translate(852.699 3507.027) rotate(90)">
          <path id="Trazado_102501-3" data-name="Trazado 102501" d="M374.785,121.952a9.293,9.293,0,1,1-14.523,1.169" transform="translate(0 0)" fill="none" stroke="#12263f" stroke-linecap="round" stroke-linejoin="round" stroke-width="2"/>
          <path id="Trazado_102502-3" data-name="Trazado 102502" d="M404.722,123.733" transform="translate(-15.471 -0.599)" fill="none" stroke="#12263f" stroke-linecap="round" stroke-linejoin="round" stroke-width="2"/>
          <path id="Trazado_102503-3" data-name="Trazado 102503" d="M396.114,123.135a9.295,9.295,0,1,1-14.468-1.181" transform="translate(-6.864 -0.001)" fill="none" stroke="#12263f" stroke-linecap="round" stroke-linejoin="round" stroke-width="2"/>
        </g>
        <g id="Grupo_84284" data-name="Grupo 84284" transform="translate(938.711 3507.027) rotate(90)">
          <path id="Trazado_102501-4" data-name="Trazado 102501" d="M374.785,121.952a9.293,9.293,0,1,1-14.523,1.169" transform="translate(0 0)" fill="none" stroke="#12263f" stroke-linecap="round" stroke-linejoin="round" stroke-width="2"/>
          <path id="Trazado_102502-4" data-name="Trazado 102502" d="M404.722,123.733" transform="translate(-15.471 -0.599)" fill="none" stroke="#12263f" stroke-linecap="round" stroke-linejoin="round" stroke-width="2"/>
          <path id="Trazado_102503-4" data-name="Trazado 102503" d="M396.114,123.135a9.295,9.295,0,1,1-14.468-1.181" transform="translate(-6.864 -0.001)" fill="none" stroke="#12263f" stroke-linecap="round" stroke-linejoin="round" stroke-width="2"/>
        </g>
        <path id="Trazado_102518" data-name="Trazado 102518" d="M152,460.2H578.222" transform="translate(431.855 3327.365)" fill="none" stroke="#ee6c4d" stroke-linecap="round" stroke-linejoin="round" stroke-width="2"/>
        <path id="Trazado_102519" data-name="Trazado 102519" d="M0,0H14.369V74.432" transform="translate(843.975 3781.68) rotate(180)" fill="none" stroke="#ee6c4d" stroke-linecap="round" stroke-linejoin="round" stroke-width="1"/>
        <path id="Trazado_102520" data-name="Trazado 102520" d="M0,73.314H14.369V-.977" transform="translate(872.875 3708.363)" fill="none" stroke="#ee6c4d" stroke-linecap="round" stroke-linejoin="round" stroke-width="1"/>
        <g id="Grupo_84267" data-name="Grupo 84267" transform="translate(169.855 677.857)">
          <circle id="Elipse_4150-6" data-name="Elipse 4150" cx="3.5" cy="3.5" r="3.5" transform="translate(670.855 3122)" fill="#12263f"/>
          <line id="Línea_194-6" data-name="Línea 194" x2="24" transform="translate(681 3125.5)" fill="none" stroke="#12263f" stroke-linecap="round" stroke-width="2"/>
        </g>
        <g id="Grupo_84268" data-name="Grupo 84268" transform="translate(484.018 3658.727)">
          <path id="Trazado_102501-5" data-name="Trazado 102501" d="M374.785,121.952a9.293,9.293,0,1,1-14.523,1.169" transform="translate(0 0)" fill="none" stroke="#12263f" stroke-linecap="round" stroke-linejoin="round" stroke-width="2"/>
          <path id="Trazado_102502-5" data-name="Trazado 102502" d="M404.722,123.733" transform="translate(-15.471 -0.599)" fill="none" stroke="#12263f" stroke-linecap="round" stroke-linejoin="round" stroke-width="2"/>
          <path id="Trazado_102503-5" data-name="Trazado 102503" d="M396.114,123.135a9.295,9.295,0,1,1-14.468-1.181" transform="translate(-6.864 -0.001)" fill="none" stroke="#12263f" stroke-linecap="round" stroke-linejoin="round" stroke-width="2"/>
        </g>
        <g id="Grupo_84283" data-name="Grupo 84283" transform="translate(399.162 3633.549)">
          <path id="Trazado_102501-6" data-name="Trazado 102501" d="M374.785,121.952a9.293,9.293,0,1,1-14.523,1.169" transform="translate(0 0)" fill="none" stroke="#12263f" stroke-linecap="round" stroke-linejoin="round" stroke-width="2"/>
          <path id="Trazado_102502-6" data-name="Trazado 102502" d="M404.722,123.733" transform="translate(-15.471 -0.599)" fill="none" stroke="#12263f" stroke-linecap="round" stroke-linejoin="round" stroke-width="2"/>
          <path id="Trazado_102503-6" data-name="Trazado 102503" d="M396.114,123.135a9.295,9.295,0,1,1-14.468-1.181" transform="translate(-6.864 -0.001)" fill="none" stroke="#12263f" stroke-linecap="round" stroke-linejoin="round" stroke-width="2"/>
        </g>
        <line id="Línea_196" data-name="Línea 196" y1="126" transform="translate(606.355 3741.5)" fill="none" stroke="#76c2dd" stroke-width="1"/>
        <line id="Línea_197" data-name="Línea 197" y1="103" transform="translate(688.658 3764.5)" fill="none" stroke="#265d99" stroke-width="1"/>
        <g id="Grupo_84278" data-name="Grupo 84278" transform="translate(483.047 4256.559) rotate(-90)">
          <path id="Trazado_102501-7" data-name="Trazado 102501" d="M374.785,121.952a9.293,9.293,0,1,1-14.523,1.169" transform="translate(0 0)" fill="none" stroke="#12263f" stroke-linecap="round" stroke-linejoin="round" stroke-width="2"/>
          <path id="Trazado_102502-7" data-name="Trazado 102502" d="M404.722,123.733" transform="translate(-15.471 -0.599)" fill="none" stroke="#12263f" stroke-linecap="round" stroke-linejoin="round" stroke-width="2"/>
          <path id="Trazado_102503-7" data-name="Trazado 102503" d="M396.114,123.135a9.295,9.295,0,1,1-14.468-1.181" transform="translate(-6.864 -0.001)" fill="none" stroke="#12263f" stroke-linecap="round" stroke-linejoin="round" stroke-width="2"/>
        </g>
        <g id="Grupo_84281" data-name="Grupo 84281" transform="translate(565.047 4256.559) rotate(-90)">
          <path id="Trazado_102501-8" data-name="Trazado 102501" d="M374.785,121.952a9.293,9.293,0,1,1-14.523,1.169" transform="translate(0 0)" fill="none" stroke="#12263f" stroke-linecap="round" stroke-linejoin="round" stroke-width="2"/>
          <path id="Trazado_102502-8" data-name="Trazado 102502" d="M404.722,123.733" transform="translate(-15.471 -0.599)" fill="none" stroke="#12263f" stroke-linecap="round" stroke-linejoin="round" stroke-width="2"/>
          <path id="Trazado_102503-8" data-name="Trazado 102503" d="M396.114,123.135a9.295,9.295,0,1,1-14.468-1.181" transform="translate(-6.864 -0.001)" fill="none" stroke="#12263f" stroke-linecap="round" stroke-linejoin="round" stroke-width="2"/>
        </g>
        <g id="Grupo_84286" data-name="Grupo 84286" transform="translate(651.061 4256.559) rotate(-90)">
          <path id="Trazado_102501-9" data-name="Trazado 102501" d="M374.785,121.952a9.293,9.293,0,1,1-14.523,1.169" transform="translate(0 0)" fill="none" stroke="#12263f" stroke-linecap="round" stroke-linejoin="round" stroke-width="2"/>
          <path id="Trazado_102502-9" data-name="Trazado 102502" d="M404.722,123.733" transform="translate(-15.471 -0.599)" fill="none" stroke="#12263f" stroke-linecap="round" stroke-linejoin="round" stroke-width="2"/>
          <path id="Trazado_102503-9" data-name="Trazado 102503" d="M396.114,123.135a9.295,9.295,0,1,1-14.468-1.181" transform="translate(-6.864 -0.001)" fill="none" stroke="#12263f" stroke-linecap="round" stroke-linejoin="round" stroke-width="2"/>
        </g>
        <line id="Línea_198" data-name="Línea 198" y1="80" transform="translate(774.632 3787.5)" fill="none" stroke="#ee6c4d" stroke-width="1"/>
        <line id="Línea_199" data-name="Línea 199" y2="24" transform="translate(815.355 3897.5)" fill="none" stroke="#afafaf" stroke-width="1"/>
        <line id="Línea_201" data-name="Línea 201" y2="24" transform="translate(730.252 3897.5)" fill="none" stroke="#afafaf" stroke-width="1"/>
        <line id="Línea_200" data-name="Línea 200" y2="46" transform="translate(688.5 3897.5)" fill="none" stroke="#afafaf" stroke-width="1"/>
        <path id="Trazado_102525" data-name="Trazado 102525" d="M0,0V46.051H167.55V0" transform="translate(606.355 3897.5)" fill="none" stroke="#afafaf" stroke-width="1"/>
      </g>
    </g>
  </g>
</svg>
