<svg xmlns="http://www.w3.org/2000/svg" width="126.491" height="159.546" viewBox="0 0 126.491 159.546">
  <g id="Grupo_84303" data-name="Grupo 84303" transform="translate(-1000 -222.938)">
    <g id="Grupo_84142" data-name="Grupo 84142" transform="translate(1000 222.938)">
      <g id="Grupo_83986" data-name="Grupo 83986" transform="translate(0 0)">
        <g id="Grupo_83981" data-name="Grupo 83981">
          <path id="Trazado_102393" data-name="Trazado 102393" d="M-969.171,1368.5a159.316,159.316,0,0,0-55.175,9.94,12.487,12.487,0,0,0-8.07,11.7V1515.9a12.147,12.147,0,0,0,12.147,12.147h102.2a12.147,12.147,0,0,0,12.147-12.147v-125.76a12.487,12.487,0,0,0-8.07-11.7A159.315,159.315,0,0,0-969.171,1368.5Z" transform="translate(1032.416 -1368.502)" fill="#979797"/>
        </g>
        <g id="Grupo_83982" data-name="Grupo 83982" transform="translate(0 85.117)" opacity="0.5" style="mix-blend-mode: multiply;isolation: isolate">
          <path id="Trazado_102394" data-name="Trazado 102394" d="M-905.926,2217.346v-50.909c-6.515-3.811-14.28-5.853-21.793-7.274-21.715-4.108-43.98-4.844-66.036-3.458-8.35.525-16.752,1.365-24.738,3.859a49.549,49.549,0,0,0-13.923,6.749v16.925l.269-.072a136.92,136.92,0,0,1,16.977-3.355,187.808,187.808,0,0,1,34.686-1.25c6.4.319,12.794.9,19.16,1.665,11.333,1.366,23.113,3.53,32.132,10.527,11.363,8.814,16.226,25.068,11.75,38.709A12.137,12.137,0,0,0-905.926,2217.346Z" transform="translate(1032.416 -2155.065)" fill="#979797"/>
        </g>
        <g id="Grupo_83983" data-name="Grupo 83983" transform="translate(0 86.923)" opacity="0.9" style="mix-blend-mode: multiply;isolation: isolate">
          <path id="Trazado_102395" data-name="Trazado 102395" d="M-905.926,2179.384a54.938,54.938,0,0,0-16.033-5.132c-13.476-2.44-27.254-2.6-40.948-2.461-23.514.234-47.542,1.446-69.509,9.665v12.562c9.561-.54,19.107-1.211,28.683-1.55q32.614-1.154,65.252.2,16.3.677,32.555,1.994Z" transform="translate(1032.416 -2171.756)" fill="#979797"/>
        </g>
        <g id="Grupo_83984" data-name="Grupo 83984" transform="translate(1.997 111.706)" opacity="0.3" style="mix-blend-mode: screen;isolation: isolate">
          <path id="Trazado_102396" data-name="Trazado 102396" d="M-1013.961,2404.273q0,13.956,0,27.913c0,4.027.211,8.559,3.189,11.269,2.03,1.847,4.9,2.39,7.625,2.74a95.921,95.921,0,0,0,19.931.467c-7.856-3.51-12.493-10.865-14.208-19.3s-.726-17.151.27-25.7c.017-.145-.295-.748-.295-.894A80.025,80.025,0,0,0-1013.961,2404.273Z" transform="translate(1013.965 -2400.772)" fill="#979797"/>
        </g>
        <g id="Grupo_83985" data-name="Grupo 83985" transform="translate(0 105.012)" opacity="0.9" style="mix-blend-mode: multiply;isolation: isolate">
          <rect id="Rectángulo_31791" data-name="Rectángulo 31791" width="126.49" height="1.492" fill="#979797"/>
        </g>
      </g>
      <g id="Grupo_84141" data-name="Grupo 84141" transform="translate(0 0)">
        <g id="Grupo_83989" data-name="Grupo 83989" transform="translate(0)">
          <g id="Grupo_83987" data-name="Grupo 83987">
            <path id="Trazado_102397" data-name="Trazado 102397" d="M-969.171,1368.5a159.316,159.316,0,0,0-55.175,9.94,12.487,12.487,0,0,0-8.07,11.7v82.729h126.49v-82.729a12.487,12.487,0,0,0-8.07-11.7A159.315,159.315,0,0,0-969.171,1368.5Z" transform="translate(1032.416 -1368.502)" fill="#b1b1b1"/>
          </g>
          <g id="Grupo_83988" data-name="Grupo 83988" transform="translate(0 5.859)" opacity="0.5" style="mix-blend-mode: multiply;isolation: isolate">
            <path id="Trazado_102398" data-name="Trazado 102398" d="M-905.926,1438.428a12.487,12.487,0,0,0-8.07-11.7c-3.3-1.243-7.528-2.686-12.544-4.08.577,3.034,1.6,6.078,2.3,9.086,3.929,16.905-3.731,35.329-17.113,46.381s-31.621,15.193-48.9,13.522a94.944,94.944,0,0,1-24.172-5.776c-4.821-1.811-11.607-6.5-18-8.5v43.8h126.49Z" transform="translate(1032.416 -1422.649)" fill="#b1b1b1"/>
          </g>
        </g>
        <g id="Grupo_83993" data-name="Grupo 83993" transform="translate(11.236 19.34)">
          <g id="Grupo_83990" data-name="Grupo 83990" opacity="0.9" style="mix-blend-mode: multiply;isolation: isolate">
            <rect id="Rectángulo_31792" data-name="Rectángulo 31792" width="104.017" height="58.46" fill="#b1b1b1"/>
          </g>
          <g id="Grupo_83991" data-name="Grupo 83991" transform="translate(1.03 1.03)">
            <rect id="Rectángulo_31793" data-name="Rectángulo 31793" width="101.959" height="56.4" fill="#bdbdbd"/>
          </g>
          <g id="Grupo_83992" data-name="Grupo 83992" transform="translate(1.029 1.03)" opacity="0.5" style="mix-blend-mode: multiply;isolation: isolate">
            <path id="Trazado_102399" data-name="Trazado 102399" d="M-817.111,1556.739h-13.718a44.474,44.474,0,0,1-4.76,24.736,44.448,44.448,0,0,1-22.427,20.362c-10.36,4.209-21.873,4.324-33.052,4.083-5.342-.115-10.689-.3-16.007-.845-4.052-.415-8.01-1.532-12-2.234v10.3h101.959Z" transform="translate(919.07 -1556.739)" fill="#bdbdbd"/>
          </g>
        </g>
        <g id="Grupo_83998" data-name="Grupo 83998" transform="translate(8.652 58.208)">
          <g id="Grupo_83994" data-name="Grupo 83994" opacity="0.3" style="mix-blend-mode: multiply;isolation: isolate">
            <path id="Trazado_102400" data-name="Trazado 102400" d="M-952.466,1907.984l38.778-1.588,24.334,23.943-5.068.644-21.465-23Z" transform="translate(952.466 -1906.396)" fill="#b1b1b1"/>
          </g>
          <g id="Grupo_83995" data-name="Grupo 83995" transform="translate(0 1.588)">
            <path id="Trazado_102401" data-name="Trazado 102401" d="M-952.466,1944.068v-23h36.578l21.465,23Z" transform="translate(952.466 -1921.07)" fill="#343434"/>
          </g>
          <g id="Grupo_83996" data-name="Grupo 83996" transform="translate(0 1.588)" opacity="0.5" style="mix-blend-mode: multiply;isolation: isolate">
            <path id="Trazado_102402" data-name="Trazado 102402" d="M-915.888,1921.07h-4.426c.043.131.074.268.127.393a30.571,30.571,0,0,0,1.706,2.888,10.091,10.091,0,0,1-2.432,12.435c-2.724,2.166-6.374,2.72-9.849,2.912a63.963,63.963,0,0,1-16.944-1.336c-1.373-.3-3.07-.964-4.76-1.445v7.151h58.043Z" transform="translate(952.466 -1921.07)" fill="#343434"/>
          </g>
          <g id="Grupo_83997" data-name="Grupo 83997" transform="translate(1.329 3.036)" opacity="0.3" style="mix-blend-mode: screen;isolation: isolate">
            <path id="Trazado_102403" data-name="Trazado 102403" d="M-911.5,1934.46c-8.749-.04-17.818.1-26.615.085a2.059,2.059,0,0,0-2.062,2.125l.3,10.353c.475-3.105,3.34-5.558,6.061-7.127a31.638,31.638,0,0,1,8.9-2.99C-920.5,1935.9-915.925,1935.47-911.5,1934.46Z" transform="translate(940.182 -1934.453)" fill="#343434"/>
          </g>
        </g>
        <g id="Grupo_84115" data-name="Grupo 84115" transform="translate(16.384 24.487)">
          <g id="Grupo_83999" data-name="Grupo 83999" opacity="0.9" style="mix-blend-mode: multiply;isolation: isolate">
            <rect id="Rectángulo_31794" data-name="Rectángulo 31794" width="74.777" height="21.443" fill="#b1b1b1"/>
          </g>
          <g id="Grupo_84000" data-name="Grupo 84000" transform="translate(1.029 1.03)">
            <rect id="Rectángulo_31795" data-name="Rectángulo 31795" width="72.719" height="19.384" fill="#6e7c78"/>
          </g>
          <g id="Grupo_84015" data-name="Grupo 84015" transform="translate(19.093 4.453)">
            <g id="Grupo_84002" data-name="Grupo 84002" transform="translate(0.806 5.502)" opacity="0.2">
              <g id="Grupo_84001" data-name="Grupo 84001">
                <rect id="Rectángulo_31796" data-name="Rectángulo 31796" width="4.056" height="0.858" fill="#272727"/>
              </g>
            </g>
            <g id="Grupo_84004" data-name="Grupo 84004" transform="translate(0.806)">
              <g id="Grupo_84003" data-name="Grupo 84003">
                <rect id="Rectángulo_31797" data-name="Rectángulo 31797" width="4.056" height="0.858" fill="#272727"/>
              </g>
            </g>
            <g id="Grupo_84006" data-name="Grupo 84006" transform="translate(0.806 11.005)">
              <g id="Grupo_84005" data-name="Grupo 84005">
                <rect id="Rectángulo_31798" data-name="Rectángulo 31798" width="4.056" height="0.858" fill="#272727"/>
              </g>
            </g>
            <g id="Grupo_84008" data-name="Grupo 84008" transform="translate(0 6.654)">
              <g id="Grupo_84007" data-name="Grupo 84007">
                <rect id="Rectángulo_31799" data-name="Rectángulo 31799" width="0.858" height="4.057" fill="#272727"/>
              </g>
            </g>
            <g id="Grupo_84010" data-name="Grupo 84010" transform="translate(4.857 6.654)">
              <g id="Grupo_84009" data-name="Grupo 84009">
                <rect id="Rectángulo_31800" data-name="Rectángulo 31800" width="0.858" height="4.057" fill="#272727"/>
              </g>
            </g>
            <g id="Grupo_84012" data-name="Grupo 84012" transform="translate(0 1.152)">
              <g id="Grupo_84011" data-name="Grupo 84011">
                <rect id="Rectángulo_31801" data-name="Rectángulo 31801" width="0.858" height="4.057" fill="#272727"/>
              </g>
            </g>
            <g id="Grupo_84014" data-name="Grupo 84014" transform="translate(4.857 1.152)">
              <g id="Grupo_84013" data-name="Grupo 84013">
                <rect id="Rectángulo_31802" data-name="Rectángulo 31802" width="0.858" height="4.057" fill="#272727"/>
              </g>
            </g>
          </g>
          <g id="Grupo_84030" data-name="Grupo 84030" transform="translate(26.188 4.453)">
            <g id="Grupo_84017" data-name="Grupo 84017" transform="translate(0.806 5.502)" opacity="0.2">
              <g id="Grupo_84016" data-name="Grupo 84016">
                <rect id="Rectángulo_31803" data-name="Rectángulo 31803" width="4.058" height="0.858" fill="#272727"/>
              </g>
            </g>
            <g id="Grupo_84019" data-name="Grupo 84019" transform="translate(0.806)">
              <g id="Grupo_84018" data-name="Grupo 84018">
                <rect id="Rectángulo_31804" data-name="Rectángulo 31804" width="4.058" height="0.858" fill="#272727"/>
              </g>
            </g>
            <g id="Grupo_84021" data-name="Grupo 84021" transform="translate(0.806 11.005)">
              <g id="Grupo_84020" data-name="Grupo 84020">
                <rect id="Rectángulo_31805" data-name="Rectángulo 31805" width="4.058" height="0.858" fill="#272727"/>
              </g>
            </g>
            <g id="Grupo_84023" data-name="Grupo 84023" transform="translate(0 6.654)">
              <g id="Grupo_84022" data-name="Grupo 84022">
                <rect id="Rectángulo_31806" data-name="Rectángulo 31806" width="0.858" height="4.057" fill="#272727"/>
              </g>
            </g>
            <g id="Grupo_84025" data-name="Grupo 84025" transform="translate(4.857 6.654)">
              <g id="Grupo_84024" data-name="Grupo 84024">
                <rect id="Rectángulo_31807" data-name="Rectángulo 31807" width="0.858" height="4.057" fill="#272727"/>
              </g>
            </g>
            <g id="Grupo_84027" data-name="Grupo 84027" transform="translate(0 1.152)">
              <g id="Grupo_84026" data-name="Grupo 84026">
                <rect id="Rectángulo_31808" data-name="Rectángulo 31808" width="0.858" height="4.057" fill="#272727"/>
              </g>
            </g>
            <g id="Grupo_84029" data-name="Grupo 84029" transform="translate(4.857 1.152)">
              <g id="Grupo_84028" data-name="Grupo 84028">
                <rect id="Rectángulo_31809" data-name="Rectángulo 31809" width="0.858" height="4.057" fill="#272727"/>
              </g>
            </g>
          </g>
          <g id="Grupo_84045" data-name="Grupo 84045" transform="translate(33.284 4.453)">
            <g id="Grupo_84032" data-name="Grupo 84032" transform="translate(0.806 5.502)">
              <g id="Grupo_84031" data-name="Grupo 84031">
                <rect id="Rectángulo_31810" data-name="Rectángulo 31810" width="4.058" height="0.858" fill="#272727"/>
              </g>
            </g>
            <g id="Grupo_84034" data-name="Grupo 84034" transform="translate(0.806)">
              <g id="Grupo_84033" data-name="Grupo 84033">
                <rect id="Rectángulo_31811" data-name="Rectángulo 31811" width="4.058" height="0.858" fill="#272727"/>
              </g>
            </g>
            <g id="Grupo_84036" data-name="Grupo 84036" transform="translate(0.806 11.005)">
              <g id="Grupo_84035" data-name="Grupo 84035">
                <rect id="Rectángulo_31812" data-name="Rectángulo 31812" width="4.058" height="0.858" fill="#272727"/>
              </g>
            </g>
            <g id="Grupo_84038" data-name="Grupo 84038" transform="translate(0 6.654)" opacity="0.2">
              <g id="Grupo_84037" data-name="Grupo 84037">
                <rect id="Rectángulo_31813" data-name="Rectángulo 31813" width="0.858" height="4.057" fill="#272727"/>
              </g>
            </g>
            <g id="Grupo_84040" data-name="Grupo 84040" transform="translate(4.857 6.654)">
              <g id="Grupo_84039" data-name="Grupo 84039">
                <rect id="Rectángulo_31814" data-name="Rectángulo 31814" width="0.858" height="4.057" fill="#272727"/>
              </g>
            </g>
            <g id="Grupo_84042" data-name="Grupo 84042" transform="translate(0 1.152)" opacity="0.2">
              <g id="Grupo_84041" data-name="Grupo 84041">
                <rect id="Rectángulo_31815" data-name="Rectángulo 31815" width="0.858" height="4.057" fill="#272727"/>
              </g>
            </g>
            <g id="Grupo_84044" data-name="Grupo 84044" transform="translate(4.857 1.152)">
              <g id="Grupo_84043" data-name="Grupo 84043">
                <rect id="Rectángulo_31816" data-name="Rectángulo 31816" width="0.858" height="4.057" fill="#272727"/>
              </g>
            </g>
          </g>
          <g id="Grupo_84060" data-name="Grupo 84060" transform="translate(40.38 4.453)">
            <g id="Grupo_84047" data-name="Grupo 84047" transform="translate(0.806 5.502)">
              <g id="Grupo_84046" data-name="Grupo 84046">
                <rect id="Rectángulo_31817" data-name="Rectángulo 31817" width="4.058" height="0.858" fill="#272727"/>
              </g>
            </g>
            <g id="Grupo_84049" data-name="Grupo 84049" transform="translate(0.806)">
              <g id="Grupo_84048" data-name="Grupo 84048">
                <rect id="Rectángulo_31818" data-name="Rectángulo 31818" width="4.058" height="0.858" fill="#272727"/>
              </g>
            </g>
            <g id="Grupo_84051" data-name="Grupo 84051" transform="translate(0.806 11.005)">
              <g id="Grupo_84050" data-name="Grupo 84050">
                <rect id="Rectángulo_31819" data-name="Rectángulo 31819" width="4.058" height="0.858" fill="#272727"/>
              </g>
            </g>
            <g id="Grupo_84053" data-name="Grupo 84053" transform="translate(0 6.654)" opacity="0.2">
              <g id="Grupo_84052" data-name="Grupo 84052">
                <rect id="Rectángulo_31820" data-name="Rectángulo 31820" width="0.858" height="4.057" fill="#272727"/>
              </g>
            </g>
            <g id="Grupo_84055" data-name="Grupo 84055" transform="translate(4.857 6.654)">
              <g id="Grupo_84054" data-name="Grupo 84054">
                <rect id="Rectángulo_31821" data-name="Rectángulo 31821" width="0.858" height="4.057" fill="#272727"/>
              </g>
            </g>
            <g id="Grupo_84057" data-name="Grupo 84057" transform="translate(0 1.152)" opacity="0.2">
              <g id="Grupo_84056" data-name="Grupo 84056">
                <rect id="Rectángulo_31822" data-name="Rectángulo 31822" width="0.858" height="4.057" fill="#272727"/>
              </g>
            </g>
            <g id="Grupo_84059" data-name="Grupo 84059" transform="translate(4.857 1.152)">
              <g id="Grupo_84058" data-name="Grupo 84058">
                <rect id="Rectángulo_31823" data-name="Rectángulo 31823" width="0.858" height="4.057" fill="#272727"/>
              </g>
            </g>
          </g>
          <g id="Grupo_84075" data-name="Grupo 84075" transform="translate(47.476 4.453)">
            <g id="Grupo_84062" data-name="Grupo 84062" transform="translate(0.806 5.502)">
              <g id="Grupo_84061" data-name="Grupo 84061">
                <rect id="Rectángulo_31824" data-name="Rectángulo 31824" width="4.058" height="0.858" fill="#272727"/>
              </g>
            </g>
            <g id="Grupo_84064" data-name="Grupo 84064" transform="translate(0.806)">
              <g id="Grupo_84063" data-name="Grupo 84063">
                <rect id="Rectángulo_31825" data-name="Rectángulo 31825" width="4.058" height="0.858" fill="#272727"/>
              </g>
            </g>
            <g id="Grupo_84066" data-name="Grupo 84066" transform="translate(0.806 11.005)">
              <g id="Grupo_84065" data-name="Grupo 84065">
                <rect id="Rectángulo_31826" data-name="Rectángulo 31826" width="4.058" height="0.858" fill="#272727"/>
              </g>
            </g>
            <g id="Grupo_84068" data-name="Grupo 84068" transform="translate(0 6.654)">
              <g id="Grupo_84067" data-name="Grupo 84067">
                <rect id="Rectángulo_31827" data-name="Rectángulo 31827" width="0.858" height="4.057" fill="#272727"/>
              </g>
            </g>
            <g id="Grupo_84070" data-name="Grupo 84070" transform="translate(4.857 6.654)">
              <g id="Grupo_84069" data-name="Grupo 84069">
                <rect id="Rectángulo_31828" data-name="Rectángulo 31828" width="0.858" height="4.057" fill="#272727"/>
              </g>
            </g>
            <g id="Grupo_84072" data-name="Grupo 84072" transform="translate(0 1.152)">
              <g id="Grupo_84071" data-name="Grupo 84071">
                <rect id="Rectángulo_31829" data-name="Rectángulo 31829" width="0.858" height="4.057" fill="#272727"/>
              </g>
            </g>
            <g id="Grupo_84074" data-name="Grupo 84074" transform="translate(4.857 1.152)" opacity="0.2">
              <g id="Grupo_84073" data-name="Grupo 84073">
                <rect id="Rectángulo_31830" data-name="Rectángulo 31830" width="0.858" height="4.057" fill="#272727"/>
              </g>
            </g>
          </g>
          <g id="Grupo_84090" data-name="Grupo 84090" transform="translate(54.574 4.453)">
            <g id="Grupo_84077" data-name="Grupo 84077" transform="translate(0.806 5.502)">
              <g id="Grupo_84076" data-name="Grupo 84076">
                <rect id="Rectángulo_31831" data-name="Rectángulo 31831" width="4.057" height="0.858" fill="#272727"/>
              </g>
            </g>
            <g id="Grupo_84079" data-name="Grupo 84079" transform="translate(0.806)" opacity="0.2">
              <g id="Grupo_84078" data-name="Grupo 84078">
                <rect id="Rectángulo_31832" data-name="Rectángulo 31832" width="4.057" height="0.858" fill="#272727"/>
              </g>
            </g>
            <g id="Grupo_84081" data-name="Grupo 84081" transform="translate(0.806 11.005)" opacity="0.2">
              <g id="Grupo_84080" data-name="Grupo 84080">
                <rect id="Rectángulo_31833" data-name="Rectángulo 31833" width="4.057" height="0.858" fill="#272727"/>
              </g>
            </g>
            <g id="Grupo_84083" data-name="Grupo 84083" transform="translate(0 6.654)" opacity="0.2">
              <g id="Grupo_84082" data-name="Grupo 84082">
                <rect id="Rectángulo_31834" data-name="Rectángulo 31834" width="0.858" height="4.057" fill="#272727"/>
              </g>
            </g>
            <g id="Grupo_84085" data-name="Grupo 84085" transform="translate(4.856 6.654)">
              <g id="Grupo_84084" data-name="Grupo 84084">
                <rect id="Rectángulo_31835" data-name="Rectángulo 31835" width="0.858" height="4.057" fill="#272727"/>
              </g>
            </g>
            <g id="Grupo_84087" data-name="Grupo 84087" transform="translate(0 1.152)">
              <g id="Grupo_84086" data-name="Grupo 84086">
                <rect id="Rectángulo_31836" data-name="Rectángulo 31836" width="0.858" height="4.057" fill="#272727"/>
              </g>
            </g>
            <g id="Grupo_84089" data-name="Grupo 84089" transform="translate(4.856 1.152)">
              <g id="Grupo_84088" data-name="Grupo 84088">
                <rect id="Rectángulo_31837" data-name="Rectángulo 31837" width="0.858" height="4.057" fill="#272727"/>
              </g>
            </g>
          </g>
          <g id="Grupo_84105" data-name="Grupo 84105" transform="translate(64.375 4.453)">
            <g id="Grupo_84092" data-name="Grupo 84092" transform="translate(0.806 5.502)">
              <g id="Grupo_84091" data-name="Grupo 84091">
                <rect id="Rectángulo_31838" data-name="Rectángulo 31838" width="4.058" height="0.858" fill="#272727"/>
              </g>
            </g>
            <g id="Grupo_84094" data-name="Grupo 84094" transform="translate(0.806)">
              <g id="Grupo_84093" data-name="Grupo 84093">
                <rect id="Rectángulo_31839" data-name="Rectángulo 31839" width="4.058" height="0.858" fill="#272727"/>
              </g>
            </g>
            <g id="Grupo_84096" data-name="Grupo 84096" transform="translate(0.806 11.005)">
              <g id="Grupo_84095" data-name="Grupo 84095">
                <rect id="Rectángulo_31840" data-name="Rectángulo 31840" width="4.058" height="0.858" fill="#272727"/>
              </g>
            </g>
            <g id="Grupo_84098" data-name="Grupo 84098" transform="translate(0 6.654)">
              <g id="Grupo_84097" data-name="Grupo 84097">
                <rect id="Rectángulo_31841" data-name="Rectángulo 31841" width="0.858" height="4.057" fill="#272727"/>
              </g>
            </g>
            <g id="Grupo_84100" data-name="Grupo 84100" transform="translate(4.857 6.654)">
              <g id="Grupo_84099" data-name="Grupo 84099">
                <rect id="Rectángulo_31842" data-name="Rectángulo 31842" width="0.858" height="4.057" fill="#272727"/>
              </g>
            </g>
            <g id="Grupo_84102" data-name="Grupo 84102" transform="translate(0 1.152)">
              <g id="Grupo_84101" data-name="Grupo 84101">
                <rect id="Rectángulo_31843" data-name="Rectángulo 31843" width="0.858" height="4.057" fill="#272727"/>
              </g>
            </g>
            <g id="Grupo_84104" data-name="Grupo 84104" transform="translate(4.857 1.152)">
              <g id="Grupo_84103" data-name="Grupo 84103">
                <rect id="Rectángulo_31844" data-name="Rectángulo 31844" width="0.858" height="4.057" fill="#272727"/>
              </g>
            </g>
          </g>
          <g id="Grupo_84107" data-name="Grupo 84107" transform="translate(61.902 14.643)">
            <g id="Grupo_84106" data-name="Grupo 84106" transform="translate(0)">
              <rect id="Rectángulo_31845" data-name="Rectángulo 31845" width="0.858" height="1.918" fill="#272727"/>
            </g>
          </g>
          <g id="Grupo_84112" data-name="Grupo 84112" transform="translate(76.691 9.831)">
            <g id="Grupo_84108" data-name="Grupo 84108" transform="translate(0 0.343)">
              <path id="Trazado_102404" data-name="Trazado 102404" d="M-171.565,1692.641c.119-.146.261-.329.379-.472l1.221-1.427h.9l-1.6,1.7,1.823,2.438h-.918l-1.424-1.99-.385.431v1.558h-.747V1688.8h.747Z" transform="translate(172.312 -1688.805)" fill="#272727"/>
            </g>
            <g id="Grupo_84109" data-name="Grupo 84109" transform="translate(3.658 2.28)">
              <path id="Trazado_102405" data-name="Trazado 102405" d="M-137.745,1706.712l.556,2.1c.119.462.224.895.308,1.321.112-.417.25-.867.392-1.315l.675-2.107h.633l.645,2.071c.147.491.27.93.365,1.351.1-.42.208-.855.342-1.344l.592-2.078h.742l-1.337,4.14h-.685l-.628-1.976a12.288,12.288,0,0,1-.367-1.366c-.122.5-.251.929-.4,1.372l-.665,1.969h-.688l-1.248-4.14Z" transform="translate(138.511 -1706.712)" fill="#272727"/>
            </g>
            <g id="Grupo_84110" data-name="Grupo 84110" transform="translate(10.542)">
              <path id="Trazado_102406" data-name="Trazado 102406" d="M-74.317,1685.64v8.561h-.573v-8.561Z" transform="translate(74.89 -1685.64)" fill="#272727"/>
            </g>
            <g id="Grupo_84111" data-name="Grupo 84111" transform="translate(12.481 0.343)">
              <path id="Trazado_102407" data-name="Trazado 102407" d="M-56.974,1688.8h.749v2.585a1.685,1.685,0,0,1,.558-.532,1.518,1.518,0,0,1,.772-.209c.558,0,1.443.34,1.443,1.769v2.466H-54.2V1692.5c0-.668-.253-1.229-.957-1.229a1.1,1.1,0,0,0-1.017.752,1.022,1.022,0,0,0-.05.358v2.5h-.749Z" transform="translate(56.974 -1688.805)" fill="#272727"/>
            </g>
          </g>
          <g id="Grupo_84113" data-name="Grupo 84113" transform="translate(1.029 1.03)" opacity="0.5" style="mix-blend-mode: multiply;isolation: isolate">
            <path id="Trazado_102408" data-name="Trazado 102408" d="M-798.79,1604.3l-71.295,1.2-1.424,18.18V1604.3Z" transform="translate(871.509 -1604.304)" fill="#6e7c78"/>
          </g>
          <g id="Grupo_84114" data-name="Grupo 84114" transform="translate(1.029 1.03)" opacity="0.2" style="mix-blend-mode: screen;isolation: isolate">
            <path id="Trazado_102409" data-name="Trazado 102409" d="M-871.509,1623.688v-15.532l45.067-3.852h27.652l-35.606,19.384Z" transform="translate(871.509 -1604.304)" fill="#6e7c78"/>
          </g>
        </g>
        <g id="Grupo_84121" data-name="Grupo 84121" transform="translate(55.566)">
          <g id="Grupo_84116" data-name="Grupo 84116">
            <path id="Trazado_102410" data-name="Trazado 102410" d="M-501.528,1368.816c-3.151-.2-6.391-.314-9.728-.314-2.62,0-5.172.08-7.679.2l3.244,8.885h10.959Z" transform="translate(518.935 -1368.502)" fill="#777"/>
          </g>
          <g id="Grupo_84119" data-name="Grupo 84119" transform="translate(6.318 2.084)">
            <g id="Grupo_84117" data-name="Grupo 84117">
              <path id="Trazado_102411" data-name="Trazado 102411" d="M-455.74,1390.17a2.406,2.406,0,0,1-2.406,2.406,2.406,2.406,0,0,1-2.406-2.406,2.406,2.406,0,0,1,2.406-2.406A2.406,2.406,0,0,1-455.74,1390.17Z" transform="translate(460.551 -1387.764)" fill="#343434"/>
            </g>
            <g id="Grupo_84118" data-name="Grupo 84118" opacity="0.5" style="mix-blend-mode: multiply;isolation: isolate">
              <path id="Trazado_102412" data-name="Trazado 102412" d="M-455.784,1389.728a2.4,2.4,0,0,0-2.361-1.964,2.406,2.406,0,0,0-2.406,2.406,2.4,2.4,0,0,0,1.272,2.109,2.4,2.4,0,0,1,.5-2.4A2.4,2.4,0,0,1-455.784,1389.728Z" transform="translate(460.551 -1387.764)" fill="#343434"/>
            </g>
          </g>
          <g id="Grupo_84120" data-name="Grupo 84120" transform="translate(0 0.094)" opacity="0.5" style="mix-blend-mode: multiply;isolation: isolate">
            <path id="Trazado_102413" data-name="Trazado 102413" d="M-515.691,1378.366h10.959l3.2-8.776c-.579-.036-1.177-.055-1.763-.085.012.422.045.848.047,1.263a6.584,6.584,0,0,1-3.867,5.925,6.584,6.584,0,0,1-6.969-1.22,6.413,6.413,0,0,1-1.735-2.9c-.243-.848-.061-2.173-.3-3.206-.945.032-1.891.064-2.823.111Z" transform="translate(518.935 -1369.37)" fill="#777"/>
          </g>
        </g>
        <g id="Grupo_84139" data-name="Grupo 84139" transform="translate(0 82.15)">
          <g id="Grupo_84122" data-name="Grupo 84122" transform="translate(0 0.644)">
            <rect id="Rectángulo_31846" data-name="Rectángulo 31846" width="126.49" height="21.574" fill="#777"/>
          </g>
          <g id="Grupo_84124" data-name="Grupo 84124" transform="translate(0)">
            <g id="Grupo_84123" data-name="Grupo 84123">
              <rect id="Rectángulo_31847" data-name="Rectángulo 31847" width="126.491" height="1.287" fill="#343434"/>
            </g>
          </g>
          <g id="Grupo_84126" data-name="Grupo 84126" transform="translate(0 3.597)">
            <g id="Grupo_84125" data-name="Grupo 84125">
              <rect id="Rectángulo_31848" data-name="Rectángulo 31848" width="126.491" height="1.287" fill="#343434"/>
            </g>
          </g>
          <g id="Grupo_84128" data-name="Grupo 84128" transform="translate(0 7.192)">
            <g id="Grupo_84127" data-name="Grupo 84127">
              <rect id="Rectángulo_31849" data-name="Rectángulo 31849" width="126.491" height="1.287" fill="#343434"/>
            </g>
          </g>
          <g id="Grupo_84130" data-name="Grupo 84130" transform="translate(0 10.788)">
            <g id="Grupo_84129" data-name="Grupo 84129">
              <rect id="Rectángulo_31850" data-name="Rectángulo 31850" width="126.491" height="1.287" fill="#343434"/>
            </g>
          </g>
          <g id="Grupo_84132" data-name="Grupo 84132" transform="translate(0 14.384)">
            <g id="Grupo_84131" data-name="Grupo 84131">
              <rect id="Rectángulo_31851" data-name="Rectángulo 31851" width="126.491" height="1.287" fill="#343434"/>
            </g>
          </g>
          <g id="Grupo_84134" data-name="Grupo 84134" transform="translate(0 17.979)">
            <g id="Grupo_84133" data-name="Grupo 84133">
              <rect id="Rectángulo_31852" data-name="Rectángulo 31852" width="126.491" height="1.287" fill="#343434"/>
            </g>
          </g>
          <g id="Grupo_84136" data-name="Grupo 84136" transform="translate(0 21.575)">
            <g id="Grupo_84135" data-name="Grupo 84135">
              <rect id="Rectángulo_31853" data-name="Rectángulo 31853" width="126.491" height="1.287" fill="#343434"/>
            </g>
          </g>
          <g id="Grupo_84137" data-name="Grupo 84137" transform="translate(0 0.644)" opacity="0.5" style="mix-blend-mode: multiply;isolation: isolate">
            <path id="Trazado_102414" data-name="Trazado 102414" d="M-928.294,2135.23c-3.917,9.269-14.634,13.54-24.539,15.313-14.456,2.588-29.283,1.894-43.928.816-5.3-.39-10.6-.847-15.86-1.625a94.5,94.5,0,0,1-13.778-2.992,64.477,64.477,0,0,1-6.016-2.359v10.787h126.49V2133.6h-21.758C-927.873,2134.148-928.069,2134.7-928.294,2135.23Z" transform="translate(1032.416 -2133.596)" fill="#777"/>
          </g>
          <g id="Grupo_84138" data-name="Grupo 84138" transform="translate(3.77 2.658)" opacity="0.3" style="mix-blend-mode: screen;isolation: isolate">
            <path id="Trazado_102415" data-name="Trazado 102415" d="M-959.889,2152.209a12.733,12.733,0,0,0,8.333,13.2,202.983,202.983,0,0,1-31.367-3.179,29.432,29.432,0,0,1-8.906-2.681,10.994,10.994,0,0,1-5.753-6.991C-985.208,2152.433-972.264,2152.338-959.889,2152.209Z" transform="translate(997.582 -2152.209)" fill="#777"/>
          </g>
        </g>
        <g id="Grupo_84140" data-name="Grupo 84140" transform="translate(1.205 2.218)" opacity="0.3" style="mix-blend-mode: screen;isolation: isolate">
          <path id="Trazado_102416" data-name="Trazado 102416" d="M-1020.965,1443.184q-.153-14.008-.306-28.016c-.04-3.624-.018-7.475,1.913-10.542,1.864-2.961,5.178-4.648,8.41-5.99,12.526-5.2,26.066-7.285,39.536-9.073a4.624,4.624,0,0,1,4.932,2.955c.572,1.517,1.143,3.041,1.717,4.517l13.367.4c2.492-2.076,2.116-6.684,5.052-8.064a6.653,6.653,0,0,1,3.734-.216,248.5,248.5,0,0,1,24.9,4.717c-8.184-1.428-17.389-1.771-24.547,2.447-2.062,1.215-3.872,2.845-6.02,3.9-3.536,1.736-7.637,1.758-11.576,1.744-2.391-.008-4.9-.045-6.991-1.2-1.131-.626-2.074-1.548-3.19-2.2-2.357-1.38-5.234-1.441-7.966-1.377a138.484,138.484,0,0,0-18.417,1.678c-5.655.9-11.661,2.2-15.877,6.124-4.954,4.612-6.387,11.856-6.708,18.617S-1018.81,1436.767-1020.965,1443.184Z" transform="translate(1021.279 -1388.996)" fill="#b1b1b1"/>
        </g>
      </g>
    </g>
  </g>
</svg>
