<svg xmlns="http://www.w3.org/2000/svg" width="101.145" height="120" viewBox="0 0 101.145 120">
  <g id="amperimetro-2" transform="translate(-60.25 -23.76)">
    <path id="Trazado_102038" data-name="Trazado 102038" d="M424.984,223.24v10.076a3.617,3.617,0,1,1-7.234,0V223.24Z" transform="translate(-265.139 -147.944)" fill="#ee6c4d"/>
    <path id="Trazado_102039" data-name="Trazado 102039" d="M424.984,194.24v7.492H417.75V194.24h7.234Z" transform="translate(-265.139 -126.436)" fill="#ccd3df"/>
    <path id="Trazado_102040" data-name="Trazado 102040" d="M374.984,174.24v7.492H367.75V174.24h7.234Z" transform="translate(-228.056 -111.603)" fill="#ccd3df"/>
    <path id="Trazado_102041" data-name="Trazado 102041" d="M374.984,203.24v10.076a3.617,3.617,0,0,1-7.234,0V203.24Z" transform="translate(-228.056 -133.111)" fill="#ee6c4d"/>
    <path id="Trazado_102042" data-name="Trazado 102042" d="M138.328,40.094v83.44a10.334,10.334,0,0,1-10.334,10.334H76.584A10.334,10.334,0,0,1,66.25,123.535V40.094A10.334,10.334,0,0,1,76.584,29.76h51.41A10.334,10.334,0,0,1,138.328,40.094Z" transform="translate(-4.45 -4.45)" fill="#ccf8ff"/>
    <path id="Trazado_102043" data-name="Trazado 102043" d="M146,63.98H101.16a6.2,6.2,0,0,0-6.2,6.2v32.431H152.2V70.18A6.2,6.2,0,0,0,146,63.98Z" transform="translate(-25.743 -29.829)" fill="#f9b248"/>
    <circle id="Elipse_4122" data-name="Elipse 4122" cx="13.111" cy="13.111" r="13.111" transform="translate(84.471 81.306)" fill="#ccd3df"/>
    <path id="Trazado_102044" data-name="Trazado 102044" d="M160.56,375.24h23.347v6.976H160.56Z" transform="translate(-74.395 -260.674)" fill="#ee6c4d"/>
    <path id="Trazado_102048" data-name="Trazado 102048" d="M194.694,199.264H182.88a6,6,0,0,1,11.814,0Z" transform="translate(-90.948 -126.481)" fill="#b0b5ca"/>
    <path id="Trazado_102049" data-name="Trazado 102049" d="M106.28,142.645h7.751a25.723,25.723,0,0,1,21.823-24.4,25.738,25.738,0,0,0-29.574,24.4Z" transform="translate(-34.138 -69.863)" fill="#b0b5ca"/>
    <g id="Grupo_83519" data-name="Grupo 83519" transform="translate(60.25 23.76)">
      <path id="Trazado_102050" data-name="Trazado 102050" d="M179.458,369.24H156.11a1.55,1.55,0,0,0-1.55,1.55v6.976a1.55,1.55,0,0,0,1.55,1.55h23.347a1.55,1.55,0,0,0,1.55-1.55V370.79A1.55,1.55,0,0,0,179.458,369.24Zm-1.55,6.976H157.66V372.34h20.247Z" transform="translate(-130.195 -279.984)"/>
      <path id="Trazado_102051" data-name="Trazado 102051" d="M85.484,336.746a4.139,4.139,0,0,1-4.134-4.134V313.22a1.55,1.55,0,1,0-3.1,0v19.392a7.242,7.242,0,0,0,7.234,7.234,1.55,1.55,0,1,0,0-3.1Z" transform="translate(-73.6 -237.287)"/>
      <path id="Trazado_102052" data-name="Trazado 102052" d="M79.8,291.922a1.55,1.55,0,0,0,1.55-1.55V288.55a1.55,1.55,0,1,0-3.1,0v1.821A1.55,1.55,0,0,0,79.8,291.922Z" transform="translate(-73.6 -218.991)"/>
      <path id="Trazado_102053" data-name="Trazado 102053" d="M141.553,57.98H105.936a1.55,1.55,0,0,0,0,3.1h35.617a4.656,4.656,0,0,1,4.65,4.65V95.918a27.269,27.269,0,0,0-54.143,0V65.731a4.656,4.656,0,0,1,4.65-4.65h3.8a1.55,1.55,0,1,0,0-3.1h-3.8a7.759,7.759,0,0,0-7.751,7.751V98.162a1.55,1.55,0,0,0,1.55,1.55h57.243a1.55,1.55,0,0,0,1.55-1.55V65.731a7.759,7.759,0,0,0-7.751-7.751ZM115.508,96.612a4.456,4.456,0,0,1,7.247,0Zm10.718,0a7.514,7.514,0,0,0-3.359-3.979l3.384-8.208a1.55,1.55,0,1,0-2.866-1.181L119.9,91.69a7.648,7.648,0,0,0-.769-.04,7.528,7.528,0,0,0-7.1,4.963H95.107a24.076,24.076,0,0,1,1.105-5.11,1.542,1.542,0,0,0,.5.324l2.744,1.106a1.55,1.55,0,1,0,1.159-2.875l-2.744-1.106a1.545,1.545,0,0,0-.578-.112,24.073,24.073,0,0,1,3.768-5.684,1.539,1.539,0,0,0,.323.481l2.09,2.093a1.55,1.55,0,1,0,2.193-2.191l-2.09-2.093a1.546,1.546,0,0,0-.484-.326,24.15,24.15,0,0,1,5.277-3.568,1.543,1.543,0,0,0,.122.576l1.157,2.723a1.55,1.55,0,1,0,2.853-1.213l-1.157-2.723a1.54,1.54,0,0,0-.332-.491,24.109,24.109,0,0,1,6.681-1.352,1.545,1.545,0,0,0-.11.57V78.6a1.55,1.55,0,1,0,3.1,0V75.644a1.545,1.545,0,0,0-.11-.57,24.13,24.13,0,0,1,6.252,1.205,1.541,1.541,0,0,0-.322.5L125.4,79.518a1.55,1.55,0,1,0,2.875,1.159l1.106-2.744a1.546,1.546,0,0,0,.112-.58,24.121,24.121,0,0,1,5.684,3.767,1.544,1.544,0,0,0-.483.325L132.6,83.538a1.55,1.55,0,0,0,2.192,2.192l2.093-2.093a1.539,1.539,0,0,0,.324-.481,24.1,24.1,0,0,1,3.571,5.274,1.544,1.544,0,0,0-.578.122l-2.723,1.157a1.55,1.55,0,1,0,1.213,2.853l2.723-1.157a1.55,1.55,0,0,0,.487-.329,24.1,24.1,0,0,1,1.256,5.534Z" transform="translate(-81.543 -49.139)"/>
      <path id="Trazado_102054" data-name="Trazado 102054" d="M159.845,66.254h-2.067V55.4a1.55,1.55,0,0,0-3.1,0V66.254h-2.067a1.55,1.55,0,0,0-1.55,1.55V85.372a5.176,5.176,0,0,0,3.617,4.929v44.675a5.69,5.69,0,0,1-5.684,5.684H129.36a5.71,5.71,0,0,1-4.377-2.067h11.094a8.794,8.794,0,0,0,8.784-8.784V85.134a5.176,5.176,0,0,0,3.617-4.929V62.637a1.55,1.55,0,0,0-1.55-1.55h-2.067V50.236a1.55,1.55,0,0,0-3.1,0V61.087h-2.067a1.55,1.55,0,0,0-1.55,1.55V80.205a5.176,5.176,0,0,0,3.617,4.929v44.675a5.69,5.69,0,0,1-5.684,5.684H123.7c-.015-.171-.026-.343-.026-.517v-4.01a11.9,11.9,0,0,0,11.753-11.881V35.644A11.9,11.9,0,0,0,123.544,23.76H72.134A11.9,11.9,0,0,0,60.25,35.644v83.44a11.9,11.9,0,0,0,11.884,11.884h35.6a8.8,8.8,0,0,0,8.7,7.624h4.915a8.839,8.839,0,0,0,8,5.167h19.635a8.794,8.794,0,0,0,8.784-8.784V90.3a5.176,5.176,0,0,0,3.617-4.929V67.8a1.55,1.55,0,0,0-1.55-1.55Zm-18.6-2.067h4.134v4.392h-4.134Zm0,16.018V71.679h4.134v8.526a2.067,2.067,0,1,1-4.134,0Zm-24.8,55.288a5.693,5.693,0,0,1-5.564-4.524h9.7v4.007c0,.173.009.345.019.517Zm-44.308-7.624a8.794,8.794,0,0,1-8.784-8.784V35.644a8.794,8.794,0,0,1,8.784-8.784h51.41a8.794,8.794,0,0,1,8.784,8.784v83.44a8.794,8.794,0,0,1-8.784,8.784Zm86.161-42.5a2.067,2.067,0,1,1-4.134,0V76.846H158.3Zm0-11.626h-4.134V69.354H158.3Z" transform="translate(-60.25 -23.76)"/>
      <path id="Trazado_102058" data-name="Trazado 102058" d="M5,0H50a5,5,0,0,1,5,5V37H0V5A5,5,0,0,1,5,0Z" transform="translate(10 11)" fill="#265d99"/>
    </g>
    <path id="Trazado_102055" data-name="Trazado 102055" d="M160.727,259.61a13.115,13.115,0,0,1,9.751-12.675,13.111,13.111,0,1,0,0,25.35A13.115,13.115,0,0,1,160.727,259.61Z" transform="translate(-69.54 -165.193)" fill="#e5edf9"/>
    <path id="Trazado_102056" data-name="Trazado 102056" d="M181.481,250.16a3.465,3.465,0,0,1,0,4.911l-.1.1-17.71,17.71-.1.1a3.474,3.474,0,1,1-4.914-4.911l.106-.1,17.7-17.7.1-.1a3.473,3.473,0,0,1,4.911,0Z" transform="translate(-72.232 -167.154)" fill="#b0b5ca"/>
    <path id="Trazado_102057" data-name="Trazado 102057" d="M177.962,246.522a5.022,5.022,0,0,0-7.771-4.2,14.55,14.55,0,0,0-19.368,19.364,5.024,5.024,0,0,0,6.95,6.954,14.565,14.565,0,0,0,19.273-6.754,1.55,1.55,0,1,0-2.784-1.365,11.463,11.463,0,0,1-14,5.787l14.551-14.551a11.419,11.419,0,0,1,.553,4.951,1.55,1.55,0,0,0,1.376,1.705,1.585,1.585,0,0,0,.167.009,1.55,1.55,0,0,0,1.54-1.385,14.471,14.471,0,0,0-1.3-7.767,4.982,4.982,0,0,0,.821-2.747Zm-3.681,1.374-17.795,17.8-.1.1a1.924,1.924,0,0,1-3.286-1.359,1.9,1.9,0,0,1,.55-1.346l2.576-2.573a1.55,1.55,0,1,0-2.192-2.192l-.881.881A11.449,11.449,0,0,1,167.7,244.651l-10.567,10.57a1.55,1.55,0,1,0,2.192,2.192l12.163-12.163.084-.086a1.923,1.923,0,1,1,2.7,2.733Z" transform="translate(-66.142 -161.062)"/>
  </g>
</svg>
