<?xml version="1.0" encoding="utf-8"?>
<!-- Generator: Adobe Illustrator 25.3.1, SVG Export Plug-In . SVG Version: 6.00 Build 0)  -->
<svg version="1.1" id="Layer_1" xmlns="http://www.w3.org/2000/svg" xmlns:xlink="http://www.w3.org/1999/xlink" x="0px" y="0px"
	 viewBox="0 0 611 400" style="enable-background:new 0 0 611 400;" xml:space="preserve">
<style type="text/css">
	.st0{fill:#F3F9FF;}
	.st1{fill:none;stroke:#76C2DD;stroke-width:2;stroke-linecap:round;stroke-linejoin:round;}
	.st2{fill:#76C2DD;stroke:#76C2DD;stroke-width:2;stroke-linecap:round;stroke-linejoin:round;}
	.st3{fill:none;stroke:#265D99;stroke-width:2;stroke-linecap:round;stroke-linejoin:round;}
	.st4{fill:#265D99;stroke:#265D99;stroke-width:2;stroke-linecap:round;stroke-linejoin:round;}
	.st5{fill:none;stroke:#EE6C4D;stroke-width:2;stroke-linecap:round;stroke-linejoin:round;}
	.st6{fill:#EE6C4D;stroke:#EE6C4D;stroke-width:2;stroke-linecap:round;stroke-linejoin:round;}
	.st7{fill:none;stroke:#76C2DD;stroke-linecap:round;}
	.st8{fill:none;stroke:#265D99;stroke-linecap:round;stroke-linejoin:round;}
	.st9{fill:none;stroke:#EE6C4D;stroke-linecap:round;stroke-linejoin:round;}
	.st10{fill:#F3F9FF;stroke:#AFAFAF;stroke-width:2;stroke-linecap:round;stroke-linejoin:round;}
	.st11{fill:#F3F9FF;stroke:#76C2DD;stroke-linecap:round;stroke-linejoin:round;}
	.st12{fill:#F3F9FF;stroke:#EE6C4D;stroke-linecap:round;stroke-linejoin:round;}
	.st13{enable-background:new    ;}
	.st14{fill:#12263F;}
	.st15{fill:#265D99;}
</style>
<g id="Grupo_84327" transform="translate(-494.855 -4248)">
	<g id="Grupo_84320">
		<g id="Grupo_84325">
			<g id="Grupo_84326">
				<rect id="Rectángulo_31429" x="494.9" y="4248" class="st0" width="611" height="400"/>
			</g>
		</g>
	</g>
	<g id="Grupo_84287" transform="translate(12.855)">
		<g id="Grupo_84235" transform="translate(583.855 4343.365)">
			<path id="Trazado_102482" class="st1" d="M0,168.9h76.9L77.5,0h58.1l-1.1,168.9h291.7"/>
			<path id="Trazado_102483" class="st2" d="M426.2,165.5v6.9l5.8-3.5L426.2,165.5z"/>
		</g>
		<g id="Grupo_84236" transform="translate(583.855 4343.365)">
			<path id="Trazado_102484" class="st3" d="M0,191.8h426.2"/>
			<path id="Trazado_102485" class="st4" d="M426.2,187.9v7.9l5.8-3.9L426.2,187.9z"/>
		</g>
		<path id="Trazado_102487" class="st5" d="M583.9,4557.6h245.9l0.6-214.2h58.1l-1.1,214.2h122.7"/>
		<path id="Trazado_102488" class="st6" d="M1010.1,4553.2v8.8l5.8-4.4L1010.1,4553.2z"/>
		<path id="Trazado_102491" class="st7" d="M690.9,4450.2V4309"/>
		<line id="Línea_190" class="st8" x1="774.6" y1="4534.5" x2="774.6" y2="4309"/>
		<line id="Línea_191" class="st9" x1="858.4" y1="4450.2" x2="858.4" y2="4309"/>
		<circle id="Elipse_4142" class="st10" cx="690.9" cy="4343.4" r="12.9"/>
		<circle id="Elipse_4143" class="st10" cx="774.7" cy="4343.4" r="12.9"/>
		<circle id="Elipse_4144" class="st10" cx="858.4" cy="4343.4" r="12.9"/>
		<path id="Trazado_102490" class="st8" d="M690.9,4309h167.4"/>
		<g id="Grupo_84239" transform="translate(645.91 4450.238)">
			<rect id="Rectángulo_31873" x="0" y="0" class="st10" width="28.2" height="27.8"/>
			<rect id="Rectángulo_31874" x="28.2" y="0" class="st10" width="28.2" height="27.8"/>
			<rect id="Rectángulo_31875" x="56.3" y="0" class="st10" width="28.2" height="27.8"/>
			<rect id="Rectángulo_31876" x="84.5" y="0" class="st10" width="28.2" height="27.8"/>
		</g>
		<g id="Grupo_84240" transform="translate(758.53 4450.238)">
			<rect id="Rectángulo_31877" x="0" y="0" class="st10" width="28.2" height="27.8"/>
			<rect id="Rectángulo_31878" x="28.2" y="0" class="st10" width="28.2" height="27.8"/>
			<rect id="Rectángulo_31879" x="56.3" y="0" class="st10" width="28.2" height="27.8"/>
			<rect id="Rectángulo_31880" x="84.5" y="0" class="st10" width="28.2" height="27.8"/>
		</g>
		<g id="Grupo_84241" transform="translate(871.15 4450.238)">
			<rect id="Rectángulo_31881" x="0" y="0" class="st10" width="28.2" height="27.8"/>
			<rect id="Rectángulo_31882" x="28.2" y="0" class="st10" width="28.2" height="27.8"/>
			<rect id="Rectángulo_31883" x="56.3" y="0" class="st10" width="28.2" height="27.8"/>
			<rect id="Rectángulo_31884" x="84.5" y="0" class="st10" width="28.2" height="27.8"/>
		</g>
		<g id="Grupo_84242" transform="translate(663.988 4460.252)">
			<path id="Rectángulo_31885" class="st11" d="M4.1,0h11.4c2.1,0,3.8,1.7,3.8,3.8v0.1c0,2.1-1.7,3.8-3.8,3.8H4.1
				C2,7.7,0.3,6,0.3,3.9V3.8C0.3,1.7,2,0,4.1,0z"/>
			<circle id="Elipse_4134" class="st11" cx="3.9" cy="3.9" r="3.9"/>
			<circle id="Elipse_4135" class="st11" cx="15.4" cy="3.9" r="3.9"/>
		</g>
		<g id="Grupo_84244" transform="translate(833.349 4460.252)">
			<path id="Rectángulo_31887" class="st12" d="M4.1,0h11.4c2.1,0,3.8,1.7,3.8,3.8v0.1c0,2.1-1.7,3.8-3.8,3.8H4.1
				C2,7.7,0.3,6,0.3,3.9V3.8C0.3,1.7,2,0,4.1,0z"/>
			<circle id="Elipse_4138" class="st12" cx="3.9" cy="3.9" r="3.9"/>
			<circle id="Elipse_4139" class="st12" cx="15.4" cy="3.9" r="3.9"/>
		</g>
		<g class="st13">
			<path class="st14" d="M562.4,4515.3h5v1.9h-7.3v-11.4h2.3V4515.3z"/>
			<path class="st14" d="M574,4517.2h-2.3v-8.7l-2.7,0.8v-1.8l4.7-1.7h0.2V4517.2z"/>
		</g>
		<g class="st13">
			<path class="st14" d="M660,4469.6h-1.3v-8.4l-2.5,0.9v-1.1l3.6-1.4h0.2V4469.6z"/>
		</g>
		<g class="st13">
			<path class="st14" d="M693.4,4469.6h-6.5v-0.9l3.4-3.8c0.5-0.6,0.9-1,1.1-1.4c0.2-0.4,0.3-0.7,0.3-1.1c0-0.5-0.2-0.9-0.5-1.3
				s-0.7-0.5-1.3-0.5c-0.6,0-1.1,0.2-1.5,0.5c-0.3,0.4-0.5,0.9-0.5,1.5h-1.3c0-0.9,0.3-1.7,0.9-2.2s1.4-0.8,2.4-0.8
				c0.9,0,1.7,0.2,2.2,0.7c0.5,0.5,0.8,1.1,0.8,1.9c0,1-0.6,2.1-1.9,3.5l-2.7,2.9h5V4469.6z"/>
		</g>
		<g class="st13">
			<path class="st14" d="M714.7,4464h1c0.6,0,1.1-0.2,1.4-0.5s0.5-0.7,0.5-1.2c0-1.2-0.6-1.8-1.7-1.8c-0.5,0-1,0.2-1.3,0.5
				c-0.3,0.3-0.5,0.7-0.5,1.2h-1.3c0-0.8,0.3-1.4,0.9-2c0.6-0.5,1.3-0.8,2.2-0.8c0.9,0,1.7,0.2,2.2,0.7s0.8,1.2,0.8,2.1
				c0,0.4-0.1,0.9-0.4,1.3s-0.7,0.7-1.1,0.9c0.5,0.2,1,0.5,1.3,0.9s0.4,0.9,0.4,1.5c0,0.9-0.3,1.6-0.9,2.1s-1.3,0.8-2.3,0.8
				s-1.7-0.3-2.3-0.8s-0.9-1.2-0.9-2h1.3c0,0.5,0.2,0.9,0.5,1.3s0.8,0.5,1.4,0.5c0.6,0,1.1-0.2,1.4-0.5s0.5-0.8,0.5-1.4
				c0-0.6-0.2-1-0.5-1.3s-0.9-0.5-1.5-0.5h-1V4464z"/>
		</g>
		<g class="st13">
			<path class="st14" d="M746.1,4466.3h1.4v1h-1.4v2.3h-1.3v-2.3h-4.5v-0.7l4.5-6.9h1.3V4466.3z M741.8,4466.3h3.1v-4.9l-0.2,0.3
				L741.8,4466.3z"/>
		</g>
		<g class="st13">
			<path class="st14" d="M772.4,4464.6l0.5-5h5.1v1.2h-4l-0.3,2.7c0.5-0.3,1-0.4,1.7-0.4c0.9,0,1.6,0.3,2.2,0.9
				c0.5,0.6,0.8,1.4,0.8,2.4c0,1-0.3,1.8-0.8,2.4c-0.6,0.6-1.3,0.9-2.3,0.9c-0.9,0-1.6-0.2-2.2-0.7s-0.9-1.2-1-2h1.2
				c0.1,0.6,0.3,1,0.6,1.3c0.3,0.3,0.8,0.4,1.3,0.4c0.6,0,1-0.2,1.4-0.6s0.5-1,0.5-1.7c0-0.7-0.2-1.2-0.5-1.6
				c-0.4-0.4-0.8-0.6-1.4-0.6c-0.6,0-1,0.1-1.3,0.4l-0.3,0.3L772.4,4464.6z"/>
		</g>
		<g class="st13">
			<path class="st14" d="M802.8,4459.7v1.1h-0.2c-1,0-1.8,0.3-2.4,0.9c-0.6,0.6-0.9,1.4-1,2.4c0.5-0.6,1.2-0.9,2.1-0.9
				c0.9,0,1.6,0.3,2.1,0.9c0.5,0.6,0.8,1.4,0.8,2.4c0,1-0.3,1.8-0.8,2.5c-0.6,0.6-1.3,0.9-2.2,0.9c-1,0-1.7-0.4-2.3-1.1
				c-0.6-0.7-0.9-1.7-0.9-2.8v-0.5c0-1.8,0.4-3.2,1.2-4.2c0.8-1,1.9-1.5,3.5-1.5H802.8z M801.1,4464.1c-0.4,0-0.8,0.1-1.2,0.4
				c-0.4,0.3-0.6,0.6-0.8,1v0.5c0,0.8,0.2,1.5,0.6,2s0.8,0.8,1.4,0.8c0.6,0,1-0.2,1.3-0.6c0.3-0.4,0.5-1,0.5-1.6
				c0-0.7-0.2-1.2-0.5-1.7C802.1,4464.4,801.6,4464.1,801.1,4464.1z"/>
		</g>
		<g class="st13">
			<path class="st14" d="M831.2,4460.4l-4.1,9.2h-1.3l4.1-8.9h-5.4v-1h6.7V4460.4z"/>
		</g>
		<g class="st13">
			<path class="st14" d="M862.3,4462.3c0,0.5-0.1,0.9-0.4,1.3c-0.3,0.4-0.6,0.7-1.1,0.9c0.5,0.2,0.9,0.5,1.2,1
				c0.3,0.4,0.5,0.9,0.5,1.5c0,0.9-0.3,1.5-0.9,2.1s-1.3,0.8-2.3,0.8c-1,0-1.7-0.3-2.3-0.8c-0.6-0.5-0.9-1.2-0.9-2.1
				c0-0.5,0.1-1,0.4-1.5s0.7-0.8,1.2-1c-0.4-0.2-0.8-0.5-1-0.9c-0.3-0.4-0.4-0.8-0.4-1.3c0-0.8,0.3-1.5,0.8-2
				c0.5-0.5,1.2-0.7,2.1-0.7c0.9,0,1.6,0.2,2.1,0.7S862.3,4461.4,862.3,4462.3z M861.3,4466.9c0-0.6-0.2-1-0.5-1.4
				c-0.4-0.4-0.8-0.5-1.4-0.5c-0.6,0-1,0.2-1.4,0.5c-0.3,0.3-0.5,0.8-0.5,1.4s0.2,1,0.5,1.3s0.8,0.5,1.4,0.5c0.6,0,1.1-0.2,1.4-0.5
				C861.1,4467.9,861.3,4467.5,861.3,4466.9z M859.4,4460.6c-0.5,0-0.9,0.2-1.2,0.5c-0.3,0.3-0.5,0.7-0.5,1.3c0,0.5,0.2,0.9,0.5,1.2
				c0.3,0.3,0.7,0.5,1.2,0.5s0.9-0.2,1.2-0.5c0.3-0.3,0.5-0.7,0.5-1.2s-0.2-0.9-0.5-1.2S859.8,4460.6,859.4,4460.6z"/>
		</g>
		<g class="st13">
			<path class="st14" d="M887.1,4465.2c-0.3,0.3-0.6,0.6-0.9,0.8c-0.4,0.2-0.8,0.3-1.2,0.3c-0.6,0-1.1-0.1-1.5-0.4
				c-0.4-0.3-0.8-0.7-1-1.2c-0.2-0.5-0.3-1.1-0.3-1.7c0-0.7,0.1-1.3,0.4-1.8s0.6-0.9,1.1-1.2s1-0.4,1.6-0.4c1,0,1.8,0.4,2.3,1.1
				c0.6,0.7,0.9,1.7,0.9,3v0.4c0,1.9-0.4,3.4-1.1,4.2c-0.8,0.9-1.9,1.3-3.5,1.4h-0.2v-1.1h0.3c1,0,1.8-0.3,2.4-0.8
				S887.1,4466.4,887.1,4465.2z M885.2,4465.2c0.4,0,0.8-0.1,1.2-0.4c0.4-0.3,0.6-0.6,0.8-1v-0.5c0-0.8-0.2-1.5-0.5-2
				c-0.4-0.5-0.8-0.8-1.4-0.8c-0.6,0-1,0.2-1.3,0.6c-0.3,0.4-0.5,1-0.5,1.7c0,0.7,0.2,1.2,0.5,1.7
				C884.2,4465,884.6,4465.2,885.2,4465.2z"/>
		</g>
		<g class="st13">
			<path class="st14" d="M906.1,4469.6h-1.3v-8.4l-2.5,0.9v-1.1l3.6-1.4h0.2V4469.6z"/>
			<path class="st14" d="M916.1,4465.4c0,1.5-0.3,2.6-0.8,3.3s-1.3,1.1-2.4,1.1c-1.1,0-1.8-0.4-2.4-1.1c-0.5-0.7-0.8-1.8-0.8-3.2
				v-1.7c0-1.5,0.3-2.5,0.8-3.3s1.3-1.1,2.4-1.1c1.1,0,1.9,0.3,2.4,1c0.5,0.7,0.8,1.7,0.8,3.2V4465.4z M914.8,4463.6
				c0-1.1-0.2-1.9-0.5-2.3c-0.3-0.5-0.8-0.7-1.4-0.7c-0.6,0-1.1,0.2-1.4,0.7c-0.3,0.5-0.4,1.2-0.5,2.2v2c0,1.1,0.2,1.9,0.5,2.4
				c0.3,0.5,0.8,0.8,1.4,0.8c0.6,0,1.1-0.2,1.4-0.7c0.3-0.5,0.5-1.2,0.5-2.3V4463.6z"/>
		</g>
		<g class="st13">
			<path class="st14" d="M943,4469.6h-1.3v-8.4l-2.5,0.9v-1.1l3.6-1.4h0.2V4469.6z"/>
			<path class="st14" d="M950.9,4469.6h-1.3v-8.4l-2.5,0.9v-1.1l3.6-1.4h0.2V4469.6z"/>
		</g>
		<g class="st13">
			<path class="st14" d="M966,4469.6h-1.3v-8.4l-2.5,0.9v-1.1l3.6-1.4h0.2V4469.6z"/>
			<path class="st14" d="M976.3,4469.6h-6.5v-0.9l3.4-3.8c0.5-0.6,0.9-1,1.1-1.4c0.2-0.4,0.3-0.7,0.3-1.1c0-0.5-0.2-0.9-0.5-1.3
				s-0.7-0.5-1.3-0.5c-0.6,0-1.1,0.2-1.5,0.5c-0.3,0.4-0.5,0.9-0.5,1.5h-1.3c0-0.9,0.3-1.7,0.9-2.2s1.4-0.8,2.4-0.8
				c0.9,0,1.7,0.2,2.2,0.7c0.5,0.5,0.8,1.1,0.8,1.9c0,1-0.6,2.1-1.9,3.5l-2.7,2.9h5V4469.6z"/>
		</g>
		<g class="st13">
			<path class="st14" d="M562.4,4538.3h5v1.9h-7.3v-11.4h2.3V4538.3z"/>
			<path class="st14" d="M576.3,4540.2h-7.8v-1.5l3.7-3.9c0.5-0.6,0.9-1,1.1-1.4c0.2-0.4,0.4-0.8,0.4-1.2c0-0.5-0.1-0.9-0.4-1.2
				c-0.3-0.3-0.6-0.4-1.1-0.4c-0.5,0-0.9,0.2-1.2,0.5c-0.3,0.4-0.4,0.8-0.4,1.4h-2.3c0-0.7,0.2-1.3,0.5-1.9c0.3-0.6,0.8-1,1.4-1.3
				c0.6-0.3,1.3-0.5,2.1-0.5c1.2,0,2.1,0.3,2.7,0.8s1,1.4,1,2.4c0,0.6-0.1,1.1-0.4,1.7c-0.3,0.6-0.8,1.3-1.5,2l-2.6,2.7h4.9V4540.2z
				"/>
		</g>
		<g class="st13">
			<path class="st14" d="M562.4,4561.3h5v1.9h-7.3v-11.4h2.3V4561.3z"/>
			<path class="st14" d="M570.8,4556.5h1.2c0.6,0,1-0.1,1.3-0.4c0.3-0.3,0.4-0.7,0.4-1.1c0-0.5-0.1-0.8-0.4-1.1
				c-0.3-0.3-0.6-0.4-1.1-0.4c-0.4,0-0.8,0.1-1.1,0.4c-0.3,0.2-0.4,0.5-0.4,0.9h-2.3c0-0.6,0.2-1.1,0.5-1.6c0.3-0.5,0.8-0.8,1.3-1.1
				c0.6-0.3,1.2-0.4,1.9-0.4c1.2,0,2.1,0.3,2.8,0.9c0.7,0.6,1,1.4,1,2.4c0,0.5-0.2,1-0.5,1.4c-0.3,0.4-0.7,0.8-1.2,1
				c0.6,0.2,1.1,0.6,1.4,1c0.3,0.5,0.5,1,0.5,1.6c0,1-0.4,1.8-1.1,2.4c-0.7,0.6-1.7,0.9-2.9,0.9c-1.1,0-2.1-0.3-2.8-0.9
				c-0.7-0.6-1.1-1.4-1.1-2.4h2.3c0,0.4,0.2,0.8,0.5,1c0.3,0.3,0.7,0.4,1.2,0.4c0.5,0,1-0.1,1.3-0.4c0.3-0.3,0.5-0.7,0.5-1.1
				c0-1.1-0.6-1.7-1.9-1.7h-1.2V4556.5z"/>
		</g>
		<circle id="Elipse_4162" class="st15" cx="774.4" cy="4535.5" r="3.5"/>
	</g>
</g>
</svg>
