<svg xmlns="http://www.w3.org/2000/svg" width="505" height="120" viewBox="0 0 505 120">
  <g id="Grupo_84314" data-name="Grupo 84314" transform="translate(-810.57 -3250)">
    <rect id="Rectángulo_31407" data-name="Rectángulo 31407" width="505" height="89" transform="translate(810.57 3265.5)" fill="#ccf8ff"/>
    <g id="multimetro" transform="translate(1011 3249)">
      <g id="Grupo_83943" data-name="Grupo 83943" transform="translate(10.935 2.935)">
        <g id="Grupo_83931" data-name="Grupo 83931">
          <path id="Trazado_102263" data-name="Trazado 102263" d="M95.161,9.742V64.594A7.75,7.75,0,0,1,92.9,70.071l-5.477,5.477v34.839a7.74,7.74,0,0,1-7.742,7.742H25.484a7.74,7.74,0,0,1-7.742-7.742V75.548l-5.477-5.477A7.75,7.75,0,0,1,10,64.594V9.742A7.74,7.74,0,0,1,17.742,2H87.419a7.74,7.74,0,0,1,7.742,7.742Z" transform="translate(-10 -2)" fill="#ccd1d9"/>
        </g>
        <g id="Grupo_83932" data-name="Grupo 83932" transform="translate(58.065 96.774)">
          <circle id="Elipse_4123" data-name="Elipse 4123" cx="3.871" cy="3.871" r="3.871" fill="#ff826e"/>
        </g>
        <g id="Grupo_83933" data-name="Grupo 83933" transform="translate(58.065 81.29)">
          <circle id="Elipse_4124" data-name="Elipse 4124" cx="3.871" cy="3.871" r="3.871" fill="#ff826e"/>
        </g>
        <g id="Grupo_83934" data-name="Grupo 83934" transform="translate(56.129 61.935)">
          <path id="Trazado_102264" data-name="Trazado 102264" d="M39,34H50.613v7.742H39Z" transform="translate(-39 -34)" fill="#fcd770"/>
        </g>
        <g id="Grupo_83935" data-name="Grupo 83935" transform="translate(36.774 61.935)">
          <path id="Trazado_102265" data-name="Trazado 102265" d="M29,34H40.613v7.742H29Z" transform="translate(-29 -34)" fill="#fcd770"/>
        </g>
        <g id="Grupo_83936" data-name="Grupo 83936" transform="translate(17.419 61.935)">
          <path id="Trazado_102266" data-name="Trazado 102266" d="M19,34H30.613v7.742H19Z" transform="translate(-19 -34)" fill="#fcd770"/>
        </g>
        <g id="Grupo_83937" data-name="Grupo 83937" transform="translate(15.484 85.258)">
          <path id="Trazado_102267" data-name="Trazado 102267" d="M20.032,46.05l21.1,21.1a15.237,15.237,0,0,1-7.645,2.032A15.48,15.48,0,0,1,18,53.7a15.237,15.237,0,0,1,2.032-7.645Z" transform="translate(-18 -46.05)" fill="#969faa"/>
        </g>
        <g id="Grupo_83938" data-name="Grupo 83938" transform="translate(23.323 77.419)">
          <path id="Trazado_102268" data-name="Trazado 102268" d="M45.179,57.484a15.237,15.237,0,0,1-2.032,7.645l-21.1-21.1A15.237,15.237,0,0,1,29.7,42,15.48,15.48,0,0,1,45.179,57.484Z" transform="translate(-22.05 -42)" fill="#969faa"/>
        </g>
        <g id="Grupo_83939" data-name="Grupo 83939" transform="translate(17.516 79.452)">
          <path id="Trazado_102269" data-name="Trazado 102269" d="M24.856,43.05l21.1,21.1a15.212,15.212,0,0,1-5.806,5.806l-21.1-21.1a15.212,15.212,0,0,1,5.806-5.806Z" transform="translate(-19.05 -43.05)" fill="#ee6c4d"/>
        </g>
        <g id="Grupo_83940" data-name="Grupo 83940" transform="translate(7.742 7.742)">
          <path id="Trazado_102270" data-name="Trazado 102270" d="M83.677,7.935v5.806H14V7.935A1.941,1.941,0,0,1,15.935,6H81.742A1.941,1.941,0,0,1,83.677,7.935Z" transform="translate(-14 -6)" fill="#e6e9ed"/>
        </g>
        <g id="Grupo_83941" data-name="Grupo 83941" transform="translate(7.742 46.452)">
          <path id="Trazado_102271" data-name="Trazado 102271" d="M83.677,26v5.806a1.941,1.941,0,0,1-1.935,1.935H15.935A1.941,1.941,0,0,1,14,31.806V26Z" transform="translate(-14 -26)" fill="#e6e9ed"/>
        </g>
        <g id="Grupo_83942" data-name="Grupo 83942" transform="translate(7.742 15.484)">
          <path id="Trazado_102272" data-name="Trazado 102272" d="M83.677,40.968H14V10H83.677Z" transform="translate(-14 -10)" fill="#69d6f4"/>
        </g>
      </g>
      <g id="Grupo_83944" data-name="Grupo 83944" transform="translate(9 1)">
        <path id="Trazado_102273" data-name="Trazado 102273" d="M20.871,16.871V32.355h3.871V13H17v3.871Z" transform="translate(-1.516 10.226)"/>
        <path id="Trazado_102274" data-name="Trazado 102274" d="M26.871,32.355h3.871V13H23v3.871h3.871Z" transform="translate(4.097 10.226)"/>
        <path id="Trazado_102275" data-name="Trazado 102275" d="M36.871,32.355h3.871a3.875,3.875,0,0,0,3.871-3.871V16.871A3.875,3.875,0,0,0,40.742,13H36.871A3.875,3.875,0,0,0,33,16.871V28.484A3.875,3.875,0,0,0,36.871,32.355Zm0-15.484h3.871l0,11.613H36.871Z" transform="translate(13.452 10.226)"/>
        <path id="Trazado_102276" data-name="Trazado 102276" d="M44.871,32.355h3.871a3.875,3.875,0,0,0,3.871-3.871V16.871A3.875,3.875,0,0,0,48.742,13H44.871A3.875,3.875,0,0,0,41,16.871V28.484A3.875,3.875,0,0,0,44.871,32.355Zm0-15.484h3.871l0,11.613H44.871Z" transform="translate(20.935 10.226)"/>
        <path id="Trazado_102277" data-name="Trazado 102277" d="M29,21h3.871v3.871H29Z" transform="translate(9.71 17.71)"/>
        <path id="Trazado_102278" data-name="Trazado 102278" d="M82.677,5H16.871A3.875,3.875,0,0,0,13,8.871V51.452a3.875,3.875,0,0,0,3.871,3.871H82.677a3.875,3.875,0,0,0,3.871-3.871V8.871A3.875,3.875,0,0,0,82.677,5Zm0,3.871v3.871H16.871V8.871Zm0,7.742,0,27.1H16.871v-27.1ZM16.871,51.452V47.581H82.679v3.871Z" transform="translate(-5.258 2.742)"/>
        <path id="Trazado_102279" data-name="Trazado 102279" d="M88.355,1H18.677A9.688,9.688,0,0,0,9,10.677V65.535a9.614,9.614,0,0,0,2.834,6.842l4.908,4.908v34.037A9.688,9.688,0,0,0,26.419,121H80.613a9.688,9.688,0,0,0,9.677-9.677V77.285L95.2,72.377a9.611,9.611,0,0,0,2.834-6.842V10.677A9.688,9.688,0,0,0,88.355,1Zm5.806,64.535a5.845,5.845,0,0,1-1.7,4.105l-6.043,6.043v35.64a5.814,5.814,0,0,1-5.806,5.806H26.419a5.814,5.814,0,0,1-5.806-5.806V75.683L14.57,69.64a5.845,5.845,0,0,1-1.7-4.105V10.677a5.814,5.814,0,0,1,5.806-5.806H88.355a5.814,5.814,0,0,1,5.806,5.806Z" transform="translate(-9 -1)"/>
        <path id="Trazado_102280" data-name="Trazado 102280" d="M38,44.613H53.484V33H38Zm3.871-7.742h7.742v3.871H41.871Z" transform="translate(18.129 28.935)"/>
        <path id="Trazado_102281" data-name="Trazado 102281" d="M28,44.613H43.484V33H28Zm3.871-7.742h7.742v3.871H31.871Z" transform="translate(8.774 28.935)"/>
        <path id="Trazado_102282" data-name="Trazado 102282" d="M33.484,33H18V44.613H33.484Zm-3.871,7.742H21.871V36.871h7.742Z" transform="translate(-0.581 28.935)"/>
        <path id="Trazado_102283" data-name="Trazado 102283" d="M34.419,41A17.419,17.419,0,1,0,51.839,58.419,17.441,17.441,0,0,0,34.419,41ZM20.871,58.419a13.431,13.431,0,0,1,.71-4.295L38.716,71.259a13.525,13.525,0,0,1-17.845-12.84ZM42.328,69.4,23.441,50.511a13.666,13.666,0,0,1,3.07-3.07L45.4,66.328A13.667,13.667,0,0,1,42.328,69.4Zm4.93-6.683L30.123,45.579A13.52,13.52,0,0,1,47.257,62.714Z" transform="translate(-1.516 36.419)"/>
        <path id="Trazado_102284" data-name="Trazado 102284" d="M44.806,43a5.806,5.806,0,1,0,5.806,5.806A5.814,5.814,0,0,0,44.806,43Zm0,7.742a1.935,1.935,0,1,1,1.935-1.935A1.939,1.939,0,0,1,44.806,50.742Z" transform="translate(19.065 38.29)"/>
        <path id="Trazado_102285" data-name="Trazado 102285" d="M44.806,51a5.806,5.806,0,1,0,5.806,5.806A5.814,5.814,0,0,0,44.806,51Zm0,7.742a1.935,1.935,0,1,1,1.935-1.935A1.939,1.939,0,0,1,44.806,58.742Z" transform="translate(19.065 45.774)"/>
      </g>
    </g>
  </g>
</svg>
