<?xml version="1.0" encoding="utf-8"?>
<!-- Generator: Adobe Illustrator 25.3.1, SVG Export Plug-In . SVG Version: 6.00 Build 0)  -->
<svg version="1.1" id="Layer_1" xmlns="http://www.w3.org/2000/svg" xmlns:xlink="http://www.w3.org/1999/xlink" x="0px" y="0px"
	 viewBox="0 0 505 300" style="enable-background:new 0 0 505 300;" xml:space="preserve">
<style type="text/css">
	.st0{fill:#F3F9FF;}
	.st1{fill:none;stroke:#EE6C4D;stroke-width:2;stroke-linecap:round;stroke-linejoin:round;}
	.st2{fill:none;stroke:#265D99;stroke-width:2;stroke-linecap:round;stroke-linejoin:round;}
	.st3{fill:none;stroke:#76C2DD;stroke-width:2;stroke-linecap:round;stroke-linejoin:round;}
	.st4{fill:none;stroke:#AFAFAF;stroke-width:2;stroke-linecap:round;stroke-linejoin:round;}
	.st5{fill:#AFAFAF;stroke:#AFAFAF;stroke-width:2;stroke-linecap:round;stroke-linejoin:round;}
	.st6{fill:#F3F9FF;stroke:#AFAFAF;stroke-width:2;stroke-linecap:round;stroke-linejoin:round;}
	.st7{fill:#F3F9FF;stroke:#AFAFAF;stroke-width:2;stroke-linecap:round;}
	.st8{enable-background:new    ;}
	.st9{fill:#12263F;}
</style>
<g id="Grupo_84315" transform="translate(-284.855 -958)">
	<g id="Grupo_84272">
		<rect id="Rectángulo_31423" x="284.9" y="958" class="st0" width="505" height="300"/>
		<g id="Grupo_84232" transform="translate(23.785)">
			<g id="Grupo_84231" transform="translate(31.226 38.711)">
				<path id="Trazado_102468" class="st1" d="M352,1188.6h309.2v-67.8"/>
				<line id="Línea_181" class="st2" x1="351.6" y1="1120.3" x2="464" y2="1120.3"/>
				<line id="Línea_182" class="st3" x1="351.6" y1="984.7" x2="563" y2="984.7"/>
				<path id="Trazado_102469" class="st4" d="M464.4,1120.3l99-135.7l98.2,136.5L464.4,1120.3z"/>
				<line id="Línea_183" class="st4" x1="403.5" y1="988.8" x2="403.5" y2="1115.3"/>
				<path id="Trazado_102470" class="st5" d="M400.4,990.5h6.3l-3.1-4.3L400.4,990.5z"/>
				<path id="Trazado_102471" class="st5" d="M406.7,1114.5h-6.3l3.1,4.3L406.7,1114.5z"/>
				
					<rect id="Rectángulo_31867" x="612.1" y="1035.8" transform="matrix(0.8174 -0.576 0.576 0.8174 -497.6823 548.9521)" class="st6" width="10" height="47.4"/>
				
					<rect id="Rectángulo_31868" x="484.4" y="1055.4" transform="matrix(0.576 -0.8174 0.8174 0.576 -651.3812 864.8769)" class="st6" width="47.4" height="10"/>
				<circle id="Elipse_4128" class="st6" cx="540.1" cy="1017.9" r="11.7"/>
				<rect id="Rectángulo_31869" x="539.3" y="1115.3" class="st6" width="47.4" height="10"/>
				<circle id="Elipse_4129" class="st6" cx="451.9" cy="984.7" r="11.7"/>
				<path id="Trazado_102481" class="st7" d="M403.6,1040.4c6.4,0,11.7,5.2,11.7,11.7c0,6.4-5.2,11.7-11.7,11.7
					c-6.4,0-11.7-5.2-11.7-11.7C392,1045.6,397.2,1040.4,403.6,1040.4C403.6,1040.4,403.6,1040.4,403.6,1040.4z"/>
			</g>
			<g class="st8">
				<path class="st9" d="M359.5,1025.8h5v1.9h-7.3v-11.4h2.3V1025.8z"/>
				<path class="st9" d="M371.1,1027.7h-2.3v-8.7l-2.7,0.8v-1.8l4.7-1.7h0.2V1027.7z"/>
			</g>
			<g class="st8">
				<path class="st9" d="M359.5,1163.6h5v1.9h-7.3v-11.4h2.3V1163.6z"/>
				<path class="st9" d="M373.4,1165.5h-7.8v-1.5l3.7-3.9c0.5-0.6,0.9-1,1.1-1.4s0.4-0.8,0.4-1.2c0-0.5-0.1-0.9-0.4-1.2
					c-0.3-0.3-0.6-0.4-1.1-0.4c-0.5,0-0.9,0.2-1.2,0.5c-0.3,0.4-0.4,0.8-0.4,1.4h-2.3c0-0.7,0.2-1.3,0.5-1.9c0.3-0.6,0.8-1,1.4-1.3
					c0.6-0.3,1.3-0.5,2.1-0.5c1.2,0,2.1,0.3,2.7,0.8s1,1.4,1,2.4c0,0.6-0.1,1.1-0.4,1.7c-0.3,0.6-0.8,1.3-1.5,2l-2.6,2.7h4.9V1165.5
					z"/>
			</g>
			<g class="st8">
				<path class="st9" d="M485.1,1025.4H481l-0.8,2.3h-2.5l4.2-11.4h2.2l4.3,11.4h-2.5L485.1,1025.4z M481.6,1023.5h2.8l-1.4-4.3
					L481.6,1023.5z"/>
			</g>
			<g class="st8">
				<path class="st9" d="M504.4,1052.3c-0.1,1-0.5,1.7-1.1,2.3c-0.6,0.5-1.4,0.8-2.4,0.8c-1.1,0-2-0.4-2.6-1.2c-0.7-0.8-1-1.8-1-3.1
					v-0.9c0-0.9,0.2-1.6,0.5-2.3c0.3-0.7,0.7-1.2,1.3-1.5c0.6-0.3,1.2-0.5,2-0.5c1,0,1.8,0.3,2.4,0.8c0.6,0.5,0.9,1.3,1,2.3h-1.2
					c-0.1-0.7-0.3-1.3-0.7-1.6s-0.8-0.5-1.5-0.5c-0.8,0-1.4,0.3-1.8,0.9s-0.7,1.4-0.7,2.5v0.9c0,1,0.2,1.8,0.6,2.4s1,0.9,1.8,0.9
					c0.7,0,1.2-0.2,1.6-0.5c0.4-0.3,0.6-0.8,0.7-1.6H504.4z"/>
				<path class="st9" d="M505.6,1051.7c0-0.7,0.1-1.3,0.4-1.8c0.3-0.5,0.6-1,1.1-1.2c0.5-0.3,1-0.4,1.6-0.4c0.9,0,1.7,0.3,2.3,1
					c0.6,0.6,0.9,1.5,0.9,2.6v0.1c0,0.7-0.1,1.3-0.4,1.8s-0.6,0.9-1.1,1.2c-0.5,0.3-1,0.4-1.6,0.4c-0.9,0-1.7-0.3-2.3-1
					C505.9,1053.7,505.6,1052.9,505.6,1051.7L505.6,1051.7z M506.8,1051.9c0,0.8,0.2,1.4,0.5,1.8c0.4,0.5,0.8,0.7,1.4,0.7
					c0.6,0,1.1-0.2,1.4-0.7c0.4-0.5,0.5-1.1,0.5-2c0-0.8-0.2-1.4-0.5-1.8c-0.4-0.5-0.8-0.7-1.4-0.7c-0.6,0-1,0.2-1.4,0.7
					C507,1050.3,506.8,1051,506.8,1051.9z"/>
				<path class="st9" d="M516.6,1049.4c-0.2,0-0.4,0-0.6,0c-0.8,0-1.3,0.3-1.6,1v4.9h-1.2v-6.9h1.1l0,0.8c0.4-0.6,0.9-0.9,1.6-0.9
					c0.2,0,0.4,0,0.5,0.1V1049.4z"/>
				<path class="st9" d="M521,1049.4c-0.2,0-0.4,0-0.6,0c-0.8,0-1.3,0.3-1.6,1v4.9h-1.2v-6.9h1.1l0,0.8c0.4-0.6,0.9-0.9,1.6-0.9
					c0.2,0,0.4,0,0.5,0.1V1049.4z"/>
				<path class="st9" d="M522.1,1046.5c0-0.2,0.1-0.4,0.2-0.5c0.1-0.1,0.3-0.2,0.5-0.2s0.4,0.1,0.5,0.2c0.1,0.1,0.2,0.3,0.2,0.5
					c0,0.2-0.1,0.3-0.2,0.5c-0.1,0.1-0.3,0.2-0.5,0.2s-0.4-0.1-0.5-0.2C522.2,1046.9,522.1,1046.7,522.1,1046.5z M523.4,1055.2h-1.2
					v-6.9h1.2V1055.2z"/>
				<path class="st9" d="M528.1,1055.3c-0.9,0-1.7-0.3-2.3-0.9s-0.9-1.4-0.9-2.5v-0.2c0-0.7,0.1-1.3,0.4-1.8c0.3-0.5,0.6-1,1.1-1.3
					s1-0.5,1.5-0.5c0.9,0,1.6,0.3,2.1,0.9c0.5,0.6,0.7,1.4,0.7,2.5v0.5h-4.7c0,0.7,0.2,1.2,0.6,1.6c0.4,0.4,0.9,0.6,1.4,0.6
					c0.4,0,0.8-0.1,1.1-0.3c0.3-0.2,0.5-0.4,0.8-0.7l0.7,0.6C530.1,1054.9,529.3,1055.3,528.1,1055.3z M528,1049.2
					c-0.5,0-0.9,0.2-1.2,0.5c-0.3,0.3-0.5,0.8-0.6,1.5h3.4v-0.1c0-0.6-0.2-1.1-0.5-1.4C528.9,1049.3,528.5,1049.2,528,1049.2z"/>
				<path class="st9" d="M533.3,1048.3l0,0.9c0.5-0.7,1.2-1,2.1-1c1.5,0,2.2,0.8,2.2,2.5v4.5h-1.2v-4.5c0-0.5-0.1-0.9-0.3-1.1
					c-0.2-0.2-0.6-0.4-1-0.4c-0.4,0-0.7,0.1-1,0.3c-0.3,0.2-0.5,0.5-0.7,0.8v4.9h-1.2v-6.9H533.3z"/>
				<path class="st9" d="M540.9,1046.7v1.7h1.3v0.9h-1.3v4.3c0,0.3,0.1,0.5,0.2,0.6s0.3,0.2,0.6,0.2c0.1,0,0.3,0,0.6-0.1v0.9
					c-0.3,0.1-0.6,0.1-0.9,0.1c-0.5,0-0.9-0.2-1.2-0.5c-0.3-0.3-0.4-0.8-0.4-1.4v-4.3h-1.2v-0.9h1.2v-1.7H540.9z"/>
				<path class="st9" d="M546.4,1055.3c-0.9,0-1.7-0.3-2.3-0.9s-0.9-1.4-0.9-2.5v-0.2c0-0.7,0.1-1.3,0.4-1.8c0.3-0.5,0.6-1,1.1-1.3
					s1-0.5,1.5-0.5c0.9,0,1.6,0.3,2.1,0.9c0.5,0.6,0.7,1.4,0.7,2.5v0.5h-4.7c0,0.7,0.2,1.2,0.6,1.6c0.4,0.4,0.9,0.6,1.4,0.6
					c0.4,0,0.8-0.1,1.1-0.3c0.3-0.2,0.5-0.4,0.8-0.7l0.7,0.6C548.4,1054.9,547.6,1055.3,546.4,1055.3z M546.3,1049.2
					c-0.5,0-0.9,0.2-1.2,0.5c-0.3,0.3-0.5,0.8-0.6,1.5h3.4v-0.1c0-0.6-0.2-1.1-0.5-1.4C547.2,1049.3,546.8,1049.2,546.3,1049.2z"/>
			</g>
			<g class="st8">
				<path class="st9" d="M464.4,990.3c-0.1,1-0.5,1.7-1.1,2.3c-0.6,0.5-1.4,0.8-2.4,0.8c-1.1,0-2-0.4-2.6-1.2c-0.7-0.8-1-1.8-1-3.1
					v-0.9c0-0.9,0.2-1.6,0.5-2.3c0.3-0.7,0.7-1.2,1.3-1.5c0.6-0.3,1.2-0.5,2-0.5c1,0,1.8,0.3,2.4,0.8c0.6,0.5,0.9,1.3,1,2.3h-1.2
					c-0.1-0.7-0.3-1.3-0.7-1.6s-0.8-0.5-1.5-0.5c-0.8,0-1.4,0.3-1.8,0.9s-0.7,1.4-0.7,2.5v0.9c0,1,0.2,1.8,0.6,2.4s1,0.9,1.8,0.9
					c0.7,0,1.2-0.2,1.6-0.5c0.4-0.3,0.6-0.8,0.7-1.6H464.4z"/>
				<path class="st9" d="M465.6,989.7c0-0.7,0.1-1.3,0.4-1.8c0.3-0.5,0.6-1,1.1-1.2c0.5-0.3,1-0.4,1.6-0.4c0.9,0,1.7,0.3,2.3,1
					c0.6,0.6,0.9,1.5,0.9,2.6v0.1c0,0.7-0.1,1.3-0.4,1.8s-0.6,0.9-1.1,1.2c-0.5,0.3-1,0.4-1.6,0.4c-0.9,0-1.7-0.3-2.3-1
					C465.9,991.7,465.6,990.9,465.6,989.7L465.6,989.7z M466.8,989.9c0,0.8,0.2,1.4,0.5,1.8c0.4,0.5,0.8,0.7,1.4,0.7
					c0.6,0,1.1-0.2,1.4-0.7c0.4-0.5,0.5-1.1,0.5-2c0-0.8-0.2-1.4-0.5-1.8c-0.4-0.5-0.8-0.7-1.4-0.7c-0.6,0-1,0.2-1.4,0.7
					C467,988.3,466.8,989,466.8,989.9z"/>
				<path class="st9" d="M476.6,987.4c-0.2,0-0.4,0-0.6,0c-0.8,0-1.3,0.3-1.6,1v4.9h-1.2v-6.9h1.1l0,0.8c0.4-0.6,0.9-0.9,1.6-0.9
					c0.2,0,0.4,0,0.5,0.1V987.4z"/>
				<path class="st9" d="M481,987.4c-0.2,0-0.4,0-0.6,0c-0.8,0-1.3,0.3-1.6,1v4.9h-1.2v-6.9h1.1l0,0.8c0.4-0.6,0.9-0.9,1.6-0.9
					c0.2,0,0.4,0,0.5,0.1V987.4z"/>
				<path class="st9" d="M482.1,984.5c0-0.2,0.1-0.4,0.2-0.5c0.1-0.1,0.3-0.2,0.5-0.2s0.4,0.1,0.5,0.2c0.1,0.1,0.2,0.3,0.2,0.5
					c0,0.2-0.1,0.3-0.2,0.5c-0.1,0.1-0.3,0.2-0.5,0.2s-0.4-0.1-0.5-0.2C482.2,984.9,482.1,984.7,482.1,984.5z M483.4,993.2h-1.2
					v-6.9h1.2V993.2z"/>
				<path class="st9" d="M488.1,993.3c-0.9,0-1.7-0.3-2.3-0.9S485,991,485,990v-0.2c0-0.7,0.1-1.3,0.4-1.8c0.3-0.5,0.6-1,1.1-1.3
					s1-0.5,1.5-0.5c0.9,0,1.6,0.3,2.1,0.9c0.5,0.6,0.7,1.4,0.7,2.5v0.5h-4.7c0,0.7,0.2,1.2,0.6,1.6c0.4,0.4,0.9,0.6,1.4,0.6
					c0.4,0,0.8-0.1,1.1-0.3c0.3-0.2,0.5-0.4,0.8-0.7l0.7,0.6C490.1,992.9,489.3,993.3,488.1,993.3z M488,987.2
					c-0.5,0-0.9,0.2-1.2,0.5c-0.3,0.3-0.5,0.8-0.6,1.5h3.4v-0.1c0-0.6-0.2-1.1-0.5-1.4C488.9,987.3,488.5,987.2,488,987.2z"/>
				<path class="st9" d="M493.3,986.3l0,0.9c0.5-0.7,1.2-1,2.1-1c1.5,0,2.2,0.8,2.2,2.5v4.5h-1.2v-4.5c0-0.5-0.1-0.9-0.3-1.1
					c-0.2-0.2-0.6-0.4-1-0.4c-0.4,0-0.7,0.1-1,0.3c-0.3,0.2-0.5,0.5-0.7,0.8v4.9h-1.2v-6.9H493.3z"/>
				<path class="st9" d="M500.9,984.7v1.7h1.3v0.9h-1.3v4.3c0,0.3,0.1,0.5,0.2,0.6s0.3,0.2,0.6,0.2c0.1,0,0.3,0,0.6-0.1v0.9
					c-0.3,0.1-0.6,0.1-0.9,0.1c-0.5,0-0.9-0.2-1.2-0.5c-0.3-0.3-0.4-0.8-0.4-1.4v-4.3h-1.2v-0.9h1.2v-1.7H500.9z"/>
				<path class="st9" d="M506.4,993.3c-0.9,0-1.7-0.3-2.3-0.9s-0.9-1.4-0.9-2.5v-0.2c0-0.7,0.1-1.3,0.4-1.8c0.3-0.5,0.6-1,1.1-1.3
					s1-0.5,1.5-0.5c0.9,0,1.6,0.3,2.1,0.9c0.5,0.6,0.7,1.4,0.7,2.5v0.5h-4.7c0,0.7,0.2,1.2,0.6,1.6c0.4,0.4,0.9,0.6,1.4,0.6
					c0.4,0,0.8-0.1,1.1-0.3c0.3-0.2,0.5-0.4,0.8-0.7l0.7,0.6C508.4,992.9,507.6,993.3,506.4,993.3z M506.3,987.2
					c-0.5,0-0.9,0.2-1.2,0.5c-0.3,0.3-0.5,0.8-0.6,1.5h3.4v-0.1c0-0.6-0.2-1.1-0.5-1.4C507.2,987.3,506.8,987.2,506.3,987.2z"/>
			</g>
			<g class="st8">
				<path class="st9" d="M346.8,1088.6l2.6-7.6h1.3l-3.4,9.2h-1.1l-3.4-9.2h1.3L346.8,1088.6z"/>
				<path class="st9" d="M351.2,1086.7c0-0.7,0.1-1.3,0.4-1.8c0.3-0.5,0.6-1,1.1-1.2c0.5-0.3,1-0.4,1.6-0.4c0.9,0,1.7,0.3,2.3,1
					c0.6,0.6,0.9,1.5,0.9,2.6v0.1c0,0.7-0.1,1.3-0.4,1.8s-0.6,0.9-1.1,1.2c-0.5,0.3-1,0.4-1.6,0.4c-0.9,0-1.7-0.3-2.3-1
					C351.5,1088.7,351.2,1087.9,351.2,1086.7L351.2,1086.7z M352.4,1086.9c0,0.8,0.2,1.4,0.5,1.8c0.4,0.5,0.8,0.7,1.4,0.7
					c0.6,0,1.1-0.2,1.4-0.7c0.4-0.5,0.5-1.1,0.5-2c0-0.8-0.2-1.4-0.5-1.8c-0.4-0.5-0.8-0.7-1.4-0.7c-0.6,0-1,0.2-1.4,0.7
					C352.6,1085.3,352.4,1086,352.4,1086.9z"/>
				<path class="st9" d="M360.2,1090.2H359v-9.8h1.2V1090.2z"/>
				<path class="st9" d="M363.7,1081.7v1.7h1.3v0.9h-1.3v4.3c0,0.3,0.1,0.5,0.2,0.6s0.3,0.2,0.6,0.2c0.1,0,0.3,0,0.6-0.1v0.9
					c-0.3,0.1-0.6,0.1-0.9,0.1c-0.5,0-0.9-0.2-1.2-0.5c-0.3-0.3-0.4-0.8-0.4-1.4v-4.3h-1.3v-0.9h1.3v-1.7H363.7z"/>
				<path class="st9" d="M370.6,1090.2c-0.1-0.1-0.1-0.4-0.2-0.7c-0.5,0.6-1.2,0.9-2,0.9c-0.7,0-1.2-0.2-1.7-0.6s-0.7-0.9-0.7-1.5
					c0-0.7,0.3-1.3,0.8-1.7s1.3-0.6,2.3-0.6h1.1v-0.5c0-0.4-0.1-0.7-0.4-1c-0.2-0.2-0.6-0.4-1.1-0.4c-0.4,0-0.8,0.1-1.1,0.3
					c-0.3,0.2-0.4,0.5-0.4,0.8h-1.2c0-0.3,0.1-0.7,0.4-1c0.2-0.3,0.6-0.6,1-0.8c0.4-0.2,0.9-0.3,1.4-0.3c0.8,0,1.4,0.2,1.9,0.6
					c0.4,0.4,0.7,0.9,0.7,1.6v3.2c0,0.6,0.1,1.1,0.2,1.5v0.1H370.6z M368.6,1089.3c0.4,0,0.7-0.1,1-0.3s0.6-0.4,0.7-0.7v-1.4h-0.9
					c-1.4,0-2.2,0.4-2.2,1.3c0,0.4,0.1,0.7,0.4,0.9C367.9,1089.2,368.2,1089.3,368.6,1089.3z"/>
				<path class="st9" d="M374.6,1083.3v7.7c0,1.3-0.6,2-1.8,2c-0.3,0-0.5,0-0.7-0.1v-0.9c0.1,0,0.3,0.1,0.5,0.1
					c0.3,0,0.5-0.1,0.6-0.2s0.2-0.4,0.2-0.7v-7.7H374.6z M373.3,1081.5c0-0.2,0.1-0.3,0.2-0.5c0.1-0.1,0.3-0.2,0.5-0.2
					c0.2,0,0.4,0.1,0.5,0.2c0.1,0.1,0.2,0.3,0.2,0.5c0,0.2-0.1,0.3-0.2,0.5c-0.1,0.1-0.3,0.2-0.5,0.2s-0.4-0.1-0.5-0.2
					S373.3,1081.7,373.3,1081.5z"/>
				<path class="st9" d="M379.4,1090.3c-0.9,0-1.7-0.3-2.3-0.9s-0.9-1.4-0.9-2.5v-0.2c0-0.7,0.1-1.3,0.4-1.8c0.3-0.5,0.6-1,1.1-1.3
					s1-0.5,1.5-0.5c0.9,0,1.6,0.3,2.1,0.9c0.5,0.6,0.7,1.4,0.7,2.5v0.5h-4.7c0,0.7,0.2,1.2,0.6,1.6c0.4,0.4,0.9,0.6,1.4,0.6
					c0.4,0,0.8-0.1,1.1-0.3c0.3-0.2,0.5-0.4,0.8-0.7l0.7,0.6C381.4,1089.9,380.5,1090.3,379.4,1090.3z M379.2,1084.2
					c-0.5,0-0.9,0.2-1.2,0.5c-0.3,0.3-0.5,0.8-0.6,1.5h3.4v-0.1c0-0.6-0.2-1.1-0.5-1.4C380.1,1084.3,379.7,1084.2,379.2,1084.2z"/>
			</g>
			<g class="st8">
				<path class="st9" d="M435.1,1093.9l2.6-8.6h2.6l-4,11.4h-2.4l-3.9-11.4h2.6L435.1,1093.9z"/>
			</g>
			<g class="st8">
				<path class="st9" d="M573.1,1059.4H569l-0.8,2.3h-2.5l4.2-11.4h2.2l4.3,11.4h-2.5L573.1,1059.4z M569.6,1057.5h2.8l-1.4-4.3
					L569.6,1057.5z"/>
			</g>
			<g class="st8">
				<path class="st9" d="M359.5,1230.9h5v1.9h-7.3v-11.4h2.3V1230.9z"/>
				<path class="st9" d="M367.9,1226.1h1.2c0.6,0,1-0.1,1.3-0.4c0.3-0.3,0.4-0.7,0.4-1.1c0-0.5-0.1-0.8-0.4-1.1s-0.6-0.4-1.1-0.4
					c-0.4,0-0.8,0.1-1.1,0.4c-0.3,0.2-0.4,0.5-0.4,0.9h-2.3c0-0.6,0.2-1.1,0.5-1.6s0.8-0.8,1.3-1.1c0.6-0.3,1.2-0.4,1.9-0.4
					c1.2,0,2.1,0.3,2.8,0.9c0.7,0.6,1,1.4,1,2.4c0,0.5-0.2,1-0.5,1.4c-0.3,0.4-0.7,0.8-1.2,1c0.6,0.2,1.1,0.6,1.4,1
					c0.3,0.5,0.5,1,0.5,1.6c0,1-0.4,1.8-1.1,2.4c-0.7,0.6-1.7,0.9-2.9,0.9c-1.1,0-2.1-0.3-2.8-0.9c-0.7-0.6-1.1-1.4-1.1-2.4h2.3
					c0,0.4,0.2,0.8,0.5,1s0.7,0.4,1.2,0.4c0.5,0,1-0.1,1.3-0.4s0.5-0.7,0.5-1.1c0-1.1-0.6-1.7-1.9-1.7h-1.2V1226.1z"/>
			</g>
		</g>
	</g>
</g>
</svg>
