<svg xmlns="http://www.w3.org/2000/svg" width="505" height="120" viewBox="0 0 505 120">
  <g id="Grupo_84313" data-name="Grupo 84313" transform="translate(-285.57 -3250)">
    <rect id="Rectángulo_31409" data-name="Rectángulo 31409" width="505" height="89" transform="translate(285.57 3265.5)" fill="#ccf8ff"/>
    <g id="voltimetro" transform="translate(479.996 3250)">
      <g id="Grupo_83945" data-name="Grupo 83945" transform="translate(88.317 50.496)">
        <path id="Trazado_102286" data-name="Trazado 102286" d="M376.8,223.622l5.488,2.644,4.212-2.644V216.48a1.031,1.031,0,0,0-1.03-1.03h-7.64a1.031,1.031,0,0,0-1.03,1.03v7.142Z" transform="translate(-376.795 -215.45)" fill="#f9f7f8" fill-rule="evenodd"/>
      </g>
      <g id="Grupo_83946" data-name="Grupo 83946" transform="translate(107.071 15.337)">
        <path id="Trazado_102287" data-name="Trazado 102287" d="M456.816,73.612l5.408,1.721,4.285-1.721V66.47a1.035,1.035,0,0,0-1.03-1.03h-7.633a1.031,1.031,0,0,0-1.03,1.03Z" transform="translate(-456.816 -65.44)" fill="#f9f7f8" fill-rule="evenodd"/>
      </g>
      <g id="Grupo_83947" data-name="Grupo 83947" transform="translate(93.532 50.496)">
        <path id="Trazado_102288" data-name="Trazado 102288" d="M403.531,223.622V216.48a1.031,1.031,0,0,0-1.03-1.03h-3.455a1.031,1.031,0,0,1,1.03,1.03v7.142h3.455Z" transform="translate(-399.046 -215.45)" fill="#e5e4ec" fill-rule="evenodd"/>
      </g>
      <g id="Grupo_83948" data-name="Grupo 83948" transform="translate(112.28 15.337)">
        <path id="Trazado_102289" data-name="Trazado 102289" d="M483.523,73.612V66.47a1.035,1.035,0,0,0-1.03-1.03h-3.455a1.035,1.035,0,0,1,1.03,1.03v7.142h3.455Z" transform="translate(-479.038 -65.44)" fill="#e5e4ec" fill-rule="evenodd"/>
      </g>
      <g id="Grupo_83949" data-name="Grupo 83949" transform="translate(86.835 58.668)">
        <path id="Trazado_102290" data-name="Trazado 102290" d="M370.474,266.381a6.331,6.331,0,0,0,12.663,0V251.406a1.1,1.1,0,0,0-1.1-1.09H371.57a1.092,1.092,0,0,0-1.1,1.09v14.975Z" transform="translate(-370.474 -250.316)" fill="#f37c7c" fill-rule="evenodd"/>
      </g>
      <g id="Grupo_83950" data-name="Grupo 83950" transform="translate(105.59 23.509)">
        <path id="Trazado_102291" data-name="Trazado 102291" d="M450.495,116.372a6.328,6.328,0,1,0,12.656,0V101.4a1.1,1.1,0,0,0-1.09-1.09H451.585a1.09,1.09,0,0,0-1.09,1.09v14.975Z" transform="translate(-450.495 -100.307)" fill="#ffd772" fill-rule="evenodd"/>
      </g>
      <g id="Grupo_83951" data-name="Grupo 83951" transform="translate(1.764 1.758)">
        <path id="Trazado_102292" data-name="Trazado 102292" d="M59.505,107.4H76.539a4.026,4.026,0,0,0,4.013-4.013V11.506A4.021,4.021,0,0,0,76.539,7.5H11.512a4.019,4.019,0,0,0-4.006,3.92v92.062a4.024,4.024,0,0,0,4.006,3.92H28.546V102.91a4.507,4.507,0,0,1,4.491-4.491H55.014a4.5,4.5,0,0,1,4.491,4.491V107.4ZM47.693,63.586a14.118,14.118,0,1,1-7.335,0,3.878,3.878,0,0,1,7.335,0ZM36.379,51.07H18.262a1.317,1.317,0,0,1-1.315-1.309v-30.3a1.317,1.317,0,0,1,1.315-1.309H69.8A1.316,1.316,0,0,1,71.1,19.465v30.3A1.316,1.316,0,0,1,69.8,51.069H51.679a7.65,7.65,0,0,0-15.3,0Z" transform="translate(-7.506 -7.5)" fill="#375e7d" fill-rule="evenodd"/>
      </g>
      <g id="Grupo_83952" data-name="Grupo 83952" transform="translate(24.166 57.844)">
        <path id="Trazado_102293" data-name="Trazado 102293" d="M117.206,274.553a14.118,14.118,0,0,0,3.667-27.751,3.778,3.778,0,0,1,.213,1.256v12.377a3.88,3.88,0,1,1-7.76,0V248.058a3.95,3.95,0,0,1,.213-1.256,14.118,14.118,0,0,0,3.667,27.751Z" transform="translate(-103.088 -246.802)" fill="#f9f7f8" fill-rule="evenodd"/>
      </g>
      <g id="Grupo_83953" data-name="Grupo 83953" transform="translate(34.404 55.226)">
        <path id="Trazado_102294" data-name="Trazado 102294" d="M146.77,251.884a3.88,3.88,0,0,0,7.76,0V239.506a3.775,3.775,0,0,0-.213-1.256,3.878,3.878,0,0,0-7.335,0,3.953,3.953,0,0,0-.213,1.256Z" transform="translate(-146.77 -235.633)" fill="#f37c7c" fill-rule="evenodd"/>
      </g>
      <g id="Grupo_83954" data-name="Grupo 83954" transform="translate(22.805 92.677)">
        <path id="Trazado_102295" data-name="Trazado 102295" d="M112.757,404.405h15.48v-4.491a4.5,4.5,0,0,0-4.491-4.491H101.769a4.507,4.507,0,0,0-4.491,4.491v4.491Z" transform="translate(-97.278 -395.423)" fill="#f9f7f8" fill-rule="evenodd"/>
      </g>
      <g id="Grupo_83955" data-name="Grupo 83955" transform="translate(11.205 12.414)">
        <path id="Trazado_102296" data-name="Trazado 102296" d="M82.519,85.881h18.117a1.316,1.316,0,0,0,1.309-1.309v-30.3a1.316,1.316,0,0,0-1.309-1.309H49.1a1.317,1.317,0,0,0-1.315,1.309v30.3A1.317,1.317,0,0,0,49.1,85.881H67.219a7.65,7.65,0,0,1,15.3,0Z" transform="translate(-47.787 -52.968)" fill="#b1e4f9" fill-rule="evenodd"/>
      </g>
      <g id="Grupo_83956" data-name="Grupo 83956" transform="translate(57.856 12.414)">
        <path id="Trazado_102297" data-name="Trazado 102297" d="M254.337,84.572v-30.3a1.316,1.316,0,0,0-1.309-1.309h-6.2a1.316,1.316,0,0,1,1.309,1.309v30.3a1.316,1.316,0,0,1-1.309,1.309h6.2A1.315,1.315,0,0,0,254.337,84.572Z" transform="translate(-246.83 -52.968)" fill="#75cef8" fill-rule="evenodd"/>
      </g>
      <g id="Grupo_83957" data-name="Grupo 83957" transform="translate(57.867 1.758)">
        <path id="Trazado_102298" data-name="Trazado 102298" d="M263.822,103.389V11.506A4.021,4.021,0,0,0,259.809,7.5H247.352c-2.206,0,4.006,1.8,4.006,4.006v6.65h1.707a1.316,1.316,0,0,1,1.309,1.309v30.3a1.316,1.316,0,0,1-1.309,1.309h-1.707v52.319a4.025,4.025,0,0,1-4.006,4.013h12.457A4.026,4.026,0,0,0,263.822,103.389Z" transform="translate(-246.879 -7.5)" fill="#2b4d66" fill-rule="evenodd"/>
      </g>
      <g id="Grupo_83958" data-name="Grupo 83958" transform="translate(34.305 57.844)">
        <path id="Trazado_102299" data-name="Trazado 102299" d="M164.441,260.435a14.123,14.123,0,0,0-10.45-13.633,3.778,3.778,0,0,1,.213,1.256v3.534a14.125,14.125,0,0,1-7.859,22.389,14.121,14.121,0,0,0,18.1-13.546Z" transform="translate(-146.344 -246.802)" fill="#e5e4ec" fill-rule="evenodd"/>
      </g>
      <g id="Grupo_83959" data-name="Grupo 83959" transform="translate(109.49 23.509)">
        <path id="Trazado_102300" data-name="Trazado 102300" d="M469.951,100.307a1.1,1.1,0,0,1,1.09,1.09v14.975a6.349,6.349,0,0,1-3.906,5.846,6.327,6.327,0,0,0,8.756-5.846V101.4a1.1,1.1,0,0,0-1.09-1.09h-4.85Z" transform="translate(-467.134 -100.307)" fill="#fbba58" fill-rule="evenodd"/>
      </g>
      <g id="Grupo_83960" data-name="Grupo 83960" transform="translate(90.742 58.668)">
        <path id="Trazado_102301" data-name="Trazado 102301" d="M391.048,266.381a6.359,6.359,0,0,1-3.906,5.846,6.327,6.327,0,0,0,8.756-5.846V251.406a1.1,1.1,0,0,0-1.1-1.09h-4.843a1.1,1.1,0,0,1,1.09,1.09v14.975Z" transform="translate(-387.142 -250.316)" fill="#e6646e" fill-rule="evenodd"/>
      </g>
      <g id="Grupo_83961" data-name="Grupo 83961" transform="translate(0.007 0)">
        <path id="Trazado_102302" data-name="Trazado 102302" d="M42.044,237.744h7.52a1.758,1.758,0,0,0,0-3.516h-7.52a1.758,1.758,0,1,0,0,3.516Z" transform="translate(-30.846 -179.331)"/>
        <path id="Trazado_102303" data-name="Trazado 102303" d="M244.791,229.241a1.758,1.758,0,0,0,1.758-1.758v-2h2a1.758,1.758,0,1,0,0-3.516h-2v-2a1.758,1.758,0,0,0-3.516,0v2h-2a1.758,1.758,0,0,0,0,3.516h2v2A1.758,1.758,0,0,0,244.791,229.241Z" transform="translate(-183.195 -167.068)"/>
        <path id="Trazado_102304" data-name="Trazado 102304" d="M111.463,228.133a5.643,5.643,0,0,0-4.942,2.924,15.875,15.875,0,1,0,9.883,0,5.642,5.642,0,0,0-4.942-2.924Zm0,3.516a2.121,2.121,0,0,1,2.122,2.115v12.377a2.122,2.122,0,0,1-4.244,0V233.764A2.121,2.121,0,0,1,111.463,231.649Zm12.36,14.493a12.36,12.36,0,1,1-18-11v11a5.638,5.638,0,1,0,11.275,0v-11A12.381,12.381,0,0,1,123.823,246.141Z" transform="translate(-73.186 -174.664)"/>
        <path id="Trazado_102305" data-name="Trazado 102305" d="M65.1,45.468H43.359a3.073,3.073,0,0,0-3.073,3.067v30.3A3.073,3.073,0,0,0,43.359,81.9H61.476a1.311,1.311,0,0,0,.155-.008,1.758,1.758,0,0,0,1.6-1.744,5.836,5.836,0,0,1,1.724-4.131,5.933,5.933,0,0,1,1.22-.938c.014-.007.029-.013.042-.021s.031-.02.047-.03a5.893,5.893,0,0,1,8.751,5.126A1.758,1.758,0,0,0,76.776,81.9H94.893A3.07,3.07,0,0,0,97.96,78.83v-30.3a3.07,3.07,0,0,0-3.067-3.067H72.93a1.758,1.758,0,0,0,0,3.516H94.444v29.4H78.36a9.415,9.415,0,0,0-12.274-7.108l-3.894-6.821a1.758,1.758,0,0,0-3.053,1.743l3.893,6.819c-.192.164-.379.333-.56.514a9.334,9.334,0,0,0-2.583,4.853H43.8v-29.4H65.1a1.758,1.758,0,0,0,0-3.516Z" transform="translate(-30.846 -34.811)"/>
        <path id="Trazado_102306" data-name="Trazado 102306" d="M81.106,89.615a1.758,1.758,0,0,0,2.467.307c9.108-7.1,23.929-7.1,33.037,0a1.758,1.758,0,1,0,2.16-2.773c-10.3-8.024-27.058-8.024-37.358,0A1.758,1.758,0,0,0,81.106,89.615Z" transform="translate(-61.814 -62.115)"/>
        <path id="Trazado_102307" data-name="Trazado 102307" d="M118.522,22.1V16.367a2.791,2.791,0,0,0-2.788-2.788h-2.062V2.715a1.758,1.758,0,0,0-3.516,0V13.58H108.1a2.791,2.791,0,0,0-2.788,2.788V22.1a2.85,2.85,0,0,0-1.481,2.5V39.574a8.1,8.1,0,0,0,6.325,7.894v55.7A13.332,13.332,0,0,1,96.84,116.484H88.369a16.81,16.81,0,0,0,6.555-13.317V82.627a8.1,8.1,0,0,0,6.331-7.895V59.757a2.848,2.848,0,0,0-1.481-2.5V51.526a2.791,2.791,0,0,0-2.788-2.788H94.924V37.873a1.758,1.758,0,1,0-3.516,0V48.738H89.346a2.791,2.791,0,0,0-2.788,2.788v5.736a2.848,2.848,0,0,0-1.481,2.5V74.732a8.1,8.1,0,0,0,6.331,7.895v20.541a13.332,13.332,0,0,1-13.316,13.317H53.358a13.33,13.33,0,0,1-13.31-13.067H70.8a5.777,5.777,0,0,0,5.771-5.771V5.764A5.774,5.774,0,0,0,70.8,0H5.771A5.77,5.77,0,0,0,.007,5.764V51.506a1.758,1.758,0,0,0,3.516,0V5.764A2.251,2.251,0,0,1,5.771,3.516H70.8a2.254,2.254,0,0,1,2.255,2.248V97.647A2.258,2.258,0,0,1,70.8,99.9H55.521V97.169a6.256,6.256,0,0,0-6.249-6.249H27.3a6.256,6.256,0,0,0-6.249,6.249V99.9H5.771a2.254,2.254,0,0,1-2.248-2.255V59.625a1.758,1.758,0,0,0-3.516,0V97.646a5.774,5.774,0,0,0,5.764,5.771H36.533A16.849,16.849,0,0,0,53.358,120H96.84a16.851,16.851,0,0,0,16.832-16.832v-55.7A8.1,8.1,0,0,0,120,39.574V24.6a2.849,2.849,0,0,0-1.481-2.5ZM90.074,52.254h6.184V56.91H90.074ZM88.593,74.732V60.426H97.74V74.732a4.573,4.573,0,1,1-9.147,0ZM24.563,97.168A2.736,2.736,0,0,1,27.3,94.435H49.273a2.737,2.737,0,0,1,2.733,2.734V99.9H24.563ZM108.829,17.1h6.177v4.656h-6.177Zm7.659,22.479a4.57,4.57,0,1,1-9.14,0V25.267h9.14Z" transform="translate(-0.007 0)"/>
      </g>
    </g>
  </g>
</svg>
