<svg xmlns="http://www.w3.org/2000/svg" width="505" height="300" viewBox="0 0 505 300">
  <g id="Grupo_84296" data-name="Grupo 84296" transform="translate(-915 -1987)">
    <rect id="Rectángulo_31402" data-name="Rectángulo 31402" width="505" height="300" transform="translate(915 1987)" fill="#ccf8ff"/>
    <g id="Grupo_83929" data-name="Grupo 83929" transform="translate(655.291 1670.727)">
      <g id="Grupo_83928" data-name="Grupo 83928" transform="translate(329.531 354.639)" style="isolation: isolate">
        <g id="Grupo_83521" data-name="Grupo 83521" transform="translate(298.236 5.455)">
          <g id="Grupo_83520" data-name="Grupo 83520">
            <path id="Trazado_102059" data-name="Trazado 102059" d="M490.762,356.921l-.085,30.038-36.4,21.155.085-30.038Z" transform="translate(-454.274 -356.921)" fill="#f6575b"/>
          </g>
        </g>
        <g id="Grupo_83523" data-name="Grupo 83523" transform="translate(288.923 25.409)">
          <g id="Grupo_83522" data-name="Grupo 83522">
            <path id="Trazado_102060" data-name="Trazado 102060" d="M459.777,366.468l-.085,30.038-9.313-1.2.085-30.039Z" transform="translate(-450.379 -365.267)" fill="#e35054"/>
          </g>
        </g>
        <g id="Grupo_83525" data-name="Grupo 83525" transform="translate(298.236 26.61)">
          <g id="Grupo_83524" data-name="Grupo 83524">
            <path id="Trazado_102061" data-name="Trazado 102061" d="M459.2,366.384l-.085,30.038-4.842-.615.085-30.038Z" transform="translate(-454.274 -365.77)" fill="#f6575b"/>
          </g>
        </g>
        <g id="Grupo_83527" data-name="Grupo 83527" transform="translate(298.236 26.61)">
          <g id="Grupo_83526" data-name="Grupo 83526">
            <path id="Trazado_102062" data-name="Trazado 102062" d="M459.2,366.384l-.085,30.038-4.842-.615.085-30.038Z" transform="translate(-454.274 -365.77)" fill="#bf4446"/>
          </g>
        </g>
        <g id="Grupo_83529" data-name="Grupo 83529" transform="translate(254.77 24.643)">
          <g id="Grupo_83528" data-name="Grupo 83528">
            <path id="Trazado_102063" data-name="Trazado 102063" d="M470.333,365.713l-.086,30.038a92.321,92.321,0,0,0-34.153,1.946l.086-30.038A92.317,92.317,0,0,1,470.333,365.713Z" transform="translate(-436.094 -364.947)" fill="#e35054"/>
          </g>
        </g>
        <g id="Grupo_83531" data-name="Grupo 83531" transform="translate(304.155 8.873)">
          <g id="Grupo_83530" data-name="Grupo 83530">
            <path id="Trazado_102064" data-name="Trazado 102064" d="M493.238,358.35l-.085,30.038-36.4,21.155.085-30.039Z" transform="translate(-456.75 -358.35)" fill="#d14a4d"/>
          </g>
        </g>
        <g id="Grupo_83533" data-name="Grupo 83533" transform="translate(303.078 27.225)">
          <g id="Grupo_83532" data-name="Grupo 83532">
            <path id="Trazado_102065" data-name="Trazado 102065" d="M457.462,368.829l-.085,30.039-1.077-2.8.085-30.038Z" transform="translate(-456.3 -366.027)" fill="#f6575b"/>
          </g>
        </g>
        <g id="Grupo_83535" data-name="Grupo 83535" transform="translate(303.078 27.225)">
          <g id="Grupo_83534" data-name="Grupo 83534">
            <path id="Trazado_102066" data-name="Trazado 102066" d="M457.462,368.829l-.085,30.039-1.077-2.8.085-30.038Z" transform="translate(-456.3 -366.027)" fill="#bf4446"/>
          </g>
        </g>
        <g id="Grupo_83537" data-name="Grupo 83537" transform="translate(298.321 5.455)">
          <g id="Grupo_83536" data-name="Grupo 83536">
            <path id="Trazado_102067" data-name="Trazado 102067" d="M493.844,358.53a32.172,32.172,0,0,1,2.788,1.808l-36.4,21.156-1.078-2.8-4.841-.614,36.4-21.156C491.8,357.421,492.854,357.959,493.844,358.53Z" transform="translate(-454.31 -356.921)" fill="#d14a4d"/>
          </g>
        </g>
        <g id="Grupo_83539" data-name="Grupo 83539" transform="translate(243.74 27.354)">
          <g id="Grupo_83538" data-name="Grupo 83538">
            <path id="Trazado_102068" data-name="Trazado 102068" d="M442.6,366.081l-.085,30.038-11.03,2.838.085-30.038Z" transform="translate(-431.48 -366.081)" fill="#e35054"/>
          </g>
        </g>
        <g id="Grupo_83541" data-name="Grupo 83541" transform="translate(304.155 30.028)">
          <g id="Grupo_83540" data-name="Grupo 83540">
            <path id="Trazado_102069" data-name="Trazado 102069" d="M458.939,372.589l-.085,30.039-2.1-5.391.085-30.039Z" transform="translate(-456.75 -367.199)" fill="#e35054"/>
          </g>
        </g>
        <g id="Grupo_83543" data-name="Grupo 83543" transform="translate(306.259 35.417)">
          <g id="Grupo_83542" data-name="Grupo 83542">
            <path id="Trazado_102070" data-name="Trazado 102070" d="M459.076,376.535l-.083,30.038a19.122,19.122,0,0,0-1.363-7.079l.086-30.04A19.117,19.117,0,0,1,459.076,376.535Z" transform="translate(-457.63 -369.453)" fill="#e35054"/>
          </g>
        </g>
        <g id="Grupo_83545" data-name="Grupo 83545" transform="translate(218.868 30.193)">
          <g id="Grupo_83544" data-name="Grupo 83544">
            <path id="Trazado_102071" data-name="Trazado 102071" d="M446.035,367.268l-.086,30.038c-10.391,2.666-19.091,7.148-24.872,12.817l.086-30.038C426.944,374.416,435.644,369.934,446.035,367.268Z" transform="translate(-421.077 -367.268)" fill="#e35054"/>
          </g>
        </g>
        <g id="Grupo_83547" data-name="Grupo 83547" transform="translate(215.627 43.011)">
          <g id="Grupo_83546" data-name="Grupo 83546">
            <path id="Trazado_102072" data-name="Trazado 102072" d="M423.047,372.629l-.085,30.038-3.241,3.16.085-30.038Z" transform="translate(-419.721 -372.629)" fill="#e35054"/>
          </g>
        </g>
        <g id="Grupo_83549" data-name="Grupo 83549" transform="translate(197.585)">
          <g id="Grupo_83548" data-name="Grupo 83548">
            <path id="Trazado_102073" data-name="Trazado 102073" d="M549.314,360.095l-36.4,21.156,4.841.614-4.841-.614-9.312-1.2a92.317,92.317,0,0,0-34.153,1.946l-11.031,2.838c-10.39,2.666-19.09,7.148-24.871,12.817L430.3,400.81l-18.127-10.467,5.375-5.233c9.6-9.408,24.011-16.836,41.277-21.261l18.278-4.7a152.964,152.964,0,0,1,56.659-3.244l.7.093A51.82,51.82,0,0,1,549.314,360.095Z" transform="translate(-412.175 -354.639)" fill="#f6575b"/>
          </g>
        </g>
        <g id="Grupo_83551" data-name="Grupo 83551" transform="translate(197.499 35.705)">
          <g id="Grupo_83550" data-name="Grupo 83550">
            <path id="Trazado_102074" data-name="Trazado 102074" d="M430.352,380.04l-.085,30.038-18.128-10.466.085-30.038Z" transform="translate(-412.139 -369.573)" fill="#f6575b"/>
          </g>
        </g>
        <g id="Grupo_83553" data-name="Grupo 83553" transform="translate(342.422 29.607)">
          <g id="Grupo_83552" data-name="Grupo 83552">
            <path id="Trazado_102075" data-name="Trazado 102075" d="M480.512,367.023l-.086,30.038c-.019,7.225-2.606,14.409-7.67,21.089l.086-30.038C477.906,381.432,480.49,374.248,480.512,367.023Z" transform="translate(-472.756 -367.023)" fill="#e35054"/>
          </g>
        </g>
        <g id="Grupo_83555" data-name="Grupo 83555" transform="translate(172.205 50.404)">
          <g id="Grupo_83554" data-name="Grupo 83554">
            <path id="Trazado_102076" data-name="Trazado 102076" d="M412.319,381.884l-.085,30.038-10.674-6.163.085-30.038Z" transform="translate(-401.559 -375.721)" fill="#faa827"/>
          </g>
        </g>
        <g id="Grupo_83557" data-name="Grupo 83557" transform="translate(334.373 50.696)">
          <g id="Grupo_83556" data-name="Grupo 83556">
            <path id="Trazado_102077" data-name="Trazado 102077" d="M477.524,375.844l-.085,30.038-8.049,10.6.085-30.038Z" transform="translate(-469.389 -375.844)" fill="#e35054"/>
          </g>
        </g>
        <g id="Grupo_83559" data-name="Grupo 83559" transform="translate(113.812 77.053)">
          <g id="Grupo_83558" data-name="Grupo 83558">
            <path id="Trazado_102078" data-name="Trazado 102078" d="M377.135,416.906l.086-30.038a3.977,3.977,0,0,0,.194,1.234l-.084,30.038A3.979,3.979,0,0,1,377.135,416.906Z" transform="translate(-377.135 -386.868)" fill="#f6575b"/>
          </g>
        </g>
        <g id="Grupo_83561" data-name="Grupo 83561" transform="translate(118.932 56.566)">
          <g id="Grupo_83560" data-name="Grupo 83560">
            <path id="Trazado_102079" data-name="Trazado 102079" d="M443.309,378.3l-.085,30.038L379.277,445.5l.085-30.038Z" transform="translate(-379.277 -378.299)" fill="#f6575b"/>
          </g>
        </g>
        <g id="Grupo_83563" data-name="Grupo 83563" transform="translate(182.879 56.566)">
          <g id="Grupo_83562" data-name="Grupo 83562">
            <path id="Trazado_102080" data-name="Trazado 102080" d="M476.059,418.685l-.085,30.038-69.95-40.385.085-30.038Z" transform="translate(-406.024 -378.299)" fill="#f8af3f"/>
          </g>
        </g>
        <g id="Grupo_83565" data-name="Grupo 83565" transform="translate(180.169 64.109)">
          <g id="Grupo_83564" data-name="Grupo 83564">
            <path id="Trazado_102081" data-name="Trazado 102081" d="M464.623,415.891l-.085,30.038-59.647-34.438.085-30.038Z" transform="translate(-404.891 -381.454)" fill="#f8af3f"/>
          </g>
        </g>
        <g id="Grupo_83567" data-name="Grupo 83567" transform="translate(114.007 78.286)">
          <g id="Grupo_83566" data-name="Grupo 83566">
            <path id="Trazado_102082" data-name="Trazado 102082" d="M382.227,402.826l-.085,30.038-4.925-15.442.085-30.038Z" transform="translate(-377.217 -387.384)" fill="#e35054"/>
          </g>
        </g>
        <g id="Grupo_83569" data-name="Grupo 83569" transform="translate(25.629 64.109)">
          <g id="Grupo_83568" data-name="Grupo 83568">
            <path id="Trazado_102083" data-name="Trazado 102083" d="M494.876,381.454l-.085,30.038L340.251,501.3l.085-30.038Z" transform="translate(-340.251 -381.454)" fill="#f8af3f"/>
          </g>
        </g>
        <g id="Grupo_83571" data-name="Grupo 83571" transform="translate(179.185 75.654)">
          <g id="Grupo_83570" data-name="Grupo 83570">
            <path id="Trazado_102084" data-name="Trazado 102084" d="M445.266,409.783l-.085,30.038-40.7-23.5.085-30.038Z" transform="translate(-404.479 -386.283)" fill="#353837"/>
          </g>
        </g>
        <g id="Grupo_83573" data-name="Grupo 83573" transform="translate(173.17 79.15)">
          <g id="Grupo_83572" data-name="Grupo 83572">
            <path id="Trazado_102085" data-name="Trazado 102085" d="M442.75,411.245l-.085,30.039-40.7-23.5.085-30.039Z" transform="translate(-401.963 -387.745)" fill="#525755"/>
          </g>
        </g>
        <g id="Grupo_83575" data-name="Grupo 83575" transform="translate(173.17 75.654)">
          <g id="Grupo_83574" data-name="Grupo 83574">
            <path id="Trazado_102086" data-name="Trazado 102086" d="M408.064,386.283l-.085,30.038-6.016,3.5.085-30.039Z" transform="translate(-401.963 -386.283)" fill="#353837"/>
          </g>
        </g>
        <g id="Grupo_83577" data-name="Grupo 83577" transform="translate(297.8 61.297)">
          <g id="Grupo_83576" data-name="Grupo 83576">
            <path id="Trazado_102087" data-name="Trazado 102087" d="M490.75,380.278l-.086,30.04c-7.584,10.015-20.36,18.388-36.572,23.977l.086-30.038C470.39,398.666,483.166,390.3,490.75,380.278Z" transform="translate(-454.092 -380.278)" fill="#e35054"/>
          </g>
        </g>
        <g id="Grupo_83579" data-name="Grupo 83579" transform="translate(270.741 8.872)">
          <g id="Grupo_83578" data-name="Grupo 83578">
            <path id="Trazado_102088" data-name="Trazado 102088" d="M512.676,358.35a19.959,19.959,0,0,1,7.12,8.588l.163.406c4.308,11.01,2.4,22.521-5.417,32.831l-8.05,10.6c-7.583,10.017-20.36,18.388-36.572,23.98l-9.016,3.132L442.774,427.42l5.444-1.886c9.769-3.369,17.479-8.423,22.05-14.45l4.863-6.4c4.693-6.228,5.85-13.157,3.247-19.791l-2.1-5.389-1.078-2.8,1.078,2.8Z" transform="translate(-442.774 -358.35)" fill="#f6575b"/>
          </g>
        </g>
        <g id="Grupo_83581" data-name="Grupo 83581" transform="translate(270.656 77.942)">
          <g id="Grupo_83580" data-name="Grupo 83580">
            <path id="Trazado_102089" data-name="Trazado 102089" d="M460.952,397.706l-.085,30.038-18.128-10.466.085-30.039Z" transform="translate(-442.739 -387.24)" fill="#f6575b"/>
          </g>
        </g>
        <g id="Grupo_83583" data-name="Grupo 83583" transform="translate(288.784 85.277)">
          <g id="Grupo_83582" data-name="Grupo 83582">
            <path id="Trazado_102090" data-name="Trazado 102090" d="M459.423,390.308l-.085,30.038-9.017,3.131.085-30.038Z" transform="translate(-450.321 -390.308)" fill="#e35054"/>
          </g>
        </g>
        <g id="Grupo_83585" data-name="Grupo 83585" transform="translate(113.896 56.566)">
          <g id="Grupo_83584" data-name="Grupo 83584">
            <path id="Trazado_102091" data-name="Trazado 102091" d="M446.239,378.3,382.29,415.461l-4.925-15.442c-1-3.132,1.953-6.242,7.07-7.421Z" transform="translate(-377.171 -378.299)" fill="#f6575b"/>
          </g>
        </g>
        <g id="Grupo_83587" data-name="Grupo 83587" transform="translate(213.872 99.154)">
          <g id="Grupo_83586" data-name="Grupo 83586">
            <path id="Trazado_102092" data-name="Trazado 102092" d="M425.088,396.112,425,426.15l-6.016,3.5.085-30.038Z" transform="translate(-418.987 -396.112)" fill="#525755"/>
          </g>
        </g>
        <g id="Grupo_83589" data-name="Grupo 83589" transform="translate(173.255 75.654)">
          <g id="Grupo_83588" data-name="Grupo 83588">
            <path id="Trazado_102093" data-name="Trazado 102093" d="M448.716,409.783l-6.016,3.5-40.7-23.5,6.016-3.5Z" transform="translate(-401.998 -386.283)" fill="#525755"/>
          </g>
        </g>
        <g id="Grupo_83591" data-name="Grupo 83591" transform="translate(263.503 88.415)">
          <g id="Grupo_83590" data-name="Grupo 83590">
            <path id="Trazado_102094" data-name="Trazado 102094" d="M465.125,391.621l-.085,30.038-25.294,14.7.085-30.038Z" transform="translate(-439.747 -391.621)" fill="#f09d1d"/>
          </g>
        </g>
        <g id="Grupo_83593" data-name="Grupo 83593" transform="translate(252.829 96.952)">
          <g id="Grupo_83592" data-name="Grupo 83592">
            <path id="Trazado_102095" data-name="Trazado 102095" d="M446.041,401.354l-.085,30.038-10.674-6.163.085-30.038Z" transform="translate(-435.282 -395.191)" fill="#faa827"/>
          </g>
        </g>
        <g id="Grupo_83595" data-name="Grupo 83595" transform="translate(179.458 109)">
          <g id="Grupo_83594" data-name="Grupo 83594">
            <path id="Trazado_102096" data-name="Trazado 102096" d="M405.3,430.683a1.2,1.2,0,0,0-.708.985l.086-30.038a1.209,1.209,0,0,1,.705-.987,3.779,3.779,0,0,1,3.433,0l.079.048-.086,30.038-.079-.045A3.759,3.759,0,0,0,405.3,430.683Z" transform="translate(-404.593 -400.231)" fill="#353837"/>
          </g>
        </g>
        <g id="Grupo_83597" data-name="Grupo 83597" transform="translate(183.675 109.46)">
          <g id="Grupo_83596" data-name="Grupo 83596">
            <path id="Trazado_102097" data-name="Trazado 102097" d="M406.357,430.461l.086-30.038a1.176,1.176,0,0,1,.638.954L407,431.415A1.169,1.169,0,0,0,406.357,430.461Z" transform="translate(-406.357 -400.423)" fill="#353837"/>
          </g>
        </g>
        <g id="Grupo_83599" data-name="Grupo 83599" transform="translate(179.458 110.399)">
          <g id="Grupo_83598" data-name="Grupo 83598">
            <path id="Trazado_102098" data-name="Trazado 102098" d="M409.535,400.83l-.086,30.038a1.2,1.2,0,0,1-.705.987,3.774,3.774,0,0,1-3.431,0,1.217,1.217,0,0,1-.72-1l.086-30.038a1.213,1.213,0,0,0,.717,1,3.774,3.774,0,0,0,3.431,0A1.208,1.208,0,0,0,409.535,400.83Z" transform="translate(-404.593 -400.816)" fill="#c7c7c7"/>
          </g>
        </g>
        <g id="Grupo_83601" data-name="Grupo 83601" transform="translate(175.439 114.153)">
          <g id="Grupo_83600" data-name="Grupo 83600">
            <path id="Trazado_102099" data-name="Trazado 102099" d="M412.886,446.362c.014-5.042-3.311-10.092-9.974-13.938L403,402.386c6.661,3.847,9.986,8.9,9.972,13.938C412.946,425.335,412.913,437.351,412.886,446.362Z" transform="translate(-402.912 -402.386)" fill="#353837"/>
          </g>
        </g>
        <g id="Grupo_83603" data-name="Grupo 83603" transform="translate(169.629 104.021)">
          <g id="Grupo_83602" data-name="Grupo 83602">
            <path id="Trazado_102100" data-name="Trazado 102100" d="M401.206,429.193a1.242,1.242,0,0,0-.724-1.007q.043-15.019.086-30.038a1.242,1.242,0,0,1,.724,1.007C401.266,408.165,401.233,420.179,401.206,429.193Z" transform="translate(-400.482 -398.148)" fill="#353837"/>
          </g>
        </g>
        <g id="Grupo_83605" data-name="Grupo 83605" transform="translate(165.673 103.608)">
          <g id="Grupo_83604" data-name="Grupo 83604">
            <path id="Trazado_102101" data-name="Trazado 102101" d="M401.995,428.12a3.252,3.252,0,0,0-3.168.765q.043-15.019.084-30.038a3.253,3.253,0,0,1,3.168-.765,3.067,3.067,0,0,1,.791.306h0q-.043,15.019-.086,30.038h0A3.016,3.016,0,0,0,401.995,428.12Z" transform="translate(-398.827 -397.975)" fill="#353837"/>
          </g>
        </g>
        <g id="Grupo_83607" data-name="Grupo 83607" transform="translate(165.498 105.001)">
          <g id="Grupo_83606" data-name="Grupo 83606">
            <path id="Trazado_102102" data-name="Trazado 102102" d="M403.7,398.584l-.086,30.038a.9.9,0,0,1-.184.526,3.255,3.255,0,0,1-3.165.765,3.03,3.03,0,0,1-.779-.3,1.245,1.245,0,0,1-.727-1.016l.086-30.038a1.243,1.243,0,0,0,.724,1.014,2.975,2.975,0,0,0,.779.3,3.26,3.26,0,0,0,3.168-.765A.913.913,0,0,0,403.7,398.584Z" transform="translate(-398.754 -398.558)" fill="#c7c7c7"/>
          </g>
        </g>
        <g id="Grupo_83609" data-name="Grupo 83609" transform="translate(151.474 101.714)">
          <g id="Grupo_83608" data-name="Grupo 83608">
            <path id="Trazado_102103" data-name="Trazado 102103" d="M394.612,427.639a3.524,3.524,0,0,0-1.724-.418l.086-30.038a3.524,3.524,0,0,1,1.724.418,1.444,1.444,0,0,1,.657.686q-.043,15.023-.086,30.04A1.437,1.437,0,0,0,394.612,427.639Z" transform="translate(-392.888 -397.183)" fill="#353837"/>
          </g>
        </g>
        <g id="Grupo_83611" data-name="Grupo 83611" transform="translate(153.845 102.818)">
          <g id="Grupo_83610" data-name="Grupo 83610">
            <path id="Trazado_102104" data-name="Trazado 102104" d="M393.89,427.685a3.034,3.034,0,0,1,0-.466l.01-3.581.012-4.043q.032-10.977.062-21.95a.823.823,0,0,1,.057.3l-.084,30.038A.815.815,0,0,0,393.89,427.685Z" transform="translate(-393.88 -397.645)" fill="#353837"/>
          </g>
        </g>
        <g id="Grupo_83613" data-name="Grupo 83613" transform="translate(149.052 101.714)">
          <g id="Grupo_83612" data-name="Grupo 83612">
            <path id="Trazado_102105" data-name="Trazado 102105" d="M394.3,427.221c-1.344.007-2.427.636-2.422,1.408l.084-30.038c0-.772,1.078-1.4,2.424-1.408C394.357,406.194,394.323,418.21,394.3,427.221Z" transform="translate(-391.875 -397.183)" fill="#353837"/>
          </g>
        </g>
        <g id="Grupo_83615" data-name="Grupo 83615" transform="translate(149.052 103.122)">
          <g id="Grupo_83614" data-name="Grupo 83614">
            <path id="Trazado_102106" data-name="Trazado 102106" d="M396.822,397.772l-.084,30.038c-.007.779-1.09,1.408-2.424,1.408a3.465,3.465,0,0,1-1.712-.411,1.251,1.251,0,0,1-.727-1l.084-30.038a1.261,1.261,0,0,0,.727,1,3.508,3.508,0,0,0,1.714.411C395.731,399.18,396.814,398.551,396.822,397.772Z" transform="translate(-391.875 -397.772)" fill="#c7c7c7"/>
          </g>
        </g>
        <g id="Grupo_83617" data-name="Grupo 83617" transform="translate(165.501 104.48)">
          <g id="Grupo_83616" data-name="Grupo 83616">
            <path id="Trazado_102107" data-name="Trazado 102107" d="M398.927,428.378a.916.916,0,0,0-.172.521l.084-30.038a.929.929,0,0,1,.172-.521q-.018,7.509-.041,15.017-.011,3.9-.024,7.792c0,1.116-.007,2.606-.01,3.72A13.258,13.258,0,0,1,398.927,428.378Z" transform="translate(-398.755 -398.34)" fill="#353837"/>
          </g>
        </g>
        <g id="Grupo_83619" data-name="Grupo 83619" transform="translate(137.296 104.473)">
          <g id="Grupo_83618" data-name="Grupo 83618">
            <path id="Trazado_102108" data-name="Trazado 102108" d="M387.145,428.922a.944.944,0,0,0-.186-.547q.043-15.019.086-30.038a.924.924,0,0,1,.184.547C387.2,407.9,387.171,419.912,387.145,428.922Z" transform="translate(-386.958 -398.337)" fill="#353837"/>
          </g>
        </g>
        <g id="Grupo_83621" data-name="Grupo 83621" transform="translate(132.634 103.613)">
          <g id="Grupo_83620" data-name="Grupo 83620">
            <path id="Trazado_102109" data-name="Trazado 102109" d="M386.5,428.124c-.918.222-1.487.741-1.487,1.291l.084-30.038c0-.55.569-1.071,1.487-1.291a3.813,3.813,0,0,1,2.659.306,1.619,1.619,0,0,1,.519.445h0q-.043,15.019-.086,30.038h0a1.667,1.667,0,0,0-.517-.445A3.829,3.829,0,0,0,386.5,428.124Z" transform="translate(-385.008 -397.978)" fill="#353837"/>
          </g>
        </g>
        <g id="Grupo_83623" data-name="Grupo 83623" transform="translate(132.634 105.013)">
          <g id="Grupo_83622" data-name="Grupo 83622">
            <path id="Trazado_102110" data-name="Trazado 102110" d="M389.94,398.57l-.084,30.038c0,.552-.557,1.071-1.485,1.3a3.83,3.83,0,0,1-2.647-.311,1.683,1.683,0,0,1-.528-.454.9.9,0,0,1-.189-.54l.084-30.038a.911.911,0,0,0,.189.54,1.719,1.719,0,0,0,.531.454,3.829,3.829,0,0,0,2.647.311C389.386,399.641,389.94,399.12,389.94,398.57Z" transform="translate(-385.008 -398.563)" fill="#c7c7c7"/>
          </g>
        </g>
        <g id="Grupo_83625" data-name="Grupo 83625" transform="translate(127.649 108.42)">
          <g id="Grupo_83624" data-name="Grupo 83624">
            <path id="Trazado_102111" data-name="Trazado 102111" d="M430.713,435.759c-13.235-7.641-34.638-7.641-47.79,0l.086-30.038c13.152-7.643,34.552-7.643,47.79,0C430.772,414.732,430.739,426.748,430.713,435.759Z" transform="translate(-382.923 -399.988)" fill="#353837"/>
          </g>
        </g>
        <g id="Grupo_83627" data-name="Grupo 83627" transform="translate(170.088 117.263)">
          <g id="Grupo_83626" data-name="Grupo 83626">
            <path id="Trazado_102112" data-name="Trazado 102112" d="M408.408,444.531c.012-3.909-2.568-7.823-7.734-10.806q.043-15.019.086-30.038c5.164,2.981,7.746,6.9,7.734,10.806C408.468,423.5,408.435,435.52,408.408,444.531Z" transform="translate(-400.674 -403.687)" fill="#f8af3f"/>
          </g>
        </g>
        <g id="Grupo_83629" data-name="Grupo 83629" transform="translate(185.194 128.091)">
          <g id="Grupo_83628" data-name="Grupo 83628">
            <path id="Trazado_102113" data-name="Trazado 102113" d="M407.3,408.216l-.084,30.038a11.622,11.622,0,0,1-.22,2.2l.086-30.04A11.376,11.376,0,0,0,407.3,408.216Z" transform="translate(-406.992 -408.216)" fill="#f8af3f"/>
          </g>
        </g>
        <g id="Grupo_83631" data-name="Grupo 83631" transform="translate(185.194 98.546)">
          <g id="Grupo_83630" data-name="Grupo 83630">
            <path id="Trazado_102114" data-name="Trazado 102114" d="M461.7,395.858l-.085,30.038L406.992,457.64l.085-30.038Z" transform="translate(-406.992 -395.858)" fill="#353837"/>
          </g>
        </g>
        <g id="Grupo_83633" data-name="Grupo 83633" transform="translate(133.036 112.818)">
          <g id="Grupo_83632" data-name="Grupo 83632">
            <path id="Trazado_102115" data-name="Trazado 102115" d="M422.229,436.311c-10.266-5.927-26.853-5.927-37.053,0q.043-15.019.086-30.038c10.2-5.927,26.786-5.927,37.052,0Q422.272,421.292,422.229,436.311Z" transform="translate(-385.176 -401.828)" fill="#f8af3f"/>
          </g>
        </g>
        <g id="Grupo_83635" data-name="Grupo 83635" transform="translate(118.734 109.414)">
          <g id="Grupo_83634" data-name="Grupo 83634">
            <path id="Trazado_102116" data-name="Trazado 102116" d="M379.9,430.442a1.2,1.2,0,0,0-.705.985l.084-30.038a1.206,1.206,0,0,1,.708-.985C379.959,409.415,379.926,421.431,379.9,430.442Z" transform="translate(-379.194 -400.404)" fill="#353837"/>
          </g>
        </g>
        <g id="Grupo_83637" data-name="Grupo 83637" transform="translate(119.439 109)">
          <g id="Grupo_83636" data-name="Grupo 83636">
            <path id="Trazado_102117" data-name="Trazado 102117" d="M382.92,430.683a3.76,3.76,0,0,0-3.431,0l.086-30.038a3.759,3.759,0,0,1,3.431,0,1.217,1.217,0,0,1,.72,1l-.086,30.038A1.218,1.218,0,0,0,382.92,430.683Z" transform="translate(-379.489 -400.231)" fill="#353837"/>
          </g>
        </g>
        <g id="Grupo_83639" data-name="Grupo 83639" transform="translate(118.734 110.399)">
          <g id="Grupo_83638" data-name="Grupo 83638">
            <path id="Trazado_102118" data-name="Trazado 102118" d="M384.136,400.83l-.086,30.038a1.2,1.2,0,0,1-.708.987,3.774,3.774,0,0,1-3.431,0,1.209,1.209,0,0,1-.717-1l.084-30.038a1.218,1.218,0,0,0,.72,1,3.774,3.774,0,0,0,3.431,0A1.209,1.209,0,0,0,384.136,400.83Z" transform="translate(-379.194 -400.816)" fill="#c7c7c7"/>
          </g>
        </g>
        <g id="Grupo_83641" data-name="Grupo 83641" transform="translate(117.833 114.153)">
          <g id="Grupo_83640" data-name="Grupo 83640">
            <path id="Trazado_102119" data-name="Trazado 102119" d="M388.634,432.424c-6.532,3.8-9.8,8.767-9.817,13.742l.084-30.038c.017-4.978,3.285-9.946,9.819-13.742Q388.677,417.405,388.634,432.424Z" transform="translate(-378.817 -402.386)" fill="#353837"/>
          </g>
        </g>
        <g id="Grupo_83643" data-name="Grupo 83643" transform="translate(125.424 117.263)">
          <g id="Grupo_83642" data-name="Grupo 83642">
            <path id="Trazado_102120" data-name="Trazado 102120" d="M389.6,433.725c-5.066,2.945-7.6,6.8-7.612,10.656l.084-30.038c.012-3.859,2.548-7.713,7.615-10.656Q389.647,418.706,389.6,433.725Z" transform="translate(-381.992 -403.687)" fill="#f8af3f"/>
          </g>
        </g>
        <g id="Grupo_83645" data-name="Grupo 83645" transform="translate(130.263 114.664)">
          <g id="Grupo_83644" data-name="Grupo 83644">
            <path id="Trazado_102121" data-name="Trazado 102121" d="M389.044,436.538a15.486,15.486,0,0,0-5.028,4.409q.043-15.019.086-30.038a15.447,15.447,0,0,1,5.025-4.409c8.958-5.2,23.533-5.2,32.548.007,4.509,2.6,6.773,6.013,6.792,9.424q-.043,15.019-.086,30.038c-.017-3.409-2.283-6.821-6.792-9.424C412.577,431.34,398,431.333,389.044,436.538Z" transform="translate(-384.016 -402.6)" fill="#d19435"/>
          </g>
        </g>
        <g id="Grupo_83647" data-name="Grupo 83647" transform="translate(128.611 122.973)">
          <g id="Grupo_83646" data-name="Grupo 83646">
            <path id="Trazado_102122" data-name="Trazado 102122" d="M384.977,436.113a8.675,8.675,0,0,0-1.652,4.944l.086-30.038a8.669,8.669,0,0,1,1.652-4.944q-.022,7.509-.043,15.019l0,1.97-.007,1.961,0,1.944q-.011,3.712-.022,7.421A6.4,6.4,0,0,1,384.977,436.113Z" transform="translate(-383.325 -406.075)" fill="#d19435"/>
          </g>
        </g>
        <g id="Grupo_83649" data-name="Grupo 83649" transform="translate(128.611 127.917)">
          <g id="Grupo_83648" data-name="Grupo 83648">
            <path id="Trazado_102123" data-name="Trazado 102123" d="M429.429,408.286l-.086,30.038c-.01,3.388-2.235,6.771-6.685,9.358-8.956,5.2-23.521,5.2-32.536,0-4.538-2.62-6.807-6.063-6.8-9.5l.084-30.04c-.01,3.438,2.259,6.878,6.8,9.5,9.016,5.2,23.578,5.2,32.534,0C427.191,415.057,429.42,411.674,429.429,408.286Z" transform="translate(-383.325 -408.143)" fill="#f8af3f"/>
          </g>
        </g>
        <g id="Grupo_83651" data-name="Grupo 83651" transform="translate(174.629 127.996)">
          <g id="Grupo_83650" data-name="Grupo 83650">
            <path id="Trazado_102124" data-name="Trazado 102124" d="M402.573,438.279v-.065q.043-15.019.086-30.038v.065C402.633,417.251,402.6,429.268,402.573,438.279Z" transform="translate(-402.573 -408.176)" fill="#d19435"/>
          </g>
        </g>
        <g id="Grupo_83653" data-name="Grupo 83653" transform="translate(125.424 127.919)">
          <g id="Grupo_83652" data-name="Grupo 83652">
            <path id="Trazado_102125" data-name="Trazado 102125" d="M434.477,408.295l-.086,30.038c-.01,3.859-2.546,7.71-7.612,10.656-10.2,5.927-26.789,5.927-37.053,0-5.167-2.981-7.746-6.9-7.734-10.806l.084-30.038c-.01,3.909,2.57,7.823,7.734,10.806,10.266,5.927,26.853,5.927,37.053,0C431.929,416,434.465,412.153,434.477,408.295Z" transform="translate(-381.992 -408.144)" fill="#d19435"/>
          </g>
        </g>
        <g id="Grupo_83655" data-name="Grupo 83655" transform="translate(117.833 127.898)">
          <g id="Grupo_83654" data-name="Grupo 83654">
            <path id="Trazado_102126" data-name="Trazado 102126" d="M378.817,438.173l.084-30.038c-.014,5.042,3.314,10.092,9.974,13.938,7.631,4.4,17.976,6.271,27.889,5.6a46.474,46.474,0,0,0,19.9-5.6c5.57-3.237,8.767-7.328,9.6-11.548l-.086,30.04c-.83,4.22-4.029,8.308-9.6,11.545a46.473,46.473,0,0,1-19.9,5.6c-9.915.674-20.26-1.193-27.891-5.6C382.128,448.265,378.8,443.215,378.817,438.173Z" transform="translate(-378.817 -408.135)" fill="#f8af3f"/>
          </g>
        </g>
        <g id="Grupo_83657" data-name="Grupo 83657" transform="translate(175.596 96.952)">
          <g id="Grupo_83656" data-name="Grupo 83656">
            <path id="Trazado_102127" data-name="Trazado 102127" d="M480.3,395.191l-.085,30.038-77.233,44.883.085-30.038Z" transform="translate(-402.978 -395.191)" fill="#f09d1d"/>
          </g>
        </g>
        <g id="Grupo_83659" data-name="Grupo 83659" transform="translate(172.291 35.705)">
          <g id="Grupo_83658" data-name="Grupo 83658">
            <path id="Trazado_102128" data-name="Trazado 102128" d="M518.186,422.284l-25.294,14.7-10.674-6.163-69.95-40.386L401.6,384.272l25.294-14.7Z" transform="translate(-401.595 -369.573)" fill="#f8af3f"/>
          </g>
        </g>
        <g id="Grupo_83661" data-name="Grupo 83661" transform="translate(132.718 103.613)">
          <g id="Grupo_83660" data-name="Grupo 83660">
            <path id="Trazado_102129" data-name="Trazado 102129" d="M389.189,398.392a1.62,1.62,0,0,1,.519.445c.509.722-.067,1.544-1.3,1.846a3.829,3.829,0,0,1-2.647-.311,1.719,1.719,0,0,1-.531-.454c-.521-.715.079-1.537,1.3-1.831A3.813,3.813,0,0,1,389.189,398.392Z" transform="translate(-385.043 -397.978)" fill="#c7c7c7"/>
          </g>
        </g>
        <g id="Grupo_83663" data-name="Grupo 83663" transform="translate(179.543 109)">
          <g id="Grupo_83662" data-name="Grupo 83662">
            <path id="Trazado_102130" data-name="Trazado 102130" d="M408.768,400.643a1.051,1.051,0,0,1,.01,1.989,3.774,3.774,0,0,1-3.431,0,1.05,1.05,0,0,1-.012-1.989A3.779,3.779,0,0,1,408.768,400.643Z" transform="translate(-404.628 -400.231)" fill="#c7c7c7"/>
          </g>
        </g>
        <g id="Grupo_83665" data-name="Grupo 83665" transform="translate(109.479 117.069)">
          <g id="Grupo_83664" data-name="Grupo 83664">
            <path id="Trazado_102131" data-name="Trazado 102131" d="M375.507,434.51a.916.916,0,0,0-.184.533l.084-30.038a.9.9,0,0,1,.187-.533,3.23,3.23,0,0,1,3.156-.758,3.032,3.032,0,0,1,.787.306,1.232,1.232,0,0,1,.722,1l-.086,30.04a1.232,1.232,0,0,0-.722-1.007,2.967,2.967,0,0,0-.787-.306A3.237,3.237,0,0,0,375.507,434.51Z" transform="translate(-375.323 -403.606)" fill="#353837"/>
          </g>
        </g>
        <g id="Grupo_83667" data-name="Grupo 83667" transform="translate(109.479 118.468)">
          <g id="Grupo_83666" data-name="Grupo 83666">
            <path id="Trazado_102132" data-name="Trazado 102132" d="M380.258,404.21l-.086,30.04a.926.926,0,0,1-.177.526,3.287,3.287,0,0,1-3.182.758,2.953,2.953,0,0,1-.772-.3,1.231,1.231,0,0,1-.717-1.007l.084-30.038a1.237,1.237,0,0,0,.72,1.006,2.917,2.917,0,0,0,.772.3,3.282,3.282,0,0,0,3.18-.758A.949.949,0,0,0,380.258,404.21Z" transform="translate(-375.323 -404.191)" fill="#c7c7c7"/>
          </g>
        </g>
        <g id="Grupo_83669" data-name="Grupo 83669" transform="translate(108.676 126.585)">
          <g id="Grupo_83668" data-name="Grupo 83668">
            <path id="Trazado_102133" data-name="Trazado 102133" d="M376.708,438.042a3.569,3.569,0,0,0-1.721-.418l.084-30.038a3.553,3.553,0,0,1,1.724.418,1.281,1.281,0,0,1,.712.909c-.029,10.015-.086,20.025-.086,30.04A1.272,1.272,0,0,0,376.708,438.042Z" transform="translate(-374.987 -407.586)" fill="#353837"/>
          </g>
        </g>
        <g id="Grupo_83671" data-name="Grupo 83671" transform="translate(111.103 127.912)">
          <g id="Grupo_83670" data-name="Grupo 83670">
            <path id="Trazado_102134" data-name="Trazado 102134" d="M376.009,438.181c-.017-.356,0-.71,0-1.066l0-1.062q.039-13.957.079-27.913l0,.081-.086,30.04Z" transform="translate(-376.002 -408.141)" fill="#353837"/>
          </g>
        </g>
        <g id="Grupo_83673" data-name="Grupo 83673" transform="translate(106.252 126.585)">
          <g id="Grupo_83672" data-name="Grupo 83672">
            <path id="Trazado_102135" data-name="Trazado 102135" d="M376.481,407.586l-.084,30.038c-1.334,0-2.417.631-2.424,1.411l.086-30.04C374.066,408.215,375.149,407.586,376.481,407.586Z" transform="translate(-373.973 -407.586)" fill="#353837"/>
          </g>
        </g>
        <g id="Grupo_83675" data-name="Grupo 83675" transform="translate(106.252 127.993)">
          <g id="Grupo_83674" data-name="Grupo 83674">
            <path id="Trazado_102136" data-name="Trazado 102136" d="M378.922,408.175l-.086,30.04c0,.772-1.078,1.4-2.424,1.408a3.47,3.47,0,0,1-1.712-.414,1.249,1.249,0,0,1-.727-.995l.086-30.04a1.25,1.25,0,0,0,.725,1,3.48,3.48,0,0,0,1.714.411C377.844,409.578,378.927,408.947,378.922,408.175Z" transform="translate(-373.973 -408.175)" fill="#c7c7c7"/>
          </g>
        </g>
        <g id="Grupo_83677" data-name="Grupo 83677" transform="translate(111.074 136.107)">
          <g id="Grupo_83676" data-name="Grupo 83676">
            <path id="Trazado_102137" data-name="Trazado 102137" d="M378.644,442.023a3.87,3.87,0,0,0-2.654-.316l.086-30.038a3.862,3.862,0,0,1,2.651.316,1.68,1.68,0,0,1,.524.449h0q-.043,15.019-.086,30.038h0A1.711,1.711,0,0,0,378.644,442.023Z" transform="translate(-375.99 -411.569)" fill="#353837"/>
          </g>
        </g>
        <g id="Grupo_83679" data-name="Grupo 83679" transform="translate(114.251 136.973)">
          <g id="Grupo_83678" data-name="Grupo 83678">
            <path id="Trazado_102138" data-name="Trazado 102138" d="M377.5,442.509a.943.943,0,0,0-.184-.54q.043-15.019.086-30.038a.916.916,0,0,1,.182.54C377.563,421.482,377.527,433.5,377.5,442.509Z" transform="translate(-377.319 -411.931)" fill="#353837"/>
          </g>
        </g>
        <g id="Grupo_83681" data-name="Grupo 83681" transform="translate(109.575 136.208)">
          <g id="Grupo_83680" data-name="Grupo 83680">
            <path id="Trazado_102139" data-name="Trazado 102139" d="M376.862,441.649c-.928.227-1.5.748-1.5,1.3l.086-30.038c0-.55.571-1.071,1.5-1.3C376.922,420.622,376.888,432.638,376.862,441.649Z" transform="translate(-375.363 -411.611)" fill="#353837"/>
          </g>
        </g>
        <g id="Grupo_83683" data-name="Grupo 83683" transform="translate(109.575 137.506)">
          <g id="Grupo_83682" data-name="Grupo 83682">
            <path id="Trazado_102140" data-name="Trazado 102140" d="M380.307,412.161l-.084,30.038c0,.552-.564,1.071-1.494,1.3a3.777,3.777,0,0,1-2.644-.308,1.71,1.71,0,0,1-.533-.457.912.912,0,0,1-.189-.54l.086-30.038a.911.911,0,0,0,.189.54,1.733,1.733,0,0,0,.531.457,3.793,3.793,0,0,0,2.644.308C379.743,413.232,380.307,412.714,380.307,412.161Z" transform="translate(-375.363 -412.154)" fill="#c7c7c7"/>
          </g>
        </g>
        <g id="Grupo_83685" data-name="Grupo 83685" transform="translate(60.851 143.736)">
          <g id="Grupo_83684" data-name="Grupo 83684">
            <path id="Trazado_102141" data-name="Trazado 102141" d="M360.771,415.447l-.086,30.038a6.276,6.276,0,0,0-5.7,0l.084-30.038A6.266,6.266,0,0,1,360.771,415.447Z" transform="translate(-354.983 -414.76)" fill="#353837"/>
          </g>
        </g>
        <g id="Grupo_83687" data-name="Grupo 83687" transform="translate(123.069 144.588)">
          <g id="Grupo_83686" data-name="Grupo 83686">
            <path id="Trazado_102142" data-name="Trazado 102142" d="M381.067,445.19l-.06-.036.086-30.038.057.033Q381.111,430.172,381.067,445.19Z" transform="translate(-381.007 -415.116)" fill="#353837"/>
          </g>
        </g>
        <g id="Grupo_83689" data-name="Grupo 83689" transform="translate(118.93 144.175)">
          <g id="Grupo_83688" data-name="Grupo 83688">
            <path id="Trazado_102143" data-name="Trazado 102143" d="M379.984,445.394a1.207,1.207,0,0,0-.708.987l.086-30.038a1.2,1.2,0,0,1,.708-.987,3.773,3.773,0,0,1,3.431,0l-.086,30.038A3.773,3.773,0,0,0,379.984,445.394Z" transform="translate(-379.276 -414.943)" fill="#353837"/>
          </g>
        </g>
        <g id="Grupo_83691" data-name="Grupo 83691" transform="translate(123.128 144.621)">
          <g id="Grupo_83690" data-name="Grupo 83690">
            <path id="Trazado_102144" data-name="Trazado 102144" d="M381.032,445.17q.043-15.022.084-30.04a1.177,1.177,0,0,1,.66.966l-.084,30.04A1.185,1.185,0,0,0,381.032,445.17Z" transform="translate(-381.032 -415.13)" fill="#353837"/>
          </g>
        </g>
        <g id="Grupo_83693" data-name="Grupo 83693" transform="translate(80.009 145.067)">
          <g id="Grupo_83692" data-name="Grupo 83692">
            <path id="Trazado_102145" data-name="Trazado 102145" d="M383.439,427.069l-.085,30.038L363,445.354l.085-30.038Z" transform="translate(-362.997 -415.316)" fill="#353837"/>
          </g>
        </g>
        <g id="Grupo_83695" data-name="Grupo 83695" transform="translate(76.995 146.818)">
          <g id="Grupo_83694" data-name="Grupo 83694">
            <path id="Trazado_102146" data-name="Trazado 102146" d="M382.178,427.8l-.085,30.038-20.357-11.753.085-30.038Z" transform="translate(-361.736 -416.049)" fill="#f8af3f"/>
          </g>
        </g>
        <g id="Grupo_83697" data-name="Grupo 83697" transform="translate(76.995 145.067)">
          <g id="Grupo_83696" data-name="Grupo 83696">
            <path id="Trazado_102147" data-name="Trazado 102147" d="M364.835,415.316l-.085,30.038-3.014,1.752.085-30.038Z" transform="translate(-361.736 -415.316)" fill="#353837"/>
          </g>
        </g>
        <g id="Grupo_83699" data-name="Grupo 83699" transform="translate(118.93 145.575)">
          <g id="Grupo_83698" data-name="Grupo 83698">
            <path id="Trazado_102148" data-name="Trazado 102148" d="M384.218,415.541l-.084,30.04a1.206,1.206,0,0,1-.708.985,3.759,3.759,0,0,1-3.431,0,1.214,1.214,0,0,1-.72-1l.086-30.038a1.219,1.219,0,0,0,.717,1,3.779,3.779,0,0,0,3.433,0A1.2,1.2,0,0,0,384.218,415.541Z" transform="translate(-379.276 -415.529)" fill="#c7c7c7"/>
          </g>
        </g>
        <g id="Grupo_83701" data-name="Grupo 83701" transform="translate(119.017 144.175)">
          <g id="Grupo_83700" data-name="Grupo 83700">
            <path id="Trazado_102149" data-name="Trazado 102149" d="M383.45,415.356a1.049,1.049,0,0,1,.012,1.987,3.779,3.779,0,0,1-3.433,0,1.049,1.049,0,0,1-.009-1.987A3.773,3.773,0,0,1,383.45,415.356Z" transform="translate(-379.312 -414.943)" fill="#c7c7c7"/>
          </g>
        </g>
        <g id="Grupo_83703" data-name="Grupo 83703" transform="translate(113.984 149.888)">
          <g id="Grupo_83702" data-name="Grupo 83702">
            <path id="Trazado_102150" data-name="Trazado 102150" d="M377.36,447.373l-.153,0q.043-15.019.086-30.038l.151,0Q377.4,432.354,377.36,447.373Z" transform="translate(-377.207 -417.333)" fill="#353837"/>
          </g>
        </g>
        <g id="Grupo_83705" data-name="Grupo 83705" transform="translate(113.804 149.888)">
          <g id="Grupo_83704" data-name="Grupo 83704">
            <path id="Trazado_102151" data-name="Trazado 102151" d="M377.132,447.373q.043-15.019.084-30.038l.182,0q-.043,15.019-.086,30.038Z" transform="translate(-377.132 -417.333)" fill="#353837"/>
          </g>
        </g>
        <g id="Grupo_83707" data-name="Grupo 83707" transform="translate(113.804 149.891)">
          <g id="Grupo_83706" data-name="Grupo 83706">
            <path id="Trazado_102152" data-name="Trazado 102152" d="M377.132,447.372l.084-30.038q-.039,15.019-.084,30.038Z" transform="translate(-377.132 -417.334)" fill="#353837"/>
          </g>
        </g>
        <g id="Grupo_83709" data-name="Grupo 83709" transform="translate(113.635 149.891)">
          <g id="Grupo_83708" data-name="Grupo 83708">
            <path id="Trazado_102153" data-name="Trazado 102153" d="M377.231,447.372l-.17,0q.043-15.019.086-30.038l.167,0Z" transform="translate(-377.061 -417.334)" fill="#353837"/>
          </g>
        </g>
        <g id="Grupo_83711" data-name="Grupo 83711" transform="translate(114.137 149.891)">
          <g id="Grupo_83710" data-name="Grupo 83710">
            <path id="Trazado_102154" data-name="Trazado 102154" d="M377.273,446.3q.039-14.485.081-28.967a13.666,13.666,0,0,1,3.577.5q-.043,15.019-.084,30.038a13.688,13.688,0,0,0-3.577-.5Z" transform="translate(-377.271 -417.334)" fill="#353837"/>
          </g>
        </g>
        <g id="Grupo_83713" data-name="Grupo 83713" transform="translate(97.353 156.82)">
          <g id="Grupo_83712" data-name="Grupo 83712">
            <path id="Trazado_102155" data-name="Trazado 102155" d="M373.35,420.232l-.085,30.038-3.014,1.752.085-30.038Z" transform="translate(-370.251 -420.232)" fill="#f8af3f"/>
          </g>
        </g>
        <g id="Grupo_83715" data-name="Grupo 83715" transform="translate(66.553 144.423)">
          <g id="Grupo_83714" data-name="Grupo 83714">
            <path id="Trazado_102156" data-name="Trazado 102156" d="M392.434,435.243l-.085,30.039-34.981-20.2.085-30.038Z" transform="translate(-357.368 -415.047)" fill="#353837"/>
          </g>
        </g>
        <g id="Grupo_83717" data-name="Grupo 83717" transform="translate(68.327 150.464)">
          <g id="Grupo_83716" data-name="Grupo 83716">
            <path id="Trazado_102157" data-name="Trazado 102157" d="M358.11,447.612h0q.043-15.019.086-30.038h0Q358.153,432.593,358.11,447.612Z" transform="translate(-358.11 -417.574)" fill="#c7c7c7"/>
          </g>
        </g>
        <g id="Grupo_83719" data-name="Grupo 83719" transform="translate(63.76 149.918)">
          <g id="Grupo_83718" data-name="Grupo 83718">
            <path id="Trazado_102158" data-name="Trazado 102158" d="M360.766,447.93a5.039,5.039,0,0,0-4.566,0q.036-13.265.074-26.531l.012-3.507a5.04,5.04,0,0,1,4.566,0Z" transform="translate(-356.2 -417.345)" fill="#c7c7c7"/>
          </g>
        </g>
        <g id="Grupo_83721" data-name="Grupo 83721" transform="translate(117.713 150.388)">
          <g id="Grupo_83720" data-name="Grupo 83720">
            <path id="Trazado_102159" data-name="Trazado 102159" d="M381.026,448.515a10,10,0,0,0-2.259-.935q.04-15.019.084-30.038a9.888,9.888,0,0,1,2.259.935C381.086,427.488,381.053,439.5,381.026,448.515Z" transform="translate(-378.767 -417.542)" fill="#353837"/>
          </g>
        </g>
        <g id="Grupo_83723" data-name="Grupo 83723" transform="translate(68.327 150.464)">
          <g id="Grupo_83722" data-name="Grupo 83722">
            <path id="Trazado_102160" data-name="Trazado 102160" d="M359.062,448.944a1.615,1.615,0,0,0-.952-1.332q.043-15.019.086-30.038a1.62,1.62,0,0,1,.952,1.332C359.121,427.917,359.088,439.933,359.062,448.944Z" transform="translate(-358.11 -417.574)" fill="#c7c7c7"/>
          </g>
        </g>
        <g id="Grupo_83725" data-name="Grupo 83725" transform="translate(106.414 149.893)">
          <g id="Grupo_83724" data-name="Grupo 83724">
            <path id="Trazado_102161" data-name="Trazado 102161" d="M375.614,448.81a6.116,6.116,0,0,0-1.573,1.265l.084-30.038a6.13,6.13,0,0,1,1.575-1.265,12.01,12.01,0,0,1,5.647-1.437q-.043,15.019-.086,30.038A12.038,12.038,0,0,0,375.614,448.81Z" transform="translate(-374.041 -417.335)" fill="#353837"/>
          </g>
        </g>
        <g id="Grupo_83727" data-name="Grupo 83727" transform="translate(106.386 152.595)">
          <g id="Grupo_83726" data-name="Grupo 83726">
            <path id="Trazado_102162" data-name="Trazado 102162" d="M374.058,448.5l-.029.031q.043-15.019.086-30.038l.026-.031q-.018,7.509-.041,15.019-.011,3.895-.024,7.792c0,.564,0,1.317,0,1.882l-.01,3.622A5.552,5.552,0,0,1,374.058,448.5Z" transform="translate(-374.029 -418.465)" fill="#353837"/>
          </g>
        </g>
        <g id="Grupo_83729" data-name="Grupo 83729" transform="translate(68.341 151.796)">
          <g id="Grupo_83728" data-name="Grupo 83728">
            <path id="Trazado_102163" data-name="Trazado 102163" d="M359.139,418.131l-.086,30.038a1.6,1.6,0,0,1-.937,1.315l.086-30.04A1.6,1.6,0,0,0,359.139,418.131Z" transform="translate(-358.116 -418.131)" fill="#353837"/>
          </g>
        </g>
        <g id="Grupo_83731" data-name="Grupo 83731" transform="translate(45.46 144.423)">
          <g id="Grupo_83730" data-name="Grupo 83730">
            <path id="Trazado_102164" data-name="Trazado 102164" d="M364.021,415.047l-.085,30.039-15.39,8.944.085-30.039Z" transform="translate(-348.546 -415.047)" fill="#353837"/>
          </g>
        </g>
        <g id="Grupo_83733" data-name="Grupo 83733" transform="translate(119.973 151.323)">
          <g id="Grupo_83732" data-name="Grupo 83732">
            <path id="Trazado_102165" data-name="Trazado 102165" d="M382.21,451.261a4.369,4.369,0,0,0-2.5-3.29l.084-30.038a4.369,4.369,0,0,1,2.5,3.287Q382.255,436.243,382.21,451.261Z" transform="translate(-379.712 -417.933)" fill="#353837"/>
          </g>
        </g>
        <g id="Grupo_83735" data-name="Grupo 83735" transform="translate(122.471 154.61)">
          <g id="Grupo_83734" data-name="Grupo 83734">
            <path id="Trazado_102166" data-name="Trazado 102166" d="M380.762,449.442l0-.093q.043-15.023.084-30.04l0,.1Q380.806,434.423,380.762,449.442Z" transform="translate(-380.757 -419.308)" fill="#353837"/>
          </g>
        </g>
        <g id="Grupo_83737" data-name="Grupo 83737" transform="translate(107.937 151.288)">
          <g id="Grupo_83736" data-name="Grupo 83736">
            <path id="Trazado_102167" data-name="Trazado 102167" d="M376.438,448.986a3,3,0,0,0-1.76,2.46l.086-30.038a3.007,3.007,0,0,1,1.757-2.462q-.04,15.019-.084,30.038.043-15.019.086-30.038a9.444,9.444,0,0,1,8.564,0q-.043,15.023-.084,30.04h0A9.434,9.434,0,0,0,376.438,448.986Z" transform="translate(-374.678 -417.919)" fill="#f8af3f"/>
          </g>
        </g>
        <g id="Grupo_83739" data-name="Grupo 83739" transform="translate(118.263 152.317)">
          <g id="Grupo_83738" data-name="Grupo 83738">
            <path id="Trazado_102168" data-name="Trazado 102168" d="M379,448.387q.043-15.019.084-30.038a3.025,3.025,0,0,1,1.791,2.5l-.084,30.04A3.035,3.035,0,0,0,379,448.387Z" transform="translate(-378.997 -418.349)" fill="#f8af3f"/>
          </g>
        </g>
        <g id="Grupo_83741" data-name="Grupo 83741" transform="translate(117.763 154.988)">
          <g id="Grupo_83740" data-name="Grupo 83740">
            <path id="Trazado_102169" data-name="Trazado 102169" d="M381.035,452.789a9.968,9.968,0,0,1-2.247.935q.043-15.019.086-30.038a9.9,9.9,0,0,0,2.247-.937,4.313,4.313,0,0,0,2.46-3.282q-.043,15.019-.086,30.038A4.314,4.314,0,0,1,381.035,452.789Z" transform="translate(-378.788 -419.466)" fill="#f8af3f"/>
          </g>
        </g>
        <g id="Grupo_83743" data-name="Grupo 83743" transform="translate(122.476 154.706)">
          <g id="Grupo_83742" data-name="Grupo 83742">
            <path id="Trazado_102170" data-name="Trazado 102170" d="M380.8,433.994q.021-7.323.041-14.646l0,.017-.086,30.038v-.017Q380.781,441.69,380.8,433.994Z" transform="translate(-380.759 -419.348)" fill="#353837"/>
          </g>
        </g>
        <g id="Grupo_83745" data-name="Grupo 83745" transform="translate(105.523 152.626)">
          <g id="Grupo_83744" data-name="Grupo 83744">
            <path id="Trazado_102171" data-name="Trazado 102171" d="M374.531,448.516a3.366,3.366,0,0,0-.863,2.068q.043-15.019.084-30.038a3.37,3.37,0,0,1,.866-2.068q-.022,7.51-.043,15.019-.011,4.838-.026,9.673c0,1.088-.007,2.537-.012,3.622A5.554,5.554,0,0,1,374.531,448.516Z" transform="translate(-373.668 -418.478)" fill="#353837"/>
          </g>
        </g>
        <g id="Grupo_83747" data-name="Grupo 83747" transform="translate(105.523 154.694)">
          <g id="Grupo_83746" data-name="Grupo 83746">
            <path id="Trazado_102172" data-name="Trazado 102172" d="M373.67,448.32q.039-14.485.081-28.967v-.01q-.04,15.019-.084,30.038v.01C373.668,449.034,373.668,448.676,373.67,448.32Z" transform="translate(-373.668 -419.343)" fill="#353837"/>
          </g>
        </g>
        <g id="Grupo_83749" data-name="Grupo 83749" transform="translate(122.476 154.722)">
          <g id="Grupo_83748" data-name="Grupo 83748">
            <path id="Trazado_102173" data-name="Trazado 102173" d="M380.761,449.491c0-.031,0-.064,0-.1l.086-30.038v.1C380.821,428.464,380.785,440.48,380.761,449.491Z" transform="translate(-380.759 -419.355)" fill="#353837"/>
          </g>
        </g>
        <g id="Grupo_83751" data-name="Grupo 83751" transform="translate(105.52 154.703)">
          <g id="Grupo_83750" data-name="Grupo 83750">
            <path id="Trazado_102174" data-name="Trazado 102174" d="M373.669,449.385l0,.079.086-30.038v-.079q-.029,11.056-.062,22.115C373.684,444.1,373.712,446.743,373.669,449.385Z" transform="translate(-373.667 -419.347)" fill="#353837"/>
          </g>
        </g>
        <g id="Grupo_83753" data-name="Grupo 83753" transform="translate(122.476 154.82)">
          <g id="Grupo_83752" data-name="Grupo 83752">
            <path id="Trazado_102175" data-name="Trazado 102175" d="M380.759,449.506l.086-30.038V419.4l-.084,30.038Z" transform="translate(-380.759 -419.396)" fill="#f8af3f"/>
          </g>
        </g>
        <g id="Grupo_83755" data-name="Grupo 83755" transform="translate(122.476 154.892)">
          <g id="Grupo_83754" data-name="Grupo 83754">
            <path id="Trazado_102176" data-name="Trazado 102176" d="M380.759,449.464v.038q.039-15.019.084-30.038l0-.038q-.043,14.5-.084,28.993C380.761,448.768,380.764,449.115,380.759,449.464Z" transform="translate(-380.759 -419.426)" fill="#f8af3f"/>
          </g>
        </g>
        <g id="Grupo_83757" data-name="Grupo 83757" transform="translate(105.52 154.785)">
          <g id="Grupo_83756" data-name="Grupo 83756">
            <path id="Trazado_102177" data-name="Trazado 102177" d="M373.669,449.529c0-.036,0-.074,0-.11l.086-30.038v.11Q373.713,434.51,373.669,449.529Z" transform="translate(-373.667 -419.381)" fill="#f8af3f"/>
          </g>
        </g>
        <g id="Grupo_83759" data-name="Grupo 83759" transform="translate(105.521 154.895)">
          <g id="Grupo_83758" data-name="Grupo 83758">
            <path id="Trazado_102178" data-name="Trazado 102178" d="M373.669,449.465c0-.251,0-.588,0-.839q.007-3.242.017-6.481l.022-7.323.043-15.394,0,.009q-.043,15.019-.086,30.038Z" transform="translate(-373.667 -419.427)" fill="#f8af3f"/>
          </g>
        </g>
        <g id="Grupo_83761" data-name="Grupo 83761" transform="translate(122.471 154.93)">
          <g id="Grupo_83760" data-name="Grupo 83760">
            <path id="Trazado_102179" data-name="Trazado 102179" d="M380.762,449.48l0,.057.086-30.038,0-.057Q380.8,434.461,380.762,449.48Z" transform="translate(-380.757 -419.442)" fill="#f8af3f"/>
          </g>
        </g>
        <g id="Grupo_83763" data-name="Grupo 83763" transform="translate(71.351 154.3)">
          <g id="Grupo_83762" data-name="Grupo 83762">
            <path id="Trazado_102180" data-name="Trazado 102180" d="M363.942,449.763a5.04,5.04,0,0,0-4.566,0q.036-13.265.074-26.531l.01-3.507a5.045,5.045,0,0,1,4.569,0q-.043,15.019-.086,30.038Z" transform="translate(-359.375 -419.178)" fill="#c7c7c7"/>
          </g>
        </g>
        <g id="Grupo_83765" data-name="Grupo 83765" transform="translate(55.911 150.464)">
          <g id="Grupo_83764" data-name="Grupo 83764">
            <path id="Trazado_102181" data-name="Trazado 102181" d="M360.851,417.574l-.085,30.039-7.849,4.561L353,422.135Z" transform="translate(-352.917 -417.574)" fill="#c7c7c7"/>
          </g>
        </g>
        <g id="Grupo_83767" data-name="Grupo 83767" transform="translate(44.289 153.367)">
          <g id="Grupo_83766" data-name="Grupo 83766">
            <path id="Trazado_102182" data-name="Trazado 102182" d="M348.056,450.469l.084-30.04a2.006,2.006,0,0,1,1.171-1.64l-.084,30.038A2,2,0,0,0,348.056,450.469Z" transform="translate(-348.056 -418.788)" fill="#353837"/>
          </g>
        </g>
        <g id="Grupo_83769" data-name="Grupo 83769" transform="translate(75.917 154.847)">
          <g id="Grupo_83768" data-name="Grupo 83768">
            <path id="Trazado_102183" data-name="Trazado 102183" d="M361.285,449.445q.043-15.019.086-30.038a1.62,1.62,0,0,1,.952,1.332l-.086,30.038A1.615,1.615,0,0,0,361.285,449.445Z" transform="translate(-361.285 -419.407)" fill="#c7c7c7"/>
          </g>
        </g>
        <g id="Grupo_83771" data-name="Grupo 83771" transform="translate(54.964 155.026)">
          <g id="Grupo_83770" data-name="Grupo 83770">
            <path id="Trazado_102184" data-name="Trazado 102184" d="M353.468,449.52a1.611,1.611,0,0,0-.947,1.322L352.6,420.8a1.618,1.618,0,0,1,.949-1.322C353.528,428.493,353.494,440.509,353.468,449.52Z" transform="translate(-352.521 -419.482)" fill="#c7c7c7"/>
          </g>
        </g>
        <g id="Grupo_83773" data-name="Grupo 83773" transform="translate(44.289 155.007)">
          <g id="Grupo_83772" data-name="Grupo 83772">
            <path id="Trazado_102185" data-name="Trazado 102185" d="M348.056,449.514l.084-30.04a2.023,2.023,0,0,0,1.191,1.664l-.086,30.038A2.014,2.014,0,0,1,348.056,449.514Z" transform="translate(-348.056 -419.474)" fill="#c7c7c7"/>
          </g>
        </g>
        <g id="Grupo_83775" data-name="Grupo 83775" transform="translate(105.523 154.904)">
          <g id="Grupo_83774" data-name="Grupo 83774">
            <path id="Trazado_102186" data-name="Trazado 102186" d="M374.538,451.53a3.386,3.386,0,0,1-.87-2.061q.043-15.019.086-30.038a3.358,3.358,0,0,0,.87,2.061Q374.581,436.511,374.538,451.53Z" transform="translate(-373.668 -419.431)" fill="#f8af3f"/>
          </g>
        </g>
        <g id="Grupo_83777" data-name="Grupo 83777" transform="translate(106.393 156.965)">
          <g id="Grupo_83776" data-name="Grupo 83776">
            <path id="Trazado_102187" data-name="Trazado 102187" d="M374.058,450.362l-.026-.031q.043-15.019.086-30.038l.026.031Q374.1,435.343,374.058,450.362Z" transform="translate(-374.032 -420.293)" fill="#f8af3f"/>
          </g>
        </g>
        <g id="Grupo_83779" data-name="Grupo 83779" transform="translate(75.932 156.178)">
          <g id="Grupo_83778" data-name="Grupo 83778">
            <path id="Trazado_102188" data-name="Trazado 102188" d="M362.314,419.964,362.228,450a1.608,1.608,0,0,1-.937,1.315l.086-30.038A1.608,1.608,0,0,0,362.314,419.964Z" transform="translate(-361.291 -419.964)" fill="#353837"/>
          </g>
        </g>
        <g id="Grupo_83781" data-name="Grupo 83781" transform="translate(60.493 153.11)">
          <g id="Grupo_83780" data-name="Grupo 83780">
            <path id="Trazado_102189" data-name="Trazado 102189" d="M362.767,418.68l-.085,30.039-7.849,4.561.085-30.038Z" transform="translate(-354.833 -418.68)" fill="#353837"/>
          </g>
        </g>
        <g id="Grupo_83783" data-name="Grupo 83783" transform="translate(78.942 158.682)">
          <g id="Grupo_83782" data-name="Grupo 83782">
            <path id="Trazado_102190" data-name="Trazado 102190" d="M367.116,451.6a5.039,5.039,0,0,0-4.566,0q.036-13.265.074-26.531l.01-3.507a5.045,5.045,0,0,1,4.569,0Q367.16,436.577,367.116,451.6Z" transform="translate(-362.55 -421.011)" fill="#c7c7c7"/>
          </g>
        </g>
        <g id="Grupo_83785" data-name="Grupo 83785" transform="translate(63.502 154.847)">
          <g id="Grupo_83784" data-name="Grupo 83784">
            <path id="Trazado_102191" data-name="Trazado 102191" d="M364.026,419.407l-.085,30.038-7.849,4.561.085-30.038Z" transform="translate(-356.092 -419.407)" fill="#c7c7c7"/>
          </g>
        </g>
        <g id="Grupo_83787" data-name="Grupo 83787" transform="translate(62.555 159.408)">
          <g id="Grupo_83786" data-name="Grupo 83786">
            <path id="Trazado_102192" data-name="Trazado 102192" d="M355.7,452.677l.084-30.04a1.618,1.618,0,0,1,.949-1.322l-.086,30.038A1.614,1.614,0,0,0,355.7,452.677Z" transform="translate(-355.696 -421.315)" fill="#c7c7c7"/>
          </g>
        </g>
        <g id="Grupo_83789" data-name="Grupo 83789" transform="translate(68.083 157.492)">
          <g id="Grupo_83788" data-name="Grupo 83788">
            <path id="Trazado_102193" data-name="Trazado 102193" d="M365.942,420.513l-.085,30.038-7.849,4.561.085-30.038Z" transform="translate(-358.008 -420.513)" fill="#353837"/>
          </g>
        </g>
        <g id="Grupo_83791" data-name="Grupo 83791" transform="translate(62.555 160.731)">
          <g id="Grupo_83790" data-name="Grupo 83790">
            <path id="Trazado_102194" data-name="Trazado 102194" d="M355.7,451.908l.084-30.04a1.611,1.611,0,0,0,.952,1.329,5.042,5.042,0,0,0,4.578-.007l-.086,30.038a5.042,5.042,0,0,1-4.578.007A1.607,1.607,0,0,1,355.7,451.908Z" transform="translate(-355.696 -421.868)" fill="#353837"/>
          </g>
        </g>
        <g id="Grupo_83793" data-name="Grupo 83793" transform="translate(71.092 159.229)">
          <g id="Grupo_83792" data-name="Grupo 83792">
            <path id="Trazado_102195" data-name="Trazado 102195" d="M367.2,421.24l-.085,30.038-7.849,4.561.085-30.039Z" transform="translate(-359.267 -421.24)" fill="#c7c7c7"/>
          </g>
        </g>
        <g id="Grupo_83795" data-name="Grupo 83795" transform="translate(70.146 163.791)">
          <g id="Grupo_83794" data-name="Grupo 83794">
            <path id="Trazado_102196" data-name="Trazado 102196" d="M358.871,454.508l.084-30.038a1.62,1.62,0,0,1,.947-1.322l-.084,30.038A1.613,1.613,0,0,0,358.871,454.508Z" transform="translate(-358.871 -423.148)" fill="#c7c7c7"/>
          </g>
        </g>
        <g id="Grupo_83797" data-name="Grupo 83797" transform="translate(83.508 159.229)">
          <g id="Grupo_83796" data-name="Grupo 83796">
            <path id="Trazado_102197" data-name="Trazado 102197" d="M364.46,451.278h0q.043-15.019.086-30.038h0Q364.5,436.259,364.46,451.278Z" transform="translate(-364.46 -421.24)" fill="#c7c7c7"/>
          </g>
        </g>
        <g id="Grupo_83799" data-name="Grupo 83799" transform="translate(75.674 161.874)">
          <g id="Grupo_83798" data-name="Grupo 83798">
            <path id="Trazado_102198" data-name="Trazado 102198" d="M369.117,422.347l-.085,30.038-7.849,4.561.085-30.039Z" transform="translate(-361.183 -422.347)" fill="#353837"/>
          </g>
        </g>
        <g id="Grupo_83801" data-name="Grupo 83801" transform="translate(70.146 165.113)">
          <g id="Grupo_83800" data-name="Grupo 83800">
            <path id="Trazado_102199" data-name="Trazado 102199" d="M358.871,453.739l.084-30.038a1.611,1.611,0,0,0,.952,1.329,5.043,5.043,0,0,0,4.578-.007l-.086,30.038a5.035,5.035,0,0,1-4.578.01A1.613,1.613,0,0,1,358.871,453.739Z" transform="translate(-358.871 -423.701)" fill="#353837"/>
          </g>
        </g>
        <g id="Grupo_83803" data-name="Grupo 83803" transform="translate(83.508 159.229)">
          <g id="Grupo_83802" data-name="Grupo 83802">
            <path id="Trazado_102200" data-name="Trazado 102200" d="M365.412,452.61a1.615,1.615,0,0,0-.952-1.332q.043-15.019.086-30.038a1.625,1.625,0,0,1,.952,1.332C365.471,431.585,365.438,443.6,365.412,452.61Z" transform="translate(-364.46 -421.24)" fill="#c7c7c7"/>
          </g>
        </g>
        <g id="Grupo_83805" data-name="Grupo 83805" transform="translate(83.522 160.561)">
          <g id="Grupo_83804" data-name="Grupo 83804">
            <path id="Trazado_102201" data-name="Trazado 102201" d="M365.489,421.8l-.086,30.038a1.608,1.608,0,0,1-.937,1.315l.086-30.04A1.606,1.606,0,0,0,365.489,421.8Z" transform="translate(-364.466 -421.797)" fill="#353837"/>
          </g>
        </g>
        <g id="Grupo_83807" data-name="Grupo 83807" transform="translate(78.671 163.604)">
          <g id="Grupo_83806" data-name="Grupo 83806">
            <path id="Trazado_102202" data-name="Trazado 102202" d="M370.371,423.07l-.085,30.038-7.849,4.561.085-30.038Z" transform="translate(-362.437 -423.07)" fill="#c7c7c7"/>
          </g>
        </g>
        <g id="Grupo_83809" data-name="Grupo 83809" transform="translate(77.725 168.166)">
          <g id="Grupo_83808" data-name="Grupo 83808">
            <path id="Trazado_102203" data-name="Trazado 102203" d="M362.041,456.336l.086-30.038a1.612,1.612,0,0,1,.944-1.32l-.084,30.038A1.611,1.611,0,0,0,362.041,456.336Z" transform="translate(-362.041 -424.978)" fill="#c7c7c7"/>
          </g>
        </g>
        <g id="Grupo_83811" data-name="Grupo 83811" transform="translate(77.725 169.486)">
          <g id="Grupo_83810" data-name="Grupo 83810">
            <path id="Trazado_102204" data-name="Trazado 102204" d="M362.041,455.568l.086-30.038a1.622,1.622,0,0,0,.959,1.339,5.048,5.048,0,0,0,4.581-.007l-.086,30.038a5.035,5.035,0,0,1-4.578.01A1.623,1.623,0,0,1,362.041,455.568Z" transform="translate(-362.041 -425.53)" fill="#353837"/>
          </g>
        </g>
        <g id="Grupo_83813" data-name="Grupo 83813" transform="translate(45.479 156.67)">
          <g id="Grupo_83812" data-name="Grupo 83812">
            <path id="Trazado_102205" data-name="Trazado 102205" d="M383.62,440.366l-.085,30.038-34.981-20.2.085-30.038Z" transform="translate(-348.553 -420.17)" fill="#c7c7c7"/>
          </g>
        </g>
        <g id="Grupo_83815" data-name="Grupo 83815" transform="translate(54.964 156.348)">
          <g id="Grupo_83814" data-name="Grupo 83814">
            <path id="Trazado_102206" data-name="Trazado 102206" d="M352.521,450.073l.084-30.038a1.611,1.611,0,0,0,.951,1.329,5.043,5.043,0,0,0,4.578-.007l-.086,30.038a5.043,5.043,0,0,1-4.578.007A1.607,1.607,0,0,1,352.521,450.073Z" transform="translate(-352.521 -420.035)" fill="#353837"/>
          </g>
        </g>
        <g id="Grupo_83817" data-name="Grupo 83817" transform="translate(107.937 154.777)">
          <g id="Grupo_83816" data-name="Grupo 83816">
            <path id="Trazado_102207" data-name="Trazado 102207" d="M386.878,419.414l-.084,30.038a3.011,3.011,0,0,1-1.764,2.465,9.421,9.421,0,0,1-8.564,0,3.033,3.033,0,0,1-1.788-2.5l.086-30.04a3.035,3.035,0,0,0,1.786,2.5,9.427,9.427,0,0,0,8.566,0A3.008,3.008,0,0,0,386.878,419.414Z" transform="translate(-374.678 -419.378)" fill="#4db2b3"/>
          </g>
        </g>
        <g id="Grupo_83819" data-name="Grupo 83819" transform="translate(108.023 151.289)">
          <g id="Grupo_83818" data-name="Grupo 83818">
            <path id="Trazado_102208" data-name="Trazado 102208" d="M385.038,418.945c2.379,1.375,2.391,3.591.029,4.963a9.427,9.427,0,0,1-8.566,0c-2.365-1.365-2.388-3.589-.029-4.961A9.441,9.441,0,0,1,385.038,418.945Z" transform="translate(-374.714 -417.919)" fill="#4db2b3"/>
          </g>
        </g>
        <g id="Grupo_83821" data-name="Grupo 83821" transform="translate(106.419 156.996)">
          <g id="Grupo_83820" data-name="Grupo 83820">
            <path id="Trazado_102209" data-name="Trazado 102209" d="M375.638,451.621a6.186,6.186,0,0,1-1.595-1.277q.043-15.019.086-30.038a6.184,6.184,0,0,0,1.595,1.274,12.078,12.078,0,0,0,5.688,1.437q-.043,15.019-.084,30.038A12.109,12.109,0,0,1,375.638,451.621Z" transform="translate(-374.043 -420.306)" fill="#f8af3f"/>
          </g>
        </g>
        <g id="Grupo_83823" data-name="Grupo 83823" transform="translate(114.187 159.208)">
          <g id="Grupo_83822" data-name="Grupo 83822">
            <path id="Trazado_102210" data-name="Trazado 102210" d="M377.292,451.771q.043-15.019.086-30.038a13.758,13.758,0,0,0,3.577-.5l-.086,30.038A13.747,13.747,0,0,1,377.292,451.771Z" transform="translate(-377.292 -421.231)" fill="#f8af3f"/>
          </g>
        </g>
        <g id="Grupo_83825" data-name="Grupo 83825" transform="translate(113.704 159.707)">
          <g id="Grupo_83824" data-name="Grupo 83824">
            <path id="Trazado_102211" data-name="Trazado 102211" d="M377.25,451.48l-.16,0q.04-15.019.084-30.038l.163,0Q377.293,436.461,377.25,451.48Z" transform="translate(-377.09 -421.44)" fill="#f8af3f"/>
          </g>
        </g>
        <g id="Grupo_83827" data-name="Grupo 83827" transform="translate(114.039 159.71)">
          <g id="Grupo_83826" data-name="Grupo 83826">
            <path id="Trazado_102212" data-name="Trazado 102212" d="M377.378,451.479l-.148,0q.043-15.023.086-30.038l.148,0Q377.421,436.46,377.378,451.479Z" transform="translate(-377.23 -421.441)" fill="#f8af3f"/>
          </g>
        </g>
        <g id="Grupo_83829" data-name="Grupo 83829" transform="translate(113.864 159.71)">
          <g id="Grupo_83828" data-name="Grupo 83828">
            <path id="Trazado_102213" data-name="Trazado 102213" d="M377.157,451.479q.043-15.019.086-30.038l.174,0q-.043,15.019-.086,30.038Z" transform="translate(-377.157 -421.441)" fill="#f8af3f"/>
          </g>
        </g>
        <g id="Grupo_83831" data-name="Grupo 83831" transform="translate(91.099 163.611)">
          <g id="Grupo_83830" data-name="Grupo 83830">
            <path id="Trazado_102214" data-name="Trazado 102214" d="M367.635,453.111h0q.043-15.019.084-30.038h0Q367.678,438.092,367.635,453.111Z" transform="translate(-367.635 -423.073)" fill="#c7c7c7"/>
          </g>
        </g>
        <g id="Grupo_83833" data-name="Grupo 83833" transform="translate(86.521 163.058)">
          <g id="Grupo_83832" data-name="Grupo 83832">
            <path id="Trazado_102215" data-name="Trazado 102215" d="M370.3,453.433a5.043,5.043,0,0,0-4.578-.007q.036-13.265.074-26.531l.01-3.507a5.043,5.043,0,0,1,4.578.007Q370.343,438.414,370.3,453.433Z" transform="translate(-365.72 -422.842)" fill="#c7c7c7"/>
          </g>
        </g>
        <g id="Grupo_83835" data-name="Grupo 83835" transform="translate(91.099 163.611)">
          <g id="Grupo_83834" data-name="Grupo 83834">
            <path id="Trazado_102216" data-name="Trazado 102216" d="M368.586,454.443a1.62,1.62,0,0,0-.951-1.332q.043-15.019.086-30.038a1.616,1.616,0,0,1,.949,1.332C368.646,433.416,368.613,445.432,368.586,454.443Z" transform="translate(-367.635 -423.073)" fill="#c7c7c7"/>
          </g>
        </g>
        <g id="Grupo_83837" data-name="Grupo 83837" transform="translate(101.532 164.62)">
          <g id="Grupo_83836" data-name="Grupo 83836">
            <path id="Trazado_102217" data-name="Trazado 102217" d="M373.281,425.157l-.086,30.038a2.019,2.019,0,0,0-1.2-1.662l.086-30.038A2.021,2.021,0,0,1,373.281,425.157Z" transform="translate(-371.999 -423.495)" fill="#353837"/>
          </g>
        </g>
        <g id="Grupo_83839" data-name="Grupo 83839" transform="translate(91.113 164.943)">
          <g id="Grupo_83838" data-name="Grupo 83838">
            <path id="Trazado_102218" data-name="Trazado 102218" d="M368.662,423.63l-.084,30.038a1.607,1.607,0,0,1-.937,1.315l.086-30.038A1.6,1.6,0,0,0,368.662,423.63Z" transform="translate(-367.641 -423.63)" fill="#353837"/>
          </g>
        </g>
        <g id="Grupo_83841" data-name="Grupo 83841" transform="translate(101.551 166.282)">
          <g id="Grupo_83840" data-name="Grupo 83840">
            <path id="Trazado_102219" data-name="Trazado 102219" d="M373.269,424.19l-.086,30.038a2.005,2.005,0,0,1-1.176,1.64l.086-30.038A2.009,2.009,0,0,0,373.269,424.19Z" transform="translate(-372.007 -424.19)" fill="#c7c7c7"/>
          </g>
        </g>
        <g id="Grupo_83843" data-name="Grupo 83843" transform="translate(83.265 166.257)">
          <g id="Grupo_83842" data-name="Grupo 83842">
            <path id="Trazado_102220" data-name="Trazado 102220" d="M372.292,424.18l-.085,30.038-7.849,4.561.085-30.038Z" transform="translate(-364.358 -424.18)" fill="#353837"/>
          </g>
        </g>
        <g id="Grupo_83845" data-name="Grupo 83845" transform="translate(77.809 163.058)">
          <g id="Grupo_83844" data-name="Grupo 83844">
            <path id="Trazado_102221" data-name="Trazado 102221" d="M375.45,423.395c1.265.729,1.272,1.915.017,2.647l-7.849,4.559a5.048,5.048,0,0,1-4.581.007c-1.274-.736-1.282-1.922-.014-2.659l7.849-4.562A5.043,5.043,0,0,1,375.45,423.395Z" transform="translate(-362.076 -422.842)" fill="#353837"/>
          </g>
        </g>
        <g id="Grupo_83847" data-name="Grupo 83847" transform="translate(86.162 167.923)">
          <g id="Grupo_83846" data-name="Grupo 83846">
            <path id="Trazado_102222" data-name="Trazado 102222" d="M381.045,424.876l-.085,30.038-15.39,8.944.085-30.039Z" transform="translate(-365.57 -424.876)" fill="#c7c7c7"/>
          </g>
        </g>
        <g id="Grupo_83849" data-name="Grupo 83849" transform="translate(80.46 176.866)">
          <g id="Grupo_83848" data-name="Grupo 83848">
            <path id="Trazado_102223" data-name="Trazado 102223" d="M368.973,428.617l-.086,30.038a6.284,6.284,0,0,1-5.7,0l.086-30.038A6.283,6.283,0,0,0,368.973,428.617Z" transform="translate(-363.185 -428.617)" fill="#c7c7c7"/>
          </g>
        </g>
        <g id="Grupo_83851" data-name="Grupo 83851" transform="translate(25.713 64.109)">
          <g id="Grupo_83850" data-name="Grupo 83850">
            <path id="Trazado_102224" data-name="Trazado 102224" d="M490.1,431.5c-13.238-7.643-34.638-7.643-47.79,0s-13.082,20.04.155,27.683c7.631,4.4,17.977,6.271,27.889,5.6L399.934,505.7l-59.648-34.439,154.541-89.808,59.648,34.437-54.622,31.743C500.983,441.891,497.73,435.9,490.1,431.5Zm-73.907,50.467-34.98-20.2a6.266,6.266,0,0,0-5.7,0l-15.39,8.944c-1.561.909-1.566,2.388.019,3.3l34.982,20.2a6.283,6.283,0,0,0,5.7,0l15.39-8.944c1.575-.913,1.566-2.386-.019-3.3Zm71.635-85.471,40.7,23.5,6.015-3.5-40.7-23.5-6.018,3.5Zm-53.2,72.173a13.2,13.2,0,0,0-11.983.007c-3.3,1.915-3.292,5.025.026,6.94a13.207,13.207,0,0,0,12,0c3.3-1.915,3.292-5.025-.041-6.948Zm-19.6,5.5-20.358-11.753-3.015,1.752,20.358,11.753,3.015-1.752Zm10.6-37.045a3.282,3.282,0,0,0,3.18-.758c.38-.545.132-1.143-.543-1.533a3.035,3.035,0,0,0-.787-.306,3.231,3.231,0,0,0-3.156.758c-.39.543-.141,1.15.533,1.54a2.923,2.923,0,0,0,.772.3Zm.105,16.434c-1.234.3-1.834,1.124-1.31,1.839a1.732,1.732,0,0,0,.531.457,3.793,3.793,0,0,0,2.644.308c1.234-.3,1.822-1.117,1.31-1.839a1.681,1.681,0,0,0-.524-.45,3.863,3.863,0,0,0-2.651-.315Zm55.928-29.89a3.26,3.26,0,0,0,3.168-.765c.387-.54.136-1.14-.54-1.533a3.067,3.067,0,0,0-.791-.306,3.253,3.253,0,0,0-3.168.765c-.371.543-.124,1.145.552,1.535a2.977,2.977,0,0,0,.779.3Zm-31,0c1.231-.3,1.807-1.124,1.3-1.846a1.62,1.62,0,0,0-.519-.445,3.813,3.813,0,0,0-2.659-.306c-1.219.294-1.819,1.117-1.3,1.831a1.721,1.721,0,0,0,.531.454,3.829,3.829,0,0,0,2.647.311ZM423.333,443.93c-1.332,0-2.415.629-2.422,1.408a1.25,1.25,0,0,0,.724,1,3.48,3.48,0,0,0,1.714.411c1.346,0,2.429-.636,2.424-1.408a1.227,1.227,0,0,0-.717-.99,3.554,3.554,0,0,0-1.724-.418Zm42.817-22.055c1.332,0,2.415-.629,2.422-1.408a1.219,1.219,0,0,0-.715-.99,3.525,3.525,0,0,0-1.724-.418c-1.346.007-2.427.636-2.424,1.408a1.261,1.261,0,0,0,.727,1,3.507,3.507,0,0,0,1.714.411ZM434.1,426.76a1.049,1.049,0,0,0,.012,1.987,3.773,3.773,0,0,0,3.431,0,1.049,1.049,0,0,0-.012-1.987,3.759,3.759,0,0,0-3.431,0Zm3.629,35.173a3.773,3.773,0,0,0-3.431,0,1.049,1.049,0,0,0,.01,1.987,3.779,3.779,0,0,0,3.433,0,1.049,1.049,0,0,0-.012-1.987Zm57.107-33.187a3.773,3.773,0,0,0,3.431,0,1.051,1.051,0,0,0-.01-1.989,3.778,3.778,0,0,0-3.433,0,1.05,1.05,0,0,0,.012,1.989Z" transform="translate(-340.286 -381.454)" fill="#353837"/>
          </g>
        </g>
        <g id="Grupo_83853" data-name="Grupo 83853" transform="translate(149.136 101.714)">
          <g id="Grupo_83852" data-name="Grupo 83852">
            <path id="Trazado_102225" data-name="Trazado 102225" d="M396.058,397.6a1.219,1.219,0,0,1,.715.99c-.007.779-1.09,1.408-2.422,1.408a3.506,3.506,0,0,1-1.714-.411,1.261,1.261,0,0,1-.727-1c0-.772,1.078-1.4,2.424-1.408A3.524,3.524,0,0,1,396.058,397.6Z" transform="translate(-391.91 -397.183)" fill="#c7c7c7"/>
          </g>
        </g>
        <g id="Grupo_83855" data-name="Grupo 83855" transform="translate(165.584 103.608)">
          <g id="Grupo_83854" data-name="Grupo 83854">
            <path id="Trazado_102226" data-name="Trazado 102226" d="M402.921,398.388c.677.392.928.992.54,1.532a3.26,3.26,0,0,1-3.168.765,2.979,2.979,0,0,1-.779-.3c-.677-.39-.923-.992-.552-1.535a3.253,3.253,0,0,1,3.168-.765A3.067,3.067,0,0,1,402.921,398.388Z" transform="translate(-398.79 -397.975)" fill="#c7c7c7"/>
          </g>
        </g>
        <g id="Grupo_83857" data-name="Grupo 83857" transform="translate(118.819 109)">
          <g id="Grupo_83856" data-name="Grupo 83856">
            <path id="Trazado_102227" data-name="Trazado 102227" d="M383.367,400.645a1.049,1.049,0,0,1,.012,1.987,3.774,3.774,0,0,1-3.431,0,1.049,1.049,0,0,1-.012-1.987A3.759,3.759,0,0,1,383.367,400.645Z" transform="translate(-379.229 -400.231)" fill="#c7c7c7"/>
          </g>
        </g>
        <g id="Grupo_83859" data-name="Grupo 83859" transform="translate(109.565 117.069)">
          <g id="Grupo_83858" data-name="Grupo 83858">
            <path id="Trazado_102228" data-name="Trazado 102228" d="M379.486,404.02c.674.39.923.987.543,1.533a3.282,3.282,0,0,1-3.18.758,2.92,2.92,0,0,1-.772-.3c-.674-.39-.923-1-.533-1.54a3.231,3.231,0,0,1,3.156-.758A3.032,3.032,0,0,1,379.486,404.02Z" transform="translate(-375.359 -403.606)" fill="#c7c7c7"/>
          </g>
        </g>
        <g id="Grupo_83861" data-name="Grupo 83861" transform="translate(106.338 126.585)">
          <g id="Grupo_83860" data-name="Grupo 83860">
            <path id="Trazado_102229" data-name="Trazado 102229" d="M378.155,408a1.227,1.227,0,0,1,.717.99c0,.772-1.078,1.4-2.424,1.408a3.481,3.481,0,0,1-1.714-.411,1.25,1.25,0,0,1-.725-1c.007-.779,1.09-1.408,2.422-1.408A3.553,3.553,0,0,1,378.155,408Z" transform="translate(-374.009 -407.586)" fill="#c7c7c7"/>
          </g>
        </g>
        <g id="Grupo_83863" data-name="Grupo 83863" transform="translate(109.66 136.107)">
          <g id="Grupo_83862" data-name="Grupo 83862">
            <path id="Trazado_102230" data-name="Trazado 102230" d="M379.55,411.985a1.679,1.679,0,0,1,.524.449c.512.722-.077,1.537-1.31,1.839a3.793,3.793,0,0,1-2.644-.308,1.731,1.731,0,0,1-.531-.457c-.524-.715.077-1.537,1.31-1.838A3.862,3.862,0,0,1,379.55,411.985Z" transform="translate(-375.399 -411.569)" fill="#c7c7c7"/>
          </g>
        </g>
        <g id="Grupo_83865" data-name="Grupo 83865" transform="translate(117.917 108.42)">
          <g id="Grupo_83864" data-name="Grupo 83864">
            <path id="Trazado_102231" data-name="Trazado 102231" d="M446.215,421.856c-.832,4.22-4.029,8.31-9.6,11.548a46.474,46.474,0,0,1-19.9,5.6c-9.912.674-20.257-1.193-27.889-5.6-13.238-7.643-13.307-20.04-.155-27.683s34.552-7.643,47.79,0C444.092,410.127,447.346,416.114,446.215,421.856Zm-52.038,8.437c10.266,5.927,26.853,5.927,37.053,0s10.144-15.535-.12-21.462-26.853-5.927-37.052,0-10.144,15.535.119,21.462Z" transform="translate(-378.852 -399.988)" fill="#f8af3f"/>
          </g>
        </g>
        <g id="Grupo_83867" data-name="Grupo 83867" transform="translate(125.508 112.818)">
          <g id="Grupo_83866" data-name="Grupo 83866">
            <path id="Trazado_102232" data-name="Trazado 102232" d="M426.694,406.273c10.264,5.927,10.319,15.535.12,21.462s-26.787,5.927-37.053,0-10.319-15.535-.119-21.462S416.428,400.346,426.694,406.273Zm-34.681,20.154c9.016,5.2,23.578,5.2,32.534,0s8.91-13.642-.105-18.847-23.59-5.212-32.548-.007-8.894,13.649.12,18.854Z" transform="translate(-382.027 -401.828)" fill="#d19435"/>
          </g>
        </g>
        <g id="Grupo_83869" data-name="Grupo 83869" transform="translate(128.695 114.664)">
          <g id="Grupo_83868" data-name="Grupo 83868">
            <path id="Trazado_102233" data-name="Trazado 102233" d="M422.588,406.507c-9.016-5.2-23.592-5.212-32.548-.007s-8.894,13.649.12,18.854,23.578,5.2,32.534,0S431.6,411.712,422.588,406.507Z" transform="translate(-383.36 -402.6)" fill="#f8af3f"/>
          </g>
        </g>
        <g id="Grupo_83871" data-name="Grupo 83871" transform="translate(44.374 143.736)">
          <g id="Grupo_83870" data-name="Grupo 83870">
            <path id="Trazado_102234" data-name="Trazado 102234" d="M405.336,435.644c1.585.916,1.595,2.388.019,3.3l-15.39,8.944a6.283,6.283,0,0,1-5.7,0l-34.982-20.2c-1.585-.916-1.58-2.4-.019-3.3l15.39-8.944a6.266,6.266,0,0,1,5.7,0Zm-18.268,6.2,7.849-4.559c1.255-.732,1.248-1.917-.017-2.647a5.043,5.043,0,0,0-4.578-.007l-7.849,4.562c-1.267.736-1.26,1.922.014,2.659a5.047,5.047,0,0,0,4.581-.007Zm-7.591-4.382,7.849-4.562c1.255-.729,1.248-1.915-.014-2.644a5.045,5.045,0,0,0-4.569,0l-7.849,4.562a1.4,1.4,0,0,0,0,2.651,5.042,5.042,0,0,0,4.578-.007Zm-7.591-4.382,7.849-4.559c1.255-.729,1.248-1.917-.014-2.646a5.044,5.044,0,0,0-4.569,0l-7.847,4.562c-1.267.736-1.262,1.922,0,2.651a5.042,5.042,0,0,0,4.578-.007Zm-7.591-4.382,7.849-4.562c1.255-.729,1.248-1.915-.014-2.644a5.04,5.04,0,0,0-4.566,0l-7.849,4.562c-1.267.736-1.262,1.922,0,2.651a5.042,5.042,0,0,0,4.578-.007Z" transform="translate(-348.091 -414.76)" fill="#c7c7c7"/>
          </g>
        </g>
        <g id="Grupo_83873" data-name="Grupo 83873" transform="translate(55.049 149.918)">
          <g id="Grupo_83872" data-name="Grupo 83872">
            <path id="Trazado_102235" data-name="Trazado 102235" d="M365.92,417.892c1.262.729,1.27,1.915.014,2.644l-7.849,4.562a5.042,5.042,0,0,1-4.578.007c-1.265-.729-1.269-1.915,0-2.651l7.849-4.562A5.04,5.04,0,0,1,365.92,417.892Z" transform="translate(-352.556 -417.345)" fill="#353837"/>
          </g>
        </g>
        <g id="Grupo_83875" data-name="Grupo 83875" transform="translate(77.08 145.067)">
          <g id="Grupo_83874" data-name="Grupo 83874">
            <path id="Trazado_102236" data-name="Trazado 102236" d="M385.143,427.069l-3.014,1.752-20.357-11.753,3.014-1.752Z" transform="translate(-361.771 -415.316)" fill="#f8af3f"/>
          </g>
        </g>
        <g id="Grupo_83877" data-name="Grupo 83877" transform="translate(105.606 149.888)">
          <g id="Grupo_83876" data-name="Grupo 83876">
            <path id="Trazado_102237" data-name="Trazado 102237" d="M388.153,418.767c3.333,1.922,3.338,5.033.041,6.948a13.207,13.207,0,0,1-12,0c-3.318-1.915-3.323-5.025-.026-6.94A13.2,13.2,0,0,1,388.153,418.767Zm-10.247,5.955a9.427,9.427,0,0,0,8.566,0c2.362-1.372,2.35-3.589-.029-4.963a9.449,9.449,0,0,0-8.566,0c-2.36,1.375-2.336,3.6.029,4.963Z" transform="translate(-373.703 -417.333)" fill="#f8af3f"/>
          </g>
        </g>
        <g id="Grupo_83879" data-name="Grupo 83879" transform="translate(62.64 154.3)">
          <g id="Grupo_83878" data-name="Grupo 83878">
            <path id="Trazado_102238" data-name="Trazado 102238" d="M369.1,419.725c1.262.729,1.269,1.917.014,2.647l-7.849,4.559a5.042,5.042,0,0,1-4.578.007c-1.265-.729-1.269-1.915,0-2.651l7.847-4.562A5.044,5.044,0,0,1,369.1,419.725Z" transform="translate(-355.731 -419.178)" fill="#353837"/>
          </g>
        </g>
        <g id="Grupo_83881" data-name="Grupo 83881" transform="translate(70.229 158.682)">
          <g id="Grupo_83880" data-name="Grupo 83880">
            <path id="Trazado_102239" data-name="Trazado 102239" d="M372.271,421.558c1.262.729,1.269,1.915.014,2.644l-7.849,4.562a5.043,5.043,0,0,1-4.578.007,1.4,1.4,0,0,1,0-2.651l7.849-4.562A5.045,5.045,0,0,1,372.271,421.558Z" transform="translate(-358.906 -421.011)" fill="#353837"/>
          </g>
        </g>
        <g id="Grupo_83883" data-name="Grupo 83883" transform="translate(25.629 153.918)">
          <g id="Grupo_83882" data-name="Grupo 83882">
            <path id="Trazado_102240" data-name="Trazado 102240" d="M399.983,453.456l-.085,30.038-59.647-34.437.085-30.038Z" transform="translate(-340.251 -419.018)" fill="#353837"/>
          </g>
        </g>
        <g id="Grupo_83885" data-name="Grupo 83885" transform="translate(23.454 165.476)">
          <g id="Grupo_83884" data-name="Grupo 83884">
            <path id="Trazado_102241" data-name="Trazado 102241" d="M341.8,455.323c-1.635.949-2.455,2.195-2.458,3.438l.084-30.038c0-1.243.825-2.489,2.46-3.438q-.043,15.019-.086,30.036.043-15.019.086-30.036a13.12,13.12,0,0,1,11.923,0l-.086,30.038A13.135,13.135,0,0,0,341.8,455.323Z" transform="translate(-339.341 -423.853)" fill="#f8af3f"/>
          </g>
        </g>
        <g id="Grupo_83887" data-name="Grupo 83887" transform="translate(35.472 168.281)">
          <g id="Grupo_83886" data-name="Grupo 83886">
            <path id="Trazado_102242" data-name="Trazado 102242" d="M344.368,455.064l.086-30.038a2.543,2.543,0,0,1,1.5,2.094l-.086,30.038A2.541,2.541,0,0,0,344.368,455.064Z" transform="translate(-344.368 -425.026)" fill="#d19435"/>
          </g>
        </g>
        <g id="Grupo_83889" data-name="Grupo 83889" transform="translate(26.803 167.418)">
          <g id="Grupo_83888" data-name="Grupo 83888">
            <path id="Trazado_102243" data-name="Trazado 102243" d="M342.227,455.566a2.542,2.542,0,0,0-1.485,2.078l.086-30.04a2.537,2.537,0,0,1,1.485-2.075q-.043,15.019-.084,30.036.043-15.019.084-30.036a7.911,7.911,0,0,1,7.184,0q-.043,15.019-.086,30.038h0A7.912,7.912,0,0,0,342.227,455.566Z" transform="translate(-340.742 -424.665)" fill="#d19435"/>
          </g>
        </g>
        <g id="Grupo_83891" data-name="Grupo 83891" transform="translate(37.834 166.908)">
          <g id="Grupo_83890" data-name="Grupo 83890">
            <path id="Trazado_102244" data-name="Trazado 102244" d="M347.854,457.978c0-1.262-.832-2.527-2.5-3.488q.039-13.265.077-26.531l.01-3.507c1.666.961,2.5,2.226,2.5,3.488C347.914,436.951,347.878,448.967,347.854,457.978Z" transform="translate(-345.356 -424.452)" fill="#f8af3f"/>
          </g>
        </g>
        <g id="Grupo_83893" data-name="Grupo 83893" transform="translate(0 166.65)">
          <g id="Grupo_83892" data-name="Grupo 83892">
            <path id="Trazado_102245" data-name="Trazado 102245" d="M329.531,454.382l.084-30.038c-.007,2.386,1.568,4.772,4.719,6.591l-.086,30.038C331.1,459.154,329.524,456.768,329.531,454.382Z" transform="translate(-329.531 -424.344)" fill="#f09d1d"/>
          </g>
        </g>
        <g id="Grupo_83895" data-name="Grupo 83895" transform="translate(26.803 170.358)">
          <g id="Grupo_83894" data-name="Grupo 83894">
            <path id="Trazado_102246" data-name="Trazado 102246" d="M351,425.912l-.086,30.038a2.531,2.531,0,0,1-1.478,2.068,7.93,7.93,0,0,1-7.2,0,2.54,2.54,0,0,1-1.5-2.09l.086-30.038a2.53,2.53,0,0,0,1.5,2.09,7.917,7.917,0,0,0,7.194-.007A2.523,2.523,0,0,0,351,425.912Z" transform="translate(-340.742 -425.895)" fill="#353837"/>
          </g>
        </g>
        <g id="Grupo_83897" data-name="Grupo 83897" transform="translate(23.454 170.346)">
          <g id="Grupo_83896" data-name="Grupo 83896">
            <path id="Trazado_102247" data-name="Trazado 102247" d="M356.3,425.94l-.084,30.038c0,1.241-.818,2.479-2.448,3.426a13.184,13.184,0,0,1-11.947,0c-1.659-.959-2.489-2.219-2.484-3.474l.084-30.04c0,1.258.825,2.515,2.486,3.474a13.169,13.169,0,0,0,11.947,0C355.486,428.419,356.3,427.181,356.3,425.94Z" transform="translate(-339.341 -425.89)" fill="#d19435"/>
          </g>
        </g>
        <g id="Grupo_83899" data-name="Grupo 83899" transform="translate(23.539 165.476)">
          <g id="Grupo_83898" data-name="Grupo 83898">
            <path id="Trazado_102248" data-name="Trazado 102248" d="M353.758,425.285c3.306,1.908,3.335,5,.05,6.912a13.169,13.169,0,0,1-11.947,0c-3.306-1.908-3.311-5-.026-6.912A13.12,13.12,0,0,1,353.758,425.285Zm-9.534,5.54a7.917,7.917,0,0,0,7.194-.007c1.982-1.15,1.972-3.01-.021-4.16a7.911,7.911,0,0,0-7.184,0c-1.98,1.15-1.982,3.017.012,4.167Z" transform="translate(-339.377 -423.853)" fill="#d19435"/>
          </g>
        </g>
        <g id="Grupo_83901" data-name="Grupo 83901" transform="translate(26.89 167.418)">
          <g id="Grupo_83900" data-name="Grupo 83900">
            <path id="Trazado_102249" data-name="Trazado 102249" d="M349.447,425.528c1.994,1.15,2,3.01.021,4.16a7.917,7.917,0,0,1-7.194.007c-1.994-1.15-1.992-3.017-.012-4.167A7.911,7.911,0,0,1,349.447,425.528Z" transform="translate(-340.778 -424.665)" fill="#353837"/>
          </g>
        </g>
        <g id="Grupo_83903" data-name="Grupo 83903" transform="translate(48.423 179.893)">
          <g id="Grupo_83902" data-name="Grupo 83902">
            <path id="Trazado_102250" data-name="Trazado 102250" d="M352.238,461.348c-1.633.949-2.448,2.192-2.453,3.435l.086-30.038c0-1.243.82-2.486,2.451-3.435a13.158,13.158,0,0,1,11.935.007l-.084,30.038A13.159,13.159,0,0,0,352.238,461.348Z" transform="translate(-349.785 -429.883)" fill="#f8af3f"/>
          </g>
        </g>
        <g id="Grupo_83905" data-name="Grupo 83905" transform="translate(51.775 181.833)">
          <g id="Grupo_83904" data-name="Grupo 83904">
            <path id="Trazado_102251" data-name="Trazado 102251" d="M352.665,461.594a2.518,2.518,0,0,0-1.478,2.073l.084-30.04a2.529,2.529,0,0,1,1.48-2.073q-.043,15.019-.086,30.038.043-15.019.086-30.038a7.932,7.932,0,0,1,7.194.007l-.084,30.04v0A7.929,7.929,0,0,0,352.665,461.594Z" transform="translate(-351.187 -430.695)" fill="#d19435"/>
          </g>
        </g>
        <g id="Grupo_83907" data-name="Grupo 83907" transform="translate(62.811 181.327)">
          <g id="Grupo_83906" data-name="Grupo 83906">
            <path id="Trazado_102252" data-name="Trazado 102252" d="M358.294,464c0-1.258-.827-2.518-2.491-3.479q.036-13.265.074-26.531l.01-3.507c1.664.961,2.5,2.221,2.491,3.479C358.354,442.973,358.318,454.989,358.294,464Z" transform="translate(-355.803 -430.483)" fill="#f8af3f"/>
          </g>
        </g>
        <g id="Grupo_83909" data-name="Grupo 83909" transform="translate(60.449 182.7)">
          <g id="Grupo_83908" data-name="Grupo 83908">
            <path id="Trazado_102253" data-name="Trazado 102253" d="M354.815,461.1q.043-15.023.086-30.04a2.547,2.547,0,0,1,1.5,2.1l-.086,30.038A2.539,2.539,0,0,0,354.815,461.1Z" transform="translate(-354.815 -431.057)" fill="#d19435"/>
          </g>
        </g>
        <g id="Grupo_83911" data-name="Grupo 83911" transform="translate(51.775 184.765)">
          <g id="Grupo_83910" data-name="Grupo 83910">
            <path id="Trazado_102254" data-name="Trazado 102254" d="M361.444,431.952l-.086,30.038a2.523,2.523,0,0,1-1.473,2.066,7.959,7.959,0,0,1-7.2.007,2.545,2.545,0,0,1-1.5-2.1l.084-30.04a2.553,2.553,0,0,0,1.5,2.1,7.958,7.958,0,0,0,7.2-.007A2.524,2.524,0,0,0,361.444,431.952Z" transform="translate(-351.187 -431.921)" fill="#353837"/>
          </g>
        </g>
        <g id="Grupo_83913" data-name="Grupo 83913" transform="translate(51.859 181.833)">
          <g id="Grupo_83912" data-name="Grupo 83912">
            <path id="Trazado_102255" data-name="Trazado 102255" d="M359.9,431.561c1.982,1.145,2.006,3.01.024,4.162a7.958,7.958,0,0,1-7.2.007c-1.992-1.152-2-3.024-.021-4.177A7.932,7.932,0,0,1,359.9,431.561Z" transform="translate(-351.222 -430.695)" fill="#353837"/>
          </g>
        </g>
        <g id="Grupo_83915" data-name="Grupo 83915" transform="translate(85.276 147.432)">
          <g id="Grupo_83914" data-name="Grupo 83914">
            <path id="Trazado_102256" data-name="Trazado 102256" d="M435.7,416.306l-.085,30.039L365.2,487.267l.085-30.038Z" transform="translate(-365.2 -416.306)" fill="#353837"/>
          </g>
        </g>
        <g id="Grupo_83917" data-name="Grupo 83917" transform="translate(48.423 184.756)">
          <g id="Grupo_83916" data-name="Grupo 83916">
            <path id="Trazado_102257" data-name="Trazado 102257" d="M366.748,431.967l-.084,30.038c0,1.241-.82,2.479-2.453,3.428a13.159,13.159,0,0,1-11.935.007c-1.664-.961-2.5-2.223-2.491-3.483l.086-30.04c0,1.262.827,2.525,2.491,3.486A13.158,13.158,0,0,0,364.3,435.4C365.928,434.447,366.745,433.208,366.748,431.967Z" transform="translate(-349.785 -431.917)" fill="#d19435"/>
          </g>
        </g>
        <g id="Grupo_83919" data-name="Grupo 83919" transform="translate(48.508 179.893)">
          <g id="Grupo_83918" data-name="Grupo 83918">
            <path id="Trazado_102258" data-name="Trazado 102258" d="M364.207,431.318c3.306,1.91,3.326,5,.041,6.907a13.158,13.158,0,0,1-11.935.007c-3.306-1.91-3.326-5.011-.041-6.921A13.159,13.159,0,0,1,364.207,431.318Zm-9.534,5.542a7.958,7.958,0,0,0,7.2-.007c1.982-1.152,1.958-3.017-.024-4.162a7.932,7.932,0,0,0-7.194-.007c-1.982,1.152-1.97,3.024.022,4.177Z" transform="translate(-349.821 -429.883)" fill="#d19435"/>
          </g>
        </g>
        <g id="Grupo_83921" data-name="Grupo 83921" transform="translate(74.607 141.835)">
          <g id="Grupo_83920" data-name="Grupo 83920">
            <path id="Trazado_102259" data-name="Trazado 102259" d="M461.811,413.965,461.726,444,360.737,502.691l.085-30.038Z" transform="translate(-360.737 -413.965)" fill="#f09d1d"/>
          </g>
        </g>
        <g id="Grupo_83923" data-name="Grupo 83923" transform="translate(4.718 173.242)">
          <g id="Grupo_83922" data-name="Grupo 83922">
            <path id="Trazado_102260" data-name="Trazado 102260" d="M378.854,454.39l-.085,30.039L331.5,457.14l.085-30.038Z" transform="translate(-331.505 -427.101)" fill="#f09d1d"/>
          </g>
        </g>
        <g id="Grupo_83925" data-name="Grupo 83925" transform="translate(0.084 56.566)">
          <g id="Grupo_83924" data-name="Grupo 83924">
            <path id="Trazado_102261" data-name="Trazado 102261" d="M512.448,378.3l69.95,40.385-77.235,44.885c5.57-3.237,8.767-7.328,9.6-11.548l54.622-31.743-59.648-34.437L355.2,475.65l59.648,34.439,70.419-40.923a46.474,46.474,0,0,0,19.9-5.6l-100.99,58.687c-6.235,3.625-16.358,3.625-22.622.007l-47.266-27.289c-6.266-3.617-6.3-9.48-.062-13.1L448.5,415.461ZM367.4,488.641a13.119,13.119,0,0,0-11.923,0c-3.285,1.908-3.28,5,.026,6.912a13.169,13.169,0,0,0,11.947,0c3.285-1.908,3.256-5-.05-6.912Zm24.974,14.419a13.159,13.159,0,0,0-11.935-.007c-3.285,1.91-3.266,5.011.041,6.921a13.158,13.158,0,0,0,11.935-.007c3.285-1.91,3.266-5-.041-6.907Z" transform="translate(-329.566 -378.299)" fill="#f8af3f"/>
          </g>
        </g>
        <g id="Grupo_83927" data-name="Grupo 83927" transform="translate(51.983 200.523)">
          <g id="Grupo_83926" data-name="Grupo 83926">
            <path id="Trazado_102262" data-name="Trazado 102262" d="M373.982,438.512,373.9,468.55c-6.238,3.624-16.358,3.624-22.624.007l.086-30.038C357.624,442.137,367.747,442.137,373.982,438.512Z" transform="translate(-351.274 -438.512)" fill="#f09d1d"/>
          </g>
        </g>
      </g>
    </g>
  </g>
</svg>
